<svg xmlns="http://www.w3.org/2000/svg" width="1239.939" height="602.567" viewBox="0 0 1239.939 602.567">
  <g id="Grupo_54347" data-name="Grupo 54347" transform="translate(-80.409 -135.751)">
    <g id="Rectángulo_5407" data-name="Rectángulo 5407" transform="translate(80.942 135.751)">
      <rect id="Rectángulo_5407-2" data-name="Rectángulo 5407" width="1239.406" height="599.713" transform="translate(0 0)" fill="#6ea7ce"/>
      <rect id="Rectángulo_5408" data-name="Rectángulo 5408" width="1238.406" height="598.713" transform="translate(0.5 0.5)" fill="#6ea7ce"/>
    </g>
    <g id="Grupo_54331" data-name="Grupo 54331" transform="translate(80.409 144.641)">
      <path id="Trazado_101116" data-name="Trazado 101116" d="M3118.169,353.827a13.068,13.068,0,0,0-16.021-9.7,19.236,19.236,0,0,0-23.13-10.218,23.7,23.7,0,0,0-42.564,4.14,16.255,16.255,0,0,0-24.158,14.205c0,.532.027,1.058.077,1.577Z" transform="translate(-2126.5 -274.929)" fill="#fff" opacity="0.5"/>
      <path id="Trazado_101117" data-name="Trazado 101117" d="M2013.639,998.81c-91.412,12.847-214.91,97.656-331.911,147.167v37.041l538.611,1.345v-72.834C2169.181,1055,2090.775,987.97,2013.639,998.81Z" transform="translate(-1197.93 -746.137)" fill="#45ad92"/>
      <path id="Trazado_101118" data-name="Trazado 101118" d="M2732.928,998.81c-91.412,12.847-214.91,97.656-331.911,147.167v37.041l538.611,1.345v-72.834C2888.469,1055,2810.063,987.97,2732.928,998.81Z" transform="translate(-1699.904 -746.137)" fill="#45ad92"/>
      <g id="Grupo_54313" data-name="Grupo 54313" transform="translate(1010.952 0)">
        <path id="Trazado_101119" data-name="Trazado 101119" d="M3547.951,819.734c.042-1.405,1.981-2.5,3.01-1.25s.981.4,1.98,3.09a87.224,87.224,0,0,0,11.982,21.691c9.4,12.493,18.7,18.794,29.257,25.038-4.352-9.8-7.266-20.269-7.637-30.826-.135-3.846-.061-7.836,1.584-11.367a1.327,1.327,0,0,1,2.405.315c.887,5.447-.418,9.554,1.344,19.3,4.208,23.263,20.859,47.939,36.923,65.218-3.081-29.253-4.574-62.5.935-92,.9-4.839,2.34-9.443,3.676-14.171a.882.882,0,0,1,1.7.47c-.277,1.573-2.9,21.877-3.061,23.276-2.545,22.47-2.037,47.363-.056,70.063a140.366,140.366,0,0,0,24.7-57.218c1.153-6.091,1.46-12.381,3.077-18.36.223-.824,1.583-.912,1.752,0,1.66,8.957-1.664,24.8-4.085,33.413a137.54,137.54,0,0,1-23.5,47.059c-.417.543,17.244,137.07,16.769,138.8-.8,2.916-5.879,4.961-6.667-.211-.321-2.106-10.026-85.12-14.4-123.573-1.654-.912-2.719-2.534-6.975-7.318a184.174,184.174,0,0,1-26.1-37.847c-3.908-.222-32.121-13.95-46.117-45.21-.4-.9-2.22-5.133-2.481-6.076A7.249,7.249,0,0,1,3547.951,819.734Z" transform="translate(-3511.203 -611.094)" fill="#184655"/>
        <path id="Trazado_101120" data-name="Trazado 101120" d="M3846.967,475.55q-.482-6.3-.489-12.872c0-48.764,20.7-88.3,46.228-88.3s46.229,39.531,46.229,88.3q0,6.558-.489,12.872Z" transform="translate(-3719.607 -311.176)" fill="#50bfa5"/>
        <path id="Trazado_101121" data-name="Trazado 101121" d="M3673.8,307.85q-.482-8.889-.488-18.153c0-68.771,20.7-124.521,46.228-124.521s46.229,55.75,46.229,124.521q0,9.25-.489,18.153Z" transform="translate(-3598.76 -165.176)" fill="#96d9c9"/>
        <path id="Trazado_101122" data-name="Trazado 101122" d="M3518.517,656.283q.483-6.3.489-12.872c0-48.764-20.7-88.3-46.229-88.3s-46.228,39.531-46.228,88.3q0,6.559.489,12.872Z" transform="translate(-3426.549 -437.305)" fill="#96d9c9"/>
        <path id="Trazado_101123" data-name="Trazado 101123" d="M3706.53,560.409q.612-8.889.62-18.153c0-68.771-26.238-124.521-58.6-124.521s-58.6,55.75-58.6,124.521q0,9.249.62,18.153Z" transform="translate(-3540.578 -341.431)" fill="#50bfa5"/>
        <path id="Trazado_101124" data-name="Trazado 101124" d="M3706.786,417.735c16.176,0,30.627,17.686,40.164,45.424a32.85,32.85,0,0,1,15.366-3.918c28.719,0,52,39.531,52,88.3q0,6.559-.55,12.872H3655.334q-.542-8.889-.549-18.153C3654.785,473.485,3678.066,417.735,3706.786,417.735Z" transform="translate(-3585.829 -341.431)" fill="#96d9c9"/>
      </g>
      <path id="Trazado_101125" data-name="Trazado 101125" d="M149.552,1118.726l7.777,62.85H141.775Z" transform="translate(-123.235 -830.635)" fill="#50bfa5"/>
      <path id="Trazado_101126" data-name="Trazado 101126" d="M208.975,991.276l10.211,82.522H198.764Z" transform="translate(-163.006 -741.691)" fill="#50bfa5"/>
      <g id="Grupo_54314" data-name="Grupo 54314" transform="translate(0 256.913)">
        <path id="Trazado_101127" data-name="Trazado 101127" d="M647.709,1191.87c-123.984,0-287.456-157.058-395.942-175.109-64.2-10.683-128.776,50.211-171.358,105.916v71.775l837.443-2.475a399.019,399.019,0,0,1-52.612-5.5C818.746,1178.273,771.693,1191.87,647.709,1191.87Z" transform="translate(-80.409 -1015.531)" fill="#3c8f7c"/>
        <path id="Trazado_101128" data-name="Trazado 101128" d="M2888.2,1599.194l-35.943.107C2873.667,1600.165,2888.2,1599.194,2888.2,1599.194Z" transform="translate(-2014.81 -1422.855)" fill="#86b1f2"/>
      </g>
      <path id="Trazado_101129" data-name="Trazado 101129" d="M1589.452,819.213l-10.211,82.523h20.422Z" transform="translate(-1126.406 -621.612)" fill="#50bfa5"/>
      <path id="Trazado_101130" data-name="Trazado 101130" d="M1492.766,917.927l-7.777,62.85h15.554Z" transform="translate(-1060.63 -690.503)" fill="#50bfa5"/>
      <path id="Trazado_101131" data-name="Trazado 101131" d="M1754.306,1030.669l-7.777,62.85h15.554Z" transform="translate(-1243.153 -769.182)" fill="#50bfa5"/>
      <path id="Trazado_101132" data-name="Trazado 101132" d="M1683.638,903.218l-10.211,82.523h20.422Z" transform="translate(-1192.137 -680.237)" fill="#50bfa5"/>
      <path id="Trazado_101133" data-name="Trazado 101133" d="M610.359,1056.071s122.193-196.7,168.753-205.48,86.445,71.663,86.445,71.663,21.079-18.382,53.489-11.2,206.247,170.315,206.247,170.315l-523.854-6.532Z" transform="translate(-444.022 -643.043)" fill="#45ad92"/>
      <path id="Trazado_101134" data-name="Trazado 101134" d="M94.075,1354.821s118.943-103.32,272.309-109.667c51.5-2.131,633.533,109.96,658.873,110.98Z" transform="translate(-89.946 -918.845)" fill="#50bfa5"/>
      <g id="Grupo_54315" data-name="Grupo 54315" transform="translate(261.417 337.168)">
        <path id="Trazado_101135" data-name="Trazado 101135" d="M965.78,1356.834H953.757V1286.9l6.012-5.736,6.012,5.736Z" transform="translate(-951.313 -1281.165)" fill="#fffbe3"/>
        <path id="Trazado_101136" data-name="Trazado 101136" d="M1028.228,1356.834H1016.2V1286.9l6.012-5.736,6.012,5.736Z" transform="translate(-994.894 -1281.165)" fill="#fffbe3"/>
        <path id="Trazado_101137" data-name="Trazado 101137" d="M1146.99,1356.834h-12.024V1286.9l6.012-5.736,6.012,5.736Z" transform="translate(-1077.775 -1281.165)" fill="#fffbe3"/>
        <path id="Trazado_101138" data-name="Trazado 101138" d="M1087.609,1356.834h-12.024V1286.9l6.012-5.736,6.012,5.736Z" transform="translate(-1036.335 -1281.165)" fill="#fffbe3"/>
        <path id="Trazado_101139" data-name="Trazado 101139" d="M1209.438,1356.834h-12.024V1286.9l6.012-5.736,6.012,5.736Z" transform="translate(-1121.356 -1281.165)" fill="#fffbe3"/>
        <path id="Trazado_101140" data-name="Trazado 101140" d="M1328.2,1356.834h-12.024V1286.9l6.012-5.736,6.012,5.736Z" transform="translate(-1204.237 -1281.165)" fill="#fffbe3"/>
        <path id="Trazado_101141" data-name="Trazado 101141" d="M1268.819,1356.834H1256.8V1286.9l6.012-5.736,6.012,5.736Z" transform="translate(-1162.797 -1281.165)" fill="#fffbe3"/>
        <path id="Trazado_101142" data-name="Trazado 101142" d="M1390.648,1356.834h-12.024V1286.9l6.012-5.736,6.012,5.736Z" transform="translate(-1247.818 -1281.165)" fill="#fffbe3"/>
        <path id="Trazado_101143" data-name="Trazado 101143" d="M1509.41,1356.834h-12.024V1286.9l6.012-5.736,6.012,5.736Z" transform="translate(-1330.699 -1281.165)" fill="#fffbe3"/>
        <path id="Trazado_101144" data-name="Trazado 101144" d="M1450.029,1356.834h-12.024V1286.9l6.012-5.736,6.012,5.736Z" transform="translate(-1289.258 -1281.165)" fill="#fffbe3"/>
        <path id="Trazado_101145" data-name="Trazado 101145" d="M1088.967,1358.254h-143.3v3.853H1146.4v-3.853Z" transform="translate(-945.669 -1334.963)" fill="#fffbe3"/>
        <path id="Trazado_101146" data-name="Trazado 101146" d="M1088.967,1451.812h-143.3v3.853H1146.4v-3.853Z" transform="translate(-945.669 -1400.255)" fill="#fffbe3"/>
        <path id="Trazado_101147" data-name="Trazado 101147" d="M1571.858,1356.834h-12.024V1286.9l6.012-5.736,6.012,5.736Z" transform="translate(-1374.28 -1281.165)" fill="#fffbe3"/>
      </g>
      <g id="Grupo_54317" data-name="Grupo 54317" transform="translate(24.399 248.532)">
        <path id="Trazado_101148" data-name="Trazado 101148" d="M505.587,1082.314l95.152.753,2.936-6.37L511.907,987.8l-90.17,10.5Z" transform="translate(-343.012 -987.8)" fill="#9e4233"/>
        <path id="Trazado_101149" data-name="Trazado 101149" d="M443.983,999.8l74.956-8.725,97.325,94.274-107.639-1.042Z" transform="translate(-358.537 -990.084)" fill="#b75742"/>
        <path id="Trazado_101150" data-name="Trazado 101150" d="M645.395,1263.095l-29.759,33.477,14.4,63.537,59.548-6.413,6.077-73.463Z" transform="translate(-478.329 -1179.918)" fill="#184655"/>
        <path id="Trazado_101151" data-name="Trazado 101151" d="M219.01,1434.848l101.528-11.819-14.943-73.49-101.528,11.82Z" transform="translate(-191.106 -1240.245)" fill="#eab054"/>
        <path id="Trazado_101152" data-name="Trazado 101152" d="M295.332,1439.112l36.053-4.2-11.168-49.651-36.053,4.2Z" transform="translate(-247.003 -1265.177)" fill="#082026"/>
        <path id="Trazado_101153" data-name="Trazado 101153" d="M540.108,1012.78l-6.007,8.409,82.317,78.761-3.9,75.69-38.222,4.029-6.643-57.06a24.843,24.843,0,0,0-27.55-21.8h0a24.843,24.843,0,0,0-21.8,27.549l6.58,56.523-34.625,3.65-30.818-122.644Z" transform="translate(-369.325 -1005.23)" fill="#f7cc7f"/>
        <path id="Trazado_101154" data-name="Trazado 101154" d="M314.52,1436.879l36.053-4.2L339.4,1383.03l-36.053,4.2Z" transform="translate(-260.394 -1263.618)" fill="#184655"/>
        <g id="Grupo_54316" data-name="Grupo 54316" transform="translate(115.981 17.054)" opacity="0.6" style="mix-blend-mode: multiply;isolation: isolate">
          <path id="Trazado_101155" data-name="Trazado 101155" d="M782.534,1198.122l-1.938.2-5.012-91.6-27.445-26.251,8.447,120.386-.97.1-.97.068-8.6-122.557L718.4,1052.024l6.406,71.508q-.984-.28-2-.479l-6.546-73.074-6.006-5.744.033.005,81.167,77.661-13.815-13.213Z" transform="translate(-660.343 -1044.235)" fill="#eab054"/>
          <path id="Trazado_101156" data-name="Trazado 101156" d="M642.175,1201.372a24.913,24.913,0,0,0-1.57,1.947l-12.464-57.693,1.9-.411Z" transform="translate(-603.037 -1114.707)" fill="#eab054"/>
          <path id="Trazado_101157" data-name="Trazado 101157" d="M566.309,1374.519l-1.946.2-19.312-92.572,1.906-.4Z" transform="translate(-545.051 -1209.993)" fill="#eab054"/>
        </g>
        <path id="Trazado_101158" data-name="Trazado 101158" d="M767.124,1294.311a1.154,1.154,0,1,0,1.012-1.279A1.153,1.153,0,0,0,767.124,1294.311Z" transform="translate(-584.044 -1200.806)" fill="#eab054" style="mix-blend-mode: multiply;isolation: isolate"/>
        <path id="Trazado_101159" data-name="Trazado 101159" d="M816.4,1160.77a1.154,1.154,0,1,0,1.012-1.28A1.154,1.154,0,0,0,816.4,1160.77Z" transform="translate(-618.436 -1107.609)" fill="#eab054" style="mix-blend-mode: multiply;isolation: isolate"/>
        <path id="Trazado_101160" data-name="Trazado 101160" d="M844.557,1192.567a1.153,1.153,0,1,0,1.012-1.279A1.154,1.154,0,0,0,844.557,1192.567Z" transform="translate(-638.082 -1129.8)" fill="#eab054" style="mix-blend-mode: multiply;isolation: isolate"/>
        <path id="Trazado_101161" data-name="Trazado 101161" d="M915.827,1255.859a1.153,1.153,0,1,0,1.012-1.279A1.153,1.153,0,0,0,915.827,1255.859Z" transform="translate(-687.82 -1173.971)" fill="#eab054" style="mix-blend-mode: multiply;isolation: isolate"/>
        <path id="Trazado_101162" data-name="Trazado 101162" d="M929.143,1538.984a1.154,1.154,0,1,0,1.012-1.279A1.153,1.153,0,0,0,929.143,1538.984Z" transform="translate(-697.113 -1371.556)" fill="#eab054" style="mix-blend-mode: multiply;isolation: isolate"/>
        <path id="Trazado_101163" data-name="Trazado 101163" d="M867.55,1542.312a1.154,1.154,0,1,0,1.012-1.279A1.154,1.154,0,0,0,867.55,1542.312Z" transform="translate(-654.128 -1373.879)" fill="#eab054" style="mix-blend-mode: multiply;isolation: isolate"/>
        <path id="Trazado_101164" data-name="Trazado 101164" d="M735.168,1288.422a1.153,1.153,0,1,0,1.012-1.28A1.153,1.153,0,0,0,735.168,1288.422Z" transform="translate(-561.742 -1196.695)" fill="#eab054" style="mix-blend-mode: multiply;isolation: isolate"/>
        <path id="Trazado_101165" data-name="Trazado 101165" d="M675.561,1308.813a1.154,1.154,0,1,0,1.012-1.279A1.153,1.153,0,0,0,675.561,1308.813Z" transform="translate(-520.144 -1210.926)" fill="#eab054" style="mix-blend-mode: multiply;isolation: isolate"/>
        <path id="Trazado_101166" data-name="Trazado 101166" d="M700.686,1296.279A1.154,1.154,0,1,0,701.7,1295,1.153,1.153,0,0,0,700.686,1296.279Z" transform="translate(-537.678 -1202.178)" fill="#eab054" style="mix-blend-mode: multiply;isolation: isolate"/>
        <path id="Trazado_101167" data-name="Trazado 101167" d="M643.774,1156.483a1.153,1.153,0,1,0,1.012-1.28A1.153,1.153,0,0,0,643.774,1156.483Z" transform="translate(-497.961 -1104.618)" fill="#eab054" style="mix-blend-mode: multiply;isolation: isolate"/>
        <path id="Trazado_101168" data-name="Trazado 101168" d="M718.927,1071.339a1.153,1.153,0,1,0,1.012-1.279A1.154,1.154,0,0,0,718.927,1071.339Z" transform="translate(-550.408 -1045.198)" fill="#eab054" style="mix-blend-mode: multiply;isolation: isolate"/>
        <path id="Trazado_101169" data-name="Trazado 101169" d="M648.954,1333.893a1.154,1.154,0,1,0,1.012-1.279A1.154,1.154,0,0,0,648.954,1333.893Z" transform="translate(-501.576 -1228.428)" fill="#eab054" style="mix-blend-mode: multiply;isolation: isolate"/>
        <path id="Trazado_101170" data-name="Trazado 101170" d="M638.437,1365.564a1.153,1.153,0,1,0-1.051-1.247A1.153,1.153,0,0,0,638.437,1365.564Z" transform="translate(-493.505 -1249.822)" fill="#eab054" style="mix-blend-mode: multiply;isolation: isolate"/>
        <path id="Trazado_101171" data-name="Trazado 101171" d="M637.693,1392.2a1.154,1.154,0,1,0-1.051-1.247A1.154,1.154,0,0,0,637.693,1392.2Z" transform="translate(-492.986 -1268.408)" fill="#eab054" style="mix-blend-mode: multiply;isolation: isolate"/>
        <path id="Trazado_101172" data-name="Trazado 101172" d="M559.68,1294.855a1.153,1.153,0,1,0-1.051-1.247A1.153,1.153,0,0,0,559.68,1294.855Z" transform="translate(-438.542 -1200.476)" fill="#eab054" style="mix-blend-mode: multiply;isolation: isolate"/>
        <path id="Trazado_101173" data-name="Trazado 101173" d="M538.207,1329.787a1.154,1.154,0,1,0-1.052-1.248A1.154,1.154,0,0,0,538.207,1329.787Z" transform="translate(-423.557 -1224.854)" fill="#eab054" style="mix-blend-mode: multiply;isolation: isolate"/>
        <path id="Trazado_101174" data-name="Trazado 101174" d="M512.157,1375.309a1.154,1.154,0,1,0-1.051-1.247A1.154,1.154,0,0,0,512.157,1375.309Z" transform="translate(-405.377 -1256.623)" fill="#eab054" style="mix-blend-mode: multiply;isolation: isolate"/>
        <path id="Trazado_101175" data-name="Trazado 101175" d="M462.838,1387.661a1.154,1.154,0,1,0-1.051-1.247A1.154,1.154,0,0,0,462.838,1387.661Z" transform="translate(-370.959 -1265.242)" fill="#eab054" style="mix-blend-mode: multiply;isolation: isolate"/>
        <path id="Trazado_101176" data-name="Trazado 101176" d="M430.129,1391.469a1.154,1.154,0,1,0-1.052-1.247A1.153,1.153,0,0,0,430.129,1391.469Z" transform="translate(-348.132 -1267.9)" fill="#eab054" style="mix-blend-mode: multiply;isolation: isolate"/>
        <path id="Trazado_101177" data-name="Trazado 101177" d="M389.371,1561.975a1.154,1.154,0,1,0-1.051-1.247A1.154,1.154,0,0,0,389.371,1561.975Z" transform="translate(-319.688 -1386.892)" fill="#eab054" style="mix-blend-mode: multiply;isolation: isolate"/>
        <path id="Trazado_101178" data-name="Trazado 101178" d="M398.771,1603.309a1.154,1.154,0,1,0-1.051-1.247A1.154,1.154,0,0,0,398.771,1603.309Z" transform="translate(-326.248 -1415.738)" fill="#eab054" style="mix-blend-mode: multiply;isolation: isolate"/>
        <path id="Trazado_101179" data-name="Trazado 101179" d="M317.71,1612.746a1.154,1.154,0,1,0-1.051-1.247A1.154,1.154,0,0,0,317.71,1612.746Z" transform="translate(-269.677 -1422.324)" fill="#eab054" style="mix-blend-mode: multiply;isolation: isolate"/>
        <path id="Trazado_101180" data-name="Trazado 101180" d="M260.457,1408.823a1.153,1.153,0,1,0-1.051-1.247A1.153,1.153,0,0,0,260.457,1408.823Z" transform="translate(-229.722 -1280.012)" fill="#eab054" style="mix-blend-mode: multiply;isolation: isolate"/>
        <path id="Trazado_101181" data-name="Trazado 101181" d="M216.291,1416.363a1.154,1.154,0,1,0-1.051-1.247A1.154,1.154,0,0,0,216.291,1416.363Z" transform="translate(-198.9 -1285.273)" fill="#eab054" style="mix-blend-mode: multiply;isolation: isolate"/>
        <path id="Trazado_101182" data-name="Trazado 101182" d="M258.8,1621.5a1.154,1.154,0,1,0-1.052-1.247A1.154,1.154,0,0,0,258.8,1621.5Z" transform="translate(-228.566 -1428.432)" fill="#eab054" style="mix-blend-mode: multiply;isolation: isolate"/>
        <path id="Trazado_101183" data-name="Trazado 101183" d="M495.03,1381.515a1.153,1.153,0,1,0-1.051-1.247A1.152,1.152,0,0,0,495.03,1381.515Z" transform="translate(-393.425 -1260.954)" fill="#eab054" style="mix-blend-mode: multiply;isolation: isolate"/>
        <path id="Trazado_101184" data-name="Trazado 101184" d="M548.583,1584.427a1.153,1.153,0,1,0-1.052-1.247A1.153,1.153,0,0,0,548.583,1584.427Z" transform="translate(-430.798 -1402.561)" fill="#eab054" style="mix-blend-mode: multiply;isolation: isolate"/>
        <path id="Trazado_101185" data-name="Trazado 101185" d="M493.687,1592.26a1.154,1.154,0,1,0-1.052-1.247A1.154,1.154,0,0,0,493.687,1592.26Z" transform="translate(-392.487 -1408.027)" fill="#eab054" style="mix-blend-mode: multiply;isolation: isolate"/>
        <path id="Trazado_101186" data-name="Trazado 101186" d="M567.594,1582.214a1.153,1.153,0,1,0-1.051-1.247A1.153,1.153,0,0,0,567.594,1582.214Z" transform="translate(-444.066 -1401.017)" fill="#eab054" style="mix-blend-mode: multiply;isolation: isolate"/>
        <path id="Trazado_101187" data-name="Trazado 101187" d="M662.539,1572.6a1.154,1.154,0,1,0-1.052-1.247A1.154,1.154,0,0,0,662.539,1572.6Z" transform="translate(-510.325 -1394.308)" fill="#eab054" style="mix-blend-mode: multiply;isolation: isolate"/>
        <path id="Trazado_101188" data-name="Trazado 101188" d="M625.74,1187.1a1.153,1.153,0,1,0-1.051-1.247A1.153,1.153,0,0,0,625.74,1187.1Z" transform="translate(-484.644 -1125.28)" fill="#eab054" style="mix-blend-mode: multiply;isolation: isolate"/>
        <path id="Trazado_101189" data-name="Trazado 101189" d="M797.11,1312.8a1.154,1.154,0,1,0,1.012-1.279A1.154,1.154,0,0,0,797.11,1312.8Z" transform="translate(-604.97 -1213.71)" fill="#eab054" style="mix-blend-mode: multiply;isolation: isolate"/>
        <path id="Trazado_101190" data-name="Trazado 101190" d="M819.34,1351.053a1.154,1.154,0,1,0,1.012-1.279A1.154,1.154,0,0,0,819.34,1351.053Z" transform="translate(-620.484 -1240.404)" fill="#eab054" style="mix-blend-mode: multiply;isolation: isolate"/>
        <path id="Trazado_101191" data-name="Trazado 101191" d="M951.876,1532.5a1.154,1.154,0,1,0,1.012-1.28A1.154,1.154,0,0,0,951.876,1532.5Z" transform="translate(-712.977 -1367.028)" fill="#eab054" style="mix-blend-mode: multiply;isolation: isolate"/>
        <path id="Trazado_101192" data-name="Trazado 101192" d="M945.677,1282.453a1.154,1.154,0,1,0,1.012-1.28A1.154,1.154,0,0,0,945.677,1282.453Z" transform="translate(-708.651 -1192.529)" fill="#eab054" style="mix-blend-mode: multiply;isolation: isolate"/>
        <path id="Trazado_101193" data-name="Trazado 101193" d="M744.056,1096.161a1.154,1.154,0,1,0,1.012-1.28A1.154,1.154,0,0,0,744.056,1096.161Z" transform="translate(-567.945 -1062.521)" fill="#eab054" style="mix-blend-mode: multiply;isolation: isolate"/>
        <path id="Trazado_101194" data-name="Trazado 101194" d="M401.547,1571.319l-4.514-17.185,1.953-.227,4.514,17.184Z" transform="translate(-325.771 -1382.869)" fill="#eab054" opacity="0.6" style="mix-blend-mode: multiply;isolation: isolate"/>
        <path id="Trazado_101195" data-name="Trazado 101195" d="M462.644,1434.825l-18.723-71.274,1.882-.495L464.6,1434.6Z" transform="translate(-358.494 -1249.679)" fill="#eab054" opacity="0.6" style="mix-blend-mode: multiply;isolation: isolate"/>
        <path id="Trazado_101196" data-name="Trazado 101196" d="M241.131,1380.271l1.882-.495,19.324,73.561-1.953.228Z" transform="translate(-216.972 -1261.347)" fill="#eab054" opacity="0.6" style="mix-blend-mode: multiply;isolation: isolate"/>
        <path id="Trazado_101197" data-name="Trazado 101197" d="M161.166,1387.46l.688,5.907L190,1390.091l-5.794-5.314Z" transform="translate(-161.166 -1264.837)" fill="#9e4233"/>
        <path id="Trazado_101198" data-name="Trazado 101198" d="M281.5,996.865l77.96-9.076,4.322,5.526-70.984,111.178-89.56,10.426Z" transform="translate(-190.524 -987.789)" fill="#9e4233"/>
        <path id="Trazado_101199" data-name="Trazado 101199" d="M161.166,1110.411l94.028-10.946,74.9-111.676-94.028,10.946Z" transform="translate(-161.166 -987.789)" fill="#b75742"/>
        <path id="Trazado_101200" data-name="Trazado 101200" d="M161.166,1110.411l94.028-10.946,74.9-111.676-94.028,10.946Z" transform="translate(-161.166 -987.789)" fill="#b75742"/>
        <path id="Trazado_101201" data-name="Trazado 101201" d="M328.349,1241.489l-94.585,11.777,1.437-2.142,94.585-11.778Z" transform="translate(-211.831 -1163.345)" fill="#f7cc7f" opacity="0.5"/>
        <path id="Trazado_101202" data-name="Trazado 101202" d="M368.384,1181.8,273.8,1193.579l1.437-2.142,94.585-11.777Z" transform="translate(-239.77 -1121.691)" fill="#f7cc7f" opacity="0.5"/>
        <path id="Trazado_101203" data-name="Trazado 101203" d="M408.418,1122.113l-94.585,11.778,1.437-2.142,94.585-11.778Z" transform="translate(-267.709 -1080.036)" fill="#f7cc7f" opacity="0.5"/>
        <path id="Trazado_101204" data-name="Trazado 101204" d="M448.453,1062.425,353.869,1074.2l1.437-2.142,94.585-11.778Z" transform="translate(-295.648 -1038.38)" fill="#f7cc7f" opacity="0.5"/>
        <path id="Trazado_101205" data-name="Trazado 101205" d="M288.314,1301.178l-94.585,11.777,1.437-2.142,94.585-11.778Z" transform="translate(-183.891 -1205)" fill="#f7cc7f" opacity="0.5"/>
      </g>
      <path id="Trazado_101206" data-name="Trazado 101206" d="M2260.672,1449.07c-46.727-12.46-106.918-23.909-173.624-25.406-51.5-1.156-633.533,59.647-658.873,60.2l832.5-.637Z" transform="translate(-1020.982 -1043.432)" fill="#50bfa5"/>
      <path id="Trazado_101207" data-name="Trazado 101207" d="M80.409,1529.843s375.089-71.214,938.733,0v64.67l-938.267-3.719Z" transform="translate(-80.409 -1095.455)" fill="#96d9c9"/>
      <rect id="Rectángulo_5409" data-name="Rectángulo 5409" width="1239.439" height="159.288" transform="translate(0 434.388)" fill="#96d9c9"/>
      <g id="Grupo_54318" data-name="Grupo 54318" transform="translate(230.751 380.566)">
        <path id="Trazado_101208" data-name="Trazado 101208" d="M1008.4,1829.809s-1.71,22.243-.821,23.073-4.484,6.729-5.1,8.815c0,0,4.939-4.174,7.211-4.825s11.806,2.014,20.954,1.125c0,0-6.379-.676-9.623-2.239s-6.653-1.285-6.282-1.516a23.172,23.172,0,0,1,9.6-1.134c4.777.467,10.827-2.093,10.827-2.093s-8.016.769-11.5.155-11.759,1.025-11.759,1.025l1.153-22.668Z" transform="translate(-954.652 -1707.251)" fill="#b75742"/>
        <path id="Trazado_101209" data-name="Trazado 101209" d="M1102.28,1796.275s7.755,20.3,8.32,21.375-6.456,4.868-7.727,6.632c0,0,6.041-2.306,8.4-2.17s10.476,5.8,19.4,7.99c0,0-5.8-2.746-8.341-5.294s-5.853-3.412-5.427-3.507a23.17,23.17,0,0,1,9.433,2.1c4.354,2.02,10.911,1.6,10.911,1.6s-7.82-1.924-10.907-3.656-11.436-2.921-11.436-2.921l-6.783-21.84Z" transform="translate(-1024.299 -1684.046)" fill="#b75742"/>
        <path id="Trazado_101210" data-name="Trazado 101210" d="M1063.78,1747.737s3.044,11.532,9.54,12.878,7.544,3.972,11.222.474,11.309-14.215,16.208-18.17S1067.635,1742.139,1063.78,1747.737Z" transform="translate(-997.43 -1645.579)" fill="#eb753b"/>
        <path id="Trazado_101211" data-name="Trazado 101211" d="M947.341,1463.062s-7.235,1.782-12.645,14.732-7.868,21.269-15.205,23.4-20.357.015-29.155,2.239-17.51.329-23.605-5.316-18.978-9.754-21.742-4.992,2.354,13.208,2.354,13.208-3.893,1.186.713,6.769,6.323,6.918,6.323,6.918-4.955-1.086-1.445,3.87a28.8,28.8,0,0,0,7.737,7.487s-3.5.625,2.032,5.878c0,0-2.735,4.92,4.408,4.468,0,0,.157,4.569,3.242,7.14,0,0-.089,8.718,4.871,12.6A187.031,187.031,0,0,0,896.5,1574.9c3.767,1.792,7.449,3.106,11.349.112s11.827-16.556,21.035-20.167,21.268-4.118,28.405-19.346,9.614-40.954,3.036-49.305S965.665,1457.17,947.341,1463.062Z" transform="translate(-844.17 -1450.778)" fill="#ee944c"/>
        <path id="Trazado_101212" data-name="Trazado 101212" d="M1228.463,1484.484c.208-.064,4.449-.218,8.1,5.07,0,0-8.045-.154-9.632.157s-.788-3.5-.643-3.608Z" transform="translate(-1110.612 -1466.442)" fill="#f9a653"/>
        <path id="Trazado_101213" data-name="Trazado 101213" d="M1181.808,1440.155s-3.133-4.067-6.772-2.378-1.48,5.517-.995,6.088,1.674,2.329.433,3.042-5.125-2.042-5.5-1.045,1.039,7.367,5.044,5.887.651,1.2,1.609,4.42,2.623,6.428,6.462,2.789.3-11.218.031-13.031,3.605-1.573,5.709-3.589.837-9.125-1.572-10.667-4.547-3.4-6.831-4.858-2.558-2.992-6.232-1.188-9.475-1.267-11.3,2.616-2.083,7.048.925,8.263,4.148,1.04,4.148,1.04S1175.863,1434.126,1181.808,1440.155Z" transform="translate(-1064.956 -1424.808)" fill="#b75742"/>
        <path id="Trazado_101214" data-name="Trazado 101214" d="M1021.839,1615.566s2.349,24.7-10.473,28.3S987.639,1658.6,979,1658.007s-14.738-2.545-19.891-13.038c0,0,5.691,9.822,14.727,9.854s19.425-8.469,24.657-9.976,12.142-2.292,15.506-6.046C1022.217,1629.619,1021.574,1620.46,1021.839,1615.566Z" transform="translate(-924.38 -1557.933)" fill="#eb753b"/>
      </g>
      <g id="Grupo_54319" data-name="Grupo 54319" transform="translate(381.284 447.752)">
        <path id="Trazado_101215" data-name="Trazado 101215" d="M1459.14,1973.893s-6.152,23.79-5.348,24.861-6.162,6.43-7.234,8.573c0,0,6.162-3.572,8.752-3.84s12.413,4.465,22.5,5.269c0,0-6.787-1.964-10-4.286s-6.966-2.679-6.519-2.858a25.525,25.525,0,0,1,10.627.625c5.09,1.429,12.145-.179,12.145-.179s-8.841-.715-12.5-2.054-12.949-1.161-12.949-1.161l5.629-24.357Z" transform="translate(-1415.095 -1875.187)" fill="#ee944c"/>
        <path id="Trazado_101216" data-name="Trazado 101216" d="M1588.777,1977.021s12.008,20.7,12.812,21.775-6.162,6.43-7.234,8.573c0,0,6.162-3.572,8.752-3.84s12.413,4.465,22.5,5.269c0,0-6.787-1.964-10-4.286s-6.965-2.679-6.519-2.858a25.524,25.524,0,0,1,10.627.625c5.09,1.429,12.145-.179,12.145-.179s-8.841-.714-12.5-2.054-12.949-1.161-12.949-1.161l-11.222-22.552Z" transform="translate(-1514.345 -1876.891)" fill="#ee944c"/>
        <path id="Trazado_101217" data-name="Trazado 101217" d="M1541.043,1918.736s5.342,12,12.641,12.322,8.9,2.99,12.285-1.462,9.792-17.448,14.421-22.611S1544.248,1911.97,1541.043,1918.736Z" transform="translate(-1481.033 -1827.507)" fill="#c5d0e2"/>
        <path id="Trazado_101218" data-name="Trazado 101218" d="M1421.049,1671.931c-8.407-.146-20.36-3.948-29.3-3.308-9.971.712-19.051-3.027-24.57-10.327s-18.695-14.243-22.611-9.615,0,14.777,0,14.777-4.451.534-.534,7.479,5.519,8.724,5.519,8.724-5.163-2.137-2.315,3.917a31.73,31.73,0,0,0,6.944,9.615s-3.917,0,1.068,6.765c0,0-3.917,4.807,3.917,5.7,0,0-.712,4.985,2.136,8.368,0,0-1.78,9.437,2.849,14.6a205.944,205.944,0,0,0,20.475,18.694c3.739,2.671,7.478,4.807,12.285,2.315s16.024-15.667,26.707-17.8c10.1-2.019,22.421-.548,32.763-13.162Z" transform="translate(-1342.416 -1647.187)" fill="#e9eef6"/>
        <path id="Trazado_101219" data-name="Trazado 101219" d="M1661.96,1710.7c.185-11.707,24.737-21.09,4.986-28.795,0,0-7.42-3.507-21.044,3.8s-46.516,9.836-46.516,9.836l15.069,58.437a34.038,34.038,0,0,0,10.636-3.26C1641.774,1742.669,1661.774,1722.41,1661.96,1710.7Z" transform="translate(-1521.748 -1670.831)" fill="#e9eef6"/>
        <path id="Trazado_101220" data-name="Trazado 101220" d="M1835.27,1745.312c.222.089,3.953,2.907,3.4,9.962,0,0-6.767-5.724-8.338-6.562s1.76-3.537,1.958-3.529Z" transform="translate(-1682.625 -1715.577)" fill="#ee944c"/>
        <path id="Trazado_101221" data-name="Trazado 101221" d="M1810.749,1679.306s.151-5.652-4.133-6.74-5.1,3.685-5.082,4.51-.189,3.153-1.745,2.9-2.959-5.308-3.968-4.714-4.234,7.017.217,8.537-.276,1.475-1.7,4.894-2.228,7.316,3.583,6.875,8.054-9.376,9.086-11.111,4.174,1.162,7.373.9,7.058-7.214,6.071-10.2-1.518-6.069-2.459-8.9-.105-4.335-4.5-5.347-7.214-7.67-11.473-5.621-6.679,4.573-4.954,7.7,2.821,3.773,2.821,3.773S1809.86,1670.023,1810.749,1679.306Z" transform="translate(-1657.085 -1652.568)" fill="#f47458"/>
        <path id="Trazado_101222" data-name="Trazado 101222" d="M1516.34,1768.818s-2.226,27.24-16.825,28.664-28.576,11.4-37.834,9.08-15.49-5.609-19.051-17.982c0,0,4.273,11.751,14.065,13.531s22.7-5.431,28.665-6.054,13.61-.139,17.982-3.561C1514.036,1784.129,1515.107,1774.073,1516.34,1768.818Z" transform="translate(-1412.354 -1732.07)" fill="#c5d0e2"/>
      </g>
      <g id="Grupo_54321" data-name="Grupo 54321" transform="translate(157.233 448.693)">
        <path id="Trazado_101223" data-name="Trazado 101223" d="M739.724,1666.136c.116,0,1.2,1.571,4.219,4.355a51.365,51.365,0,0,1-5.684.854c-.858-.086.063-2.924.154-2.956S739.724,1666.136,739.724,1666.136Z" transform="translate(-696.486 -1661.352)" fill="#b75742"/>
        <path id="Trazado_101224" data-name="Trazado 101224" d="M643.093,1797.633s-1.958,7.574-1.7,7.915-1.962,2.048-2.3,2.73a11.778,11.778,0,0,1,2.786-1.222c.825-.085,3.952,1.422,7.165,1.678a13.528,13.528,0,0,1-3.184-1.365,8.8,8.8,0,0,0-2.076-.91,8.151,8.151,0,0,1,3.384.2,9.5,9.5,0,0,0,3.867-.057,22.214,22.214,0,0,1-3.981-.653,17.016,17.016,0,0,0-4.123-.37l1.792-7.755Z" transform="translate(-627.53 -1753.121)" fill="#ee944c"/>
        <path id="Trazado_101225" data-name="Trazado 101225" d="M686.5,1797.868s4.106,7.079,4.38,7.445-2.107,2.2-2.473,2.932a12.646,12.646,0,0,1,2.993-1.313c.885-.092,4.244,1.527,7.694,1.8a14.5,14.5,0,0,1-3.419-1.466,9.443,9.443,0,0,0-2.229-.977,8.725,8.725,0,0,1,3.633.213,10.211,10.211,0,0,0,4.153-.061,23.854,23.854,0,0,1-4.275-.7,18.3,18.3,0,0,0-4.427-.4l-3.837-7.711Z" transform="translate(-660.615 -1753.121)" fill="#ee944c"/>
        <g id="Grupo_54320" data-name="Grupo 54320">
          <path id="Trazado_101226" data-name="Trazado 101226" d="M629.95,1652.291s-3.162,1.165-4.243,5.824-1.581,7.155-5.159,8.236-14.726,4.577-16.141,9.569a10.851,10.851,0,0,1-2.313,4.356,5,5,0,0,0-.5,5.978c1.836,2.933,5.013,6.5,9.88,7.3,8.569,1.415,4.243,5.657,16.224,2s6.739-6.324,13.312-14.061.416-13.146,3.245-19.884S640.932,1646.384,629.95,1652.291Z" transform="translate(-600.834 -1650.302)" fill="#f7cc7f"/>
          <path id="Trazado_101227" data-name="Trazado 101227" d="M650.912,1728.914a19.277,19.277,0,0,0-2.6.656,6.194,6.194,0,0,0-2.221,1.158,1.4,1.4,0,0,0-.486.824,1.2,1.2,0,0,0,.04.438,1.089,1.089,0,0,0,.08.231l.119.3a12.681,12.681,0,0,1,.693,2.738,2.39,2.39,0,0,0,.345.962,1.533,1.533,0,0,0,.677.542,8.413,8.413,0,0,0,2.308.585l1.3.162c.476.082.952.11,1.428.24a10.02,10.02,0,0,1,2.788,1.023c.438.239.833.514,1.19.744a2.164,2.164,0,0,0,.808.375,3.707,3.707,0,0,0,1.875-.711c.363-.2.724-.448,1.086-.684a3.4,3.4,0,0,0,.495-.368l.456-.373a9.966,9.966,0,0,0,.8-.869c.219-.328.443-.661.635-1.015a11.4,11.4,0,0,0,1.009-4.921,24.02,24.02,0,0,0-.62-5.293,17.279,17.279,0,0,1,1.623,5.225,11.391,11.391,0,0,1-.556,5.643,13.561,13.561,0,0,1-.678,1.336,10.357,10.357,0,0,1-.955,1.175l-.56.513a4.679,4.679,0,0,1-.563.466c-.376.276-.74.558-1.153.815a8.239,8.239,0,0,1-1.319.724,4.182,4.182,0,0,1-.819.261c-.155.029-.308.058-.466.077-.171,0-.343-.005-.514-.016a4.038,4.038,0,0,1-1.657-.65c-.4-.25-.752-.481-1.105-.668a7.973,7.973,0,0,0-2.242-.864c-.39-.119-.818-.148-1.225-.229-.433-.069-.915-.128-1.37-.213a9.949,9.949,0,0,1-2.845-.92,3.172,3.172,0,0,1-1.294-1.238,4.039,4.039,0,0,1-.449-1.593,13.412,13.412,0,0,0-.379-2.535,5.609,5.609,0,0,1-.176-.765,2.385,2.385,0,0,1,.051-.9,2.45,2.45,0,0,1,1.008-1.355,6.548,6.548,0,0,1,2.711-.924A13.519,13.519,0,0,1,650.912,1728.914Z" transform="translate(-631.229 -1702.889)" fill="#eab054"/>
        </g>
      </g>
      <g id="Grupo_54323" data-name="Grupo 54323" transform="translate(621.529 475.356)">
        <path id="Trazado_101228" data-name="Trazado 101228" d="M2230.689,1749.166c.078,0,.806,1.053,2.828,2.919a34.473,34.473,0,0,1-3.809.572c-.575-.058.042-1.96.1-1.982S2230.689,1749.166,2230.689,1749.166Z" transform="translate(-2201.711 -1745.959)" fill="#b75742"/>
        <path id="Trazado_101229" data-name="Trazado 101229" d="M2165.925,1837.3a45.544,45.544,0,0,0-1.141,5.305c.172.229-1.315,1.372-1.543,1.829a7.916,7.916,0,0,1,1.867-.819c.552-.057,2.648.953,4.8,1.124a9.062,9.062,0,0,1-2.134-.915,5.929,5.929,0,0,0-1.391-.609,5.452,5.452,0,0,1,2.268.134,6.379,6.379,0,0,0,2.592-.039,14.862,14.862,0,0,1-2.668-.438,11.413,11.413,0,0,0-2.763-.248l1.2-5.2Z" transform="translate(-2155.495 -1807.465)" fill="#ee944c"/>
        <path id="Trazado_101230" data-name="Trazado 101230" d="M2195.014,1837.455s2.752,4.745,2.936,4.991-1.412,1.473-1.658,1.965a8.486,8.486,0,0,1,2.006-.88c.593-.062,2.844,1.024,5.157,1.208a9.736,9.736,0,0,1-2.292-.982,6.365,6.365,0,0,0-1.494-.655,5.862,5.862,0,0,1,2.435.144,6.845,6.845,0,0,0,2.783-.041,15.979,15.979,0,0,1-2.865-.471,12.264,12.264,0,0,0-2.967-.266l-2.572-5.168Z" transform="translate(-2177.668 -1807.465)" fill="#ee944c"/>
        <g id="Grupo_54322" data-name="Grupo 54322">
          <path id="Trazado_101231" data-name="Trazado 101231" d="M2157.116,1739.886a5.257,5.257,0,0,0-2.844,3.9c-.725,3.123-1.059,4.8-3.458,5.52s-9.87,3.067-10.818,6.413a7.274,7.274,0,0,1-1.55,2.919,3.349,3.349,0,0,0-.332,4.007,10,10,0,0,0,6.622,4.9c5.744.947,2.844,3.792,10.874,1.338s4.517-4.238,8.922-9.424.279-8.81,2.174-13.327S2164.477,1735.927,2157.116,1739.886Z" transform="translate(-2137.601 -1738.553)" fill="#f7cc7f"/>
          <path id="Trazado_101232" data-name="Trazado 101232" d="M2171.166,1791.243a12.788,12.788,0,0,0-1.744.439,4.151,4.151,0,0,0-1.488.776.94.94,0,0,0-.326.552.812.812,0,0,0,.027.293.725.725,0,0,0,.054.155l.08.2a8.473,8.473,0,0,1,.465,1.834,1.6,1.6,0,0,0,.231.645,1.03,1.03,0,0,0,.454.363,5.652,5.652,0,0,0,1.547.393l.872.108a9.507,9.507,0,0,1,.957.161,6.71,6.71,0,0,1,1.869.685c.293.161.558.345.8.5a1.454,1.454,0,0,0,.541.251,2.48,2.48,0,0,0,1.257-.477c.243-.133.485-.3.728-.459a2.234,2.234,0,0,0,.331-.246l.306-.25a6.727,6.727,0,0,0,.534-.583c.147-.219.3-.443.426-.68a7.632,7.632,0,0,0,.676-3.3,16.062,16.062,0,0,0-.415-3.547,11.58,11.58,0,0,1,1.087,3.5,7.636,7.636,0,0,1-.372,3.783,8.952,8.952,0,0,1-.455.895,6.963,6.963,0,0,1-.64.787l-.375.345a3.04,3.04,0,0,1-.378.311c-.252.186-.5.375-.772.547a5.466,5.466,0,0,1-.885.486,2.857,2.857,0,0,1-.549.175c-.1.019-.207.039-.312.052s-.23,0-.345-.011a2.7,2.7,0,0,1-1.111-.435c-.27-.168-.5-.322-.741-.448a5.349,5.349,0,0,0-1.5-.578c-.261-.08-.549-.1-.822-.153-.29-.047-.613-.085-.918-.143a6.686,6.686,0,0,1-1.907-.616,2.127,2.127,0,0,1-.867-.83,2.711,2.711,0,0,1-.3-1.067,8.972,8.972,0,0,0-.254-1.7,3.83,3.83,0,0,1-.118-.513,1.611,1.611,0,0,1,.034-.6,1.643,1.643,0,0,1,.676-.908,4.39,4.39,0,0,1,1.817-.619A9.05,9.05,0,0,1,2171.166,1791.243Z" transform="translate(-2157.973 -1773.799)" fill="#eab054"/>
        </g>
      </g>
      <g id="Grupo_54325" data-name="Grupo 54325" transform="translate(543.569 513.472)">
        <path id="Trazado_101233" data-name="Trazado 101233" d="M2008.4,1879.4c.108,0,1.116,1.456,3.914,4.039a47.607,47.607,0,0,1-5.272.791c-.8-.079.058-2.712.142-2.742S2008.4,1879.4,2008.4,1879.4Z" transform="translate(-1968.29 -1874.964)" fill="#b75742"/>
        <path id="Trazado_101234" data-name="Trazado 101234" d="M1918.762,2001.377s-1.816,7.026-1.579,7.342-1.819,1.9-2.136,2.532a10.92,10.92,0,0,1,2.585-1.134c.765-.079,3.666,1.319,6.646,1.556a12.525,12.525,0,0,1-2.954-1.266,8.205,8.205,0,0,0-1.925-.844,7.549,7.549,0,0,1,3.139.185,8.813,8.813,0,0,0,3.587-.053,20.65,20.65,0,0,1-3.692-.606,15.8,15.8,0,0,0-3.825-.343l1.663-7.193Z" transform="translate(-1904.326 -1960.087)" fill="#ee944c"/>
        <path id="Trazado_101235" data-name="Trazado 101235" d="M1959.023,2001.6s3.808,6.566,4.063,6.905-1.954,2.04-2.294,2.719a11.719,11.719,0,0,1,2.776-1.218c.821-.085,3.937,1.416,7.137,1.671a13.45,13.45,0,0,1-3.172-1.359,8.76,8.76,0,0,0-2.067-.906,8.09,8.09,0,0,1,3.37.2,9.471,9.471,0,0,0,3.852-.057,22.126,22.126,0,0,1-3.965-.651,16.992,16.992,0,0,0-4.107-.368l-3.559-7.152Z" transform="translate(-1935.016 -1960.087)" fill="#ee944c"/>
        <g id="Grupo_54324" data-name="Grupo 54324">
          <path id="Trazado_101236" data-name="Trazado 101236" d="M1906.571,1866.559s-2.933,1.08-3.936,5.4-1.467,6.637-4.785,7.64-13.66,4.245-14.972,8.875a10.058,10.058,0,0,1-2.146,4.041,4.634,4.634,0,0,0-.459,5.545c1.7,2.721,4.649,6.03,9.164,6.775,7.949,1.313,3.936,5.249,15.049,1.853s6.251-5.865,12.348-13.043.386-12.193,3.01-18.445S1916.758,1861.079,1906.571,1866.559Z" transform="translate(-1879.563 -1864.713)" fill="#f7cc7f"/>
          <path id="Trazado_101237" data-name="Trazado 101237" d="M1926.015,1937.634a17.779,17.779,0,0,0-2.413.607,5.746,5.746,0,0,0-2.06,1.075,1.3,1.3,0,0,0-.45.764,1.115,1.115,0,0,0,.038.406,1,1,0,0,0,.074.214l.111.275a11.785,11.785,0,0,1,.643,2.54,2.234,2.234,0,0,0,.32.892,1.429,1.429,0,0,0,.628.5,7.816,7.816,0,0,0,2.141.543l1.205.15c.442.076.883.1,1.325.223a9.289,9.289,0,0,1,2.586.948c.406.222.773.477,1.1.69a2.01,2.01,0,0,0,.749.349,3.431,3.431,0,0,0,1.739-.66c.337-.183.672-.415,1.008-.634a3.155,3.155,0,0,0,.458-.341l.423-.345a9.1,9.1,0,0,0,.739-.806c.2-.3.411-.612.589-.941a10.565,10.565,0,0,0,.936-4.564,22.29,22.29,0,0,0-.575-4.909,16.015,16.015,0,0,1,1.505,4.846,10.57,10.57,0,0,1-.515,5.236,12.594,12.594,0,0,1-.629,1.238,9.62,9.62,0,0,1-.886,1.09l-.519.476a4.326,4.326,0,0,1-.523.432c-.348.256-.687.518-1.069.756a7.655,7.655,0,0,1-1.224.671,3.946,3.946,0,0,1-.76.243c-.144.026-.286.054-.432.072-.158,0-.318-.005-.476-.015a3.734,3.734,0,0,1-1.537-.6c-.373-.232-.7-.446-1.025-.621a7.4,7.4,0,0,0-2.08-.8c-.362-.11-.759-.138-1.137-.212-.4-.065-.849-.119-1.271-.2a9.227,9.227,0,0,1-2.639-.854,2.936,2.936,0,0,1-1.2-1.147,3.763,3.763,0,0,1-.416-1.478,12.374,12.374,0,0,0-.352-2.352,5.207,5.207,0,0,1-.163-.71,2.2,2.2,0,0,1,.048-.835,2.273,2.273,0,0,1,.935-1.256,6.082,6.082,0,0,1,2.514-.857A12.491,12.491,0,0,1,1926.015,1937.634Z" transform="translate(-1907.758 -1913.493)" fill="#eab054"/>
        </g>
      </g>
      <g id="Grupo_54327" data-name="Grupo 54327" transform="translate(431.855 428.431)">
        <path id="Trazado_101238" data-name="Trazado 101238" d="M1511.88,1591.035c-.057,0-.593.774-2.078,2.145a25.315,25.315,0,0,0,2.8.421c.423-.042-.031-1.44-.076-1.457S1511.88,1591.035,1511.88,1591.035Z" transform="translate(-1509.802 -1588.679)" fill="#b75742"/>
        <path id="Trazado_101239" data-name="Trazado 101239" d="M1552.766,1655.8a33.466,33.466,0,0,1,.839,3.9c-.126.168.966,1.008,1.134,1.344a5.824,5.824,0,0,0-1.372-.6c-.406-.042-1.947.7-3.529.827a6.649,6.649,0,0,0,1.569-.672,4.386,4.386,0,0,1,1.022-.448,4.022,4.022,0,0,0-1.667.1,4.677,4.677,0,0,1-1.9-.027,10.97,10.97,0,0,0,1.96-.322,8.4,8.4,0,0,1,2.031-.182l-.883-3.819Z" transform="translate(-1537.058 -1633.878)" fill="#ee944c"/>
        <path id="Trazado_101240" data-name="Trazado 101240" d="M1528.215,1655.917s-2.022,3.486-2.157,3.667,1.037,1.083,1.218,1.443a6.23,6.23,0,0,0-1.473-.646c-.436-.045-2.091.752-3.79.887a7.167,7.167,0,0,0,1.684-.721,4.627,4.627,0,0,1,1.1-.481,4.292,4.292,0,0,0-1.79.105,5.035,5.035,0,0,1-2.045-.03,11.741,11.741,0,0,0,2.105-.346,9.011,9.011,0,0,1,2.181-.2l1.89-3.8Z" transform="translate(-1517.589 -1633.878)" fill="#ee944c"/>
        <g id="Grupo_54326" data-name="Grupo 54326" transform="translate(1.647)">
          <path id="Trazado_101241" data-name="Trazado 101241" d="M1522.64,1584.217a3.862,3.862,0,0,1,2.09,2.869c.533,2.294.779,3.524,2.541,4.057s7.253,2.254,7.95,4.713a5.34,5.34,0,0,0,1.139,2.146,2.46,2.46,0,0,1,.244,2.944,7.344,7.344,0,0,1-4.866,3.6c-4.221.7-2.09,2.786-7.991.983s-3.319-3.114-6.556-6.925-.2-6.474-1.6-9.794S1517.231,1581.307,1522.64,1584.217Z" transform="translate(-1515.255 -1583.237)" fill="#f7cc7f"/>
          <path id="Trazado_101242" data-name="Trazado 101242" d="M1539.213,1621.956a9.367,9.367,0,0,1,1.281.322,3.058,3.058,0,0,1,1.094.571.69.69,0,0,1,.239.405.608.608,0,0,1-.02.217.539.539,0,0,1-.04.113l-.059.146a6.272,6.272,0,0,0-.341,1.349,1.19,1.19,0,0,1-.17.473.759.759,0,0,1-.334.266,4.14,4.14,0,0,1-1.137.289l-.64.08c-.235.04-.469.054-.7.118a4.939,4.939,0,0,0-1.374.5c-.215.118-.41.253-.586.366a1.078,1.078,0,0,1-.4.185,1.829,1.829,0,0,1-.924-.35c-.179-.1-.357-.221-.535-.338a1.706,1.706,0,0,1-.244-.181l-.224-.184a4.806,4.806,0,0,1-.392-.427c-.108-.161-.218-.326-.313-.5a5.612,5.612,0,0,1-.5-2.424,11.83,11.83,0,0,1,.305-2.607,8.51,8.51,0,0,0-.8,2.573,5.611,5.611,0,0,0,.273,2.78,6.678,6.678,0,0,0,.334.657,5.034,5.034,0,0,0,.47.579l.276.253a2.293,2.293,0,0,0,.278.229c.185.136.365.275.568.4a4.01,4.01,0,0,0,.65.356,2.077,2.077,0,0,0,.4.13c.076.014.152.028.229.038s.169,0,.253-.008a1.988,1.988,0,0,0,.816-.32c.2-.123.371-.237.544-.329a3.948,3.948,0,0,1,1.1-.425c.192-.058.4-.073.6-.112s.451-.063.675-.105a4.9,4.9,0,0,0,1.4-.454,1.556,1.556,0,0,0,.638-.609,1.994,1.994,0,0,0,.221-.785,6.623,6.623,0,0,1,.187-1.249,2.782,2.782,0,0,0,.087-.377,1.166,1.166,0,0,0-.025-.443,1.212,1.212,0,0,0-.5-.668,3.227,3.227,0,0,0-1.335-.454A6.618,6.618,0,0,0,1539.213,1621.956Z" transform="translate(-1527.181 -1609.137)" fill="#eab054"/>
        </g>
      </g>
      <g id="Grupo_54329" data-name="Grupo 54329" transform="translate(105.842 434.999)">
        <path id="Trazado_101243" data-name="Trazado 101243" d="M432.814,1612.772c-.057,0-.593.774-2.078,2.145a25.119,25.119,0,0,0,2.8.42c.423-.042-.031-1.44-.076-1.456S432.814,1612.772,432.814,1612.772Z" transform="translate(-430.736 -1610.416)" fill="#b75742"/>
        <path id="Trazado_101244" data-name="Trazado 101244" d="M473.7,1677.538a33.437,33.437,0,0,1,.839,3.9c-.126.167.966,1.008,1.134,1.344a5.8,5.8,0,0,0-1.373-.6c-.406-.042-1.947.7-3.529.826a6.683,6.683,0,0,0,1.568-.672,4.293,4.293,0,0,1,1.022-.448,3.983,3.983,0,0,0-1.667.1,4.681,4.681,0,0,1-1.9-.028,10.937,10.937,0,0,0,1.961-.322,8.393,8.393,0,0,1,2.031-.183l-.883-3.819Z" transform="translate(-457.992 -1655.615)" fill="#ee944c"/>
        <path id="Trazado_101245" data-name="Trazado 101245" d="M449.15,1677.653s-2.022,3.487-2.157,3.667,1.038,1.083,1.218,1.444a6.234,6.234,0,0,0-1.474-.646c-.436-.046-2.09.751-3.79.887a7.134,7.134,0,0,0,1.684-.722,4.663,4.663,0,0,1,1.1-.481,4.306,4.306,0,0,0-1.789.105,5.019,5.019,0,0,1-2.045-.03,11.732,11.732,0,0,0,2.105-.346,9.032,9.032,0,0,1,2.181-.2l1.89-3.8Z" transform="translate(-438.523 -1655.615)" fill="#ee944c"/>
        <g id="Grupo_54328" data-name="Grupo 54328" transform="translate(1.647)">
          <path id="Trazado_101246" data-name="Trazado 101246" d="M443.575,1605.953a3.862,3.862,0,0,1,2.09,2.869c.533,2.295.779,3.524,2.541,4.056s7.253,2.254,7.95,4.713a5.338,5.338,0,0,0,1.139,2.146,2.461,2.461,0,0,1,.244,2.944,7.341,7.341,0,0,1-4.866,3.6c-4.221.7-2.09,2.786-7.991.984s-3.319-3.115-6.556-6.925-.2-6.475-1.6-9.794S438.165,1603.044,443.575,1605.953Z" transform="translate(-436.189 -1604.973)" fill="#f7cc7f"/>
          <path id="Trazado_101247" data-name="Trazado 101247" d="M460.147,1643.692a9.435,9.435,0,0,1,1.281.322,3.068,3.068,0,0,1,1.094.57.691.691,0,0,1,.239.406.586.586,0,0,1-.02.216.534.534,0,0,1-.039.114l-.059.146a6.218,6.218,0,0,0-.341,1.348,1.176,1.176,0,0,1-.17.473.751.751,0,0,1-.334.266,4.14,4.14,0,0,1-1.137.289l-.64.079c-.235.04-.469.055-.7.119a4.926,4.926,0,0,0-1.373.5c-.216.118-.41.254-.586.367a1.073,1.073,0,0,1-.4.185,1.83,1.83,0,0,1-.924-.35c-.179-.1-.357-.221-.535-.338a1.637,1.637,0,0,1-.243-.181l-.225-.183a4.8,4.8,0,0,1-.392-.428c-.108-.161-.218-.325-.313-.5a5.61,5.61,0,0,1-.5-2.424,11.831,11.831,0,0,1,.305-2.606,8.5,8.5,0,0,0-.8,2.573,5.609,5.609,0,0,0,.274,2.779,6.621,6.621,0,0,0,.334.658,5.123,5.123,0,0,0,.47.579l.276.253a2.226,2.226,0,0,0,.278.229c.185.136.364.275.568.4a4.044,4.044,0,0,0,.65.356,2.1,2.1,0,0,0,.4.129c.076.014.152.028.23.038s.169,0,.253-.008a1.984,1.984,0,0,0,.816-.32c.2-.123.371-.236.545-.33a3.94,3.94,0,0,1,1.1-.425c.192-.059.4-.073.6-.112s.451-.063.675-.105a4.933,4.933,0,0,0,1.4-.453,1.562,1.562,0,0,0,.637-.61,1.991,1.991,0,0,0,.221-.785,6.579,6.579,0,0,1,.187-1.249,2.72,2.72,0,0,0,.086-.377,1.176,1.176,0,0,0-.025-.443,1.207,1.207,0,0,0-.5-.667,3.234,3.234,0,0,0-1.335-.455A6.642,6.642,0,0,0,460.147,1643.692Z" transform="translate(-448.116 -1630.874)" fill="#eab054"/>
        </g>
      </g>
      <path id="Trazado_101248" data-name="Trazado 101248" d="M143.965,1734.154c7.8-16.7,1.388-36.192-14.332-43.539-6.238-2.915-13.806.093-16.9,6.719l-4,9.015c-3.394,7.261-8.008,10.525-12.388,11.8a36.465,36.465,0,0,0-15.914,9.588l-.015,94.908s20.513-7.683,25.222-17.759l5.395-7.014c2.053-4.392,5.765-.579,9.95-1.731a25.9,25.9,0,0,0,16.53-14l3.008-6.437a13.7,13.7,0,0,0-1.008-13.737,15.507,15.507,0,0,1-1.247-15.6Z" transform="translate(-80.409 -1228.965)" fill="#50bfa5"/>
      <path id="Trazado_101249" data-name="Trazado 101249" d="M80.409,1941.132s44.651-52.772,70.2-61.044,1.47,24.581,1.47,24.581,45.327-49.563,61.96-45.094c15.247,4.1,0,34.817,0,34.817s17.173-17.012,38-17.012-16.1,63.7-16.1,63.7Z" transform="translate(-80.409 -1347.456)" fill="#3c8f7c"/>
      <path id="Trazado_101250" data-name="Trazado 101250" d="M522.712,1976.793s27.755-74.223,62.127-65.639c27.854,6.956,8.051,44.3,9.749,42.6s16.638-27.046,40.81-27.046-7.421,34.211-7.421,34.211,51.5-16.083,55.535.806c3.347,14.017-15.372,15.065-15.372,15.065Z" transform="translate(-389.081 -1383.168)" fill="#50bfa5"/>
      <path id="Trazado_101251" data-name="Trazado 101251" d="M3138.4,1431.708s16.027,28.15,14.421,30.321-24.5,38.276-26.534,32.335-12.089-44.789-10.718-47.53S3138.4,1431.708,3138.4,1431.708Z" transform="translate(-2198.481 -1049.057)" fill="#f7a491"/>
      <path id="Trazado_101252" data-name="Trazado 101252" d="M3233.837,570.255c-11.381,28.377-72.372,30.621-136.228,5.011s-106.394-69.375-95.013-97.753,72.373-30.621,136.228-5.011S3245.218,541.878,3233.837,570.255Z" transform="translate(-2118.445 -367.208)" fill="#b75742"/>
      <path id="Trazado_101253" data-name="Trazado 101253" d="M3614.742,1105.99s-22.451-88.73-40.11-111.2-60.06-28.168-75.2-7.9,55.663,133.084,55.663,133.084Z" transform="translate(-2464.975 -729.92)" fill="#f7cc7f"/>
      <path id="Trazado_101254" data-name="Trazado 101254" d="M3152.974,486.155c6.123-47.919,48.448-83.328,94.2-61.3,10.289,4.954,24.307,15.178,31.55,24.009,19.579,23.868,25.187,53.815,45.373,76.959a193.547,193.547,0,0,1-25.846,17.342L3285.638,527.2l4.71,20.2c-29.958,15.273-72.48,28.319-131.059,29.453C3151.1,543.875,3149.708,511.717,3152.974,486.155Z" transform="translate(-2223.534 -341.727)" fill="#184655"/>
      <path id="Trazado_101255" data-name="Trazado 101255" d="M3110.166,1084.026c23.935-72.606,54.44-71.035,54.44-71.035l-24.439,154.167c-14.78-4.042-34.025-13.037-48.789-17.207C3096.273,1127,3104.271,1101.907,3110.166,1084.026Z" transform="translate(-2181.689 -756.844)" fill="#eab054"/>
      <path id="Trazado_101256" data-name="Trazado 101256" d="M3300.381,1186.667c.031-.627.074-1.231.147-1.787,3.172-24.257,59.319-175.021,41.873-194.081s-61.544-16.244-61.544-16.244-55.061,6.929-61.405,13.861-32.78,77.393-35.952,94.72c-1.435,7.839-4.753,56.858-7.957,108.193C3210.514,1188.875,3256.5,1186.815,3300.381,1186.667Z" transform="translate(-2240.426 -729.919)" fill="#f7cc7f"/>
      <path id="Trazado_101257" data-name="Trazado 101257" d="M3384.432,777.14s.229,1.3.639,3.516c1.966,10.626,9.538,45.877,14.653,55.568,6.181,11.712-21.163,49.064-47.48,44.5-7.834-1.357,6.622-34.319,5.927-37.811-1.33-6.684-3.133-15.8-4.978-25.151-1.041-5.274-2.1-10.621-3.086-15.647-2.814-14.283-5.111-25.964-5.111-25.964Z" transform="translate(-2358.683 -591.563)" fill="#f7a491"/>
      <path id="Trazado_101258" data-name="Trazado 101258" d="M3385.07,780.657c-.41-2.216-.639-3.517-.639-3.517L3345,776.155s2.3,11.681,5.111,25.964c.985,5,2.033,10.314,3.069,15.559,6.088-.9,12.45-3.866,18.829-9.462a49.862,49.862,0,0,0,14.263-21.26C3385.781,784.457,3385.375,782.3,3385.07,780.657Z" transform="translate(-2358.683 -591.563)" fill="#f47458"/>
      <path id="Trazado_101259" data-name="Trazado 101259" d="M3276.472,496.406s18.527-2.619,30.555,12.188,25.755,61.184-2.542,87.3-57.608-1.9-62.613-32.265S3234.292,496.365,3276.472,496.406Z" transform="translate(-2284.825 -396.208)" fill="#f7a491"/>
      <path id="Trazado_101260" data-name="Trazado 101260" d="M3283,1183.807c.614-4.693,3.215-14.134,6.878-26.427a32.643,32.643,0,0,1-19.585-4.706c-24.641-15.081,2.38-132.741,13.957-179.32-4.557-.435-8.3-.822-12.828,0-4.4,25.943-21.981,88.724-21.981,88.724-9.6,1.371-62.383,3.742-62.928-2.384-.718-8.084,27.17-77.252,27.194-77.308-6.993,1.768-9.588,1.906-11.34,3.819-6.344,6.93-33.223,78.532-36.4,95.859s-15.544,240.46-15.544,240.46h169.61S3279.83,1208.063,3283,1183.807Z" transform="translate(-2222.9 -728.847)" fill="#355389"/>
      <path id="Trazado_101261" data-name="Trazado 101261" d="M3213.51,679.917c3.622,6.642,9.513,10.223,13.157,8s3.661-9.415.039-16.057-9.514-10.224-13.159-8S3209.887,673.274,3213.51,679.917Z" transform="translate(-2265.034 -512.734)" fill="#f7a491"/>
      <path id="Trazado_101262" data-name="Trazado 101262" d="M3355.356,478.871s25.941,43.78,43.752,45.385,20.736,25.142,20.736,25.142-7.715-54.208-25.561-64.251S3355.356,478.871,3355.356,478.871Z" transform="translate(-2365.913 -383.613)" fill="#184655"/>
      <ellipse id="Elipse_4084" data-name="Elipse 4084" cx="14.522" cy="9.293" rx="14.522" ry="9.293" transform="translate(1026.728 166.636) rotate(-81.927)" fill="#f7a491"/>
      <path id="Trazado_101263" data-name="Trazado 101263" d="M3340.73,773.469l23.123-5.265s1.467,8.9-8.635,11.512C3342.9,782.9,3340.73,773.469,3340.73,773.469Z" transform="translate(-2355.706 -586.014)" fill="#fff"/>
      <path id="Trazado_101264" data-name="Trazado 101264" d="M3151.2,472.5c-58.91-23.626-115.381-23.546-132.711-1.11,21.674-17.083,73.571-15.327,127.514,6.308,63.855,25.609,106.394,69.375,95.013,97.753a25.567,25.567,0,0,1-3.517,6.121,27.365,27.365,0,0,0,8.714-11.318C3257.6,541.879,3215.057,498.114,3151.2,472.5Z" transform="translate(-2130.824 -367.209)" fill="#eab054"/>
      <path id="Trazado_101265" data-name="Trazado 101265" d="M3283.844,399.3c24.4,9.785,45.677,22.221,62.032,35.435a75.982,75.982,0,0,0-137.32-53.081C3230.86,382.736,3257.1,388.575,3283.844,399.3Z" transform="translate(-2263.465 -294.007)" fill="#eab054"/>
      <path id="Trazado_101266" data-name="Trazado 101266" d="M3221.247,409.616a76.479,76.479,0,0,0-12.69,13.8c22.3,1.081,48.544,6.92,75.288,17.646,24.4,9.785,45.677,22.221,62.032,35.435a76.6,76.6,0,0,0,.541-8.967q0-3-.23-5.943C3307.846,425.151,3251.981,413.39,3221.247,409.616Z" transform="translate(-2263.465 -335.765)" fill="#355389"/>
      <path id="Trazado_101267" data-name="Trazado 101267" d="M2591.061,1280.519h141.8a9.681,9.681,0,0,1,8.557,6.5l59.8,188.446c1.139,3.587-.847,6.5-4.435,6.5h-141.8a9.68,9.68,0,0,1-8.558-6.5l-59.8-188.446C2585.488,1283.428,2587.474,1280.519,2591.061,1280.519Z" transform="translate(-1829.212 -943.546)" fill="#184655"/>
      <path id="Trazado_101268" data-name="Trazado 101268" d="M2716.463,1742.18c-1.769-3.507-3.153-12.531-4.1-15.594-.477-1.536-1.081-3.621-1.51-5.56a5.17,5.17,0,0,1,3.149-5.9c3.243-1.293,7.666-3.113,9.206-3.031,2.388.128,5.683,5.179,5.4,7.229,0,0,.179.534,1.384.7a7.077,7.077,0,0,1,4.151,3.422c.581,1.477.492,4.4-1.416,5.381,0,0-.813.684-.742,1.062s1.734,1.971,2.218,3.906-.368,3.869-3.3,5.531c0,0,5.565,5.212-.668,8.7l-2.86,1.6a6.06,6.06,0,0,1-8.313-2.451C2718.1,1745.346,2717.122,1743.486,2716.463,1742.18Z" transform="translate(-1916.044 -1244.728)" fill="#f7a491"/>
      <path id="Trazado_101269" data-name="Trazado 101269" d="M3054.066,1510.572c.934-.858.768-1.42.768-1.42-1.466-1.584-1.66-7.868.305-9.4s12.581-3.287,13.511-3.98,2.513-2.158,4.044-2.429,12.256-5.862,14.426-6.248,9.659,2.5,14.1,3.026,11.471,4.545,13.484,5.5c1.5.715,30.658-3.975,38.187-5.091,8.174-1.213,14.442-2.646,14.442-2.646s47.454-12.375,97.315-21.565l-13.481-40.4,46.677-10.98c5.77,23.124,18.306,58.956,19.9,70,3.127,21.721-71.469,27.618-137.608,31.761h0c-7.274.455-14.135.847-20.4,1.184-8.5.782-22.608,3.236-29.121,4.328h0c-4.051,1.036-9.6,2.506-10.261,2.953-1.058.715-8.429,2.946-9.067,3.058a27.4,27.4,0,0,0-4.15,2.581c-1.058.714-16.081,2.856-18.506,3.286s-7.975-.427-7.975-.427l-10.091,1c-7.41.737-5.759-7.04-5.759-7.04-3.5.324-5.379-.823-6.119-2.765s-.27-4.3-.433-4.662-1.268-.467-1.268-.467c-2.219.3-4.034-2.146-4.419-3.757A7.377,7.377,0,0,1,3054.066,1510.572Z" transform="translate(-2154.536 -1037.354)" fill="#f7a491"/>
      <g id="Grupo_54330" data-name="Grupo 54330" transform="translate(537.797 336.909)">
        <path id="Trazado_101270" data-name="Trazado 101270" d="M2035.149,1547.3s4.053,15.673,3.524,16.379,4.06,4.236,4.765,5.648c0,0-4.059-2.354-5.766-2.53s-8.177,2.942-14.826,3.471c0,0,4.471-1.295,6.589-2.824s4.589-1.766,4.295-1.883a16.82,16.82,0,0,0-7,.412c-3.354.942-8-.117-8-.117s5.824-.471,8.236-1.354,8.531-.765,8.531-.765l-3.709-16.046Z" transform="translate(-1970.911 -1466.633)" fill="#ee944c"/>
        <path id="Trazado_101271" data-name="Trazado 101271" d="M1941.255,1549.358s-7.911,13.639-8.441,14.346,4.06,4.236,4.766,5.648c0,0-4.06-2.354-5.766-2.531s-8.178,2.942-14.826,3.472c0,0,4.471-1.295,6.589-2.824s4.589-1.765,4.3-1.882a16.815,16.815,0,0,0-7,.411c-3.353.941-8-.118-8-.118s5.825-.47,8.237-1.353,8.531-.765,8.531-.765l7.394-14.856Z" transform="translate(-1897.035 -1467.755)" fill="#ee944c"/>
        <path id="Trazado_101272" data-name="Trazado 101272" d="M1977.835,1510.959s-3.519,7.908-8.328,8.118-5.865,1.969-8.093-.963-6.451-11.495-9.5-14.9S1975.723,1506.5,1977.835,1510.959Z" transform="translate(-1924.114 -1435.221)" fill="#933b2c"/>
        <path id="Trazado_101273" data-name="Trazado 101273" d="M1892.331,1306.953s5.4.352,10.909,8.915,8.327,14.193,13.841,14.779,14.544-2.58,21.113-2.112,12.551-1.994,16.187-6.8,12.316-9.384,14.9-6.334,0,9.736,0,9.736,2.932.352.352,4.927a38.86,38.86,0,0,1-3.636,5.747s3.4-1.407,1.525,2.581a20.9,20.9,0,0,1-4.574,6.333s2.58,0-.7,4.457c0,0,2.58,3.167-2.58,3.754a7.8,7.8,0,0,1-1.408,5.513s1.173,6.217-1.876,9.618a135.685,135.685,0,0,1-13.489,12.316c-2.463,1.76-4.926,3.167-8.093,1.525s-10.557-10.322-17.594-11.729-15.717-.235-22.755-10.2-12.082-28.033-8.446-34.837S1878.491,1305.076,1892.331,1306.953Z" transform="translate(-1877.435 -1298.777)" fill="#b75742"/>
        <path id="Trazado_101274" data-name="Trazado 101274" d="M1865.6,1327.167c-.156-.019-3.207.411-5.141,4.653,0,0,5.727-1.134,6.9-1.115s.117-2.6,0-2.658Z" transform="translate(-1860.459 -1313.009)" fill="#b75742"/>
        <path id="Trazado_101275" data-name="Trazado 101275" d="M1866.283,1292.412s1.72-3.3,4.536-2.561,1.76,3.753,1.485,4.223-.9,1.876.078,2.228,3.4-2.111,3.792-1.447.2,5.4-2.854,4.848-.313.938-.587,3.363-1.055,4.926-4.261,2.815-1.642-7.976-1.681-9.306-2.776-.665-4.536-1.837-1.759-6.413-.234-7.82,2.815-3.01,4.261-4.339,1.447-2.464,4.3-1.642,6.607-2.112,8.406.43,2.385,4.77.391,6.021a6.863,6.863,0,0,1-2.831,1.271S1869.763,1287.349,1866.283,1292.412Z" transform="translate(-1860.771 -1280.307)" fill="#f47458"/>
        <path id="Trazado_101276" data-name="Trazado 101276" d="M1942.375,1412.193s1.467,17.946,11.084,18.884,18.826,7.507,24.925,5.982,10.2-3.695,12.551-11.847c0,0-2.815,7.742-9.266,8.915s-14.955-3.578-18.885-3.988-8.966-.092-11.847-2.346C1943.894,1422.28,1943.187,1415.655,1942.375,1412.193Z" transform="translate(-1917.626 -1372.347)" fill="#933b2c"/>
      </g>
      <path id="Trazado_101277" data-name="Trazado 101277" d="M1392.127,1054.757l-36.154,33.108s14.593-30.229,27.643-48.076C1383.616,1039.788,1390.287,1050.528,1392.127,1054.757Z" transform="translate(-970.593 -775.546)" fill="#206654"/>
    </g>
    <path id="Trazado_101278" data-name="Trazado 101278" d="M2046.068,315.047a22.085,22.085,0,0,0-27.072-16.4,32.507,32.507,0,0,0-39.086-17.266,40.042,40.042,0,0,0-71.924,7,27.467,27.467,0,0,0-40.822,24c0,.9.047,1.788.131,2.665Z" transform="translate(-1246.932 -88.117)" fill="#fff" opacity="0.5"/>
    <path id="Trazado_101279" data-name="Trazado 101279" d="M511.005,538.389a10.633,10.633,0,0,1,13.037-7.9,15.653,15.653,0,0,1,18.822-8.315,19.282,19.282,0,0,1,34.636,3.369,13.227,13.227,0,0,1,19.658,11.559c0,.433-.022.861-.063,1.283Z" transform="translate(-300.502 -263.169)" fill="#fff" opacity="0.5"/>
    <path id="Trazado_101280" data-name="Trazado 101280" d="M2073.717,897.373a13.068,13.068,0,0,0-16.021-9.7,19.236,19.236,0,0,0-23.131-10.218A23.7,23.7,0,0,0,1992,881.59a16.255,16.255,0,0,0-24.158,14.205c0,.532.027,1.058.077,1.577Z" transform="translate(-1317.193 -509.615)" fill="#fff" opacity="0.5"/>
    <path id="Trazado_101281" data-name="Trazado 101281" d="M417.36,776.383a17.65,17.65,0,0,0-21.636-13.106,25.978,25.978,0,0,0-31.238-13.8A32,32,0,0,0,307,755.068a21.953,21.953,0,0,0-32.626,19.184c0,.719.037,1.429.1,2.13Z" transform="translate(-135.366 -417.503)" fill="#fff" opacity="0.5"/>
  </g>
</svg>
