<svg xmlns="http://www.w3.org/2000/svg" xmlns:xlink="http://www.w3.org/1999/xlink" width="66" height="66" viewBox="0 0 66 66">
  <defs>
    <clipPath id="clip-path">
      <rect id="Rectángulo_5410" data-name="Rectángulo 5410" width="66" height="66" transform="translate(835 6315)" fill="#12263f" stroke="#707070" stroke-width="1"/>
    </clipPath>
  </defs>
  <g id="Enmascarar_grupo_45" data-name="Enmascarar grupo 45" transform="translate(-835 -6315)" clip-path="url(#clip-path)">
    <g id="gallina" transform="translate(835 6315)">
      <path id="Trazado_101288" data-name="Trazado 101288" d="M63.069,7.454l-.889-.068c.024-.086.117-.364.136-.416a4.25,4.25,0,0,0,.32-1.494,3.91,3.91,0,0,0-3.076-3.819A3.784,3.784,0,0,0,56.264,0a3.911,3.911,0,0,0-3.782,4.846,12.124,12.124,0,0,0-1.218.384,12.552,12.552,0,0,0-3.532,2.052A17.381,17.381,0,0,0,43.978,11.7a27.038,27.038,0,0,0-2.257,4.75,32.64,32.64,0,0,0-1.33,4.7L30.078,25.674c.089-1.665.134-3.274.134-4.782,0-5.756-.646-10.342-1.914-13.634a9.268,9.268,0,0,0-3.1-4.505A6.409,6.409,0,0,0,23.427,1.9a6.636,6.636,0,0,0-1.921-.289,5.788,5.788,0,0,0-2.38.494A4.811,4.811,0,0,0,17.16,3.711c-.175.253-.686,1.262-.812,1.539A5.487,5.487,0,0,0,14.7,5h0A5.534,5.534,0,0,0,9.221,9.764a5.527,5.527,0,0,0-2.93,1.952,5.561,5.561,0,0,0-.614,5.812,5.55,5.55,0,0,0-1.954,9.562A5.538,5.538,0,0,0,1.74,31.343a5.63,5.63,0,0,0,.944,3.182,4.746,4.746,0,0,0,2.047,1.736,51.575,51.575,0,0,1,9.025,5.212c1.476,1.036,2.814,2.068,3.87,2.982a25.96,25.96,0,0,1,1.959,1.986,15.419,15.419,0,0,0,3.551,5.749,16.111,16.111,0,0,0,3.438,2.644A18.255,18.255,0,0,0,29.85,56.3a18.642,18.642,0,0,0,1.954.541l-1.476,4.949L27.5,62.7a1.289,1.289,0,1,0,.786,2.455l3.238-1.036,5.916.439a1.289,1.289,0,0,0,.191-2.571l-4.568-.339L34.5,56.818,40.117,54.9a5.364,5.364,0,0,0,.472,1.1,4.784,4.784,0,0,0,2.485,2.09,6.079,6.079,0,0,0,1.8.372l2.353,4.384-2,.64a1.289,1.289,0,1,0,.785,2.455L49.247,64.9l5.916.439a1.289,1.289,0,0,0,.191-2.571l-5.46-.406L47.121,57.2l7.426-12.441a12.9,12.9,0,0,0,3.166-2.3A12.57,12.57,0,0,0,59.9,39.517a1.289,1.289,0,1,0-2.265-1.23,10.045,10.045,0,0,1-4.568,4.327,1.275,1.275,0,0,0-.543.5l-7.62,12.766a3.171,3.171,0,0,1-1.36-.419,2.08,2.08,0,0,1-.722-.748,3.609,3.609,0,0,1-.415-1.595c0-.062-.6-4.27-.6-4.27a1.289,1.289,0,1,0-2.553.361l.44,3.111L33.315,54.5a15.617,15.617,0,0,1-4.6-1.444,13.646,13.646,0,0,1-3.8-2.73A12.977,12.977,0,0,1,21.97,45.45a10.738,10.738,0,0,0-1.161-1.543,44.4,44.4,0,0,0-6.741-5.348A51.306,51.306,0,0,0,5.718,33.88a2.18,2.18,0,0,1-.9-.8,3.082,3.082,0,0,1-.5-1.74A2.965,2.965,0,0,1,7.2,28.381a12.417,12.417,0,0,1,6.82,3.5,1.289,1.289,0,1,0,1.875-1.769,15,15,0,0,0-8.484-4.308s-3.088-.447-3.088-2.971a2.963,2.963,0,0,1,2.946-2.964,2.911,2.911,0,0,1,.757.1,21.283,21.283,0,0,1,6.939,5.363,1.289,1.289,0,0,0,2.049-1.565A23.778,23.778,0,0,0,9.093,17.63a2.967,2.967,0,0,1,1.1-5.44c1.274.731,6.074,3.734,7.834,8.394a1.289,1.289,0,1,0,2.412-.911c-1.954-5.174-6.82-8.455-8.667-9.549a2.962,2.962,0,0,1,2.915-2.55,2.881,2.881,0,0,1,1.6.478l.015.009.008.005c.04.025,4.018,2.576,5.592,8.875a1.289,1.289,0,0,0,2.5-.625,18.434,18.434,0,0,0-5.825-9.759c.073-.162.661-1.334.679-1.357a2.229,2.229,0,0,1,.922-.746A3.214,3.214,0,0,1,21.5,4.187h.014a3.98,3.98,0,0,1,2.206.682,7.373,7.373,0,0,1,2.168,3.317c.8,2.055,1.743,5.926,1.742,12.7,0,1.846-.07,3.839-.208,5.934l-7.044,2.966a1.289,1.289,0,0,0-.756.9,11.659,11.659,0,0,0,2.142,9.245c2.758,3.466,7.665,5.223,14.583,5.223A18.756,18.756,0,0,0,51.26,37.616a10.15,10.15,0,0,0,1.508-9.52,1.289,1.289,0,0,0-2.412.91A7.652,7.652,0,0,1,49.14,36.15a16.072,16.072,0,0,1-12.789,6.43c-6.075,0-10.3-1.422-12.546-4.226a9.011,9.011,0,0,1-1.756-6.467l20-8.655a1.282,1.282,0,0,0,.757-.987s0-.006.005-.034a28.749,28.749,0,0,1,2.75-8.1A15.4,15.4,0,0,1,49.52,9.151a9.691,9.691,0,0,1,4.457-1.992,3.217,3.217,0,0,1,.953,3.1,7.334,7.334,0,0,0-.085,1.377,3.891,3.891,0,0,0,.723,2.22c.271.647.928,2.281,1.623,4.494a46.033,46.033,0,0,1,1.988,9.362,1.289,1.289,0,1,0,2.567-.241h0a51.855,51.855,0,0,0-2.789-11.977,3.906,3.906,0,0,0,3.68-3.9,4.162,4.162,0,0,0-.34-1.524l-.034-.092s.678.05.711.05a1.289,1.289,0,0,0,.1-2.574ZM59.8,10.742a5.5,5.5,0,0,1,.262.851,1.317,1.317,0,1,1-2.634,0,8.333,8.333,0,0,1,.064-1c.173-1.339.411-3.173-2.111-5.705a1.513,1.513,0,0,1-.429-.978,1.324,1.324,0,0,1,1.317-1.328,1.179,1.179,0,0,1,1.262.726,1.3,1.3,0,0,0,1.214.844,1.324,1.324,0,0,1,1.317,1.328,4.977,4.977,0,0,1-.232.8h0a6.8,6.8,0,0,0-.03,4.464Z" fill="#12263f"/>
      <circle id="Elipse_4088" data-name="Elipse 4088" cx="1.289" cy="1.289" r="1.289" transform="translate(59.147 32.094)" fill="#12263f"/>
    </g>
  </g>
</svg>
