<svg xmlns="http://www.w3.org/2000/svg" xmlns:xlink="http://www.w3.org/1999/xlink" width="66" height="66" viewBox="0 0 66 66">
  <defs>
    <clipPath id="clip-path">
      <rect id="Rectángulo_5410" data-name="Rectángulo 5410" width="66" height="66" transform="translate(835 6315)" fill="#12263f" stroke="#707070" stroke-width="1"/>
    </clipPath>
  </defs>
  <g id="Enmascarar_grupo_44" data-name="Enmascarar grupo 44" transform="translate(-835 -6315)" clip-path="url(#clip-path)">
    <g id="granjero" transform="translate(835 6315)">
      <g id="Grupo_54336" data-name="Grupo 54336">
        <g id="Grupo_54335" data-name="Grupo 54335">
          <path id="Trazado_101282" data-name="Trazado 101282" d="M27.833,21.7a.967.967,0,0,0-.967.967V23.7a.967.967,0,0,0,1.934,0V22.667A.967.967,0,0,0,27.833,21.7Z" fill="#12263f"/>
        </g>
      </g>
      <g id="Grupo_54338" data-name="Grupo 54338">
        <g id="Grupo_54337" data-name="Grupo 54337">
          <path id="Trazado_101283" data-name="Trazado 101283" d="M38.167,21.7a.967.967,0,0,0-.967.967V23.7a.967.967,0,0,0,1.934,0V22.667A.967.967,0,0,0,38.167,21.7Z" fill="#12263f"/>
        </g>
      </g>
      <g id="Grupo_54340" data-name="Grupo 54340">
        <g id="Grupo_54339" data-name="Grupo 54339">
          <path id="Trazado_101284" data-name="Trazado 101284" d="M38.307,28.9a1.977,1.977,0,0,0-1.733-1H29.426a1.977,1.977,0,0,0-1.733,1,2,2,0,0,0,.01,2.023,6.134,6.134,0,0,0,10.593,0A2,2,0,0,0,38.307,28.9ZM36.627,29.95a4.2,4.2,0,0,1-7.255,0,.077.077,0,0,1,0-.085.054.054,0,0,1,.056-.032h7.147a.054.054,0,0,1,.056.032A.077.077,0,0,1,36.627,29.95Z" fill="#12263f"/>
        </g>
      </g>
      <g id="Grupo_54342" data-name="Grupo 54342">
        <g id="Grupo_54341" data-name="Grupo 54341">
          <path id="Trazado_101285" data-name="Trazado 101285" d="M24.744,59.933h-.01a.972.972,0,1,0,.01,0Z" fill="#12263f"/>
        </g>
      </g>
      <g id="Grupo_54344" data-name="Grupo 54344">
        <g id="Grupo_54343" data-name="Grupo 54343">
          <path id="Trazado_101286" data-name="Trazado 101286" d="M41.256,59.933a.967.967,0,1,0,0,1.934h.01a.967.967,0,0,0-.01-1.934Z" fill="#12263f"/>
        </g>
      </g>
      <g id="Grupo_54346" data-name="Grupo 54346">
        <g id="Grupo_54345" data-name="Grupo 54345">
          <path id="Trazado_101287" data-name="Trazado 101287" d="M57.712,13.166a.967.967,0,0,0-.946-.766H46.155l-2.33-9.319A4.061,4.061,0,0,0,39.88,0H25.293a4.054,4.054,0,0,0-4.011,3.4l-1.5,9H9.233a.967.967,0,0,0-.393,1.85l4.491,2a25.809,25.809,0,0,0,4.143,1.434,82.411,82.411,0,0,0-3.008,20.486.967.967,0,0,0,.534.865,36.159,36.159,0,0,0,7.809,2.5l-.736.981L17.3,44.1a7.158,7.158,0,0,0-4.9,6.8V65.033a.967.967,0,0,0,1.934,0V50.9a5.227,5.227,0,0,1,3.578-4.965l1.721-.574v19.67a.967.967,0,0,0,1.934,0v-7.3h13.5a.967.967,0,0,0,0-1.934H25.7V47.734l.142.142a3.03,3.03,0,0,0,4.04.224l2.151-1.721v6.255a.967.967,0,1,0,1.934,0V46.378L36.118,48.1a3.03,3.03,0,0,0,4.04-.224l.142-.142V55.8H39.2a.967.967,0,0,0,0,1.934h5.233v7.3a.967.967,0,0,0,1.934,0V45.364l1.721.574A5.227,5.227,0,0,1,51.667,50.9V65.033a.967.967,0,0,0,1.934,0V50.9a7.158,7.158,0,0,0-4.9-6.8l-4.774-1.591-.736-.981A36.142,36.142,0,0,0,51,39.031a.967.967,0,0,0,.534-.865,82.408,82.408,0,0,0-3.008-20.486,25.813,25.813,0,0,0,4.143-1.434l4.491-2A.967.967,0,0,0,57.712,13.166ZM23.189,3.716a2.126,2.126,0,0,1,2.1-1.783H39.88a2.13,2.13,0,0,1,2.07,1.616l2.213,8.85H21.741ZM16.4,37.544a82.761,82.761,0,0,1,2.967-19.459,25.8,25.8,0,0,0,4.425.382h3.658a27.147,27.147,0,0,0-8.771,11.04.967.967,0,1,0,1.767.785q.228-.513.47-1a12.36,12.36,0,0,0,4.913,7.539v2.224a3.043,3.043,0,0,0-1.686.779A39.967,39.967,0,0,1,16.4,37.544ZM45.4,22.6a1.1,1.1,0,0,1,1.1,1.1v1.919a1.225,1.225,0,0,1-.878,1.223,1.043,1.043,0,0,1-.288.022V26.8a.967.967,0,0,0-1.934,0,10.4,10.4,0,1,1-20.8,0c0-.125,0-.277,0-.437a23.252,23.252,0,0,1,8.544-7.9H41.333v.067A4.071,4.071,0,0,0,45.4,22.6Zm-2.133-4.067v-.09a25.689,25.689,0,0,0,3.362-.358c.151.536.481,1.746.868,3.426a3.022,3.022,0,0,0-2.1-.845A2.135,2.135,0,0,1,43.267,18.533ZM23.767,55.8h-2.2V44.719l.839-.28L23.767,45.8Zm4.907-9.21a1.1,1.1,0,0,1-1.465-.081l-3.266-3.266L25.329,41.4a1.106,1.106,0,0,1,1.519-.235l4.55,3.25ZM33,43.178l-5.028-3.592c-.067-.048-.136-.09-.2-.131V37.966a12.311,12.311,0,0,0,10.466,0v1.491h0c-.069.041-.138.084-.2.131Zm5.791,3.33a1.1,1.1,0,0,1-1.465.081L34.6,44.41l4.55-3.25a1.106,1.106,0,0,1,1.519.235l1.385,1.847Zm4.8-2.069.839.28V55.8h-2.2v-10Zm6-6.9a39.975,39.975,0,0,1-7.743,2.29,3.043,3.043,0,0,0-1.686-.779V36.832a12.349,12.349,0,0,0,5.006-8.04,2.981,2.981,0,0,0,.854-.059,3.124,3.124,0,0,0,2.385-2.751A72.064,72.064,0,0,1,49.6,37.544Zm2.287-23.065a23.686,23.686,0,0,1-9.68,2.054H23.8a23.684,23.684,0,0,1-9.68-2.054l-.328-.146H52.211Z" fill="#12263f"/>
        </g>
      </g>
    </g>
  </g>
</svg>
