<svg xmlns="http://www.w3.org/2000/svg" width="130" height="131" viewBox="0 0 130 131">
  <g id="Grupo_56522" data-name="Grupo 56522" transform="translate(-216 -18105)">
    <path id="Trazado_104832" data-name="Trazado 104832" d="M10,0H120a10,10,0,0,1,10,10V121a10,10,0,0,1-10,10H10A10,10,0,0,1,0,121V10A10,10,0,0,1,10,0Z" transform="translate(216 18105)" fill="#f3f9ff"/>
    <path id="Trazado_104831" data-name="Trazado 104831" d="M41.895-22.661q0,11.235-5.046,17.329T22.623.762Q13.368.762,8.3-5.37T3.237-22.661V-32.792q0-11.235,5.046-17.329t14.263-6.094q9.217,0,14.282,6.132t5.065,17.329ZM29.06-34.43q0-5.979-1.562-8.931a5.22,5.22,0,0,0-4.951-2.952,5.1,5.1,0,0,0-4.818,2.742q-1.5,2.742-1.619,8.3V-21.1q0,6.208,1.562,9.083a5.239,5.239,0,0,0,4.951,2.875,5.169,5.169,0,0,0,4.837-2.8q1.562-2.8,1.6-8.779Zm53.4,12.759h5.637v9.9H82.456V0H69.621V-11.769H48.179l-.762-7.846,22.2-35.725v-.114H82.456Zm-22.813,0h9.979V-38.733l-.8,1.295Z" transform="translate(236 18201)" fill="#17c878"/>
  </g>
</svg>
