<svg xmlns="http://www.w3.org/2000/svg" width="130" height="131" viewBox="0 0 130 131">
  <g id="Grupo_56519" data-name="Grupo 56519" transform="translate(-91 -65)">
    <rect id="Rectángulo_5755" data-name="Rectángulo 5755" width="130" height="131" rx="10" transform="translate(91 65)" fill="#f3f9ff"/>
    <path id="Trazado_104827" data-name="Trazado 104827" d="M41.895-22.661q0,11.235-5.046,17.329T22.623.762Q13.368.762,8.3-5.37T3.237-22.661V-32.792q0-11.235,5.046-17.329t14.263-6.094q9.217,0,14.282,6.132t5.065,17.329ZM29.06-34.43q0-5.979-1.562-8.931a5.22,5.22,0,0,0-4.951-2.952,5.1,5.1,0,0,0-4.818,2.742q-1.5,2.742-1.619,8.3V-21.1q0,6.208,1.562,9.083a5.239,5.239,0,0,0,4.951,2.875,5.169,5.169,0,0,0,4.837-2.8q1.562-2.8,1.6-8.779ZM77.01,0H64.137V-40.98L51.492-37.286v-9.75l24.337-8.417H77.01Z" transform="translate(111 158)" fill="#17c878"/>
  </g>
</svg>
