<svg xmlns="http://www.w3.org/2000/svg" xmlns:xlink="http://www.w3.org/1999/xlink" width="81" height="81" viewBox="0 0 81 81">
  <defs>
    <clipPath id="clip-path">
      <rect id="Rect치ngulo_5466" data-name="Rect치ngulo 5466" width="73" height="73" rx="10" transform="translate(612 2939)" fill="#fff" stroke="#707070" stroke-width="1"/>
    </clipPath>
  </defs>
  <g id="Grupo_56524" data-name="Grupo 56524" transform="translate(-608 -2935)">
    <rect id="Rect치ngulo_5667" data-name="Rect치ngulo 5667" width="81" height="81" rx="10" transform="translate(608 2935)" fill="#e2f6c6"/>
    <g id="Enmascarar_grupo_58" data-name="Enmascarar grupo 58" clip-path="url(#clip-path)">
      <g id="cronografo" transform="translate(612 2939)">
        <path id="Trazado_103079" data-name="Trazado 103079" d="M67.845,42.2h-7.1L52.323,52.505H67.845a5.155,5.155,0,0,0,0-10.309Z" fill="#ffddce"/>
        <path id="Trazado_103080" data-name="Trazado 103080" d="M73,47.35A5.154,5.154,0,0,1,67.845,52.5H52.323l2.926-3.582h12.6A5.157,5.157,0,0,0,72.68,45.56,5.135,5.135,0,0,1,73,47.35Z" fill="#ffcbbe"/>
        <path id="Trazado_103081" data-name="Trazado 103081" d="M67.1,31.887H60L51.58,42.2H67.1a5.155,5.155,0,0,0,0-10.309Z" fill="#ffddce"/>
        <path id="Trazado_103082" data-name="Trazado 103082" d="M72.257,37.041A5.154,5.154,0,0,1,67.1,42.2H51.58l2.926-3.582H67.1a5.157,5.157,0,0,0,4.835-3.363,5.135,5.135,0,0,1,.32,1.79Z" fill="#ffcbbe"/>
        <path id="Trazado_103083" data-name="Trazado 103083" d="M63.384,21.578h-7.1L47.863,31.887H63.384a5.155,5.155,0,0,0,0-10.309Z" fill="#ffddce"/>
        <path id="Trazado_103084" data-name="Trazado 103084" d="M68.539,26.732a5.154,5.154,0,0,1-5.155,5.155H47.863L50.789,28.3h12.6a5.157,5.157,0,0,0,4.835-3.363A5.139,5.139,0,0,1,68.539,26.732Z" fill="#ffcbbe"/>
        <path id="Trazado_103085" data-name="Trazado 103085" d="M44.9,62.8H20.974l-10.487-9.1L8.052,43.281,12.5,31l4.9-11.52A14.813,14.813,0,0,1,24.664,11.9l8.976-4.276A5.886,5.886,0,0,1,41.768,11.1a0,0,0,0,1,0,0,5.889,5.889,0,0,1-.619,4.981l-3.7,5.855,5.491,30.112L44.792,62.19Z" fill="#ffddce"/>
        <path id="Trazado_103086" data-name="Trazado 103086" d="M44.792,62.19q-.167.306-.332.605H20.974l-3.5-13.156c4.749,2.12,16.418,6.431,25.475,2.413A16.522,16.522,0,0,0,44.9,51.024c7.616-4.686,3.624,4.294-.11,11.167Z" fill="#ffcbbe"/>
        <path id="Trazado_103087" data-name="Trazado 103087" d="M41.768,11.1c-1.433-2.325-7.625.271-11.662,2.41-3.7,1.958-13.612,14.571-14.722,28.3L12.5,31l4.9-11.52A14.813,14.813,0,0,1,24.664,11.9l8.976-4.276A5.886,5.886,0,0,1,41.768,11.1Z" fill="#ffcbbe"/>
        <g id="Grupo_55465" data-name="Grupo 55465">
          <path id="Trazado_103088" data-name="Trazado 103088" d="M48.741,12.15H56.9v8.922H48.741Z" transform="translate(7.669 -15.438) rotate(17.928)" fill="#ffd064"/>
          <path id="Trazado_103089" data-name="Trazado 103089" d="M59.569,16.649q-6.2-1.823-12.3-3.977a3.245,3.245,0,0,1-2.033-4.031l.019-.06A3.245,3.245,0,0,1,49.264,6.5q6.2,1.823,12.3,3.977A3.245,3.245,0,0,1,63.6,14.512l-.019.06a3.245,3.245,0,0,1-4.008,2.077Z" fill="#f6e266"/>
          <path id="Trazado_103090" data-name="Trazado 103090" d="M52.727,14.527q-2.74-.895-5.458-1.855a3.246,3.246,0,0,1-2.033-4.031l.02-.06A3.245,3.245,0,0,1,49.264,6.5q2.767.814,5.511,1.692A3.359,3.359,0,0,0,51,10.439l-.02.062a3.359,3.359,0,0,0,1.744,4.026Z" fill="#ffd064"/>
        </g>
        <path id="Trazado_103091" data-name="Trazado 103091" d="M60.425,52.486h-7.1L44.9,62.8H60.425a5.155,5.155,0,0,0,0-10.309Z" fill="#ffddce"/>
        <path id="Trazado_103092" data-name="Trazado 103092" d="M65.58,57.641A5.155,5.155,0,0,1,60.425,62.8H44.9l2.926-3.582h12.6A5.157,5.157,0,0,0,65.26,55.85,5.139,5.139,0,0,1,65.58,57.641Z" fill="#ffcbbe"/>
        <g id="Grupo_55473" data-name="Grupo 55473">
          <circle id="Elipse_4170" data-name="Elipse 4170" cx="22.907" cy="22.907" r="22.907" transform="translate(21.996 16.982)" fill="#f6e266"/>
          <path id="Trazado_103093" data-name="Trazado 103093" d="M46.374,62.75c-.486.03-.977.046-1.471.046a22.907,22.907,0,1,1,0-45.814c.494,0,.984.016,1.471.046a22.909,22.909,0,0,0,0,45.722Z" fill="#ffd064"/>
          <circle id="Elipse_4171" data-name="Elipse 4171" cx="17.507" cy="17.507" r="17.507" transform="translate(27.395 22.381)" fill="#d3effb"/>
          <path id="Trazado_103094" data-name="Trazado 103094" d="M47.962,57.142a17.508,17.508,0,1,1,0-34.508,17.511,17.511,0,0,0,0,34.508Z" fill="#9dc6fb"/>
          <path id="Trazado_103095" data-name="Trazado 103095" d="M44.9,42.119a2.23,2.23,0,0,1-2.23-2.23V34.194a2.23,2.23,0,1,1,4.461,0v5.695A2.23,2.23,0,0,1,44.9,42.119Z" fill="#2b4d66"/>
          <g id="Grupo_55472" data-name="Grupo 55472">
            <g id="Grupo_55466" data-name="Grupo 55466">
              <path id="Trazado_103096" data-name="Trazado 103096" d="M44.9,27.6a1.1,1.1,0,0,1-1.1-1.1v-3.52a1.1,1.1,0,0,1,2.2,0V26.5A1.1,1.1,0,0,1,44.9,27.6Z" fill="#698ed5"/>
              <path id="Trazado_103097" data-name="Trazado 103097" d="M44.9,57.9a1.1,1.1,0,0,1-1.1-1.1v-3.52a1.1,1.1,0,1,1,2.2,0V56.8A1.1,1.1,0,0,1,44.9,57.9Z" fill="#698ed5"/>
            </g>
            <g id="Grupo_55467" data-name="Grupo 55467">
              <path id="Trazado_103098" data-name="Trazado 103098" d="M61.813,40.99h-3.52a1.1,1.1,0,0,1,0-2.2h3.52a1.1,1.1,0,1,1,0,2.2Z" fill="#698ed5"/>
              <path id="Trazado_103099" data-name="Trazado 103099" d="M31.513,40.99h-3.52a1.1,1.1,0,1,1,0-2.2h3.52a1.1,1.1,0,0,1,0,2.2Z" fill="#698ed5"/>
            </g>
            <g id="Grupo_55468" data-name="Grupo 55468">
              <path id="Trazado_103100" data-name="Trazado 103100" d="M57.749,33.574a1.1,1.1,0,0,1-.552-2.056L59,30.48a1.1,1.1,0,0,1,1.1,1.908l-1.8,1.039A1.1,1.1,0,0,1,57.749,33.574Z" fill="#698ed5"/>
              <path id="Trazado_103101" data-name="Trazado 103101" d="M30.259,49.445a1.1,1.1,0,0,1-.552-2.056l1.8-1.039a1.1,1.1,0,0,1,1.1,1.908l-1.8,1.039A1.1,1.1,0,0,1,30.259,49.445Z" fill="#698ed5"/>
            </g>
            <g id="Grupo_55469" data-name="Grupo 55469">
              <path id="Trazado_103102" data-name="Trazado 103102" d="M52.318,28.145a1.1,1.1,0,0,1-.953-1.652l1.039-1.8a1.1,1.1,0,1,1,1.908,1.1l-1.039,1.8A1.1,1.1,0,0,1,52.318,28.145Z" fill="#698ed5"/>
              <path id="Trazado_103103" data-name="Trazado 103103" d="M36.447,55.635a1.1,1.1,0,0,1-.953-1.652l1.039-1.8a1.1,1.1,0,0,1,1.908,1.1l-1.039,1.8a1.1,1.1,0,0,1-.955.551Z" fill="#698ed5"/>
            </g>
            <g id="Grupo_55470" data-name="Grupo 55470">
              <path id="Trazado_103104" data-name="Trazado 103104" d="M37.488,28.145a1.1,1.1,0,0,1-.955-.551l-1.039-1.8a1.1,1.1,0,1,1,1.908-1.1l1.039,1.8a1.1,1.1,0,0,1-.953,1.652Z" fill="#698ed5"/>
              <path id="Trazado_103105" data-name="Trazado 103105" d="M53.359,55.635a1.1,1.1,0,0,1-.955-.551l-1.039-1.8a1.1,1.1,0,1,1,1.908-1.1l1.039,1.8a1.1,1.1,0,0,1-.953,1.652Z" fill="#698ed5"/>
            </g>
            <g id="Grupo_55471" data-name="Grupo 55471">
              <path id="Trazado_103106" data-name="Trazado 103106" d="M32.057,33.574a1.1,1.1,0,0,1-.55-.148l-1.8-1.039a1.1,1.1,0,0,1,1.1-1.908l1.8,1.039a1.1,1.1,0,0,1-.552,2.056Z" fill="#698ed5"/>
              <path id="Trazado_103107" data-name="Trazado 103107" d="M59.547,49.445A1.1,1.1,0,0,1,59,49.3l-1.8-1.039a1.1,1.1,0,0,1,1.1-1.908l1.8,1.039a1.1,1.1,0,0,1-.552,2.056Z" fill="#698ed5"/>
            </g>
          </g>
          <path id="Trazado_103108" data-name="Trazado 103108" d="M44.9,58.5A18.609,18.609,0,1,1,63.512,39.889,18.63,18.63,0,0,1,44.9,58.5Zm0-35.015A16.406,16.406,0,1,0,61.309,39.889,16.424,16.424,0,0,0,44.9,23.483Z" fill="#ffd064"/>
        </g>
        <path id="Trazado_103109" data-name="Trazado 103109" d="M20.974,62.8,8.468,66.63,3.076,46.386,0,34.836,12.5,31l3.076,11.549Z" fill="#dd636e"/>
        <path id="Trazado_103110" data-name="Trazado 103110" d="M15.581,42.552l-12.5,3.835L0,34.836,12.5,31Z" fill="#cb5769"/>
      </g>
    </g>
  </g>
</svg>
