<svg xmlns="http://www.w3.org/2000/svg" xmlns:xlink="http://www.w3.org/1999/xlink" width="85" height="85" viewBox="0 0 85 85">
  <defs>
    <clipPath id="clip-path">
      <rect id="Rectángulo_5457" data-name="Rectángulo 5457" width="85" height="85" transform="translate(285 1497)" fill="#fff" stroke="#707070" stroke-width="1"/>
    </clipPath>
  </defs>
  <g id="Enmascarar_grupo_56" data-name="Enmascarar grupo 56" transform="translate(-285 -1497)" clip-path="url(#clip-path)">
    <g id="informe-seo" transform="translate(285 1497)">
      <g id="Grupo_55441" data-name="Grupo 55441">
        <path id="Trazado_103041" data-name="Trazado 103041" d="M70.332,77.993H20.43A2.928,2.928,0,0,1,17.5,75.064V4.173A2.928,2.928,0,0,1,20.43,1.245h49.9A2.928,2.928,0,0,1,73.26,4.173V75.064A2.928,2.928,0,0,1,70.332,77.993Z" fill="#3c87d0"/>
        <path id="Trazado_103042" data-name="Trazado 103042" d="M64.57,83.755h-49.9a2.928,2.928,0,0,1-2.928-2.928V9.936a2.928,2.928,0,0,1,2.928-2.928h49.9A2.928,2.928,0,0,1,67.5,9.936V80.827A2.928,2.928,0,0,1,64.57,83.755Z" fill="#c8effe"/>
        <path id="Trazado_103043" data-name="Trazado 103043" d="M64.57,7.007H58.45a2.928,2.928,0,0,1,2.928,2.928V80.827a2.928,2.928,0,0,1-2.928,2.928h6.12A2.928,2.928,0,0,0,67.5,80.827V9.936A2.928,2.928,0,0,0,64.57,7.007Z" fill="#b3dafe"/>
        <g id="Grupo_55435" data-name="Grupo 55435">
          <g id="Grupo_55432" data-name="Grupo 55432">
            <path id="Trazado_103044" data-name="Trazado 103044" d="M60.22,20.3h-16.1a1.158,1.158,0,1,1,0-2.316h16.1a1.158,1.158,0,1,1,0,2.316Z" fill="#3e5959"/>
          </g>
          <g id="Grupo_55433" data-name="Grupo 55433">
            <path id="Trazado_103045" data-name="Trazado 103045" d="M60.22,25.722h-16.1a1.158,1.158,0,1,1,0-2.316h16.1a1.158,1.158,0,1,1,0,2.316Z" fill="#3e5959"/>
          </g>
          <g id="Grupo_55434" data-name="Grupo 55434">
            <path id="Trazado_103046" data-name="Trazado 103046" d="M60.22,31.14h-16.1a1.158,1.158,0,1,1,0-2.316h16.1a1.158,1.158,0,1,1,0,2.316Z" fill="#3e5959"/>
          </g>
        </g>
        <g id="Grupo_55436" data-name="Grupo 55436">
          <path id="Trazado_103047" data-name="Trazado 103047" d="M60.22,61.377H45.255a1.158,1.158,0,0,1,0-2.316H60.22a1.158,1.158,0,0,1,0,2.316Z" fill="#3e5959"/>
        </g>
        <g id="Grupo_55437" data-name="Grupo 55437">
          <path id="Trazado_103048" data-name="Trazado 103048" d="M35.115,50.076h-16.1a1.158,1.158,0,0,1,0-2.316h16.1a1.158,1.158,0,0,1,0,2.316Z" fill="#3e5959"/>
        </g>
        <g id="Grupo_55438" data-name="Grupo 55438">
          <path id="Trazado_103049" data-name="Trazado 103049" d="M35.115,44.658h-16.1a1.158,1.158,0,0,1,0-2.316h16.1a1.158,1.158,0,0,1,0,2.316Z" fill="#3e5959"/>
        </g>
        <path id="Trazado_103050" data-name="Trazado 103050" d="M28.618,13.313V24.071H39.376A10.758,10.758,0,0,0,28.618,13.313Z" fill="#ee6161"/>
        <path id="Trazado_103051" data-name="Trazado 103051" d="M28.618,13.313A10.758,10.758,0,1,0,39.376,24.071H28.618Z" fill="#fea95c"/>
        <path id="Trazado_103052" data-name="Trazado 103052" d="M60.606,52.54H41.266a.772.772,0,0,1-.772-.772V40.649a.772.772,0,0,1,.772-.772h19.34a.772.772,0,0,1,.772.772V51.768A.772.772,0,0,1,60.606,52.54Z" fill="#ee6161"/>
        <path id="Trazado_103053" data-name="Trazado 103053" d="M22.015,75.474H18.632a.772.772,0,0,1-.772-.772V57.812a.772.772,0,0,1,.772-.772h3.383a.772.772,0,0,1,.772.772V74.7A.772.772,0,0,1,22.015,75.474Z" fill="#fe7701"/>
        <path id="Trazado_103054" data-name="Trazado 103054" d="M31.207,75.474H27.824a.772.772,0,0,1-.772-.772V62.244a.772.772,0,0,1,.772-.772h3.383a.772.772,0,0,1,.772.772V74.7a.772.772,0,0,1-.772.772Z" fill="#fe9738"/>
        <path id="Trazado_103055" data-name="Trazado 103055" d="M40.4,75.474H37.016a.772.772,0,0,1-.772-.772V67.765a.772.772,0,0,1,.772-.772H40.4a.772.772,0,0,1,.772.772V74.7A.772.772,0,0,1,40.4,75.474Z" fill="#fea95c"/>
        <g id="Grupo_55439" data-name="Grupo 55439">
          <path id="Trazado_103056" data-name="Trazado 103056" d="M60.22,67.067H45.255a1.158,1.158,0,0,1,0-2.316H60.22a1.158,1.158,0,1,1,0,2.316Z" fill="#3e5959"/>
        </g>
        <g id="Grupo_55440" data-name="Grupo 55440">
          <path id="Trazado_103057" data-name="Trazado 103057" d="M60.22,72.758H45.255a1.158,1.158,0,0,1,0-2.316H60.22a1.158,1.158,0,0,1,0,2.316Z" fill="#3e5959"/>
        </g>
      </g>
      <g id="Grupo_55442" data-name="Grupo 55442">
        <path id="Trazado_103058" data-name="Trazado 103058" d="M44.122,20.3h16.1a1.158,1.158,0,1,0,0-2.316h-16.1a1.158,1.158,0,1,0,0,2.316Z"/>
        <path id="Trazado_103059" data-name="Trazado 103059" d="M42.964,24.564a1.158,1.158,0,0,0,1.158,1.158h16.1a1.158,1.158,0,1,0,0-2.316h-16.1A1.158,1.158,0,0,0,42.964,24.564Z"/>
        <path id="Trazado_103060" data-name="Trazado 103060" d="M44.122,31.14h16.1a1.158,1.158,0,1,0,0-2.316h-16.1a1.158,1.158,0,1,0,0,2.316Z"/>
        <path id="Trazado_103061" data-name="Trazado 103061" d="M61.378,60.219a1.158,1.158,0,0,0-1.158-1.158H45.255a1.158,1.158,0,0,0,0,2.316H60.22A1.158,1.158,0,0,0,61.378,60.219Z"/>
        <path id="Trazado_103062" data-name="Trazado 103062" d="M36.274,48.917a1.158,1.158,0,0,0-1.158-1.158h-16.1a1.158,1.158,0,0,0,0,2.316h16.1A1.158,1.158,0,0,0,36.274,48.917Z"/>
        <path id="Trazado_103063" data-name="Trazado 103063" d="M19.018,44.658h16.1a1.158,1.158,0,0,0,0-2.316h-16.1a1.158,1.158,0,0,0,0,2.316Z"/>
        <path id="Trazado_103064" data-name="Trazado 103064" d="M28.618,12.068a12,12,0,1,0,12,12,12.017,12.017,0,0,0-12-12Zm0,21.516A9.513,9.513,0,0,1,27.373,14.64v9.432a1.245,1.245,0,0,0,1.245,1.245H38.05A9.527,9.527,0,0,1,28.618,33.584Zm1.245-10.758V14.64a9.534,9.534,0,0,1,8.187,8.187Z"/>
        <path id="Trazado_103065" data-name="Trazado 103065" d="M39.249,40.649V51.768a2.02,2.02,0,0,0,2.017,2.017h19.34a2.02,2.02,0,0,0,2.017-2.017V40.649a2.02,2.02,0,0,0-2.017-2.017H41.266a2.019,2.019,0,0,0-2.017,2.017Zm2.49.473H60.133V51.295H41.739Z"/>
        <path id="Trazado_103066" data-name="Trazado 103066" d="M16.615,74.7a2.02,2.02,0,0,0,2.017,2.017h3.383A2.02,2.02,0,0,0,24.032,74.7V57.812a2.019,2.019,0,0,0-2.017-2.017H18.632a2.019,2.019,0,0,0-2.017,2.017ZM19.1,58.285h2.437V74.229H19.1Z"/>
        <path id="Trazado_103067" data-name="Trazado 103067" d="M27.824,60.226a2.02,2.02,0,0,0-2.017,2.017V74.7a2.02,2.02,0,0,0,2.017,2.017h3.383A2.02,2.02,0,0,0,33.224,74.7V62.243a2.019,2.019,0,0,0-2.017-2.017Zm2.91,14H28.3V62.717h2.437Z"/>
        <path id="Trazado_103068" data-name="Trazado 103068" d="M37.016,76.719H40.4A2.02,2.02,0,0,0,42.417,74.7V67.765A2.02,2.02,0,0,0,40.4,65.747H37.016A2.02,2.02,0,0,0,35,67.765V74.7A2.02,2.02,0,0,0,37.016,76.719Zm.473-8.481h2.437v5.991H37.489Z"/>
        <path id="Trazado_103069" data-name="Trazado 103069" d="M60.22,64.751H45.255a1.158,1.158,0,0,0,0,2.316H60.22a1.158,1.158,0,1,0,0-2.316Z"/>
        <path id="Trazado_103070" data-name="Trazado 103070" d="M60.22,70.442H45.255a1.158,1.158,0,0,0,0,2.316H60.22a1.158,1.158,0,0,0,0-2.316Z"/>
        <path id="Trazado_103071" data-name="Trazado 103071" d="M73.26,15.438a1.245,1.245,0,0,0,1.245-1.245V4.173A4.178,4.178,0,0,0,70.332,0H20.43a4.178,4.178,0,0,0-4.173,4.173V5.762H14.668a4.178,4.178,0,0,0-4.173,4.173V63.279a1.245,1.245,0,0,0,2.49,0V9.936a1.685,1.685,0,0,1,1.683-1.683h49.9a1.685,1.685,0,0,1,1.683,1.683V80.827A1.685,1.685,0,0,1,64.57,82.51h-49.9a1.685,1.685,0,0,1-1.683-1.683V69.09a1.245,1.245,0,0,0-2.49,0V80.827A4.178,4.178,0,0,0,14.668,85h49.9a4.178,4.178,0,0,0,4.173-4.173V79.238h1.589a4.178,4.178,0,0,0,4.173-4.173V20a1.245,1.245,0,0,0-2.49,0V75.064a1.685,1.685,0,0,1-1.683,1.683H68.743V9.936A4.178,4.178,0,0,0,64.57,5.762H18.747V4.173A1.685,1.685,0,0,1,20.43,2.49h49.9a1.685,1.685,0,0,1,1.683,1.683V14.193a1.245,1.245,0,0,0,1.245,1.245Z"/>
      </g>
    </g>
  </g>
</svg>
