<svg xmlns="http://www.w3.org/2000/svg" xmlns:xlink="http://www.w3.org/1999/xlink" width="85" height="85" viewBox="0 0 85 85">
  <defs>
    <clipPath id="clip-path">
      <rect id="Rectángulo_5445" data-name="Rectángulo 5445" width="85" height="85" transform="translate(285 965)" fill="#fff" stroke="#707070" stroke-width="1"/>
    </clipPath>
  </defs>
  <g id="Enmascarar_grupo_52" data-name="Enmascarar grupo 52" transform="translate(-285 -965)" clip-path="url(#clip-path)">
    <g id="oportunidades-de-trabajo" transform="translate(285 965)">
      <path id="Trazado_102972" data-name="Trazado 102972" d="M47.813,65.078,42.5,61.094V33.2H29.219V65.078H47.813Z" fill="#1990ba"/>
      <path id="Trazado_102973" data-name="Trazado 102973" d="M29.219,23.906v9.3H42.5V15.938H25.234l-2.656,21.25h4.482Z" fill="#23a3db"/>
      <path id="Trazado_102974" data-name="Trazado 102974" d="M30.547,15.938V3.576a2.248,2.248,0,0,1,2.248-2.248h7.049V8.914c0,2.017-.818,3.652-2.835,3.652H35.042v3.371Z" fill="#fdcaa7"/>
      <path id="Trazado_102975" data-name="Trazado 102975" d="M17.266,37.188H30.547V47.813H17.266Z" transform="translate(47.813 85) rotate(180)" fill="#894619"/>
      <path id="Trazado_102976" data-name="Trazado 102976" d="M42.5,15.938l6.641,3.984V9.3h3.984V22.73a2.656,2.656,0,0,1-3.589,2.487L42.5,22.578Z" fill="#1990ba"/>
      <path id="Trazado_102977" data-name="Trazado 102977" d="M47.813,3.984H59.766V9.3H47.813Z" fill="#129696"/>
      <path id="Trazado_102978" data-name="Trazado 102978" d="M59.766,2.656H63.75v7.969H59.766Z" fill="#3dfaff"/>
      <path id="Trazado_102979" data-name="Trazado 102979" d="M45.156,33.2H65.078V26.563l9.3,9.3-9.3,7.969V38.516H45.156Z" fill="#f7d74f"/>
      <path id="Trazado_102980" data-name="Trazado 102980" d="M36.919,65.078l-2.165-3.248a1.328,1.328,0,0,1-.223-.737V39.844h2.656V60.692l2.924,4.386Z" fill="#147d99"/>
      <path id="Trazado_102981" data-name="Trazado 102981" d="M39.844,5.313V1.328H32.795a2.248,2.248,0,0,0-2.248,2.248V9.3l5.313-3.984Z" fill="#894619"/>
      <path id="Trazado_102982" data-name="Trazado 102982" d="M35.859,5.313,30.547,9.3v6.641h4.5V12.566h1.967c2.017,0,2.835-1.635,2.835-3.652v-3.6Z" fill="#fdcaa7"/>
      <path id="Trazado_102983" data-name="Trazado 102983" d="M0,74.375H17.266l7.969-9.3H51.8l9.3-9.3H74.375V47.813l9.3,11.953-9.3,11.953V63.75H63.75L53.125,74.375H27.891l-7.969,9.3H0" fill="#eac734"/>
      <path id="Trazado_102984" data-name="Trazado 102984" d="M74.375,35.859H45.156v2.656H65.078v5.313Z" fill="#eac734"/>
      <path id="Trazado_102985" data-name="Trazado 102985" d="M39.844,8.914V1.328H37.271V9.65a2.556,2.556,0,0,1-1.059,2.072l-1.169.844h1.967C39.026,12.566,39.844,10.931,39.844,8.914Z" fill="#e28f56" opacity="0.3"/>
      <path id="Trazado_102986" data-name="Trazado 102986" d="M59.766,3.984H47.813V5.313H63.75V2.656H59.766Z" fill="#fff" opacity="0.3"/>
      <path id="Trazado_102987" data-name="Trazado 102987" d="M28.057,37.188h2.49V47.813h-2.49Z" fill="#6b320c"/>
      <path id="Trazado_102988" data-name="Trazado 102988" d="M27.891,74.375H53.125L63.75,63.75H74.375v7.969l9.3-11.953-.043-.055H62.7L53.125,69.782H26.95l-8.522,9.629H0v4.261H19.922Z" fill="#f7d74f"/>
      <path id="Trazado_102989" data-name="Trazado 102989" d="M75.423,47a1.328,1.328,0,0,0-2.376.815v6.641H61.094a1.328,1.328,0,0,0-.939.389L51.247,63.75H48.255l-4.427-3.32V24.495L49.07,26.46a3.984,3.984,0,0,0,5.383-3.731v-12.1h3.984a1.328,1.328,0,0,0,1.328,1.328H63.75a1.328,1.328,0,0,0,1.328-1.328V2.656A1.328,1.328,0,0,0,63.75,1.328H59.766a1.328,1.328,0,0,0-1.328,1.328H47.813a1.328,1.328,0,0,0-1.328,1.328V5.313H42.5V7.969h3.984V9.3a1.328,1.328,0,0,0,1.328,1.328v6.951L43.183,14.8h0a1.32,1.32,0,0,0-.683-.19H36.37v-.715h.638c2.568,0,4.163-1.909,4.163-4.98V1.328A1.328,1.328,0,0,0,39.844,0H32.794a3.58,3.58,0,0,0-3.576,3.576V14.609H25.234a1.328,1.328,0,0,0-1.318,1.163L21.406,35.859h-4.14a1.328,1.328,0,0,0-1.328,1.328V47.813a1.328,1.328,0,0,0,1.328,1.328H27.891V63.75H25.234a1.328,1.328,0,0,0-1.008.464l-7.571,8.833H0V75.7H17.266a1.328,1.328,0,0,0,1.008-.464l7.571-8.833H51.8a1.328,1.328,0,0,0,.939-.389l8.908-8.908H74.375A1.328,1.328,0,0,0,75.7,55.781v-4.1l6.286,8.082L75.7,67.848v-4.1a1.328,1.328,0,0,0-1.328-1.328H63.75a1.328,1.328,0,0,0-.939.389L52.575,73.047H27.891a1.328,1.328,0,0,0-1.008.464l-7.571,8.833H0V85H19.922a1.328,1.328,0,0,0,1.008-.464L28.5,75.7H53.125a1.328,1.328,0,0,0,.939-.389L64.3,65.078h8.747v6.641a1.328,1.328,0,0,0,2.376.815l9.3-11.953a1.328,1.328,0,0,0,0-1.631Zm-13-43.013V9.3H61.094V3.984ZM49.141,5.313h9.3V7.969h-9.3Zm-.683,15.748a1.328,1.328,0,0,0,2.011-1.139v-9.3H51.8v12.1A1.328,1.328,0,0,1,50,23.973l-6.174-2.315V18.283ZM32.794,2.656h5.721V3.984H35.859a1.328,1.328,0,0,0-.8.266L31.875,6.641V3.576A.92.92,0,0,1,32.794,2.656Zm-.919,7.3L36.3,6.641h2.213V8.914c0,2.324-1.134,2.324-1.507,2.324H35.042a1.328,1.328,0,0,0-1.328,1.328v2.043H31.875ZM18.594,38.516H29.219v7.969H18.594ZM30.547,63.75V49.141a1.328,1.328,0,0,0,1.328-1.328V37.188a1.328,1.328,0,0,0-1.328-1.328H24.083l2.324-18.594h7.016l2.458,13.519,2.613-.475L36.123,17.266h5.049V31.875H30.547V23.906H27.891v9.3a1.328,1.328,0,0,0,1.328,1.328H41.172V61.094a1.328,1.328,0,0,0,.531,1.063l2.125,1.594h-4.6l-2.039-3.058V39.844H34.531v21.25a1.328,1.328,0,0,0,.223.737l1.28,1.92Z"/>
      <path id="Trazado_102990" data-name="Trazado 102990" d="M64.523,45.035a1.328,1.328,0,0,0,1.419-.2l9.3-7.969a1.328,1.328,0,0,0,.075-1.948l-9.3-9.3a1.328,1.328,0,0,0-2.267.939v5.313H45.156v2.656H65.078A1.328,1.328,0,0,0,66.406,33.2V29.769l6.015,6.015L66.406,40.94V38.516a1.328,1.328,0,0,0-1.328-1.328H45.156v2.656H63.75v3.984a1.328,1.328,0,0,0,.773,1.207Z"/>
    </g>
  </g>
</svg>
