<svg xmlns="http://www.w3.org/2000/svg" xmlns:xlink="http://www.w3.org/1999/xlink" width="85" height="85" viewBox="0 0 85 85">
  <defs>
    <clipPath id="clip-path">
      <rect id="Rectángulo_5454" data-name="Rectángulo 5454" width="85" height="85" transform="translate(285 1364)" fill="#fff" stroke="#707070" stroke-width="1"/>
    </clipPath>
  </defs>
  <g id="Enmascarar_grupo_55" data-name="Enmascarar grupo 55" transform="translate(-285 -1364)" clip-path="url(#clip-path)">
    <g id="expediente" transform="translate(285 1364)">
      <g id="Grupo_55413" data-name="Grupo 55413">
        <g id="Grupo_55409" data-name="Grupo 55409">
          <path id="Trazado_103031" data-name="Trazado 103031" d="M63.022,33.222a15.771,15.771,0,0,1-4.65-.7v37.5a4.382,4.382,0,0,1-4.382,4.382H17.511v4.549a4.382,4.382,0,0,0,4.382,4.382H65.3a4.382,4.382,0,0,0,4.382-4.382V31.751A15.715,15.715,0,0,1,63.022,33.222Z" fill="#ccf5fc"/>
        </g>
        <g id="Grupo_55410" data-name="Grupo 55410">
          <path id="Trazado_103032" data-name="Trazado 103032" d="M52.666,5.254H10.583A4.382,4.382,0,0,0,6.2,9.635V70.027a4.382,4.382,0,0,0,4.382,4.382H53.989a4.382,4.382,0,0,0,4.382-4.382V32.857" fill="#faf7f5"/>
        </g>
        <g id="Grupo_55411" data-name="Grupo 55411">
          <ellipse id="Elipse_4167" data-name="Elipse 4167" cx="15.778" cy="15.781" rx="15.778" ry="15.781" transform="translate(47.244 1.66)" fill="#ff7d97"/>
        </g>
        <g id="Grupo_55412" data-name="Grupo 55412">
          <path id="Trazado_103033" data-name="Trazado 103033" d="M17.328,18.365H47.244v7.012H17.328Z" fill="#ffe6b4"/>
        </g>
      </g>
      <g id="Grupo_55431" data-name="Grupo 55431">
        <g id="Grupo_55415" data-name="Grupo 55415">
          <g id="Grupo_55414" data-name="Grupo 55414">
            <path id="Trazado_103034" data-name="Trazado 103034" d="M63.029,28.278a1.66,1.66,0,0,1-1.66-1.66V15.266a1.66,1.66,0,1,1,3.32,0V26.618A1.66,1.66,0,0,1,63.029,28.278Z"/>
          </g>
        </g>
        <g id="Grupo_55417" data-name="Grupo 55417">
          <g id="Grupo_55416" data-name="Grupo 55416">
            <circle id="Elipse_4168" data-name="Elipse 4168" cx="1.66" cy="1.66" r="1.66" transform="translate(61.361 8.264)"/>
          </g>
        </g>
        <g id="Grupo_55420" data-name="Grupo 55420">
          <path id="Trazado_103035" data-name="Trazado 103035" d="M80.459,17.441A17.429,17.429,0,0,0,52.431,3.594H10.583A6.049,6.049,0,0,0,4.541,9.635V70.027a6.049,6.049,0,0,0,6.042,6.042h5.268v2.889A6.049,6.049,0,0,0,21.892,85H65.3a6.049,6.049,0,0,0,6.042-6.042V55.931a1.66,1.66,0,0,0-3.32,0V78.958A2.725,2.725,0,0,1,65.3,81.68H21.892a2.725,2.725,0,0,1-2.721-2.722V76.069H53.989a6.049,6.049,0,0,0,6.042-6.042v-35.4a17.5,17.5,0,0,0,7.989-.474v6.77a1.66,1.66,0,1,0,3.32,0V32.766a17.457,17.457,0,0,0,9.118-15.325ZM56.711,70.028a2.725,2.725,0,0,1-2.722,2.722H10.583a2.725,2.725,0,0,1-2.721-2.722V9.635a2.725,2.725,0,0,1,2.721-2.721H49.127A17.35,17.35,0,0,0,45.6,16.7H17.328a1.66,1.66,0,0,0-1.66,1.66v7.012a1.66,1.66,0,0,0,1.66,1.66H47.244a1.653,1.653,0,0,0,1-.338,17.54,17.54,0,0,0,8.463,7Zm-11.127-50v3.691h-26.6V20.025ZM63.021,31.562A14.121,14.121,0,1,1,77.139,17.441,14.135,14.135,0,0,1,63.021,31.562Z"/>
          <g id="Grupo_55419" data-name="Grupo 55419">
            <g id="Grupo_55418" data-name="Grupo 55418">
              <path id="Trazado_103036" data-name="Trazado 103036" d="M69.68,50.057A1.66,1.66,0,1,1,71.3,48.774,1.676,1.676,0,0,1,69.68,50.057Z"/>
            </g>
          </g>
        </g>
        <g id="Grupo_55430" data-name="Grupo 55430">
          <g id="Grupo_55429" data-name="Grupo 55429">
            <g id="Grupo_55422" data-name="Grupo 55422">
              <g id="Grupo_55421" data-name="Grupo 55421">
                <path id="Trazado_103037" data-name="Trazado 103037" d="M47.244,36.13H17.328a1.66,1.66,0,0,1,0-3.32H47.244a1.66,1.66,0,0,1,0,3.32Z"/>
              </g>
            </g>
            <g id="Grupo_55424" data-name="Grupo 55424">
              <g id="Grupo_55423" data-name="Grupo 55423">
                <path id="Trazado_103038" data-name="Trazado 103038" d="M47.244,44H17.328a1.66,1.66,0,0,1,0-3.32H47.244a1.66,1.66,0,0,1,0,3.32Z"/>
              </g>
            </g>
            <g id="Grupo_55426" data-name="Grupo 55426">
              <g id="Grupo_55425" data-name="Grupo 55425">
                <path id="Trazado_103039" data-name="Trazado 103039" d="M47.244,51.879H17.328a1.66,1.66,0,0,1,0-3.32H47.244a1.66,1.66,0,0,1,0,3.32Z"/>
              </g>
            </g>
            <g id="Grupo_55428" data-name="Grupo 55428">
              <g id="Grupo_55427" data-name="Grupo 55427">
                <path id="Trazado_103040" data-name="Trazado 103040" d="M47.244,59.753H17.328a1.66,1.66,0,0,1,0-3.32H47.244a1.66,1.66,0,0,1,0,3.32Z"/>
              </g>
            </g>
          </g>
        </g>
      </g>
    </g>
  </g>
</svg>
