<svg xmlns="http://www.w3.org/2000/svg" xmlns:xlink="http://www.w3.org/1999/xlink" width="85" height="85" viewBox="0 0 85 85">
  <defs>
    <clipPath id="clip-path">
      <rect id="Rectángulo_5451" data-name="Rectángulo 5451" width="85" height="85" transform="translate(285 1231)" fill="#fff" stroke="#707070" stroke-width="1"/>
    </clipPath>
  </defs>
  <g id="Enmascarar_grupo_54" data-name="Enmascarar grupo 54" transform="translate(-285 -1231)" clip-path="url(#clip-path)">
    <g id="mostrador-de-informacion" transform="translate(285 1231)">
      <g id="Grupo_55408" data-name="Grupo 55408">
        <g id="Grupo_55406" data-name="Grupo 55406">
          <path id="Trazado_103008" data-name="Trazado 103008" d="M68.279,41.284H47.669a5.743,5.743,0,0,1-5.743-5.743V17.294a16.049,16.049,0,1,1,32.1,0V35.541a5.744,5.744,0,0,1-5.744,5.743Z" fill="#355f7f"/>
          <path id="Trazado_103009" data-name="Trazado 103009" d="M57.974,1.245a16.161,16.161,0,0,0-2.49.193A16.052,16.052,0,0,1,69.042,17.294V35.541A5.743,5.743,0,0,1,63.3,41.284h4.98a5.743,5.743,0,0,0,5.743-5.743V17.294A16.049,16.049,0,0,0,57.974,1.245Z" fill="#305972"/>
          <g id="Grupo_55405" data-name="Grupo 55405">
            <g id="Grupo_55403" data-name="Grupo 55403">
              <path id="Trazado_103010" data-name="Trazado 103010" d="M81.265,66.013V49.558A7.851,7.851,0,0,0,75.1,41.89l-9.64-2.119A2.617,2.617,0,0,1,63.4,37.215V29.244H52.543v7.971a2.617,2.617,0,0,1-2.055,2.556l-9.64,2.119a7.851,7.851,0,0,0-6.166,7.668V66.013Z" fill="#aca6d6"/>
              <g id="Grupo_55400" data-name="Grupo 55400">
                <path id="Trazado_103011" data-name="Trazado 103011" d="M75.1,41.89l-9.64-2.119A2.617,2.617,0,0,1,63.4,37.215V29.244l-4.98,2.49v7.971a2.617,2.617,0,0,0,2.055,2.556l9.64,2.119a7.851,7.851,0,0,1,6.166,7.668V66.013h4.98V49.558A7.851,7.851,0,0,0,75.1,41.89Z" fill="#978ecb"/>
              </g>
              <path id="Trazado_103012" data-name="Trazado 103012" d="M71.451,60.179h9.814v6.593H71.451Z" fill="#ffcebf"/>
              <path id="Trazado_103013" data-name="Trazado 103013" d="M76.284,60.179h4.98v5.834h-4.98Z" fill="#ffb09e"/>
              <path id="Trazado_103014" data-name="Trazado 103014" d="M34.683,60.179H44.5v6.593H34.683Z" fill="#ffcebf"/>
              <path id="Trazado_103015" data-name="Trazado 103015" d="M57.974,45.077a12.344,12.344,0,0,0,9.781-4.8l-2.3-.5A2.617,2.617,0,0,1,63.4,37.215V29.244H52.544v7.971a2.617,2.617,0,0,1-2.055,2.556l-2.3.5a12.344,12.344,0,0,0,9.781,4.8Z" fill="#ffcebf"/>
              <path id="Trazado_103016" data-name="Trazado 103016" d="M63.4,37.216V29.244l-4.98,2.49v7.971a2.617,2.617,0,0,0,2.055,2.556l4.1.9a12.434,12.434,0,0,0,3.174-2.887l-2.3-.5A2.617,2.617,0,0,1,63.4,37.216Z" fill="#ffb09e"/>
              <g id="Grupo_55401" data-name="Grupo 55401">
                <path id="Trazado_103017" data-name="Trazado 103017" d="M71.451,67.258a1.245,1.245,0,0,1-1.245-1.245V57.74a1.245,1.245,0,1,1,2.49,0v8.272A1.245,1.245,0,0,1,71.451,67.258Z" fill="#978ecb"/>
              </g>
              <g id="Grupo_55402" data-name="Grupo 55402">
                <path id="Trazado_103018" data-name="Trazado 103018" d="M44.5,67.258a1.245,1.245,0,0,1-1.245-1.245V57.74a1.245,1.245,0,0,1,2.49,0v8.272A1.245,1.245,0,0,1,44.5,67.258Z" fill="#978ecb"/>
              </g>
            </g>
            <path id="Trazado_103019" data-name="Trazado 103019" d="M69.042,17.989a.783.783,0,0,0-.824-.784,7.824,7.824,0,0,1-6.836-3.259.783.783,0,0,0-1.154-.124,14.851,14.851,0,0,1-4.41,2.69,15.15,15.15,0,0,1-8,.788.784.784,0,0,0-.912.775v7.68a11.068,11.068,0,1,0,22.137,0V17.989Z" fill="#ffcebf"/>
            <g id="Grupo_55404" data-name="Grupo 55404">
              <path id="Trazado_103020" data-name="Trazado 103020" d="M64.061,25.754a9.656,9.656,0,0,1-2.447,6.939c-3.545,3.808-8.8,2.766-9.071,2.707a11.365,11.365,0,0,0,4.164,1.349,10.933,10.933,0,0,0,1.266.073A11.068,11.068,0,0,0,69.042,25.754V17.989a.784.784,0,0,0-.824-.784,7.953,7.953,0,0,1-4.165-.912Z" fill="#ffb09e"/>
            </g>
          </g>
        </g>
        <path id="Trazado_103021" data-name="Trazado 103021" d="M6.226,83.34V73.794H78.774V83.34A1.66,1.66,0,0,1,77.114,85H7.886A1.66,1.66,0,0,1,6.226,83.34Z" fill="#eaf6ff"/>
        <path id="Trazado_103022" data-name="Trazado 103022" d="M73.794,73.794V83.34A1.66,1.66,0,0,1,72.134,85h4.98a1.66,1.66,0,0,0,1.66-1.66V73.794Z" fill="#d8ecfe"/>
        <g id="Grupo_55407" data-name="Grupo 55407">
          <path id="Trazado_103023" data-name="Trazado 103023" d="M28.183,64.577H10.007V60.733A2.793,2.793,0,0,1,12.8,57.94H25.39a2.793,2.793,0,0,1,2.793,2.793v3.845Z" fill="#355f7f"/>
          <path id="Trazado_103024" data-name="Trazado 103024" d="M25.39,57.94H20.41A2.793,2.793,0,0,1,23.2,60.733v3.845h4.98V60.733A2.793,2.793,0,0,0,25.39,57.94Z" fill="#305972"/>
          <path id="Trazado_103025" data-name="Trazado 103025" d="M35.083,51.139H3.107a1.862,1.862,0,0,1-1.862-1.862v-20.6a1.862,1.862,0,0,1,1.862-1.862H35.083a1.862,1.862,0,0,1,1.862,1.862v20.6A1.862,1.862,0,0,1,35.083,51.139Z" fill="#355f7f"/>
          <path id="Trazado_103026" data-name="Trazado 103026" d="M35.083,26.819H30.1a1.862,1.862,0,0,1,1.862,1.862v20.6A1.862,1.862,0,0,1,30.1,51.139h4.98a1.862,1.862,0,0,0,1.862-1.862v-20.6a1.862,1.862,0,0,0-1.862-1.862Z" fill="#305972"/>
          <path id="Trazado_103027" data-name="Trazado 103027" d="M22.439,57.94H15.751V41.326a1.66,1.66,0,0,1,1.66-1.66h3.367a1.66,1.66,0,0,1,1.66,1.66V57.94Z" fill="#eaf6ff"/>
        </g>
        <path id="Trazado_103028" data-name="Trazado 103028" d="M82.095,73.794H2.905a1.66,1.66,0,0,1-1.66-1.66v-5.9a1.66,1.66,0,0,1,1.66-1.66H82.095a1.66,1.66,0,0,1,1.66,1.66v5.9A1.66,1.66,0,0,1,82.095,73.794Z" fill="#c59191"/>
        <path id="Trazado_103029" data-name="Trazado 103029" d="M82.095,64.577h-4.98a1.66,1.66,0,0,1,1.66,1.66v5.9a1.66,1.66,0,0,1-1.66,1.66h4.98a1.66,1.66,0,0,0,1.66-1.66v-5.9A1.66,1.66,0,0,0,82.095,64.577Z" fill="#b98080"/>
      </g>
      <path id="Trazado_103030" data-name="Trazado 103030" d="M63.314,25.3a1.245,1.245,0,0,0,1.245-1.245V21.915a1.245,1.245,0,1,0-2.49,0v2.136A1.245,1.245,0,0,0,63.314,25.3ZM52.634,20.67a1.245,1.245,0,0,0-1.245,1.245v2.136a1.245,1.245,0,0,0,2.49,0V21.915A1.245,1.245,0,0,0,52.634,20.67Zm29.876,42.7V49.557a9.149,9.149,0,0,0-7.143-8.883l-1.917-.422a6.968,6.968,0,0,0,1.819-4.712V17.294a17.294,17.294,0,1,0-34.588,0V35.541A6.968,6.968,0,0,0,42.5,40.253l-1.918.422a9.112,9.112,0,0,0-2.39.891V28.681a3.111,3.111,0,0,0-3.108-3.108H3.106A3.111,3.111,0,0,0,0,28.681v9.96a1.245,1.245,0,1,0,2.49,0v-9.96a.617.617,0,0,1,.616-.618H35.082a.618.618,0,0,1,.618.618v20.6a.618.618,0,0,1-.618.618h-11.4V41.326a2.909,2.909,0,0,0-2.905-2.905H17.411a2.909,2.909,0,0,0-2.905,2.905v8.568H3.106a.617.617,0,0,1-.616-.618V44.451a1.245,1.245,0,1,0-2.49,0v4.826a3.111,3.111,0,0,0,3.106,3.108h11.4v4.31H12.8a4.042,4.042,0,0,0-4.038,4.038v2.6H2.905A2.909,2.909,0,0,0,0,66.238v5.9a2.909,2.909,0,0,0,2.905,2.905H4.98v8.716a1.245,1.245,0,0,0,2.49,0V75.039H64.042a1.245,1.245,0,0,0,0-2.49H2.905a.416.416,0,0,1-.415-.415v-5.9a.416.416,0,0,1,.415-.415H82.095a.416.416,0,0,1,.415.415v5.9a.416.416,0,0,1-.415.415H69.853a1.245,1.245,0,0,0,0,2.49h7.677v8.716a1.245,1.245,0,0,0,2.49,0V75.039h2.075A2.909,2.909,0,0,0,85,72.134v-5.9a2.907,2.907,0,0,0-2.49-2.872ZM17,51.149s0-.006,0-.01,0-.006,0-.01v-9.8a.416.416,0,0,1,.415-.415h3.367a.416.416,0,0,1,.415.415V56.7H17Zm9.942,12.183H11.252v-2.6A1.549,1.549,0,0,1,12.8,59.185H25.39a1.549,1.549,0,0,1,1.548,1.548v2.6Zm6.5,0H29.428v-2.6a4.042,4.042,0,0,0-4.038-4.038H23.684v-4.31h9.753Zm9.733-46.038a14.8,14.8,0,1,1,29.607,0V35.541a4.477,4.477,0,0,1-2.478,4.02l-4.576-1.006a1.377,1.377,0,0,1-1.075-1.339V36.093a12.311,12.311,0,0,0,5.637-10.338V17.989a2.029,2.029,0,0,0-2.134-2.027,6.71,6.71,0,0,1-3.57-.8,6.587,6.587,0,0,1-2.191-1.945,2.028,2.028,0,0,0-2.986-.331,13.571,13.571,0,0,1-4.04,2.465,13.912,13.912,0,0,1-7.342.72,2.029,2.029,0,0,0-2.364,2v7.68A12.31,12.31,0,0,0,51.3,36.093v1.122a1.378,1.378,0,0,1-1.077,1.339L45.648,39.56a4.477,4.477,0,0,1-2.477-4.02ZM53.784,37.333a12.311,12.311,0,0,0,8.381,0,3.89,3.89,0,0,0,3.195,3.691,11.117,11.117,0,0,1-14.772,0A3.916,3.916,0,0,0,53.784,37.333ZM48.151,25.754V18.61a16.344,16.344,0,0,0,8.12-.937,16.018,16.018,0,0,0,4.407-2.6,9.024,9.024,0,0,0,2.709,2.272,9.153,9.153,0,0,0,4.407,1.114h0v7.293a9.823,9.823,0,0,1-19.646,0Zm-4.9,37.578H35.927V61.424h7.325Zm36.767,0H72.7V61.424H80.02Zm0-4.4H72.7V57.74a1.245,1.245,0,0,0-2.49,0v2.432s0,0,0,.006,0,0,0,.006v3.147H45.742V57.74a1.245,1.245,0,0,0-2.49,0v1.193H35.927V52.265a3.111,3.111,0,0,0,2.263-2.988v-4.7a6.589,6.589,0,0,1,2.925-1.473l6.6-1.451a13.61,13.61,0,0,0,20.518,0l6.6,1.451a6.644,6.644,0,0,1,5.187,6.451ZM60.709,31.4a1.245,1.245,0,1,0-1.2-2.183,3.192,3.192,0,0,1-3.075,0,1.245,1.245,0,1,0-1.2,2.183,5.7,5.7,0,0,0,2.676.7h.059a5.707,5.707,0,0,0,2.735-.7Z"/>
    </g>
  </g>
</svg>
