<svg xmlns="http://www.w3.org/2000/svg" width="505" height="428.611" viewBox="0 0 505 428.611">
  <g id="Grupo_55517" data-name="Grupo 55517" transform="translate(0 292.353)">
    <g id="background" transform="translate(0 -283.353)">
      <rect id="Rectángulo_5673" data-name="Rectángulo 5673" width="505" height="428.611" transform="translate(0 -9)" fill="#e2f6c6"/>
      <path id="Trazado_103175" data-name="Trazado 103175" d="M157,0A157,157,0,1,1,0,157,157,157,0,0,1,157,0Z" transform="translate(95.501 94.573)" fill="#17c878"/>
      <path id="Trazado_104835" data-name="Trazado 104835" d="M13.986-1.934A6.062,6.062,0,0,1,11.44-.376,10.981,10.981,0,0,1,7.767.215a6.551,6.551,0,0,1-4.909-1.88A7.61,7.61,0,0,1,.892-6.9L.881-8.25A9.334,9.334,0,0,1,1.7-12.284a6.062,6.062,0,0,1,2.336-2.653,6.609,6.609,0,0,1,3.518-.929,6.929,6.929,0,0,1,4.539,1.337,5.667,5.667,0,0,1,1.885,3.991H10.345a2.965,2.965,0,0,0-.838-1.869,2.7,2.7,0,0,0-1.826-.559,2.46,2.46,0,0,0-2.191,1.2,6.424,6.424,0,0,0-.784,3.438v.945a6.289,6.289,0,0,0,.8,3.518A2.831,2.831,0,0,0,8.024-2.686a3.168,3.168,0,0,0,2.191-.655V-5.769H7.595V-8.357h6.392ZM21.635.215a5.975,5.975,0,0,1-4.329-1.6,5.509,5.509,0,0,1-1.654-4.152v-.3a7.138,7.138,0,0,1,.661-3.147,4.834,4.834,0,0,1,1.928-2.111,5.821,5.821,0,0,1,3.008-.747,5.031,5.031,0,0,1,3.867,1.52A5.973,5.973,0,0,1,26.533-6.08v1.407h-7.2a2.609,2.609,0,0,0,.849,1.536,2.525,2.525,0,0,0,1.7.559,3.254,3.254,0,0,0,2.686-1.2l1.654,1.955A4.624,4.624,0,0,1,24.3-.338,6.48,6.48,0,0,1,21.635.215Zm-.408-9.26q-1.59,0-1.891,2.105h3.652v-.279a1.793,1.793,0,0,0-.44-1.348A1.753,1.753,0,0,0,21.227-9.045ZM34.074-3.266a.836.836,0,0,0-.483-.741,7.353,7.353,0,0,0-1.837-.58,8.376,8.376,0,0,1-2.234-.79,3.743,3.743,0,0,1-1.343-1.187,2.834,2.834,0,0,1-.462-1.6A3.212,3.212,0,0,1,29.036-10.8,5.443,5.443,0,0,1,32.5-11.838a6.03,6.03,0,0,1,3.7,1.042,3.258,3.258,0,0,1,1.4,2.739H33.956q0-1.4-1.472-1.4a1.459,1.459,0,0,0-.956.317.981.981,0,0,0-.387.79.9.9,0,0,0,.473.784,4.466,4.466,0,0,0,1.509.494,13.042,13.042,0,0,1,1.821.462q2.621.9,2.621,3.233A3.044,3.044,0,0,1,36.153-.784a6.2,6.2,0,0,1-3.658,1,6.322,6.322,0,0,1-2.664-.537A4.455,4.455,0,0,1,28-1.783a3.308,3.308,0,0,1-.655-1.944h3.384a1.4,1.4,0,0,0,.537,1.176,2.209,2.209,0,0,0,1.321.371,1.738,1.738,0,0,0,1.112-.3A.962.962,0,0,0,34.074-3.266Zm9.4-11.247v2.89h1.912v2.514H43.474v5.317a1.358,1.358,0,0,0,.236.913,1.268,1.268,0,0,0,.935.258,5.311,5.311,0,0,0,.9-.064V-.1a6.681,6.681,0,0,1-2.041.312,3.792,3.792,0,0,1-2.761-.881,3.61,3.61,0,0,1-.892-2.675V-9.109H38.371v-2.514h1.482v-2.89ZM50.628,0H47V-11.623h3.631ZM46.782-14.631a1.63,1.63,0,0,1,.559-1.275,2.1,2.1,0,0,1,1.45-.5,2.1,2.1,0,0,1,1.45.5,1.63,1.63,0,0,1,.559,1.275,1.63,1.63,0,0,1-.559,1.275,2.1,2.1,0,0,1-1.45.5,2.1,2.1,0,0,1-1.45-.5A1.63,1.63,0,0,1,46.782-14.631ZM52.4-5.919a6.86,6.86,0,0,1,.677-3.1,4.84,4.84,0,0,1,1.944-2.089A5.856,5.856,0,0,1,58-11.838a5.344,5.344,0,0,1,4.114,1.617,6.2,6.2,0,0,1,1.5,4.4v.129A6.019,6.019,0,0,1,62.106-1.38a5.359,5.359,0,0,1-4.087,1.6,5.42,5.42,0,0,1-3.985-1.488,5.819,5.819,0,0,1-1.622-4.034Zm3.62.226a4.325,4.325,0,0,0,.5,2.363,1.682,1.682,0,0,0,1.493.752q1.934,0,1.977-2.976v-.365q0-3.126-2-3.126-1.815,0-1.966,2.7ZM58.491-16.5h3.824l-2.986,3.373-2.954-.005Zm10.044,4.877.118,1.364a3.942,3.942,0,0,1,3.319-1.579,3.316,3.316,0,0,1,2.712,1.085,5.165,5.165,0,0,1,.929,3.266V0H71.983V-7.337a1.961,1.961,0,0,0-.354-1.294,1.64,1.64,0,0,0-1.289-.414,1.726,1.726,0,0,0-1.579.838V0h-3.62V-11.623ZM87.742-5.07l1.934-6.553h3.878L88.816,1.944l-.2.494a3.6,3.6,0,0,1-3.566,2.256,5.674,5.674,0,0,1-1.493-.214V1.9h.473a2.476,2.476,0,0,0,1.166-.22,1.337,1.337,0,0,0,.6-.79l.29-.774-4.039-11.74h3.867ZM106.52,0a4.087,4.087,0,0,1-.344-1.042A3.366,3.366,0,0,1,103.383.215a4.124,4.124,0,0,1-2.793-.994,3.163,3.163,0,0,1-1.149-2.5,3.251,3.251,0,0,1,1.4-2.857A7.114,7.114,0,0,1,104.9-7.1h1.117v-.615q0-1.608-1.386-1.608A1.133,1.133,0,0,0,103.34-8.05H99.72a3.245,3.245,0,0,1,1.434-2.736,6.027,6.027,0,0,1,3.658-1.051,5.284,5.284,0,0,1,3.513,1.085,3.772,3.772,0,0,1,1.321,2.976v5.146a5.269,5.269,0,0,0,.494,2.449V0Zm-2.267-2.363a2.019,2.019,0,0,0,1.123-.29,1.818,1.818,0,0,0,.639-.655V-5.167h-1.053q-1.891,0-1.891,1.7a1.036,1.036,0,0,0,.333.8A1.205,1.205,0,0,0,104.253-2.363Zm10.721-9.26.118,1.364a3.942,3.942,0,0,1,3.319-1.579,3.316,3.316,0,0,1,2.712,1.085,5.165,5.165,0,0,1,.929,3.266V0h-3.631V-7.337a1.961,1.961,0,0,0-.354-1.294,1.64,1.64,0,0,0-1.289-.414,1.726,1.726,0,0,0-1.579.838V0h-3.62V-11.623ZM130.6,0a4.088,4.088,0,0,1-.344-1.042A3.366,3.366,0,0,1,127.467.215a4.124,4.124,0,0,1-2.793-.994,3.163,3.163,0,0,1-1.149-2.5,3.251,3.251,0,0,1,1.4-2.857,7.114,7.114,0,0,1,4.061-.967H130.1v-.615q0-1.608-1.386-1.608a1.133,1.133,0,0,0-1.289,1.274H123.8a3.245,3.245,0,0,1,1.434-2.736,6.027,6.027,0,0,1,3.658-1.051,5.284,5.284,0,0,1,3.513,1.085,3.772,3.772,0,0,1,1.321,2.976v5.146a5.269,5.269,0,0,0,.494,2.449V0Zm-2.267-2.363a2.019,2.019,0,0,0,1.123-.29,1.818,1.818,0,0,0,.639-.655V-5.167h-1.053q-1.891,0-1.891,1.7a1.036,1.036,0,0,0,.333.8A1.205,1.205,0,0,0,128.337-2.363Zm.9-14.137h3.824l-2.986,3.373-2.954-.005ZM139.552,0h-3.631V-16.5h3.631ZM145.6,0h-3.631V-11.623H145.6Zm-3.846-14.631a1.63,1.63,0,0,1,.559-1.275,2.1,2.1,0,0,1,1.45-.5,2.1,2.1,0,0,1,1.45.5,1.63,1.63,0,0,1,.559,1.275,1.63,1.63,0,0,1-.559,1.275,2.1,2.1,0,0,1-1.45.5,2.1,2.1,0,0,1-1.45-.5A1.63,1.63,0,0,1,141.754-14.631Zm12.16,11.365a.836.836,0,0,0-.483-.741,7.353,7.353,0,0,0-1.837-.58,8.376,8.376,0,0,1-2.234-.79,3.743,3.743,0,0,1-1.343-1.187,2.835,2.835,0,0,1-.462-1.6,3.212,3.212,0,0,1,1.321-2.637,5.443,5.443,0,0,1,3.459-1.037,6.03,6.03,0,0,1,3.7,1.042,3.258,3.258,0,0,1,1.4,2.739H153.8q0-1.4-1.472-1.4a1.459,1.459,0,0,0-.956.317.981.981,0,0,0-.387.79.9.9,0,0,0,.473.784,4.466,4.466,0,0,0,1.509.494,13.042,13.042,0,0,1,1.821.462q2.621.9,2.621,3.233a3.044,3.044,0,0,1-1.413,2.589,6.2,6.2,0,0,1-3.658,1,6.322,6.322,0,0,1-2.664-.537,4.455,4.455,0,0,1-1.826-1.461,3.308,3.308,0,0,1-.655-1.944h3.384a1.4,1.4,0,0,0,.537,1.176,2.209,2.209,0,0,0,1.321.371,1.738,1.738,0,0,0,1.112-.3A.962.962,0,0,0,153.914-3.266Zm9,3.266h-3.631V-11.623h3.631ZM159.07-14.631a1.63,1.63,0,0,1,.559-1.275,2.1,2.1,0,0,1,1.45-.5,2.1,2.1,0,0,1,1.45.5,1.63,1.63,0,0,1,.559,1.275,1.63,1.63,0,0,1-.559,1.275,2.1,2.1,0,0,1-1.45.5,2.1,2.1,0,0,1-1.45-.5A1.63,1.63,0,0,1,159.07-14.631ZM171.23-3.266a.836.836,0,0,0-.483-.741,7.353,7.353,0,0,0-1.837-.58,8.376,8.376,0,0,1-2.234-.79,3.743,3.743,0,0,1-1.343-1.187,2.835,2.835,0,0,1-.462-1.6,3.212,3.212,0,0,1,1.321-2.637,5.443,5.443,0,0,1,3.459-1.037,6.03,6.03,0,0,1,3.7,1.042,3.258,3.258,0,0,1,1.4,2.739h-3.631q0-1.4-1.472-1.4a1.459,1.459,0,0,0-.956.317.981.981,0,0,0-.387.79.9.9,0,0,0,.473.784,4.466,4.466,0,0,0,1.509.494,13.042,13.042,0,0,1,1.821.462q2.621.9,2.621,3.233a3.044,3.044,0,0,1-1.413,2.589,6.2,6.2,0,0,1-3.658,1,6.322,6.322,0,0,1-2.664-.537,4.455,4.455,0,0,1-1.826-1.461,3.308,3.308,0,0,1-.655-1.944h3.384a1.4,1.4,0,0,0,.537,1.176,2.209,2.209,0,0,0,1.321.371,1.738,1.738,0,0,0,1.112-.3A.962.962,0,0,0,171.23-3.266Z" transform="translate(161.225 27.523)" fill="#305399"/>
      <g id="Grupo_55475" data-name="Grupo 55475" transform="translate(62.541 42.246)">
        <path id="Trazado_104833" data-name="Trazado 104833" d="M8.06-4.1V0H5.146V-12.086H9.969a5.617,5.617,0,0,1,2.453.51,3.847,3.847,0,0,1,1.652,1.453,3.967,3.967,0,0,1,.585,2.137,3.5,3.5,0,0,1-1.266,2.826A5.252,5.252,0,0,1,9.919-4.1Zm0-2.25H9.969a1.8,1.8,0,0,0,1.291-.423,1.573,1.573,0,0,0,.444-1.2,1.944,1.944,0,0,0-.457-1.353A1.617,1.617,0,0,0,10-9.836H8.06Zm13.456-.1-.921-.066a1.655,1.655,0,0,0-1.693.83V0H16.1V-8.981h2.623l.091,1.154a2.166,2.166,0,0,1,1.967-1.32,2.728,2.728,0,0,1,.78.1Zm5.2,6.616a4.617,4.617,0,0,1-3.345-1.233,4.257,4.257,0,0,1-1.278-3.208v-.232a5.516,5.516,0,0,1,.51-2.432,3.735,3.735,0,0,1,1.49-1.631,4.5,4.5,0,0,1,2.324-.577A3.888,3.888,0,0,1,29.4-7.973,4.616,4.616,0,0,1,30.5-4.7v1.087H24.936a2.016,2.016,0,0,0,.656,1.187,1.951,1.951,0,0,0,1.312.432,2.514,2.514,0,0,0,2.075-.93l1.278,1.511a3.573,3.573,0,0,1-1.482,1.15A5.007,5.007,0,0,1,26.712.166ZM26.4-6.989q-1.229,0-1.461,1.627h2.822v-.216a1.386,1.386,0,0,0-.34-1.042A1.354,1.354,0,0,0,26.4-6.989Zm9.928,4.466a.646.646,0,0,0-.374-.573,5.682,5.682,0,0,0-1.419-.448,6.473,6.473,0,0,1-1.727-.61,2.892,2.892,0,0,1-1.038-.917,2.19,2.19,0,0,1-.357-1.237,2.482,2.482,0,0,1,1.021-2.038,4.206,4.206,0,0,1,2.673-.8,4.66,4.66,0,0,1,2.855.805,2.518,2.518,0,0,1,1.079,2.117H36.233Q36.233-7.3,35.1-7.3a1.127,1.127,0,0,0-.739.245.758.758,0,0,0-.3.61.7.7,0,0,0,.365.606,3.451,3.451,0,0,0,1.166.382A10.078,10.078,0,0,1,37-5.1a2.556,2.556,0,0,1,2.025,2.5,2.352,2.352,0,0,1-1.092,2A4.787,4.787,0,0,1,35.1.166a4.885,4.885,0,0,1-2.059-.415,3.442,3.442,0,0,1-1.411-1.129,2.556,2.556,0,0,1-.506-1.5h2.615a1.081,1.081,0,0,0,.415.909,1.707,1.707,0,0,0,1.021.286,1.343,1.343,0,0,0,.859-.232A.743.743,0,0,0,36.324-2.523ZM45.679-.971A2.884,2.884,0,0,1,43.28.166a2.829,2.829,0,0,1-2.237-.859,3.613,3.613,0,0,1-.76-2.469V-8.981h2.8v5.835A1,1,0,0,0,44.2-1.992a1.462,1.462,0,0,0,1.37-.689v-6.3h2.814V0H45.762ZM58.255-4.424a5.416,5.416,0,0,1-.942,3.341A3.021,3.021,0,0,1,54.769.166a2.589,2.589,0,0,1-2.034-.9V3.453h-2.8V-8.981h2.615l.083.83a2.589,2.589,0,0,1,2.117-1,3.045,3.045,0,0,1,2.582,1.224,5.483,5.483,0,0,1,.921,3.366Zm-2.8-.174q0-2.391-1.395-2.391a1.316,1.316,0,0,0-1.328.714v3.536a1.359,1.359,0,0,0,1.345.747q1.336,0,1.378-2.308Zm9.38,3.627a2.884,2.884,0,0,1-2.4,1.137A2.829,2.829,0,0,1,60.2-.693a3.613,3.613,0,0,1-.76-2.469V-8.981h2.8v5.835A1,1,0,0,0,63.36-1.992a1.462,1.462,0,0,0,1.37-.689v-6.3h2.814V0H64.92ZM73.42.166a4.617,4.617,0,0,1-3.345-1.233A4.257,4.257,0,0,1,68.8-4.275v-.232a5.516,5.516,0,0,1,.51-2.432A3.735,3.735,0,0,1,70.8-8.571a4.5,4.5,0,0,1,2.324-.577A3.888,3.888,0,0,1,76.11-7.973a4.616,4.616,0,0,1,1.1,3.275v1.087H71.644A2.016,2.016,0,0,0,72.3-2.424a1.951,1.951,0,0,0,1.312.432,2.514,2.514,0,0,0,2.075-.93l1.278,1.511a3.573,3.573,0,0,1-1.482,1.15A5.007,5.007,0,0,1,73.42.166ZM73.1-6.989q-1.229,0-1.461,1.627h2.822v-.216a1.386,1.386,0,0,0-.34-1.042A1.354,1.354,0,0,0,73.1-6.989Zm9.928,4.466a.646.646,0,0,0-.374-.573,5.682,5.682,0,0,0-1.419-.448,6.473,6.473,0,0,1-1.727-.61,2.892,2.892,0,0,1-1.038-.917,2.19,2.19,0,0,1-.357-1.237A2.482,2.482,0,0,1,79.14-8.346a4.206,4.206,0,0,1,2.673-.8,4.66,4.66,0,0,1,2.855.805,2.518,2.518,0,0,1,1.079,2.117H82.941Q82.941-7.3,81.8-7.3a1.127,1.127,0,0,0-.739.245.758.758,0,0,0-.3.61.7.7,0,0,0,.365.606,3.451,3.451,0,0,0,1.166.382,10.078,10.078,0,0,1,1.407.357,2.556,2.556,0,0,1,2.025,2.5,2.352,2.352,0,0,1-1.092,2,4.787,4.787,0,0,1-2.826.772,4.885,4.885,0,0,1-2.059-.415,3.442,3.442,0,0,1-1.411-1.129,2.556,2.556,0,0,1-.506-1.5h2.615a1.081,1.081,0,0,0,.415.909,1.707,1.707,0,0,0,1.021.286,1.343,1.343,0,0,0,.859-.232A.743.743,0,0,0,83.033-2.523ZM90.3-11.214v2.233h1.478v1.942H90.3V-2.93a1.049,1.049,0,0,0,.183.706.98.98,0,0,0,.722.2,4.1,4.1,0,0,0,.7-.05v2a5.163,5.163,0,0,1-1.577.241,2.93,2.93,0,0,1-2.133-.681A2.79,2.79,0,0,1,87.5-2.582V-7.039H86.353V-8.981H87.5v-2.233Zm1.976,6.641a5.3,5.3,0,0,1,.523-2.395,3.74,3.74,0,0,1,1.5-1.615,4.525,4.525,0,0,1,2.3-.564A4.13,4.13,0,0,1,99.775-7.9a4.794,4.794,0,0,1,1.162,3.4v.1a4.651,4.651,0,0,1-1.166,3.333A4.141,4.141,0,0,1,96.613.166a4.188,4.188,0,0,1-3.08-1.15A4.5,4.5,0,0,1,92.28-4.1Zm2.8.174a3.342,3.342,0,0,0,.39,1.826,1.3,1.3,0,0,0,1.154.581q1.494,0,1.527-2.3v-.282q0-2.416-1.544-2.416-1.4,0-1.519,2.083Z" transform="translate(18.584 19.653)" fill="#305399"/>
        <rect id="Rectángulo_5674" data-name="Rectángulo 5674" width="153.09" height="32.966" rx="16.483" fill="none" stroke="#305399" stroke-linecap="round" stroke-linejoin="round" stroke-width="3"/>
        <path id="Trazado_104834" data-name="Trazado 104834" d="M8.9-5.432H4.052v3.059h5.73V0H.967V-12.8H9.8v2.382H4.052v2.7H8.9ZM14.089-9.51V.325a3.452,3.452,0,0,1-.967,2.6,3.714,3.714,0,0,1-2.672.914,6.308,6.308,0,0,1-1.4-.149V1.45a5.667,5.667,0,0,0,.835.079A1.084,1.084,0,0,0,11.118.308V-9.51ZM10.9-11.971a1.334,1.334,0,0,1,.457-1.043,1.718,1.718,0,0,1,1.187-.407,1.718,1.718,0,0,1,1.187.407,1.334,1.334,0,0,1,.457,1.043,1.334,1.334,0,0,1-.457,1.043,1.718,1.718,0,0,1-1.187.407,1.718,1.718,0,0,1-1.187-.407A1.334,1.334,0,0,1,10.9-11.971ZM20.364.176a4.889,4.889,0,0,1-3.542-1.305,4.507,4.507,0,0,1-1.354-3.4v-.246a5.84,5.84,0,0,1,.541-2.575,3.955,3.955,0,0,1,1.578-1.727,4.763,4.763,0,0,1,2.461-.611,4.117,4.117,0,0,1,3.164,1.244,4.887,4.887,0,0,1,1.16,3.467v1.151H18.483a2.135,2.135,0,0,0,.694,1.257,2.066,2.066,0,0,0,1.389.457,2.662,2.662,0,0,0,2.2-.984l1.354,1.6A3.784,3.784,0,0,1,22.548-.277,5.3,5.3,0,0,1,20.364.176ZM20.03-7.4q-1.3,0-1.547,1.723h2.988v-.229a1.467,1.467,0,0,0-.36-1.1A1.434,1.434,0,0,0,20.03-7.4Zm9.554,5.291a1.317,1.317,0,0,0,.967-.338,1.241,1.241,0,0,0,.334-.945h2.777A3.288,3.288,0,0,1,32.542-.826a4.168,4.168,0,0,1-2.887,1,4.22,4.22,0,0,1-3.27-1.3,5.125,5.125,0,0,1-1.2-3.6v-.123A5.792,5.792,0,0,1,25.721-7.4a3.872,3.872,0,0,1,1.534-1.7,4.573,4.573,0,0,1,2.373-.593,4.116,4.116,0,0,1,2.944,1.028,3.647,3.647,0,0,1,1.09,2.786H30.885A1.626,1.626,0,0,0,30.524-7a1.244,1.244,0,0,0-.967-.4q-1.151,0-1.345,1.468a10.357,10.357,0,0,0-.062,1.283,4.068,4.068,0,0,0,.343,1.986A1.187,1.187,0,0,0,29.584-2.109Zm11,1.081a3.054,3.054,0,0,1-2.54,1.2,3,3,0,0,1-2.369-.91,3.826,3.826,0,0,1-.8-2.615V-9.51h2.962v6.179a1.065,1.065,0,0,0,1.187,1.222,1.548,1.548,0,0,0,1.45-.729V-9.51h2.979V0H40.667Zm8.508-1.081a1.317,1.317,0,0,0,.967-.338,1.241,1.241,0,0,0,.334-.945h2.777A3.288,3.288,0,0,1,52.044-.826a4.168,4.168,0,0,1-2.887,1,4.22,4.22,0,0,1-3.27-1.3,5.125,5.125,0,0,1-1.2-3.6v-.123A5.792,5.792,0,0,1,45.224-7.4a3.872,3.872,0,0,1,1.534-1.7,4.573,4.573,0,0,1,2.373-.593,4.116,4.116,0,0,1,2.944,1.028,3.647,3.647,0,0,1,1.09,2.786H50.388A1.626,1.626,0,0,0,50.027-7a1.244,1.244,0,0,0-.967-.4q-1.151,0-1.345,1.468a10.357,10.357,0,0,0-.062,1.283A4.068,4.068,0,0,0,48-2.663,1.187,1.187,0,0,0,49.087-2.109ZM57.542,0H54.571V-9.51h2.971ZM54.4-11.971a1.334,1.334,0,0,1,.457-1.043,1.718,1.718,0,0,1,1.187-.407,1.718,1.718,0,0,1,1.187.407,1.334,1.334,0,0,1,.457,1.043,1.334,1.334,0,0,1-.457,1.043,1.718,1.718,0,0,1-1.187.407,1.718,1.718,0,0,1-1.187-.407A1.334,1.334,0,0,1,54.4-11.971Zm4.6,7.128a5.613,5.613,0,0,1,.554-2.536,3.96,3.96,0,0,1,1.591-1.709,4.791,4.791,0,0,1,2.435-.6,4.373,4.373,0,0,1,3.366,1.323,5.076,5.076,0,0,1,1.23,3.6v.105a4.925,4.925,0,0,1-1.235,3.529A4.384,4.384,0,0,1,63.589.176a4.434,4.434,0,0,1-3.261-1.217A4.761,4.761,0,0,1,59-4.342Zm2.962.185a3.538,3.538,0,0,0,.413,1.934,1.376,1.376,0,0,0,1.222.615q1.582,0,1.617-2.435v-.3q0-2.558-1.635-2.558-1.485,0-1.608,2.206ZM63.976-13.5H67.1l-2.443,2.76-2.417,0Zm8.218,3.99.1,1.116a3.225,3.225,0,0,1,2.716-1.292,2.713,2.713,0,0,1,2.219.888,4.226,4.226,0,0,1,.76,2.672V0H75.015V-6a1.6,1.6,0,0,0-.29-1.059A1.342,1.342,0,0,0,73.67-7.4a1.413,1.413,0,0,0-1.292.686V0H69.416V-9.51Z" transform="translate(260.816 20.653)" fill="#305399"/>
        <rect id="Rectángulo_5675" data-name="Rectángulo 5675" width="153.09" height="32.966" rx="16.483" transform="translate(226.828)" fill="none" stroke="#305399" stroke-linecap="round" stroke-linejoin="round" stroke-width="3"/>
      </g>
    </g>
    <g id="object" transform="translate(53.675 -153.212)">
      <g id="Grupo_55489" data-name="Grupo 55489" transform="translate(121.141 46.159)">
        <g id="Grupo_55476" data-name="Grupo 55476">
          <path id="Trazado_103140" data-name="Trazado 103140" d="M740.307,526.452H593.121V314.671H756.478V512.658C756.478,520.276,749.238,526.452,740.307,526.452Z" transform="translate(-593.082 -314.671)" fill="#f7f7f7"/>
          <rect id="Rectángulo_5676" data-name="Rectángulo 5676" width="163.084" height="9.832" transform="translate(0 0)" fill="#587bc9"/>
        </g>
        <g id="Grupo_55478" data-name="Grupo 55478" transform="translate(38.693 113.984)">
          <g id="Grupo_55477" data-name="Grupo 55477">
            <path id="Trazado_103141" data-name="Trazado 103141" d="M807.749,703.8c2.2,0,2.2-2.487,0-2.487H725.89c-2.2,0-2.2,2.487,0,2.487h81.859Z" transform="translate(-724.24 -701.315)" fill="#9ea6ad"/>
          </g>
        </g>
        <g id="Grupo_55479" data-name="Grupo 55479" transform="translate(34.987 16.652)">
          <path id="Trazado_103142" data-name="Trazado 103142" d="M779.038,371.155a43.3,43.3,0,0,0-32.814,14.987l32.814,28.434,32.814-28.434A43.3,43.3,0,0,0,779.038,371.155Z" transform="translate(-736.037 -371.155)" fill="#d7e8f4"/>
          <path id="Trazado_103143" data-name="Trazado 103143" d="M911.12,496.858l-42.977,6.179v43.421a43.4,43.4,0,0,0,43.421-43.421A43.882,43.882,0,0,0,911.12,496.858Z" transform="translate(-822.014 -459.8)" fill="#305399"/>
          <path id="Trazado_103144" data-name="Trazado 103144" d="M721.9,422.48a43.4,43.4,0,0,0,10.225,64.828L755.1,450.466Z" transform="translate(-711.67 -407.349)" fill="#7db5db"/>
          <path id="Trazado_103145" data-name="Trazado 103145" d="M802.644,561.032a43.218,43.218,0,0,1-23.473-6.9l23.478-36.524Z" transform="translate(-759.271 -474.437)" fill="#587bc9"/>
          <path id="Trazado_103146" data-name="Trazado 103146" d="M918.609,435.511a43.223,43.223,0,0,0-10.162-22.255L875.632,441.69Z" transform="translate(-827.295 -400.844)" fill="#3b455a"/>
        </g>
        <g id="Grupo_55484" data-name="Grupo 55484" transform="translate(19.244 127.302)">
          <g id="Grupo_55480" data-name="Grupo 55480" transform="translate(0 21.666)">
            <rect id="Rectángulo_5677" data-name="Rectángulo 5677" width="15.951" height="38.421" transform="translate(0 14.877)" fill="#587bc9"/>
            <rect id="Rectángulo_5678" data-name="Rectángulo 5678" width="15.951" height="18.055" fill="#d7e8f4"/>
          </g>
          <g id="Grupo_55481" data-name="Grupo 55481" transform="translate(105.011 5.85)">
            <rect id="Rectángulo_5679" data-name="Rectángulo 5679" width="15.951" height="38.421" transform="translate(0 32.427)" fill="#587bc9"/>
            <rect id="Rectángulo_5680" data-name="Rectángulo 5680" width="16.055" height="35.604" fill="#d7e8f4"/>
          </g>
          <g id="Grupo_55482" data-name="Grupo 55482" transform="translate(70.007 31.632)">
            <rect id="Rectángulo_5681" data-name="Rectángulo 5681" width="15.951" height="40.588" transform="translate(0 3.611)" fill="#587bc9"/>
            <rect id="Rectángulo_5682" data-name="Rectángulo 5682" width="15.951" height="26.938" fill="#d7e8f4"/>
          </g>
          <g id="Grupo_55483" data-name="Grupo 55483" transform="translate(35.004)">
            <rect id="Rectángulo_5683" data-name="Rectángulo 5683" width="15.951" height="54.508" transform="translate(0 21.106)" fill="#587bc9"/>
            <rect id="Rectángulo_5684" data-name="Rectángulo 5684" width="15.951" height="43.597" fill="#d7e8f4"/>
          </g>
        </g>
        <g id="Grupo_55488" data-name="Grupo 55488" transform="translate(4.133 3.501)">
          <g id="Grupo_55485" data-name="Grupo 55485">
            <path id="Trazado_103147" data-name="Trazado 103147" d="M609.109,330.743a2.1,2.1,0,1,1,2.1-2.1A2.1,2.1,0,0,1,609.109,330.743Zm0-3.846a1.748,1.748,0,1,0,1.748,1.748A1.75,1.75,0,0,0,609.109,326.9Z" transform="translate(-607.011 -326.548)" fill="#fff"/>
          </g>
          <g id="Grupo_55486" data-name="Grupo 55486" transform="translate(6.468)">
            <path id="Trazado_103148" data-name="Trazado 103148" d="M631.047,330.743a2.1,2.1,0,1,1,2.1-2.1A2.1,2.1,0,0,1,631.047,330.743Zm0-3.846a1.748,1.748,0,1,0,1.748,1.748A1.75,1.75,0,0,0,631.047,326.9Z" transform="translate(-628.95 -326.548)" fill="#fff"/>
          </g>
          <g id="Grupo_55487" data-name="Grupo 55487" transform="translate(12.935)">
            <path id="Trazado_103149" data-name="Trazado 103149" d="M652.987,330.743a2.1,2.1,0,1,1,2.1-2.1A2.1,2.1,0,0,1,652.987,330.743Zm0-3.846a1.748,1.748,0,1,0,1.748,1.748A1.75,1.75,0,0,0,652.987,326.9Z" transform="translate(-650.889 -326.548)" fill="#fff"/>
          </g>
        </g>
      </g>
      <path id="Trazado_103150" data-name="Trazado 103150" d="M358.958,669.284H254.83V508.468h113.8V659.614A9.669,9.669,0,0,1,358.958,669.284Z" transform="translate(-233.38 -405.177)" fill="#2e4661" opacity="0.07"/>
      <g id="Grupo_55491" data-name="Grupo 55491" transform="translate(8.52 91.125)">
        <g id="Grupo_55490" data-name="Grupo 55490">
          <path id="Trazado_103151" data-name="Trazado 103151" d="M319.5,635.683H210.972V467.2H333.59v154.4A14.089,14.089,0,0,1,319.5,635.683Z" transform="translate(-210.972 -467.198)" fill="#7db5db"/>
        </g>
        <rect id="Rectángulo_5685" data-name="Rectángulo 5685" width="99.262" height="62.769" transform="translate(13.014 13.453)" fill="#fff"/>
        <path id="Trazado_103152" data-name="Trazado 103152" d="M337.732,547.72a4.148,4.148,0,0,0,2.473,2.044c2.514.938,5.893.261,7.341-1.843,2.422-3.518,1.741-8.553,4.347-12.208a8.554,8.554,0,0,1,4.572-3.229,7.821,7.821,0,0,1,5.775.549c2.756,1.518,3.71,4.655,3.737,7.5a88.678,88.678,0,0,1-1.7,16.516c-.477,2.611-1.211,5.293-3.1,7.356-2.566,2.8-6.793,3.963-10.834,4.586-10.226,1.576-20.714.612-31.038-.355L294.393,566.3c-2.341-.219-9.234.135-10.635-1.487-1.368-1.584-.293-6.951.507-8.608,1.782-3.689,6.657-5.772,11.233-5.537,10.321.528,6.241-10.25,9.545-15.368,1.755-2.719,5.619-4.673,8.948-3.54,3.174,1.08,4.5,4.267,6.065,6.911a5.735,5.735,0,0,0,3.7,3.093c2.952.505,5.414-2.5,8.419-2.38a5.026,5.026,0,0,1,4.062,2.673C337.283,543.969,336.919,546.079,337.732,547.72Z" transform="translate(-261.838 -512.497)" fill="#d7e8f4"/>
        <path id="Trazado_103153" data-name="Trazado 103153" d="M361.22,598.813s.016-4.518.017-4.766c.024-6.742.023-13.484.032-20.226.008-6.442.539-12.881.435-19.307-.047-2.973-1.331-4.526-4.461-3.729a14.471,14.471,0,0,0-7.841,5.138c-1.314,1.709-2.406,3.85-4.449,4.539-3.652,1.231-6.64-2.882-9.92-4.906a10.2,10.2,0,0,0-11.615.867c-3.829,3.238-4.707,8.837-7.948,12.664a13.082,13.082,0,0,1-15.051,3.313c-2.056-.955-3.824-2.444-5.85-3.46-8.039-4.03-19.215,1.769-20.549,10.661V598S361.382,598.975,361.22,598.813Z" transform="translate(-255.431 -525.997)" fill="#eac5b0"/>
        <rect id="Rectángulo_5686" data-name="Rectángulo 5686" width="7.461" height="7.461" transform="translate(14.636 85.791)" fill="#305399"/>
        <rect id="Rectángulo_5687" data-name="Rectángulo 5687" width="7.461" height="7.461" transform="translate(14.636 96.82)" fill="#587bc9"/>
        <rect id="Rectángulo_5688" data-name="Rectángulo 5688" width="21.734" height="2.271" transform="translate(28.26 88.062)" fill="#f7f7f7"/>
        <rect id="Rectángulo_5689" data-name="Rectángulo 5689" width="21.734" height="2.271" transform="translate(27.936 100.064)" fill="#f7f7f7"/>
        <rect id="Rectángulo_5690" data-name="Rectángulo 5690" width="94.721" height="2.453" transform="translate(15.609 117.003)" fill="#f7f7f7"/>
        <rect id="Rectángulo_5691" data-name="Rectángulo 5691" width="42.17" height="33.614" transform="translate(15.609 124.129)" fill="#3b455a"/>
        <rect id="Rectángulo_5692" data-name="Rectángulo 5692" width="46.063" height="14.638" transform="translate(64.267 124.454)" fill="#587bc9"/>
        <rect id="Rectángulo_5693" data-name="Rectángulo 5693" width="46.063" height="14.638" transform="translate(63.78 142.944)" fill="#305399"/>
      </g>
      <g id="Grupo_55493" data-name="Grupo 55493" transform="translate(0 21.497)">
        <path id="Trazado_103154" data-name="Trazado 103154" d="M260.108,231.015h-77.5a.566.566,0,0,0-.541.589v41.054c0,10.122,7.53,18.327,16.82,18.327h32.132l13.138,18.433a.627.627,0,0,0,1.137-.354l.27-18.079h14.541a.566.566,0,0,0,.541-.589V231.6A.566.566,0,0,0,260.108,231.015Z" transform="translate(-182.07 -231.015)" fill="#305399"/>
        <g id="Grupo_55492" data-name="Grupo 55492" transform="translate(10.148 9.811)">
          <rect id="Rectángulo_5694" data-name="Rectángulo 5694" width="48.273" height="2.011" fill="#d7e8f4"/>
          <rect id="Rectángulo_5695" data-name="Rectángulo 5695" width="57.576" height="2.011" transform="translate(0 15.337)" fill="#d7e8f4"/>
          <rect id="Rectángulo_5696" data-name="Rectángulo 5696" width="57.576" height="2.011" transform="translate(0 30.673)" fill="#d7e8f4"/>
        </g>
      </g>
      <g id="Grupo_55496" data-name="Grupo 55496" transform="translate(70.978 0)">
        <g id="Grupo_55494" data-name="Grupo 55494">
          <path id="Trazado_103155" data-name="Trazado 103155" d="M480.315,198.841H422.834V158.1h53.825l11.527,12.175v20.156A8.156,8.156,0,0,1,480.315,198.841Z" transform="translate(-422.834 -158.096)" fill="#587bc9"/>
          <path id="Trazado_103156" data-name="Trazado 103156" d="M616.678,170.368l-11.573.291V158.1Z" transform="translate(-551.371 -158.096)" fill="#eac5b0"/>
        </g>
        <g id="Grupo_55495" data-name="Grupo 55495" transform="translate(9.954 10.574)">
          <rect id="Rectángulo_5697" data-name="Rectángulo 5697" width="36.67" height="1.746" transform="translate(5.809)" fill="#7db5db"/>
          <rect id="Rectángulo_5698" data-name="Rectángulo 5698" width="42.479" height="1.746" transform="translate(0 8.44)" fill="#7db5db"/>
          <rect id="Rectángulo_5699" data-name="Rectángulo 5699" width="42.479" height="1.746" transform="translate(0 16.88)" fill="#7db5db"/>
        </g>
      </g>
      <g id="Grupo_55500" data-name="Grupo 55500" transform="translate(243.639 67.931)">
        <g id="Grupo_55497" data-name="Grupo 55497" transform="translate(0 51.724)">
          <path id="Trazado_103157" data-name="Trazado 103157" d="M1009.112,566.62a.443.443,0,0,1-.437-.382c-.082-.6-.136-1.2-.16-1.8a.442.442,0,1,1,.884-.035c.023.572.074,1.15.152,1.719a.442.442,0,0,1-.378.5A.466.466,0,0,1,1009.112,566.62Z" transform="translate(-1008.514 -563.974)" fill="#fb9e36"/>
        </g>
        <g id="Grupo_55498" data-name="Grupo 55498" transform="translate(0.198 4.82)">
          <path id="Trazado_103158" data-name="Trazado 103158" d="M1009.629,449.145a.468.468,0,0,1-.067-.005.442.442,0,0,1-.371-.5,20.793,20.793,0,0,1,.852-3.494.442.442,0,0,1,.839.282,19.845,19.845,0,0,0-.816,3.344A.442.442,0,0,1,1009.629,449.145Zm2.212-6.658a.442.442,0,0,1-.393-.645,27.787,27.787,0,0,1,1.848-3.065.442.442,0,1,1,.727.5,26.841,26.841,0,0,0-1.789,2.967A.443.443,0,0,1,1011.84,442.487Zm3.986-5.795a.442.442,0,0,1-.333-.733c.765-.877,1.6-1.741,2.476-2.569a.442.442,0,0,1,.607.644c-.857.807-1.67,1.651-2.416,2.506A.442.442,0,0,1,1015.827,436.693Zm5.12-4.835a.442.442,0,0,1-.273-.79c.927-.728,1.9-1.427,2.895-2.078a.442.442,0,1,1,.485.74c-.973.638-1.926,1.322-2.833,2.034A.44.44,0,0,1,1020.946,431.858Zm5.89-3.866a.442.442,0,0,1-.213-.83c1.028-.564,2.092-1.108,3.163-1.616a.442.442,0,0,1,.379.8c-1.055.5-2.1,1.036-3.116,1.592A.439.439,0,0,1,1026.837,427.992Zm6.366-3.022a.442.442,0,0,1-.166-.852c1.081-.439,2.2-.857,3.323-1.244a.442.442,0,1,1,.287.836c-1.109.381-2.212.794-3.278,1.227A.442.442,0,0,1,1033.2,424.97Zm6.662-2.295a.442.442,0,0,1-.122-.867c1.118-.321,2.272-.623,3.43-.9a.442.442,0,0,1,.2.861c-1.145.27-2.285.568-3.389.886A.442.442,0,0,1,1039.864,422.675Zm56.383-1.253h-.359a.442.442,0,0,1-.439-.445.435.435,0,0,1,.446-.439l.352,0c1.094,0,2.147-.039,3.133-.115a.442.442,0,1,1,.068.882C1098.44,421.383,1097.363,421.422,1096.247,421.422Zm-3.878-.136h-.029c-1.052-.069-2.206-.165-3.527-.3a.442.442,0,1,1,.087-.88c1.312.129,2.456.225,3.5.293a.442.442,0,0,1-.028.884Zm-45.648-.234a.442.442,0,0,1-.082-.877c1.139-.216,2.314-.413,3.493-.586a.442.442,0,0,1,.129.875c-1.167.171-2.33.366-3.458.58A.469.469,0,0,1,1046.721,421.052Zm56.185-.209a.442.442,0,0,1-.083-.876,24.526,24.526,0,0,0,3.344-.888.442.442,0,1,1,.289.836,25.415,25.415,0,0,1-3.464.921A.458.458,0,0,1,1102.906,420.843Zm-17.555-.224-.049,0-1.05-.114q-1.222-.132-2.451-.252a.442.442,0,0,1,.086-.88q1.233.12,2.461.253l1.051.115a.442.442,0,0,1-.047.882Zm-31.658-.6a.442.442,0,0,1-.047-.882c1.15-.124,2.336-.231,3.526-.318a.442.442,0,0,1,.064.882c-1.179.086-2.355.192-3.495.315Zm24.641-.083-.036,0c-1.184-.095-2.364-.177-3.508-.247a.442.442,0,1,1,.053-.883c1.15.07,2.336.153,3.525.248a.442.442,0,0,1-.035.883Zm-7.038-.423h-.017c-1.186-.046-2.368-.078-3.513-.095a.442.442,0,0,1-.436-.449.436.436,0,0,1,.449-.436c1.152.017,2.342.049,3.534.1a.442.442,0,0,1-.017.884Zm-10.573-.01a.442.442,0,0,1-.018-.884c1.155-.047,2.345-.078,3.537-.092a.448.448,0,0,1,.447.437.442.442,0,0,1-.437.448c-1.183.014-2.365.045-3.511.091Zm48.815-.981a.442.442,0,0,1-.21-.832,22.49,22.49,0,0,0,2.9-1.87.442.442,0,1,1,.534.7,23.361,23.361,0,0,1-3.017,1.944A.442.442,0,0,1,1109.537,418.527Zm5.612-4.224a.442.442,0,0,1-.313-.755,29.954,29.954,0,0,0,2.306-2.594.442.442,0,1,1,.693.549,30.858,30.858,0,0,1-2.375,2.671A.441.441,0,0,1,1115.149,414.3Zm4.385-5.5a.442.442,0,0,1-.371-.682c.61-.948,1.2-1.961,1.759-3.011a.442.442,0,1,1,.781.415c-.569,1.072-1.174,2.106-1.8,3.075A.443.443,0,0,1,1119.534,408.8Z" transform="translate(-1009.186 -404.873)" fill="#fb9e36"/>
        </g>
        <g id="Grupo_55499" data-name="Grupo 55499" transform="translate(113.428)">
          <path id="Trazado_103159" data-name="Trazado 103159" d="M1393.713,391.036a.442.442,0,0,1-.4-.621c.232-.525.461-1.069.682-1.616a.442.442,0,0,1,.82.331c-.224.556-.457,1.109-.693,1.643A.442.442,0,0,1,1393.713,391.036Z" transform="translate(-1393.271 -388.522)" fill="#fb9e36"/>
        </g>
      </g>
      <g id="Grupo_55501" data-name="Grupo 55501" transform="translate(342.639 33.986)">
        <path id="Trazado_103160" data-name="Trazado 103160" d="M1381.053,274.588l-1.847,41.941-13.849-14.539s15.755-28.578,15.865-28.106l-.6-.5c.466-.133-16.851,27.526-16.851,27.526l-19.437-5.036,35.755-22Z" transform="translate(-1344.329 -273.379)" fill="#fb9e36"/>
      </g>
      <g id="Grupo_55505" data-name="Grupo 55505" transform="translate(273.144 167.588)">
        <rect id="Rectángulo_5700" data-name="Rectángulo 5700" width="81.727" height="59.083" transform="translate(0 3.428)" fill="#2e4661" opacity="0.07"/>
        <g id="Grupo_55504" data-name="Grupo 55504" transform="translate(2.792)">
          <g id="Grupo_55503" data-name="Grupo 55503">
            <g id="Grupo_55502" data-name="Grupo 55502">
              <rect id="Rectángulo_5701" data-name="Rectángulo 5701" width="82.282" height="59.259" fill="#305399"/>
              <rect id="Rectángulo_5702" data-name="Rectángulo 5702" width="82.17" height="4.717" fill="#587bc9"/>
            </g>
            <path id="Trazado_103161" data-name="Trazado 103161" d="M1200.86,752.97v-.183h-10.1v-9.911h-.183v9.911h-12.108v-9.911h-.183v9.911h-12.108v-9.911H1166v9.911h-12.108v-9.911h-.183v9.911H1141.6v-9.911h-.183v9.911h-12.108v-9.911h-.183v9.911h-10.085v.183h10.085v11.2h-10.085v.183h10.085v11.2h-10.085v.183h10.085v11.2h-10.085v.183h10.085v10.42h.183v-10.42h12.108v10.42h.183v-10.42H1153.7v10.42h.183v-10.42H1166v10.42h.183v-10.42h12.108v10.42h.183v-10.42h12.108v10.42h.183v-10.42h10.1v-.183h-10.1v-11.2h10.1v-.183h-10.1v-11.2h10.1v-.183h-10.1v-11.2Zm-22.574,0v11.2h-12.108v-11.2Zm-24.4,11.381H1166v11.2h-12.108Zm-.183,11.2H1141.6v-11.2H1153.7Zm12.474-11.2h12.108v11.2h-12.108ZM1166,752.97v11.2h-12.108v-11.2Zm-12.291,0v11.2H1141.6v-11.2Zm-24.4,0h12.108v11.2h-12.108Zm0,11.381h12.108v11.2h-12.108Zm0,22.58v-11.2h12.108v11.2Zm12.291,0v-11.2H1153.7v11.2Zm12.291,0v-11.2H1166v11.2Zm12.291,0v-11.2h12.108v11.2Zm24.4,0h-12.108v-11.2h12.108Zm0-11.381h-12.108v-11.2h12.108Zm0-11.381h-12.108v-11.2h12.108Z" transform="translate(-1118.751 -738.068)" fill="#272525" opacity="0.03"/>
          </g>
          <path id="Trazado_103162" data-name="Trazado 103162" d="M1199.416,768.338a2.51,2.51,0,0,0-1.762,4.3l-8.734,7.521-.664.572a2.509,2.509,0,1,0-2.938,4.06l-1.913,4.606-.816,1.964a2.5,2.5,0,0,0-2.737,1.183l-8.437-5.333-6.252-3.952a2.51,2.51,0,1,0-4.788-.419l-11.832,4.829-1.16.473a2.51,2.51,0,1,0-4.023,2.824l-1.757,1.995-8.388,9.521a2.526,2.526,0,1,0,.651.642l7.162-8.13,3.108-3.528a2.509,2.509,0,0,0,3.456-2.325c0-.034,0-.067-.005-.1l.171-.07,12.964-5.292a2.5,2.5,0,0,0,3.953.351l5.67,3.584,9.2,5.814a2.509,2.509,0,1,0,3.881-1.708l2.733-6.581a2.509,2.509,0,0,0,3.039-2.454,2.5,2.5,0,0,0-.344-1.264l1.545-1.33,6.617-5.7,1.427-1.229a2.511,2.511,0,1,0,.976-4.824Z" transform="translate(-1125.988 -756.024)" fill="#f7f7f7"/>
        </g>
      </g>
      <g id="Grupo_55516" data-name="Grupo 55516" transform="translate(194.265 18.934)">
        <g id="Grupo_55514" data-name="Grupo 55514" transform="translate(0)">
          <g id="Grupo_55512" data-name="Grupo 55512">
            <g id="Grupo_55509" data-name="Grupo 55509">
              <g id="Grupo_55507" data-name="Grupo 55507" transform="translate(105.189 87.318)">
                <g id="Grupo_55506" data-name="Grupo 55506">
                  <path id="Trazado_103163" data-name="Trazado 103163" d="M1263.562,553.707l-9.846,15.772-55.871-35.2,9.846-15.772Z" transform="translate(-1197.844 -518.51)" fill="#f7f7f7"/>
                  <path id="Trazado_103164" data-name="Trazado 103164" d="M1353.574,618.991l-.114.182c-3.106,4.975-8.648,7.12-12.38,4.79l-42.886-26.324,11.27-18.954,42.978,27.08C1356.173,608.094,1356.68,614.016,1353.574,618.991Z" transform="translate(-1268.61 -560.945)" fill="#305399"/>
                </g>
                <path id="Trazado_103165" data-name="Trazado 103165" d="M1211.1,538.36l2.7,1.97,24.482-6.355-20.4-13.016Z" transform="translate(-1207.195 -520.237)" fill="#bbbcbf" opacity="0.2" style="mix-blend-mode: multiply;isolation: isolate"/>
              </g>
              <g id="Grupo_55508" data-name="Grupo 55508">
                <path id="Trazado_103166" data-name="Trazado 103166" d="M967.735,271.912a55.965,55.965,0,1,0,17.835,77.11A55.965,55.965,0,0,0,967.735,271.912Zm11.2,72.969a48.144,48.144,0,1,1-15.343-66.335A48.144,48.144,0,0,1,978.937,344.881Z" transform="translate(-870.012 -251.299)" fill="#305399"/>
                <circle id="Elipse_4173" data-name="Elipse 4173" cx="48.144" cy="48.144" r="48.144" transform="translate(0 68.086) rotate(-45)" fill="#d7e8f4" opacity="0.5"/>
              </g>
            </g>
            <g id="Grupo_55511" data-name="Grupo 55511" transform="translate(26.661 24.663)">
              <g id="Grupo_55510" data-name="Grupo 55510" opacity="0.22">
                <path id="Trazado_103167" data-name="Trazado 103167" d="M938.2,347.464a33.907,33.907,0,0,1,63.193-17.975c2.191,3.737,8.149.614,5.955-3.128a41.139,41.139,0,0,0-43.98-19.485c-17.044,3.628-29.62,18.277-31.67,35.4a37.172,37.172,0,0,0-.221,4.993c.067,4.319,6.791,4.547,6.724.2Z" transform="translate(-931.471 -305.98)" fill="#fff"/>
              </g>
              <circle id="Elipse_4174" data-name="Elipse 4174" cx="4.43" cy="4.43" r="4.43" transform="translate(72.656 30.033) rotate(-7.528)" fill="#fff" opacity="0.31"/>
            </g>
          </g>
          <path id="Trazado_103168" data-name="Trazado 103168" d="M1293.818,592.3l10.723-18.033a1.4,1.4,0,0,0-.371-1.846l-.188-.139a1.4,1.4,0,0,0-2.05.422l-10.559,18.159a1.4,1.4,0,0,0,.532,1.933l.025.014A1.4,1.4,0,0,0,1293.818,592.3Z" transform="translate(-1158.477 -468.919)" fill="#7db5db"/>
          <g id="Grupo_55513" data-name="Grupo 55513" transform="translate(17.228 18.233)">
            <path id="Trazado_103169" data-name="Trazado 103169" d="M997.294,334.365a47.645,47.645,0,1,1-6.391-23.851,48.006,48.006,0,0,1,6.391,23.851,1.281,1.281,0,0,0,2.561,0,50.2,50.2,0,1,0-15.91,36.664,50.77,50.77,0,0,0,15.91-36.664A1.281,1.281,0,0,0,997.294,334.365Z" transform="translate(-899.471 -284.168)" fill="#f7f7f7"/>
          </g>
        </g>
        <path id="Trazado_103170" data-name="Trazado 103170" d="M1347.184,593.948c1.809-4.75,4.43-14.138,5.937-18.7-3.3-11.1-10.095-29.65-10.8-29.854-4.117-1.192-7.788-2.283-11.893-3.468-.19-.055-1.394,6.086-1.583,6.031a8.751,8.751,0,0,1-.264-2.674v0l-.791-7.982a1.506,1.506,0,0,0-1.127-1.407c-2.405-.625-7.6-1.844-7.826-1.467-.083.139-.532,7.067-.9,9.047l-.867-.453-1.131-12.929s-8.983-2.264-9.16-1.847c-.207.49-2.205,11.459-2.205,11.459s-3.475,26.177-3.87,28.038c-.578,2.725-2.4,5.168-2.137,7.885.293,3.035,1.621,5.852,2.934,8.615l9.508,20.011c.692,4.528,1.417,14.9,2.458,19.356,11.722-2.365,23.5-4.155,36.542-8.308C1350.375,615.186,1346.4,596,1347.184,593.948Z" transform="translate(-1163.664 -438.022)" fill="#eac5b0"/>
        <g id="Grupo_55515" data-name="Grupo 55515" transform="translate(139.764 161.484)">
          <path id="Trazado_103171" data-name="Trazado 103171" d="M1331.77,811.234l-2.706-23.793,46.863-17.353,8.147,29.008-52.144,15.568Z" transform="translate(-1324.954 -770.088)" fill="#f7f7f7"/>
          <path id="Trazado_103172" data-name="Trazado 103172" d="M1376.045,817.74s-48.2,27.545-58.168,30.154l-2.753,64.85h81.956Z" transform="translate(-1315.124 -803.692)" fill="#7db5db"/>
          <path id="Trazado_103173" data-name="Trazado 103173" d="M1350.276,853.771a2.672,2.672,0,1,1-1.9-3.267A2.672,2.672,0,0,1,1350.276,853.771Z" transform="translate(-1336.207 -826.733)" fill="#3b455a"/>
        </g>
        <path id="Trazado_103174" data-name="Trazado 103174" d="M1252.288,635.8l-6.252-9.858-9.049-8.427s-1.758-5.08,3.912-5.221,9.486,4.6,12,8.363c1.1,1.655,6.438,6.471,10.58,9.417,5.417,3.854-.242,20.825-.242,20.825S1252.916,636.744,1252.288,635.8Z" transform="translate(-1120.077 -497.329)" fill="#eac5b0"/>
      </g>
    </g>
  </g>
</svg>
