<svg xmlns="http://www.w3.org/2000/svg" xmlns:xlink="http://www.w3.org/1999/xlink" width="81" height="81" viewBox="0 0 81 81">
  <defs>
    <clipPath id="clip-path">
      <rect id="Rect치ngulo_5468" data-name="Rect치ngulo 5468" width="73" height="73" rx="10" transform="translate(1032 2939)" fill="#fff" stroke="#707070" stroke-width="1"/>
    </clipPath>
  </defs>
  <g id="Grupo_56525" data-name="Grupo 56525" transform="translate(-1028 -2935)">
    <rect id="Rect치ngulo_5668" data-name="Rect치ngulo 5668" width="81" height="81" rx="10" transform="translate(1028 2935)" fill="#e2f6c6"/>
    <g id="Enmascarar_grupo_59" data-name="Enmascarar grupo 59" clip-path="url(#clip-path)">
      <g id="niveles" transform="translate(1032 2945.906)">
        <path id="Trazado_103111" data-name="Trazado 103111" d="M71.257,35.393H62.229a5.528,5.528,0,0,1,0,4.4h9.028A1.743,1.743,0,0,0,73,38.05v-.914a1.743,1.743,0,0,0-1.743-1.743Zm0,0" fill="#dfebfa"/>
        <path id="Trazado_103112" data-name="Trazado 103112" d="M11.884,5.6a5.5,5.5,0,0,1,.457-2.2H1.743A1.743,1.743,0,0,0,0,5.138v.914A1.743,1.743,0,0,0,1.743,7.8h10.6a5.5,5.5,0,0,1-.457-2.2Zm0,0" fill="#ff656f"/>
        <path id="Trazado_103113" data-name="Trazado 103113" d="M22.932,21.594a5.506,5.506,0,0,1,.456-2.2H1.743A1.743,1.743,0,0,0,0,21.137v.914a1.743,1.743,0,0,0,1.743,1.743H23.388a5.506,5.506,0,0,1-.456-2.2Zm0,0" fill="#fee55a"/>
        <path id="Trazado_103114" data-name="Trazado 103114" d="M52.518,37.593a5.508,5.508,0,0,1,.457-2.2H1.743A1.743,1.743,0,0,0,0,37.137v.914a1.743,1.743,0,0,0,1.743,1.743H52.976a5.5,5.5,0,0,1-.457-2.2Zm0,0" fill="#43cb8e"/>
        <path id="Trazado_103115" data-name="Trazado 103115" d="M22.932,53.593a5.508,5.508,0,0,1,.456-2.2H1.743A1.743,1.743,0,0,0,0,53.135v.914a1.743,1.743,0,0,0,1.743,1.743H23.388a5.506,5.506,0,0,1-.456-2.2Zm0,0" fill="#60b8fe"/>
        <path id="Trazado_103116" data-name="Trazado 103116" d="M4.407,6.052V5.138A1.743,1.743,0,0,1,6.15,3.4H1.743A1.743,1.743,0,0,0,0,5.138v.914A1.743,1.743,0,0,0,1.743,7.8H6.15A1.743,1.743,0,0,1,4.407,6.052Zm0,0" fill="#ff4756"/>
        <path id="Trazado_103117" data-name="Trazado 103117" d="M4.407,22.051v-.914A1.743,1.743,0,0,1,6.15,19.394H1.743A1.743,1.743,0,0,0,0,21.137v.914a1.743,1.743,0,0,0,1.743,1.743H6.15A1.743,1.743,0,0,1,4.407,22.051Zm0,0" fill="#ffd301"/>
        <path id="Trazado_103118" data-name="Trazado 103118" d="M4.407,38.051v-.914A1.743,1.743,0,0,1,6.15,35.393H1.743A1.743,1.743,0,0,0,0,37.137v.914a1.743,1.743,0,0,0,1.743,1.743H6.15A1.743,1.743,0,0,1,4.407,38.051Zm0,0" fill="#00ba66"/>
        <path id="Trazado_103119" data-name="Trazado 103119" d="M4.407,54.049v-.914A1.743,1.743,0,0,1,6.15,51.392H1.743A1.743,1.743,0,0,0,0,53.135v.914a1.743,1.743,0,0,0,1.743,1.743H6.15A1.743,1.743,0,0,1,4.407,54.049Zm0,0" fill="#23a8fe"/>
        <g id="Grupo_55474" data-name="Grupo 55474">
          <path id="Trazado_103120" data-name="Trazado 103120" d="M71.257,3.4H21.594a5.528,5.528,0,0,1,0,4.4H71.257A1.743,1.743,0,0,0,73,6.052V5.138A1.743,1.743,0,0,0,71.257,3.4Zm0,0" fill="#dfebfa"/>
          <path id="Trazado_103121" data-name="Trazado 103121" d="M71.257,19.394H32.642a5.527,5.527,0,0,1,0,4.4H71.257A1.743,1.743,0,0,0,73,22.051v-.914a1.743,1.743,0,0,0-1.743-1.743Zm0,0" fill="#dfebfa"/>
          <path id="Trazado_103122" data-name="Trazado 103122" d="M71.257,51.392H32.642a5.528,5.528,0,0,1,0,4.4H71.257A1.743,1.743,0,0,0,73,54.049v-.914a1.743,1.743,0,0,0-1.743-1.743Zm0,0" fill="#dfebfa"/>
        </g>
        <path id="Trazado_103123" data-name="Trazado 103123" d="M22.491,5.6A5.524,5.524,0,1,1,16.967.071,5.524,5.524,0,0,1,22.491,5.6Zm0,0" fill="#ff656f"/>
        <path id="Trazado_103124" data-name="Trazado 103124" d="M15.886,5.6a5.523,5.523,0,0,1,3.3-5.057,5.524,5.524,0,1,0,0,10.115,5.525,5.525,0,0,1-3.3-5.058Zm0,0" fill="#ff4756"/>
        <path id="Trazado_103125" data-name="Trazado 103125" d="M33.539,21.594a5.524,5.524,0,1,1-5.524-5.524A5.523,5.523,0,0,1,33.539,21.594Zm0,0" fill="#fee55a"/>
        <path id="Trazado_103126" data-name="Trazado 103126" d="M26.934,21.594a5.525,5.525,0,0,1,3.3-5.058,5.524,5.524,0,1,0,0,10.115,5.525,5.525,0,0,1-3.3-5.058Zm0,0" fill="#ffd301"/>
        <path id="Trazado_103127" data-name="Trazado 103127" d="M63.126,37.593A5.524,5.524,0,1,1,57.6,32.069,5.524,5.524,0,0,1,63.126,37.593Zm0,0" fill="#43cb8e"/>
        <path id="Trazado_103128" data-name="Trazado 103128" d="M56.521,37.593a5.525,5.525,0,0,1,3.3-5.058,5.524,5.524,0,1,0,0,10.116,5.525,5.525,0,0,1-3.3-5.058Zm0,0" fill="#00ba66"/>
        <path id="Trazado_103129" data-name="Trazado 103129" d="M33.539,53.593a5.524,5.524,0,1,1-5.524-5.524A5.523,5.523,0,0,1,33.539,53.593Zm0,0" fill="#60b8fe"/>
        <path id="Trazado_103130" data-name="Trazado 103130" d="M26.934,53.593a5.524,5.524,0,0,1,3.3-5.058,5.524,5.524,0,1,0,0,10.115,5.525,5.525,0,0,1-3.3-5.058Zm0,0" fill="#23a8fe"/>
      </g>
    </g>
  </g>
</svg>
