<svg xmlns="http://www.w3.org/2000/svg" xmlns:xlink="http://www.w3.org/1999/xlink" width="65" height="65" viewBox="0 0 65 65">
  <defs>
    <clipPath id="clip-path">
      <rect id="Rectángulo_5670" data-name="Rectángulo 5670" width="65" height="65" transform="translate(204 4075)" fill="#e2f6c6" stroke="#707070" stroke-width="1"/>
    </clipPath>
  </defs>
  <g id="Enmascarar_grupo_60" data-name="Enmascarar grupo 60" transform="translate(-204 -4075)" clip-path="url(#clip-path)">
    <g id="rebaja" transform="translate(204 4075)">
      <path id="Trazado_103131" data-name="Trazado 103131" d="M64.737,44.863,64.7,44.8a11.355,11.355,0,0,0-15.19-4.271l-9.187,4.829a6.335,6.335,0,0,0-3.214-4.473l-7.778-4.491a6.476,6.476,0,0,0-3.746-1.186H14.735V33.156a1.9,1.9,0,0,0-1.9-1.9H1.911a1.9,1.9,0,0,0-1.9,1.9V59.671a1.9,1.9,0,0,0,1.9,1.9h10.92a1.9,1.9,0,0,0,1.9-1.9v-3.8h2.414l14.178,8.2A6.476,6.476,0,0,0,34.567,65a5.462,5.462,0,0,0,2.931-.85L64.1,47.429a1.9,1.9,0,0,0,.635-2.565Zm-53.811,12.9H3.815V35.06h7.112Zm24.546,3.158a2.138,2.138,0,0,1-2.239-.144l-14.62-8.458a1.9,1.9,0,0,0-.954-.256H14.735V39.017H25.586a2.694,2.694,0,0,1,1.594.52,1.89,1.89,0,0,0,.168.109l7.857,4.537A2.455,2.455,0,0,1,36.6,46.371a3.2,3.2,0,0,1-1.532,2.654,2.455,2.455,0,0,1-2.592-.114l-7.239-4.18a1.9,1.9,0,0,0-.952-.255H21.079a1.9,1.9,0,1,0,0,3.808h2.7l6.8,3.924a6.7,6.7,0,0,0,3.356.939,6.051,6.051,0,0,0,3.044-.825,6.83,6.83,0,0,0,2.208-2.061l12.1-6.362a7.609,7.609,0,0,1,9.063,1.392Z" fill="#e2f6c6" fill-rule="evenodd"/>
      <path id="Trazado_103132" data-name="Trazado 103132" d="M28.884,21.218a4.486,4.486,0,0,1,.606.642,4.289,4.289,0,0,1-.159,1.3A5.389,5.389,0,0,0,29.558,27a4.31,4.31,0,0,0,3.107,1.95,4.5,4.5,0,0,1,.846.253,4.283,4.283,0,0,1,.511,1.2,5.389,5.389,0,0,0,2.115,3.211,4.311,4.311,0,0,0,3.666.135,4.545,4.545,0,0,1,.859-.2,4.291,4.291,0,0,1,1.044.786,5.389,5.389,0,0,0,3.437,1.723h.092a4.364,4.364,0,0,0,3.15-1.717,4.494,4.494,0,0,1,.642-.606,4.291,4.291,0,0,1,1.3.159,5.39,5.39,0,0,0,3.838-.227,4.31,4.31,0,0,0,1.95-3.107,4.5,4.5,0,0,1,.253-.846,4.288,4.288,0,0,1,1.2-.511,5.39,5.39,0,0,0,3.211-2.115,4.31,4.31,0,0,0,.135-3.666,4.5,4.5,0,0,1-.2-.859,4.291,4.291,0,0,1,.786-1.044,5.389,5.389,0,0,0,1.723-3.437A4.31,4.31,0,0,0,61.5,14.836a4.492,4.492,0,0,1-.606-.642,4.286,4.286,0,0,1,.159-1.3,5.39,5.39,0,0,0-.227-3.838,4.31,4.31,0,0,0-3.107-1.95,4.49,4.49,0,0,1-.846-.253,4.282,4.282,0,0,1-.511-1.2,5.39,5.39,0,0,0-2.115-3.211,4.31,4.31,0,0,0-3.666-.135,4.282,4.282,0,0,1-.859.2,4.294,4.294,0,0,1-1.044-.786A5.389,5.389,0,0,0,45.245,0h0A4.312,4.312,0,0,0,42,1.717a4.488,4.488,0,0,1-.642.606,4.3,4.3,0,0,1-1.3-.159,5.39,5.39,0,0,0-3.838.227A4.31,4.31,0,0,0,34.276,5.5a4.5,4.5,0,0,1-.253.846,4.285,4.285,0,0,1-1.2.511A5.39,5.39,0,0,0,29.609,8.97a4.31,4.31,0,0,0-.135,3.666,4.519,4.519,0,0,1,.2.859,4.292,4.292,0,0,1-.786,1.044,5.389,5.389,0,0,0-1.723,3.437,4.31,4.31,0,0,0,1.716,3.242Zm2.845-4.14a6.49,6.49,0,0,0,1.633-2.619,5.24,5.24,0,0,0-.238-2.908c-.06-.2-.143-.48-.178-.664a6.537,6.537,0,0,1,1.061-.414,6.491,6.491,0,0,0,2.724-1.452A5.24,5.24,0,0,0,37.98,6.384c.049-.2.117-.487.178-.664a6.6,6.6,0,0,1,1.126.172,6.488,6.488,0,0,0,3.084.1,5.24,5.24,0,0,0,2.4-1.66c.144-.152.345-.364.486-.486a6.539,6.539,0,0,1,.889.712A6.49,6.49,0,0,0,48.762,6.2a5.237,5.237,0,0,0,2.908-.238c.2-.06.48-.143.664-.178a6.536,6.536,0,0,1,.414,1.061A6.49,6.49,0,0,0,54.2,9.564a5.238,5.238,0,0,0,2.637,1.248c.2.049.487.117.664.178a6.555,6.555,0,0,1-.172,1.125,6.488,6.488,0,0,0-.1,3.084,5.24,5.24,0,0,0,1.66,2.4c.152.144.364.345.486.486a6.545,6.545,0,0,1-.711.889,6.489,6.489,0,0,0-1.633,2.619,5.239,5.239,0,0,0,.238,2.909c.06.2.143.48.178.664a6.537,6.537,0,0,1-1.061.414,6.49,6.49,0,0,0-2.724,1.452,5.238,5.238,0,0,0-1.248,2.637c-.049.2-.117.487-.178.664a6.4,6.4,0,0,1-1.125-.172,6.49,6.49,0,0,0-3.085-.1,5.238,5.238,0,0,0-2.4,1.66c-.144.152-.345.364-.486.486a6.563,6.563,0,0,1-.889-.711,6.488,6.488,0,0,0-2.619-1.633,3.672,3.672,0,0,0-.956-.122,6.8,6.8,0,0,0-1.953.36c-.2.06-.48.143-.664.178a6.553,6.553,0,0,1-.414-1.061,6.491,6.491,0,0,0-1.451-2.724,5.241,5.241,0,0,0-2.638-1.248c-.2-.049-.487-.117-.664-.178a6.545,6.545,0,0,1,.172-1.126,6.49,6.49,0,0,0,.1-3.084,5.241,5.241,0,0,0-1.66-2.4c-.152-.144-.364-.345-.486-.486a6.543,6.543,0,0,1,.711-.889Z" fill="#e2f6c6" fill-rule="evenodd"/>
      <path id="Trazado_103133" data-name="Trazado 103133" d="M41.322,24.733a1.9,1.9,0,0,0,2.6-.7l5.84-10.114a1.9,1.9,0,1,0-3.3-1.9l-5.84,10.114A1.9,1.9,0,0,0,41.322,24.733Z" fill="#e2f6c6" fill-rule="evenodd"/>
      <path id="Trazado_103134" data-name="Trazado 103134" d="M39.655,14.915a1.9,1.9,0,1,0-.7-2.6A1.9,1.9,0,0,0,39.655,14.915Z" fill="#e2f6c6" fill-rule="evenodd"/>
      <path id="Trazado_103135" data-name="Trazado 103135" d="M48.513,21.137a1.9,1.9,0,1,0,2.6-.7A1.9,1.9,0,0,0,48.513,21.137Z" fill="#e2f6c6" fill-rule="evenodd"/>
    </g>
  </g>
</svg>
