<svg xmlns="http://www.w3.org/2000/svg" width="507.344" height="475.508" viewBox="0 0 507.344 475.508">
  <g id="Grupo_55523" data-name="Grupo 55523" transform="translate(-809.32 -1315.164)">
    <path id="Trazado_103209" data-name="Trazado 103209" d="M-3362-10354v411h454" transform="translate(4216 11700)" fill="none" stroke="#636363" stroke-width="3"/>
    <path id="Trazado_103210" data-name="Trazado 103210" d="M-2987-10316s-73,233-337,345" transform="translate(4216 11700)" fill="none" stroke="#17c878" stroke-width="3"/>
    <path id="Trazado_103211" data-name="Trazado 103211" d="M-3318-10316s111,298,375,348" transform="translate(4216 11700)" fill="none" stroke="#fb9e36" stroke-width="3"/>
    <path id="Trazado_103212" data-name="Trazado 103212" d="M-3362-10077h206v133" transform="translate(4216 11700)" fill="none" stroke="#707070" stroke-width="3" stroke-dasharray="3"/>
    <path id="Trazado_104838" data-name="Trazado 104838" d="M1.066-6.457A7.489,7.489,0,0,1,1.8-9.809a5.464,5.464,0,0,1,2.039-2.3,5.551,5.551,0,0,1,2.982-.809,5.347,5.347,0,0,1,4.189,1.793,6.9,6.9,0,0,1,1.6,4.77V-6.2A7.555,7.555,0,0,1,11.9-2.877,5.383,5.383,0,0,1,9.873-.586a5.614,5.614,0,0,1-3.029.82A5.334,5.334,0,0,1,2.666-1.559,6.863,6.863,0,0,1,1.066-6.3Zm2.18.258a5.424,5.424,0,0,0,.979,3.387A3.132,3.132,0,0,0,6.844-1.535,3.113,3.113,0,0,0,9.469-2.83a5.932,5.932,0,0,0,.973-3.627,5.415,5.415,0,0,0-.99-3.381A3.148,3.148,0,0,0,6.82-11.133,3.113,3.113,0,0,0,4.23-9.855,5.888,5.888,0,0,0,3.246-6.2Z" transform="translate(1229 1378)" fill="#12263f"/>
    <path id="Trazado_104837" data-name="Trazado 104837" d="M1.98,0V-17.062H6.8a7.753,7.753,0,0,1,3.938.984,6.658,6.658,0,0,1,2.643,2.8,9.116,9.116,0,0,1,.943,4.172v1.09a9.148,9.148,0,0,1-.932,4.23A6.553,6.553,0,0,1,10.729-1,8.247,8.247,0,0,1,6.7,0ZM4.23-15.223V-1.84H6.6a5.15,5.15,0,0,0,4.049-1.619,6.687,6.687,0,0,0,1.447-4.61v-1a6.793,6.793,0,0,0-1.365-4.521,4.858,4.858,0,0,0-3.873-1.636Z" transform="translate(878 1378)" fill="#12263f"/>
    <path id="Trazado_104839" data-name="Trazado 104839" d="M4.23-6.68V0H1.98V-17.062H8.273a6.322,6.322,0,0,1,4.389,1.43,4.847,4.847,0,0,1,1.588,3.785A4.783,4.783,0,0,1,12.7-8.021,6.6,6.6,0,0,1,8.25-6.68Zm0-1.84H8.273a4.042,4.042,0,0,0,2.766-.851A3.112,3.112,0,0,0,12-11.83a3.215,3.215,0,0,0-.961-2.442A3.787,3.787,0,0,0,8.4-15.223H4.23Z" transform="translate(827 1632)" fill="#12263f"/>
    <path id="Trazado_104836" data-name="Trazado 104836" d="M2.82-4.453V0H1.32V-11.375h4.2a4.215,4.215,0,0,1,2.926.953A3.231,3.231,0,0,1,9.5-7.9,3.189,3.189,0,0,1,8.465-5.348,4.4,4.4,0,0,1,5.5-4.453Zm0-1.227h2.7a2.7,2.7,0,0,0,1.844-.567A2.075,2.075,0,0,0,8-7.887a2.143,2.143,0,0,0-.641-1.628A2.525,2.525,0,0,0,5.6-10.148H2.82ZM15.273-7.156a4.331,4.331,0,0,0-.711-.055A1.9,1.9,0,0,0,12.633-6V0H11.188V-8.453h1.406l.023.977a2.251,2.251,0,0,1,2.016-1.133,1.477,1.477,0,0,1,.641.109ZM19.961.156a3.693,3.693,0,0,1-2.8-1.129,4.19,4.19,0,0,1-1.078-3.02v-.266a5.073,5.073,0,0,1,.48-2.246A3.748,3.748,0,0,1,17.91-8.051a3.378,3.378,0,0,1,1.871-.559,3.166,3.166,0,0,1,2.563,1.086,4.7,4.7,0,0,1,.914,3.109v.6H17.531a3,3,0,0,0,.73,2.02,2.3,2.3,0,0,0,1.777.77,2.517,2.517,0,0,0,1.3-.312,3.259,3.259,0,0,0,.93-.828l.883.688A3.55,3.55,0,0,1,19.961.156Zm-.18-7.578a1.928,1.928,0,0,0-1.469.637A3.1,3.1,0,0,0,17.578-5h4.234v-.109a2.753,2.753,0,0,0-.594-1.707A1.815,1.815,0,0,0,19.781-7.422Zm8.539,6.4a2.082,2.082,0,0,0,1.352-.469,1.649,1.649,0,0,0,.641-1.172H31.68a2.621,2.621,0,0,1-.5,1.383,3.293,3.293,0,0,1-1.23,1.047A3.55,3.55,0,0,1,28.32.156,3.482,3.482,0,0,1,25.574-1a4.59,4.59,0,0,1-1.02-3.152v-.242a5.089,5.089,0,0,1,.453-2.2,3.451,3.451,0,0,1,1.3-1.492,3.7,3.7,0,0,1,2-.531,3.39,3.39,0,0,1,2.363.852,3.043,3.043,0,0,1,1,2.211H30.313a1.992,1.992,0,0,0-.621-1.348,1.932,1.932,0,0,0-1.379-.527,2.023,2.023,0,0,0-1.707.793A3.724,3.724,0,0,0,26-4.336v.273a3.65,3.65,0,0,0,.6,2.25A2.033,2.033,0,0,0,28.32-1.023ZM34.875,0H33.43V-8.453h1.445ZM33.313-10.7a.863.863,0,0,1,.215-.594.807.807,0,0,1,.637-.242.819.819,0,0,1,.641.242.854.854,0,0,1,.219.594.826.826,0,0,1-.219.586.834.834,0,0,1-.641.234.821.821,0,0,1-.637-.234A.834.834,0,0,1,33.313-10.7ZM36.8-4.3a4.993,4.993,0,0,1,.488-2.234A3.643,3.643,0,0,1,38.652-8.07a3.7,3.7,0,0,1,1.988-.539,3.565,3.565,0,0,1,2.793,1.2A4.6,4.6,0,0,1,44.5-4.234v.1a5.036,5.036,0,0,1-.473,2.215A3.589,3.589,0,0,1,42.676-.391a3.743,3.743,0,0,1-2.02.547,3.556,3.556,0,0,1-2.785-1.2A4.575,4.575,0,0,1,36.8-4.2Zm1.453.172a3.616,3.616,0,0,0,.652,2.258,2.088,2.088,0,0,0,1.746.852,2.075,2.075,0,0,0,1.75-.863A3.955,3.955,0,0,0,43.055-4.3a3.61,3.61,0,0,0-.66-2.254,2.1,2.1,0,0,0-1.754-.863,2.075,2.075,0,0,0-1.727.852A3.925,3.925,0,0,0,38.258-4.133Zm11.961-.484a12.079,12.079,0,0,1,.473-3.391,9.85,9.85,0,0,1,1.41-2.953,6,6,0,0,1,1.945-1.875l.3.953a6.222,6.222,0,0,0-1.871,2.672,11.583,11.583,0,0,0-.8,4.023l-.008.664a11.643,11.643,0,0,0,1.1,5.234,6.252,6.252,0,0,0,1.578,2.078l-.3.883a6.192,6.192,0,0,1-1.984-1.937A10.859,10.859,0,0,1,50.219-4.617Zm7.25.164V0h-1.5V-11.375h4.2a4.215,4.215,0,0,1,2.926.953A3.231,3.231,0,0,1,64.148-7.9a3.189,3.189,0,0,1-1.035,2.551,4.4,4.4,0,0,1-2.965.895Zm0-1.227h2.7a2.7,2.7,0,0,0,1.844-.567,2.075,2.075,0,0,0,.641-1.64,2.143,2.143,0,0,0-.641-1.628,2.525,2.525,0,0,0-1.758-.634H57.469Zm11.7,1.141a12.084,12.084,0,0,1-.457,3.34,9.876,9.876,0,0,1-1.4,2.949,6.127,6.127,0,0,1-1.973,1.922l-.3-.883A6.281,6.281,0,0,0,66.973-.074a12.387,12.387,0,0,0,.746-4.309v-.25a12.861,12.861,0,0,0-.344-3.051,10.3,10.3,0,0,0-.957-2.527,5.838,5.838,0,0,0-1.379-1.742l.3-.883a6.1,6.1,0,0,1,1.965,1.906,9.9,9.9,0,0,1,1.4,2.945A12.363,12.363,0,0,1,69.172-4.539Z" transform="translate(808 1328)" fill="#12263f"/>
    <path id="Trazado_104841" data-name="Trazado 104841" d="M9.688-3.609A4.185,4.185,0,0,1,8.355-.824a4.365,4.365,0,0,1-2.98.98,4.008,4.008,0,0,1-3.23-1.445A5.815,5.815,0,0,1,.93-5.156V-6.25A6.481,6.481,0,0,1,1.5-9.039,4.231,4.231,0,0,1,3.1-10.887a4.47,4.47,0,0,1,2.406-.645A4.11,4.11,0,0,1,8.414-10.52a4.235,4.235,0,0,1,1.273,2.8H8.18a3.268,3.268,0,0,0-.848-1.975A2.565,2.565,0,0,0,5.508-10.3,2.684,2.684,0,0,0,3.254-9.241a4.882,4.882,0,0,0-.816,3.026v1.1a5.018,5.018,0,0,0,.773,2.948A2.5,2.5,0,0,0,5.375-1.07a2.887,2.887,0,0,0,1.918-.566A3.143,3.143,0,0,0,8.18-3.609ZM16.727,0a3.036,3.036,0,0,1-.2-.891A3.225,3.225,0,0,1,14.117.156a2.984,2.984,0,0,1-2.051-.707,2.287,2.287,0,0,1-.8-1.793,2.39,2.39,0,0,1,1-2.051,4.733,4.733,0,0,1,2.824-.73H16.5v-.664A1.623,1.623,0,0,0,16.047-7a1.821,1.821,0,0,0-1.336-.449,2.107,2.107,0,0,0-1.3.391,1.151,1.151,0,0,0-.523.945H11.438a2,2,0,0,1,.449-1.223,3.066,3.066,0,0,1,1.219-.934A4.1,4.1,0,0,1,14.8-8.609a3.342,3.342,0,0,1,2.289.73,2.635,2.635,0,0,1,.859,2.012v3.891a4.757,4.757,0,0,0,.3,1.852V0Zm-2.4-1.1a2.54,2.54,0,0,0,1.289-.352,2.127,2.127,0,0,0,.883-.914V-4.1H15.367q-2.656,0-2.656,1.555a1.316,1.316,0,0,0,.453,1.063A1.742,1.742,0,0,0,14.328-1.1Zm7.25-7.352.047,1.063a3.08,3.08,0,0,1,2.531-1.219q2.68,0,2.7,3.023V0H25.414V-5.594A1.946,1.946,0,0,0,25-6.945a1.675,1.675,0,0,0-1.277-.437,2.086,2.086,0,0,0-1.234.375,2.546,2.546,0,0,0-.828.984V0H20.211V-8.453ZM31-10.5v2.047h1.578v1.117H31v5.249a1.173,1.173,0,0,0,.211.763.888.888,0,0,0,.719.254,3.5,3.5,0,0,0,.688-.094V0a4.215,4.215,0,0,1-1.109.155A1.8,1.8,0,0,1,30.047-.43a2.517,2.517,0,0,1-.492-1.664V-7.336H28.016V-8.453h1.539V-10.5ZM35.836,0H34.391V-8.453h1.445ZM34.273-10.7a.863.863,0,0,1,.215-.594.807.807,0,0,1,.637-.242.819.819,0,0,1,.641.242.854.854,0,0,1,.219.594.826.826,0,0,1-.219.586.834.834,0,0,1-.641.234.821.821,0,0,1-.637-.234A.834.834,0,0,1,34.273-10.7ZM37.8-4.3a4.952,4.952,0,0,1,.922-3.129,2.915,2.915,0,0,1,2.414-1.184,2.932,2.932,0,0,1,2.352,1.016V-12H44.93V0H43.6l-.07-.906A2.943,2.943,0,0,1,41.117.156a2.887,2.887,0,0,1-2.395-1.2A5.008,5.008,0,0,1,37.8-4.187Zm1.445.164a3.749,3.749,0,0,0,.594,2.25,1.92,1.92,0,0,0,1.641.813A2.108,2.108,0,0,0,43.484-2.3V-6.187a2.125,2.125,0,0,0-1.992-1.2,1.929,1.929,0,0,0-1.656.82A4.128,4.128,0,0,0,39.242-4.133ZM52.391,0a3.036,3.036,0,0,1-.2-.891A3.225,3.225,0,0,1,49.781.156,2.984,2.984,0,0,1,47.73-.551a2.287,2.287,0,0,1-.8-1.793,2.39,2.39,0,0,1,1-2.051,4.733,4.733,0,0,1,2.824-.73h1.406v-.664A1.623,1.623,0,0,0,51.711-7a1.821,1.821,0,0,0-1.336-.449,2.107,2.107,0,0,0-1.3.391,1.151,1.151,0,0,0-.523.945H47.1a2,2,0,0,1,.449-1.223,3.066,3.066,0,0,1,1.219-.934,4.1,4.1,0,0,1,1.691-.344,3.342,3.342,0,0,1,2.289.73,2.635,2.635,0,0,1,.859,2.012v3.891a4.757,4.757,0,0,0,.3,1.852V0Zm-2.4-1.1a2.54,2.54,0,0,0,1.289-.352,2.127,2.127,0,0,0,.883-.914V-4.1H51.031q-2.656,0-2.656,1.555a1.316,1.316,0,0,0,.453,1.063A1.742,1.742,0,0,0,49.992-1.1Zm5.531-3.2a4.952,4.952,0,0,1,.922-3.129,2.915,2.915,0,0,1,2.414-1.184,2.932,2.932,0,0,1,2.352,1.016V-12h1.445V0H61.328l-.07-.906A2.943,2.943,0,0,1,58.844.156a2.887,2.887,0,0,1-2.395-1.2,5.008,5.008,0,0,1-.926-3.141Zm1.445.164a3.749,3.749,0,0,0,.594,2.25A1.92,1.92,0,0,0,59.2-1.07,2.108,2.108,0,0,0,61.211-2.3V-6.187a2.125,2.125,0,0,0-1.992-1.2,1.929,1.929,0,0,0-1.656.82A4.128,4.128,0,0,0,56.969-4.133ZM68.8-4.617a12.079,12.079,0,0,1,.473-3.391,9.85,9.85,0,0,1,1.41-2.953,6,6,0,0,1,1.945-1.875l.3.953a6.222,6.222,0,0,0-1.871,2.672,11.583,11.583,0,0,0-.8,4.023l-.008.664a11.643,11.643,0,0,0,1.1,5.234A6.252,6.252,0,0,0,72.93,2.789l-.3.883a6.192,6.192,0,0,1-1.984-1.937A10.859,10.859,0,0,1,68.8-4.617Zm14.438-.7a7.026,7.026,0,0,1-.523,2.84A4.388,4.388,0,0,1,81.25-.617L83.281.977l-1.023.945L79.859.016a4.88,4.88,0,0,1-1.187.141A4.347,4.347,0,0,1,76.289-.5a4.363,4.363,0,0,1-1.613-1.883,6.752,6.752,0,0,1-.59-2.832v-.82a6.953,6.953,0,0,1,.57-2.9,4.347,4.347,0,0,1,1.613-1.926,4.329,4.329,0,0,1,2.387-.668,4.4,4.4,0,0,1,2.418.664,4.284,4.284,0,0,1,1.605,1.91,7.016,7.016,0,0,1,.563,2.91Zm-1.5-.734a5.162,5.162,0,0,0-.8-3.1,2.666,2.666,0,0,0-2.285-1.09,2.643,2.643,0,0,0-2.23,1.082,5,5,0,0,0-.84,3v.836A5.147,5.147,0,0,0,76.4-2.242a2.646,2.646,0,0,0,2.27,1.125,2.652,2.652,0,0,0,2.25-1.059,5.079,5.079,0,0,0,.82-3.035Zm6.922,1.516a12.084,12.084,0,0,1-.457,3.34,9.876,9.876,0,0,1-1.4,2.949,6.127,6.127,0,0,1-1.973,1.922l-.3-.883A6.281,6.281,0,0,0,86.465-.074a12.387,12.387,0,0,0,.746-4.309v-.25a12.861,12.861,0,0,0-.344-3.051,10.3,10.3,0,0,0-.957-2.527,5.838,5.838,0,0,0-1.379-1.742l.3-.883A6.1,6.1,0,0,1,86.8-10.93a9.9,9.9,0,0,1,1.4,2.945A12.363,12.363,0,0,1,88.664-4.539Z" transform="translate(1228 1787)" fill="#12263f"/>
    <path id="Trazado_104840" data-name="Trazado 104840" d="M15.012-7.98a10.538,10.538,0,0,1-.785,4.26,6.582,6.582,0,0,1-2.2,2.795L15.07,1.465,13.535,2.883,9.938.023A7.321,7.321,0,0,1,8.156.234a6.521,6.521,0,0,1-3.574-.99A6.544,6.544,0,0,1,2.162-3.58a10.127,10.127,0,0,1-.885-4.248v-1.23a10.429,10.429,0,0,1,.855-4.348,6.521,6.521,0,0,1,2.42-2.889,6.493,6.493,0,0,1,3.58-1,6.606,6.606,0,0,1,3.627,1,6.426,6.426,0,0,1,2.408,2.865,10.524,10.524,0,0,1,.844,4.365Zm-2.25-1.1a7.743,7.743,0,0,0-1.2-4.646,4,4,0,0,0-3.428-1.635A3.965,3.965,0,0,0,4.787-13.74a7.493,7.493,0,0,0-1.26,4.506V-7.98A7.721,7.721,0,0,0,4.752-3.363a3.97,3.97,0,0,0,3.4,1.688,3.977,3.977,0,0,0,3.375-1.588,7.618,7.618,0,0,0,1.23-4.553Z" transform="translate(1052 1780)" fill="#12263f"/>
    <g id="Polígono_1" data-name="Polígono 1" transform="translate(850 1342)" fill="#707070">
      <path d="M 7.138411045074463 6.5 L 0.8615883588790894 6.5 L 3.999999761581421 1.007779955863953 L 7.138411045074463 6.5 Z" stroke="none"/>
      <path d="M 3.999999761581421 2.015560150146484 L 1.723176956176758 6 L 6.276822566986084 6 L 3.999999761581421 2.015560150146484 M 3.999999761581421 0 L 8 7 L -4.76837158203125e-07 7 L 3.999999761581421 0 Z" stroke="none" fill="#707070"/>
    </g>
    <g id="Polígono_2" data-name="Polígono 2" transform="translate(1315 1753) rotate(90)" fill="#707070">
      <path d="M 7.138411045074463 6.5 L 0.8615883588790894 6.5 L 3.999999761581421 1.007779955863953 L 7.138411045074463 6.5 Z" stroke="none"/>
      <path d="M 3.999999761581421 2.015560150146484 L 1.723176956176758 6 L 6.276822566986084 6 L 3.999999761581421 2.015560150146484 M 3.999999761581421 0 L 8 7 L -4.76837158203125e-07 7 L 3.999999761581421 0 Z" stroke="none" fill="#707070"/>
    </g>
  </g>
</svg>
