<svg xmlns="http://www.w3.org/2000/svg" xmlns:xlink="http://www.w3.org/1999/xlink" width="86" height="86" viewBox="0 0 86 86">
  <defs>
    <clipPath id="clip-path">
      <rect id="Rectángulo_5781" data-name="Rectángulo 5781" width="86" height="86" transform="translate(409 5017)" fill="#fff"/>
    </clipPath>
  </defs>
  <g id="Enmascarar_grupo_75" data-name="Enmascarar grupo 75" transform="translate(-409 -5017)" clip-path="url(#clip-path)">
    <g id="grafico" transform="translate(409 5017)">
      <g id="Grupo_56507" data-name="Grupo 56507">
        <g id="Grupo_56504" data-name="Grupo 56504">
          <g id="Grupo_56503" data-name="Grupo 56503">
            <g id="Grupo_56502" data-name="Grupo 56502">
              <g id="Grupo_56501" data-name="Grupo 56501">
                <g id="Grupo_56500" data-name="Grupo 56500">
                  <g id="Grupo_56499" data-name="Grupo 56499">
                    <g id="Grupo_56498" data-name="Grupo 56498">
                      <g id="Grupo_56496" data-name="Grupo 56496">
                        <path id="Trazado_104674" data-name="Trazado 104674" d="M8.125,76.821l18.826,7.007a14.327,14.327,0,0,0,5,.9h19.4A14.326,14.326,0,0,0,59.018,82.5L83.312,67.11a4.264,4.264,0,0,0,.694-5.587c-1.319-1.939-3.5-2.276-5.9-1.14L54.45,70.8l.028-3.837a6.868,6.868,0,0,0-5.872-6.121L34.2,59.18C30.88,58.71,29.22,57.6,26.324,55.9a25.815,25.815,0,0,0-13.035-3.533H8.125Z" fill="#ffddce"/>
                      </g>
                      <path id="Trazado_104675" data-name="Trazado 104675" d="M31.948,84.728h19.4A14.326,14.326,0,0,0,59.018,82.5L83.312,67.11a4.264,4.264,0,0,0,.694-5.587c-1.319-1.939-3.5-2.276-5.9-1.14l-4,1.759a8.515,8.515,0,0,1-3.957,7.192L59.018,76.388a14.326,14.326,0,0,1-7.668,2.225h-19.4a14.327,14.327,0,0,1-5-.9L8.125,70.705v6.116l18.826,7.007a14.33,14.33,0,0,0,5,.9Z" fill="#ffcbbe"/>
                      <g id="Grupo_56497" data-name="Grupo 56497">
                        <path id="Trazado_104676" data-name="Trazado 104676" d="M52.712,63.006V63.1l.061-.027-.06-.066Z" fill="#f5dbcc"/>
                      </g>
                    </g>
                  </g>
                  <path id="Trazado_104677" data-name="Trazado 104677" d="M12.176,80.571A2.473,2.473,0,0,1,9.7,83.044H3.733A2.473,2.473,0,0,1,1.26,80.571V50.286a2.473,2.473,0,0,1,2.473-2.473H9.7a2.473,2.473,0,0,1,2.473,2.473Z" fill="#407093"/>
                </g>
              </g>
            </g>
          </g>
        </g>
        <g id="Grupo_56506" data-name="Grupo 56506">
          <g id="Grupo_56505" data-name="Grupo 56505">
            <path id="Trazado_104678" data-name="Trazado 104678" d="M29.009,5.7A24.319,24.319,0,1,1,24.616,9.68" fill="#e28086"/>
          </g>
          <path id="Trazado_104679" data-name="Trazado 104679" d="M43,1.272a24.38,24.38,0,0,0-5.319.585,24.31,24.31,0,0,1,0,47.44A24.307,24.307,0,1,0,43,1.272Z" fill="#dd636e"/>
          <path id="Trazado_104680" data-name="Trazado 104680" d="M51.957,28.543l.727-13.511a.617.617,0,0,0-.649-.649l-13.511.727a.617.617,0,0,0-.4,1.052L41.1,19.14a.617.617,0,0,1,0,.872L30.958,30.153a.617.617,0,0,0,0,.872l5.084,5.084a.617.617,0,0,0,.872,0L47.055,25.968a.617.617,0,0,1,.872,0L50.9,28.946A.617.617,0,0,0,51.957,28.543Z" fill="#f4fbff"/>
        </g>
      </g>
      <g id="Grupo_56508" data-name="Grupo 56508">
        <path id="Trazado_104681" data-name="Trazado 104681" d="M29.735,6.731A23.047,23.047,0,0,1,61.019,39.948a1.26,1.26,0,1,0,1.969,1.573,25.292,25.292,0,0,0,5.58-15.944A25.568,25.568,0,0,0,28.283,4.672a1.26,1.26,0,0,0,1.452,2.059Z" fill="#12263f"/>
        <path id="Trazado_104682" data-name="Trazado 104682" d="M43,51.142a25.332,25.332,0,0,0,15.522-5.25,1.26,1.26,0,0,0-1.531-2A22.832,22.832,0,0,1,43,48.622,23.046,23.046,0,0,1,25.568,10.5a1.26,1.26,0,0,0-1.905-1.649A25.566,25.566,0,0,0,43,51.142Z" fill="#12263f"/>
        <path id="Trazado_104683" data-name="Trazado 104683" d="M30.067,31.916,35.152,37A1.879,1.879,0,0,0,37.8,37l9.687-9.687,2.523,2.523a1.878,1.878,0,0,0,3.2-1.226l.727-13.51a1.876,1.876,0,0,0-1.974-1.975l-13.51.727a1.878,1.878,0,0,0-1.226,3.2l2.523,2.523-9.686,9.686a1.875,1.875,0,0,0,0,2.654ZM41.99,20.9a1.876,1.876,0,0,0,0-2.654l-1.958-1.958,11.355-.611-.611,11.355-1.958-1.958a1.879,1.879,0,0,0-2.654,0l-9.686,9.687L32.3,30.589Z" fill="#12263f"/>
        <path id="Trazado_104684" data-name="Trazado 104684" d="M85.047,60.814c-1.644-2.416-4.435-3.005-7.467-1.578L55.724,68.859l.014-1.891c.021-2.876-2.614-6.763-6.956-7.377l-.032,0L34.364,57.93c-3.067-.437-4.561-1.453-7.4-3.116a27.1,27.1,0,0,0-13.524-3.7v-.826A3.737,3.737,0,0,0,9.7,46.553H3.733A3.737,3.737,0,0,0,0,50.286V80.571A3.737,3.737,0,0,0,3.733,84.3H9.7a3.737,3.737,0,0,0,3.733-3.733v-.429l13.076,4.867a15.533,15.533,0,0,0,5.437.979h19.4a15.562,15.562,0,0,0,8.342-2.421L83.986,68.174a1.247,1.247,0,0,0,.162-.122,5.536,5.536,0,0,0,.9-7.237Zm-2.5,5.291-24.2,15.334a13.045,13.045,0,0,1-6.994,2.029h-19.4a13.025,13.025,0,0,1-4.558-.821L13.435,77.454V63.429a1.26,1.26,0,0,0-2.52,0V80.571A1.215,1.215,0,0,1,9.7,81.785H3.733A1.215,1.215,0,0,1,2.52,80.571V50.286a1.215,1.215,0,0,1,1.213-1.213H9.7a1.215,1.215,0,0,1,1.213,1.213V57.54a1.26,1.26,0,0,0,2.52,0V53.632A24.577,24.577,0,0,1,25.687,56.99c2.979,1.743,4.782,2.934,8.339,3.438l.032,0,14.386,1.656a5.594,5.594,0,0,1,4.773,4.933L53.2,69.537H39.744a1.26,1.26,0,1,0,0,2.52H54.45a1.294,1.294,0,0,0,.5-.1l0,0L78.61,61.535l.031-.014c1.325-.627,3.151-1.012,4.323.71a3.012,3.012,0,0,1-.42,3.874Z" fill="#12263f"/>
      </g>
    </g>
  </g>
</svg>
