<svg xmlns="http://www.w3.org/2000/svg" xmlns:xlink="http://www.w3.org/1999/xlink" width="47" height="44" viewBox="0 0 47 44">
  <defs>
    <clipPath id="clip-path">
      <rect id="Rectángulo_5785" data-name="Rectángulo 5785" width="47" height="44" transform="translate(953 5095)" fill="#12263f"/>
    </clipPath>
  </defs>
  <g id="Enmascarar_grupo_73" data-name="Enmascarar grupo 73" transform="translate(-953 -5095)" clip-path="url(#clip-path)">
    <g id="objetivo" transform="translate(953 5093.5)">
      <path id="Trazado_104663" data-name="Trazado 104663" d="M12.533,19.054a.688.688,0,0,0,.8-.557,14.878,14.878,0,0,1,24.722-8.307.688.688,0,1,0,.933-1.013,16.255,16.255,0,0,0-27.011,9.078A.689.689,0,0,0,12.533,19.054Z" fill="#12263f"/>
      <path id="Trazado_104664" data-name="Trazado 104664" d="M36.261,30.249a.686.686,0,0,0,.483-.2A12.51,12.51,0,0,0,27.975,8.62a12.515,12.515,0,0,0-12.169,9.6.688.688,0,0,0,1.339.32,11.184,11.184,0,0,1,3.882-6.106A11.012,11.012,0,0,1,27.975,10a11.133,11.133,0,0,1,7.8,19.073.689.689,0,0,0,.483,1.179Z" fill="#12263f"/>
      <path id="Trazado_104665" data-name="Trazado 104665" d="M33.69,30.686a11.138,11.138,0,0,1-13.763-1.864.688.688,0,1,0-1,.952A12.515,12.515,0,0,0,34.4,31.867a.688.688,0,1,0-.708-1.181Z" fill="#12263f"/>
      <path id="Trazado_104666" data-name="Trazado 104666" d="M27.975,12.824a8.308,8.308,0,0,0-7.763,5.347.688.688,0,0,0,1.287.491,6.929,6.929,0,1,1,6.476,9.4,6.931,6.931,0,0,1-6.462-4.423.688.688,0,1,0-1.284.5,8.306,8.306,0,1,0,7.746-11.308Z" fill="#12263f"/>
      <path id="Trazado_104667" data-name="Trazado 104667" d="M11.045,27.036a.688.688,0,0,0-.93.288c-.926,1.757-2.195,4.163-.484,6.555a.688.688,0,0,0,1.238-.28,5.614,5.614,0,0,1,2.038-2.788,11.425,11.425,0,0,0,3.545,3.252.688.688,0,0,0,.923-.985c-1.224-1.711-.3-3.444.762-5.451.949-1.788,2-3.778,1.251-5.809h4.748a3.9,3.9,0,1,0,0-1.377H10.453L7.318,18.107a.688.688,0,0,0-.411-.136H.688A.688.688,0,0,0,.21,19.154a2.724,2.724,0,0,1,.84,1.975,2.724,2.724,0,0,1-.84,1.975.688.688,0,0,0,.478,1.184H6.907a.688.688,0,0,0,.411-.136l3.135-2.334h.79a3.366,3.366,0,0,1,.041,3.118.688.688,0,1,0,1.285.493,5.014,5.014,0,0,0,.193-3.611h5.107c.935,1.618.058,3.269-.948,5.163a9.213,9.213,0,0,0-1.5,4.611,8.392,8.392,0,0,1-1.748-2.159.688.688,0,0,0-1.036-.2A12.012,12.012,0,0,0,10.2,31.742a6.63,6.63,0,0,1,1.134-3.776A.688.688,0,0,0,11.045,27.036Zm16.93-8.43a2.524,2.524,0,1,1-2.428,3.212h2.428a.688.688,0,1,0,0-1.377H25.547A2.528,2.528,0,0,1,27.975,18.606Zm-21.3,4.306H2.024a4.1,4.1,0,0,0,.4-1.782,4.1,4.1,0,0,0-.4-1.782H6.679L9.072,21.13Z" fill="#12263f"/>
      <path id="Trazado_104668" data-name="Trazado 104668" d="M46.312,40.745H41.428l-3.806-6.537a16.254,16.254,0,0,0,3.334-22.859.688.688,0,1,0-1.1.829,14.883,14.883,0,0,1-6.667,22.886l-.1.04h0a14.85,14.85,0,0,1-13.462-1.665c-.2-.138-.418-.291-.653-.469a.688.688,0,0,0-.832,1.1l.189.141-3.8,6.537H9.638a.688.688,0,0,0,0,1.377H46.312a.688.688,0,1,0,0-1.377Zm-9.832,0-2.218-4.624.173-.075.071-.031q.2-.087.4-.18l.082-.039c.13-.062.26-.126.389-.192l.013-.007c.132-.068.262-.138.392-.209l.083-.046q.191-.106.378-.217l.057-.034.183-.11,3.355,5.764H36.48ZM32.965,36.6l1.987,4.144H21L22.985,36.6a16.323,16.323,0,0,0,9.981,0ZM19.471,34.979a16.216,16.216,0,0,0,2.218,1.14l-2.219,4.626H16.115Z" fill="#12263f"/>
    </g>
  </g>
</svg>
