<svg xmlns="http://www.w3.org/2000/svg" xmlns:xlink="http://www.w3.org/1999/xlink" width="47" height="44" viewBox="0 0 47 44">
  <defs>
    <clipPath id="clip-path">
      <rect id="Rectángulo_5779" data-name="Rectángulo 5779" width="47" height="44" transform="translate(953 5096)" fill="#12263f"/>
    </clipPath>
  </defs>
  <g id="Enmascarar_grupo_72" data-name="Enmascarar grupo 72" transform="translate(-953 -5096)" clip-path="url(#clip-path)">
    <g id="analisis" transform="translate(953.922 5095.421)">
      <path id="Trazado_104654" data-name="Trazado 104654" d="M28.807,11.736a2.207,2.207,0,1,0-1.762-.881l-3.623,5.063a2.2,2.2,0,0,0-2.187.482l-2.415-1.37a2.2,2.2,0,1,0-4.311,0L12.095,16.4a2.2,2.2,0,1,0,.655,1.15l2.415-1.37a2.2,2.2,0,0,0,3,0l2.415,1.37a2.205,2.205,0,1,0,3.917-.861l3.623-5.063A2.2,2.2,0,0,0,28.807,11.736Zm0-3.087a.882.882,0,1,1-.882.882A.883.883,0,0,1,28.807,8.649ZM10.594,18.894a.882.882,0,1,1,.882-.882A.883.883,0,0,1,10.594,18.894Zm6.071-3.447a.882.882,0,1,1,.882-.882A.883.883,0,0,1,16.665,15.447Zm6.071,3.447a.882.882,0,1,1,.882-.882A.883.883,0,0,1,22.736,18.894Z" fill="#12263f"/>
      <path id="Trazado_104655" data-name="Trazado 104655" d="M36.936,33.247H1.871a.549.549,0,0,1-.548-.548V5.409a.549.549,0,0,1,.548-.548H4.989a.661.661,0,1,0,0-1.323H1.871A1.873,1.873,0,0,0,0,5.409V32.7A1.873,1.873,0,0,0,1.871,34.57H6.432v1.456a1.506,1.506,0,0,0,1.5,1.5h6.621L11.44,43.615a.661.661,0,1,0,1.177.6l3.426-6.688h7.313l3.426,6.688a.661.661,0,1,0,1.177-.6L24.844,37.53h6.621a1.506,1.506,0,0,0,1.5-1.5V34.57h3.968a.661.661,0,1,0,0-1.323Zm-5.291,2.779a.181.181,0,0,1-.181.181H7.936a.181.181,0,0,1-.181-.181V34.57H31.646Z" fill="#12263f"/>
      <path id="Trazado_104656" data-name="Trazado 104656" d="M7.635,4.861H37.53a.549.549,0,0,1,.548.548V11.7a.661.661,0,0,0,1.323,0V5.409A1.873,1.873,0,0,0,37.53,3.538H23.372v-1.3a1.661,1.661,0,0,0-1.66-1.66H17.689a1.661,1.661,0,0,0-1.66,1.66v1.3H7.635a.661.661,0,1,0,0,1.323Zm9.717-2.623a.337.337,0,0,1,.337-.337h4.023a.337.337,0,0,1,.337.337v1.3h-4.7v-1.3Z" fill="#12263f"/>
      <path id="Trazado_104657" data-name="Trazado 104657" d="M9.252,23.6a.661.661,0,0,0-.661.661v5.845a.661.661,0,0,0,.661.661h2.684a.661.661,0,0,0,.661-.661V24.261a.661.661,0,0,0-.661-.661Zm2.022,5.845H9.913V24.922h1.361Z" fill="#12263f"/>
      <path id="Trazado_104658" data-name="Trazado 104658" d="M15.323,20.219a.661.661,0,0,0-.661.661v9.225a.661.661,0,0,0,.661.661h2.684a.661.661,0,0,0,.661-.661V20.88a.661.661,0,0,0-.661-.661Zm2.022,9.225H15.985v-7.9h1.361Z" fill="#12263f"/>
      <path id="Trazado_104659" data-name="Trazado 104659" d="M21.394,23.6a.661.661,0,0,0-.661.661v5.845a.661.661,0,0,0,.661.661h2.684a.661.661,0,0,0,.661-.661V24.261a.661.661,0,0,0-.661-.661Zm2.022,5.845H22.056V24.922h1.361Z" fill="#12263f"/>
      <path id="Trazado_104660" data-name="Trazado 104660" d="M27.465,27.5a.661.661,0,0,0-.661.661v1.942a.661.661,0,0,0,.661.661h2.684a.661.661,0,1,0,0-1.323H28.127v-1.28A.661.661,0,0,0,27.465,27.5Z" fill="#12263f"/>
      <path id="Trazado_104661" data-name="Trazado 104661" d="M44.819,33.869,41.025,27.3a8.65,8.65,0,1,0-8.553,2.441,8.693,8.693,0,0,0,2.252.3,8.537,8.537,0,0,0,1.947-.225l3.794,6.573a2.514,2.514,0,1,0,4.355-2.514Zm-12.006-5.41a7.323,7.323,0,1,1,5.556-.732A7.275,7.275,0,0,1,32.814,28.459Zm10.424,7.7a1.193,1.193,0,0,1-1.628-.436L37.96,29.4a8.683,8.683,0,0,0,2.063-1.192l3.651,6.324a1.19,1.19,0,0,1-.436,1.628Z" fill="#12263f"/>
      <path id="Trazado_104662" data-name="Trazado 104662" d="M40.706,23.25a6.26,6.26,0,0,0-.313-4.535.661.661,0,1,0-1.2.564A4.954,4.954,0,1,1,37.7,17.433a.661.661,0,1,0,.8-1.055,6.282,6.282,0,1,0,2.205,6.872Z" fill="#12263f"/>
    </g>
  </g>
</svg>
