<svg xmlns="http://www.w3.org/2000/svg" width="166" height="166" viewBox="0 0 166 166">
  <g id="Grupo_55875" data-name="Grupo 55875" transform="translate(-717 -1919)">
    <circle id="Elipse_4091" data-name="Elipse 4091" cx="83" cy="83" r="83" transform="translate(717 1919)" fill="#f1d54e"/>
    <g id="planificacion_1_" data-name="planificacion (1)" transform="translate(733.663 1929.968)">
      <path id="Trazado_103491" data-name="Trazado 103491" d="M10,133v76.71a5.832,5.832,0,0,0,5.833,5.833H90.1l44.151-36.413V133Zm0,0" transform="translate(-7.083 -94.207)" fill="#ede9e8"/>
      <path id="Trazado_103492" data-name="Trazado 103492" d="M346.136,314.084A32.087,32.087,0,1,1,314.052,282,32.085,32.085,0,0,1,346.136,314.084Zm0,0" transform="translate(-199.716 -199.748)" fill="#90e36a"/>
      <path id="Trazado_103493" data-name="Trazado 103493" d="M128.42,50H15.833A5.832,5.832,0,0,0,10,55.833V74.209H134.253V55.833A5.832,5.832,0,0,0,128.42,50Zm0,0" transform="translate(-7.083 -35.416)" fill="#ed5575"/>
      <g id="Grupo_55874" data-name="Grupo 55874" transform="translate(14.584 2.917)">
        <path id="Trazado_103494" data-name="Trazado 103494" d="M347.667,27.5A5.833,5.833,0,0,1,336,27.5V15.833a5.833,5.833,0,0,1,11.667,0Zm0,0" transform="translate(-252.581 -10)" fill="#656d88"/>
        <path id="Trazado_103495" data-name="Trazado 103495" d="M204.667,27.5A5.833,5.833,0,1,1,193,27.5V15.833a5.833,5.833,0,1,1,11.667,0Zm0,0" transform="translate(-151.291 -10)" fill="#656d88"/>
        <path id="Trazado_103496" data-name="Trazado 103496" d="M61.667,27.5A5.833,5.833,0,1,1,50,27.5V15.833a5.833,5.833,0,1,1,11.667,0Zm0,0" transform="translate(-50 -10)" fill="#656d88"/>
      </g>
      <path id="Trazado_103497" data-name="Trazado 103497" d="M188.833,368.917A2.917,2.917,0,1,1,185.917,366,2.917,2.917,0,0,1,188.833,368.917Zm0,0" transform="translate(-129.624 -259.247)"/>
      <path id="Trazado_103498" data-name="Trazado 103498" d="M402.417,339.5H387.833V324.917a2.917,2.917,0,0,0-5.833,0v17.5a2.917,2.917,0,0,0,2.917,2.917h17.5a2.917,2.917,0,0,0,0-5.833Zm0,0" transform="translate(-270.581 -228.081)"/>
      <path id="Trazado_103499" data-name="Trazado 103499" d="M62.917,191.833H81.292a2.917,2.917,0,1,0,0-5.833H62.917a2.917,2.917,0,1,0,0,5.833Zm0,0" transform="translate(-42.5 -131.749)"/>
      <path id="Trazado_103500" data-name="Trazado 103500" d="M204.292,186H185.917a2.917,2.917,0,1,0,0,5.833h18.375a2.917,2.917,0,1,0,0-5.833Zm0,0" transform="translate(-129.624 -131.749)"/>
      <path id="Trazado_103501" data-name="Trazado 103501" d="M62.917,251.833H81.292a2.917,2.917,0,0,0,0-5.833H62.917a2.917,2.917,0,0,0,0,5.833Zm0,0" transform="translate(-42.5 -174.248)"/>
      <path id="Trazado_103502" data-name="Trazado 103502" d="M87.126,366H62.917a2.917,2.917,0,0,0,0,5.833H87.126a2.917,2.917,0,0,0,0-5.833Zm0,0" transform="translate(-42.5 -259.247)"/>
      <path id="Trazado_103503" data-name="Trazado 103503" d="M204.292,246H185.917a2.917,2.917,0,1,0,0,5.833h18.375a2.917,2.917,0,1,0,0-5.833Zm0,0" transform="translate(-129.624 -174.248)"/>
      <path id="Trazado_103504" data-name="Trazado 103504" d="M62.917,311.833H81.292a2.917,2.917,0,1,0,0-5.833H62.917a2.917,2.917,0,1,0,0,5.833Zm0,0" transform="translate(-42.5 -216.748)"/>
      <path id="Trazado_103505" data-name="Trazado 103505" d="M204.292,306H185.917a2.917,2.917,0,1,0,0,5.833h18.375a2.917,2.917,0,1,0,0-5.833Zm0,0" transform="translate(-129.624 -216.748)"/>
      <path id="Trazado_103506" data-name="Trazado 103506" d="M308.917,191.833h17.5a2.917,2.917,0,1,0,0-5.833h-17.5a2.917,2.917,0,0,0,0,5.833Zm0,0" transform="translate(-216.748 -131.749)"/>
      <path id="Trazado_103507" data-name="Trazado 103507" d="M130.086,83.079V20.417a8.76,8.76,0,0,0-8.75-8.75h-8.75V8.75a8.75,8.75,0,1,0-17.5,0v2.917H70.877V8.75a8.75,8.75,0,0,0-17.5,0v2.917H29.167V8.75a8.75,8.75,0,0,0-17.5,0v2.917H8.75A8.76,8.76,0,0,0,0,20.417V115.5a8.76,8.76,0,0,0,8.75,8.75H80.771a35,35,0,1,0,49.316-41.174ZM100.919,8.75a2.917,2.917,0,1,1,5.833,0V20.417a2.917,2.917,0,1,1-5.833,0Zm-41.709,0a2.917,2.917,0,0,1,5.833,0V20.417a2.917,2.917,0,0,1-5.833,0ZM17.5,8.75a2.917,2.917,0,1,1,5.833,0V20.417a2.917,2.917,0,0,1-5.833,0ZM8.75,17.5h2.917v2.917a8.75,8.75,0,0,0,17.5,0V17.5H53.376v2.917a8.75,8.75,0,1,0,17.5,0V17.5H95.086v2.917a8.75,8.75,0,1,0,17.5,0V17.5h8.75a2.919,2.919,0,0,1,2.917,2.917V35.876H5.833V20.417A2.919,2.919,0,0,1,8.75,17.5Zm-2.917,98V41.709h118.42V80.762a35.024,35.024,0,0,0-44.918,33.574,35.411,35.411,0,0,0,.239,4.083H8.75A2.919,2.919,0,0,1,5.834,115.5Zm108.5,28A29.167,29.167,0,1,1,143.5,114.336,29.265,29.265,0,0,1,114.336,143.5Zm0,0"/>
    </g>
  </g>
</svg>
