<svg xmlns="http://www.w3.org/2000/svg" width="1240" height="619.559" viewBox="0 0 1240 619.559">
  <g id="Grupo_54288" data-name="Grupo 54288" transform="translate(-180 -6221)">
    <g id="Grupo_54285" data-name="Grupo 54285" transform="translate(-343.243 5662.765)">
      <g id="Grupo_54284" data-name="Grupo 54284" transform="translate(742.983 558.235)">
        <rect id="Rectángulo_5360" data-name="Rectángulo 5360" width="32.912" height="619.559" fill="#f6f6f6"/>
        <rect id="Rectángulo_5361" data-name="Rectángulo 5361" width="32.912" height="619.559" transform="translate(65.823)" fill="#f6f6f6"/>
        <rect id="Rectángulo_5362" data-name="Rectángulo 5362" width="32.912" height="619.559" transform="translate(131.647)" fill="#f6f6f6"/>
        <rect id="Rectángulo_5363" data-name="Rectángulo 5363" width="32.912" height="619.559" transform="translate(197.47)" fill="#f6f6f6"/>
        <rect id="Rectángulo_5364" data-name="Rectángulo 5364" width="32.912" height="619.559" transform="translate(263.293)" fill="#f6f6f6"/>
        <rect id="Rectángulo_5365" data-name="Rectángulo 5365" width="32.912" height="619.559" transform="translate(329.116)" fill="#f6f6f6"/>
        <rect id="Rectángulo_5366" data-name="Rectángulo 5366" width="32.912" height="619.559" transform="translate(394.94)" fill="#f6f6f6"/>
        <rect id="Rectángulo_5367" data-name="Rectángulo 5367" width="32.912" height="619.559" transform="translate(460.763)" fill="#f6f6f6"/>
        <rect id="Rectángulo_5368" data-name="Rectángulo 5368" width="32.912" height="619.559" transform="translate(526.586)" fill="#f6f6f6"/>
        <rect id="Rectángulo_5369" data-name="Rectángulo 5369" width="32.912" height="619.559" transform="translate(592.409)" fill="#f6f6f6"/>
        <rect id="Rectángulo_5370" data-name="Rectángulo 5370" width="32.912" height="619.559" transform="translate(658.233)" fill="#f6f6f6"/>
        <rect id="Rectángulo_5371" data-name="Rectángulo 5371" width="32.912" height="619.559" transform="translate(724.056)" fill="#f6f6f6"/>
        <rect id="Rectángulo_5372" data-name="Rectángulo 5372" width="32.912" height="619.559" transform="translate(789.879)" fill="#f6f6f6"/>
        <rect id="Rectángulo_5373" data-name="Rectángulo 5373" width="32.912" height="619.559" transform="translate(855.702)" fill="#f6f6f6"/>
        <rect id="Rectángulo_5374" data-name="Rectángulo 5374" width="32.912" height="619.559" transform="translate(921.526)" fill="#f6f6f6"/>
        <rect id="Rectángulo_5375" data-name="Rectángulo 5375" width="32.912" height="619.559" transform="translate(987.349)" fill="#f6f6f6"/>
        <line id="Línea_143" data-name="Línea 143" x2="1020.261" transform="translate(0 516.299)" fill="none"/>
        <line id="Línea_144" data-name="Línea 144" x2="1020.261" transform="translate(0 413.039)" fill="none"/>
        <line id="Línea_145" data-name="Línea 145" x2="1020.261" transform="translate(0 309.779)" fill="none"/>
        <line id="Línea_146" data-name="Línea 146" x2="1020.261" transform="translate(0 206.52)" fill="none"/>
        <line id="Línea_147" data-name="Línea 147" x2="1020.261" transform="translate(0 103.26)" fill="none"/>
        <line id="Línea_148" data-name="Línea 148" x2="1020.261" transform="translate(0 45.059)" fill="none"/>
      </g>
      <rect id="Rectángulo_5377" data-name="Rectángulo 5377" width="219.74" height="45.059" transform="translate(523.243 558.235)" fill="#afafaf"/>
      <rect id="Rectángulo_5378" data-name="Rectángulo 5378" width="219.74" height="574.5" transform="translate(523.243 603.294)" fill="#e8e8e8"/>
      <line id="Línea_179" data-name="Línea 179" x2="219.74" transform="translate(523.243 700.922)" fill="none" stroke="#fff" stroke-miterlimit="10" stroke-width="1"/>
      <line id="Línea_180" data-name="Línea 180" x2="219.74" transform="translate(523.243 798.549)" fill="none" stroke="#fff" stroke-miterlimit="10" stroke-width="1"/>
      <line id="Línea_181" data-name="Línea 181" x2="219.74" transform="translate(523.243 890.812)" fill="none" stroke="#fff" stroke-miterlimit="10" stroke-width="1"/>
      <line id="Línea_182" data-name="Línea 182" x2="219.74" transform="translate(523.243 988.44)" fill="none" stroke="#fff" stroke-miterlimit="10" stroke-width="1"/>
      <line id="Línea_183" data-name="Línea 183" x2="219.74" transform="translate(523.243 1080.703)" fill="none" stroke="#fff" stroke-miterlimit="10" stroke-width="1"/>
      <rect id="Rectángulo_5379" data-name="Rectángulo 5379" width="789.879" height="23.87" rx="7.853" transform="translate(742.983 637.625)" fill="#17c878"/>
      <rect id="Rectángulo_5380" data-name="Rectángulo 5380" width="592.409" height="23.87" rx="7.853" transform="translate(907.541 740.884)" fill="#c6fc7a"/>
      <rect id="Rectángulo_5381" data-name="Rectángulo 5381" width="493.674" height="23.87" rx="7.853" transform="translate(1039.187 834.578)" fill="#ecbd00"/>
      <rect id="Rectángulo_5382" data-name="Rectángulo 5382" width="493.674" height="23.87" rx="7.853" transform="translate(1203.745 928.272)" fill="#6e7fef"/>
      <rect id="Rectángulo_5383" data-name="Rectángulo 5383" width="256.049" height="23.87" rx="7.853" transform="translate(783.139 1021.966)" fill="#fb9e36"/>
      <rect id="Rectángulo_5384" data-name="Rectángulo 5384" width="263.293" height="23.87" rx="7.853" transform="translate(1434.127 1021.966)" fill="#fb9e36"/>
      <rect id="Rectángulo_5385" data-name="Rectángulo 5385" width="263.293" height="23.87" rx="7.853" transform="translate(1499.95 1119.236)" fill="#9138cc"/>
    </g>
    <path id="Trazado_104813" data-name="Trazado 104813" d="M11.8-6.135a7.546,7.546,0,0,1-.694,3.313A5.132,5.132,0,0,1,9.136-.6,5.494,5.494,0,0,1,6.223.176a5.572,5.572,0,0,1-2.9-.751A5.123,5.123,0,0,1,1.349-2.725,7.329,7.329,0,0,1,.606-5.933v-.721A7.58,7.58,0,0,1,1.3-9.971,5.119,5.119,0,0,1,3.274-12.19a5.533,5.533,0,0,1,2.931-.782,5.479,5.479,0,0,1,2.9.773A5.211,5.211,0,0,1,11.087-10,7.362,7.362,0,0,1,11.8-6.724ZM8.666-6.671a5.381,5.381,0,0,0-.637-2.9,2.044,2.044,0,0,0-1.824-.989q-2.32,0-2.452,3.48l-.009.94a5.535,5.535,0,0,0,.624,2.892A2.041,2.041,0,0,0,6.223-2.232a2.016,2.016,0,0,0,1.8-.993,5.383,5.383,0,0,0,.642-2.856Zm8.613,4.562a1.317,1.317,0,0,0,.967-.338,1.241,1.241,0,0,0,.334-.945h2.777A3.288,3.288,0,0,1,20.237-.826a4.168,4.168,0,0,1-2.887,1,4.22,4.22,0,0,1-3.27-1.3,5.125,5.125,0,0,1-1.2-3.6v-.123A5.792,5.792,0,0,1,13.417-7.4a3.872,3.872,0,0,1,1.534-1.7,4.573,4.573,0,0,1,2.373-.593,4.116,4.116,0,0,1,2.944,1.028,3.647,3.647,0,0,1,1.09,2.786H18.58A1.626,1.626,0,0,0,18.22-7a1.244,1.244,0,0,0-.967-.4q-1.151,0-1.345,1.468a10.357,10.357,0,0,0-.062,1.283,4.068,4.068,0,0,0,.343,1.986A1.187,1.187,0,0,0,17.279-2.109Zm8.78-9.765V-9.51h1.564v2.057H26.06V-3.1a1.111,1.111,0,0,0,.193.747,1.037,1.037,0,0,0,.765.211,4.345,4.345,0,0,0,.738-.053V-.079a5.466,5.466,0,0,1-1.67.255,3.1,3.1,0,0,1-2.259-.721A2.954,2.954,0,0,1,23.1-2.733v-4.72H21.885V-9.51H23.1v-2.364ZM34.453-1.028a3.054,3.054,0,0,1-2.54,1.2,3,3,0,0,1-2.369-.91,3.826,3.826,0,0,1-.8-2.615V-9.51H31.7v6.179a1.065,1.065,0,0,0,1.187,1.222,1.548,1.548,0,0,0,1.45-.729V-9.51h2.979V0H34.541ZM47.769-4.676A5.8,5.8,0,0,1,46.8-1.081,3.238,3.238,0,0,1,44.077.176,2.81,2.81,0,0,1,41.739-.976L41.616,0H38.962V-13.5h2.962v4.755a2.711,2.711,0,0,1,2.136-.94A3.239,3.239,0,0,1,46.8-8.411a5.826,5.826,0,0,1,.967,3.586ZM44.8-4.865a3.866,3.866,0,0,0-.365-1.952A1.229,1.229,0,0,0,43.313-7.4a1.418,1.418,0,0,0-1.389.763v3.773a1.426,1.426,0,0,0,1.406.755,1.258,1.258,0,0,0,1.327-1.018A7.309,7.309,0,0,0,44.8-4.865ZM54.826-6.829l-.976-.07a1.752,1.752,0,0,0-1.793.879V0H49.1V-9.51h2.777l.1,1.222a2.294,2.294,0,0,1,2.083-1.4,2.888,2.888,0,0,1,.826.105Zm5.5,7a4.889,4.889,0,0,1-3.542-1.305,4.507,4.507,0,0,1-1.354-3.4v-.246a5.84,5.84,0,0,1,.541-2.575,3.955,3.955,0,0,1,1.578-1.727,4.763,4.763,0,0,1,2.461-.611,4.117,4.117,0,0,1,3.164,1.244,4.887,4.887,0,0,1,1.16,3.467v1.151H58.447a2.135,2.135,0,0,0,.694,1.257,2.066,2.066,0,0,0,1.389.457,2.662,2.662,0,0,0,2.2-.984l1.354,1.6A3.784,3.784,0,0,1,62.512-.277,5.3,5.3,0,0,1,60.328.176ZM59.994-7.4q-1.3,0-1.547,1.723h2.988v-.229a1.467,1.467,0,0,0-.36-1.1A1.434,1.434,0,0,0,59.994-7.4ZM78.891,0h-8.93V-1.934l4.113-4.324a4.909,4.909,0,0,0,1.521-2.751,1.913,1.913,0,0,0-.36-1.257,1.287,1.287,0,0,0-1.046-.431,1.3,1.3,0,0,0-1.1.576,2.366,2.366,0,0,0-.422,1.437H69.7a4.2,4.2,0,0,1,.589-2.175,4.129,4.129,0,0,1,1.635-1.56,4.856,4.856,0,0,1,2.338-.562,4.777,4.777,0,0,1,3.195.958,3.42,3.42,0,0,1,1.121,2.751A4,4,0,0,1,78.293-7.8a6.456,6.456,0,0,1-.875,1.5,22.029,22.029,0,0,1-1.912,2.1L73.854-2.285h5.036Zm10.38-5.229a6.11,6.11,0,0,1-1.165,4A4.024,4.024,0,0,1,84.823.176a4.046,4.046,0,0,1-3.3-1.415,6.1,6.1,0,0,1-1.169-3.99V-7.567a6.11,6.11,0,0,1,1.165-4,4.034,4.034,0,0,1,3.292-1.406,4.036,4.036,0,0,1,3.3,1.415,6.116,6.116,0,0,1,1.169,4ZM86.309-7.945a4.564,4.564,0,0,0-.36-2.061,1.2,1.2,0,0,0-1.143-.681,1.176,1.176,0,0,0-1.112.633,4.3,4.3,0,0,0-.374,1.916v3.27a4.6,4.6,0,0,0,.36,2.1,1.209,1.209,0,0,0,1.143.664,1.193,1.193,0,0,0,1.116-.646,4.39,4.39,0,0,0,.369-2.026ZM99.738,0h-8.93V-1.934l4.113-4.324a4.909,4.909,0,0,0,1.521-2.751,1.913,1.913,0,0,0-.36-1.257,1.287,1.287,0,0,0-1.046-.431,1.3,1.3,0,0,0-1.1.576,2.366,2.366,0,0,0-.422,1.437H90.545a4.2,4.2,0,0,1,.589-2.175,4.129,4.129,0,0,1,1.635-1.56,4.856,4.856,0,0,1,2.338-.562,4.777,4.777,0,0,1,3.195.958,3.42,3.42,0,0,1,1.121,2.751A4,4,0,0,1,99.141-7.8a6.456,6.456,0,0,1-.875,1.5,22.029,22.029,0,0,1-1.912,2.1L94.7-2.285h5.036Zm8.06,0h-2.971V-9.457l-2.918.853v-2.25l5.616-1.942h.272Z" transform="translate(229 6251)" fill="#12263f"/>
    <path id="Trazado_104820" data-name="Trazado 104820" d="M7.348,0H4.377V-9.457L1.459-8.6v-2.25L7.075-12.8h.272Z" transform="translate(410 6251)" fill="#12263f"/>
    <path id="Trazado_104826" data-name="Trazado 104826" d="M9.677-11.215,4.9,0H1.767l4.79-10.512H.457V-12.8h9.22Z" transform="translate(608 6251)" fill="#12263f"/>
    <path id="Trazado_104821" data-name="Trazado 104821" d="M9.712,0H.782V-1.934L4.9-6.258A4.909,4.909,0,0,0,6.416-9.009a1.913,1.913,0,0,0-.36-1.257A1.287,1.287,0,0,0,5.01-10.7a1.3,1.3,0,0,0-1.1.576,2.366,2.366,0,0,0-.422,1.437H.519a4.2,4.2,0,0,1,.589-2.175,4.129,4.129,0,0,1,1.635-1.56,4.856,4.856,0,0,1,2.338-.562,4.777,4.777,0,0,1,3.195.958A3.42,3.42,0,0,1,9.4-9.272,4,4,0,0,1,9.114-7.8,6.456,6.456,0,0,1,8.24-6.3a22.029,22.029,0,0,1-1.912,2.1L4.676-2.285H9.712Z" transform="translate(443 6251)" fill="#12263f"/>
    <path id="Trazado_104827" data-name="Trazado 104827" d="M9.413-9.378a2.954,2.954,0,0,1-.461,1.644,3.361,3.361,0,0,1-1.27,1.143,3.7,3.7,0,0,1,1.45,1.226,3.164,3.164,0,0,1,.536,1.841A3.349,3.349,0,0,1,8.486-.817,4.909,4.909,0,0,1,5.229.176a5,5,0,0,1-3.287-1,3.325,3.325,0,0,1-1.2-2.7,3.2,3.2,0,0,1,.527-1.819A3.586,3.586,0,0,1,2.76-6.592,3.38,3.38,0,0,1,1.477-7.734a2.934,2.934,0,0,1-.466-1.644,3.284,3.284,0,0,1,1.134-2.637A4.558,4.558,0,0,1,5.2-12.981a4.586,4.586,0,0,1,3.076.967A3.284,3.284,0,0,1,9.413-9.378ZM6.7-3.762a1.69,1.69,0,0,0-.409-1.217,1.423,1.423,0,0,0-1.077-.426,1.438,1.438,0,0,0-1.081.426,1.678,1.678,0,0,0-.413,1.217,1.693,1.693,0,0,0,.417,1.208,1.433,1.433,0,0,0,1.094.444,1.377,1.377,0,0,0,1.063-.439A1.723,1.723,0,0,0,6.7-3.762ZM5.2-10.7a1.1,1.1,0,0,0-.91.391A1.7,1.7,0,0,0,3.981-9.22,1.8,1.8,0,0,0,4.3-8.112a1.092,1.092,0,0,0,.932.422,1.047,1.047,0,0,0,.91-.422,1.856,1.856,0,0,0,.3-1.107A1.7,1.7,0,0,0,6.13-10.3,1.109,1.109,0,0,0,5.2-10.7Z" transform="translate(641 6251)" fill="#12263f"/>
    <path id="Trazado_104822" data-name="Trazado 104822" d="M3.489-7.638h1.4A1.453,1.453,0,0,0,6.548-9.264a1.406,1.406,0,0,0-.4-1.033,1.5,1.5,0,0,0-1.116-.4,1.606,1.606,0,0,0-1.024.343,1.046,1.046,0,0,0-.435.853H.615a3.032,3.032,0,0,1,.563-1.8,3.715,3.715,0,0,1,1.56-1.235,5.334,5.334,0,0,1,2.193-.444,5.241,5.241,0,0,1,3.357.976A3.243,3.243,0,0,1,9.51-9.325,2.7,2.7,0,0,1,9-7.765,3.6,3.6,0,0,1,7.532-6.574a3.441,3.441,0,0,1,1.6,1.121,2.951,2.951,0,0,1,.58,1.859A3.3,3.3,0,0,1,8.394-.853,5.472,5.472,0,0,1,4.931.176,5.675,5.675,0,0,1,2.6-.3,3.656,3.656,0,0,1,.967-1.63,3.45,3.45,0,0,1,.413-3.56H3.393a1.334,1.334,0,0,0,.475,1.02,1.676,1.676,0,0,0,1.169.431,1.755,1.755,0,0,0,1.248-.435A1.454,1.454,0,0,0,6.75-3.656a1.7,1.7,0,0,0-.483-1.371,2.021,2.021,0,0,0-1.336-.4H3.489Z" transform="translate(476 6251)" fill="#12263f"/>
    <path id="Trazado_104828" data-name="Trazado 104828" d="M6.618-4.948a3.128,3.128,0,0,1-2.145.861,3.463,3.463,0,0,1-2.76-1.178A4.64,4.64,0,0,1,.694-8.411,4.722,4.722,0,0,1,1.266-10.7a4.287,4.287,0,0,1,1.6-1.67,4.373,4.373,0,0,1,2.281-.615,4.245,4.245,0,0,1,2.29.637,4.29,4.29,0,0,1,1.6,1.8,6.189,6.189,0,0,1,.589,2.685v1.134A7.693,7.693,0,0,1,8.793-3.05,5.734,5.734,0,0,1,6.425-.659,7.4,7.4,0,0,1,2.839.176H2.654V-2.2l.563-.009Q6.275-2.355,6.618-4.948ZM5.273-6.223a1.442,1.442,0,0,0,1.389-.835v-1.23a3.2,3.2,0,0,0-.413-1.819A1.3,1.3,0,0,0,5.133-10.7a1.225,1.225,0,0,0-1.046.668,2.968,2.968,0,0,0-.422,1.617,2.661,2.661,0,0,0,.431,1.6A1.378,1.378,0,0,0,5.273-6.223Z" transform="translate(674 6251)" fill="#12263f"/>
    <path id="Trazado_104823" data-name="Trazado 104823" d="M8.6-5h1.3v2.285H8.6V0H5.643V-2.716H.694L.519-4.526l5.124-8.244V-12.8H8.6ZM3.34-5h2.3V-8.938l-.185.3Z" transform="translate(509 6251)" fill="#12263f"/>
    <path id="Trazado_104829" data-name="Trazado 104829" d="M7.348,0H4.377V-9.457L1.459-8.6v-2.25L7.075-12.8h.272ZM20.092-5.229a6.11,6.11,0,0,1-1.165,4A4.024,4.024,0,0,1,15.645.176a4.046,4.046,0,0,1-3.3-1.415,6.1,6.1,0,0,1-1.169-3.99V-7.567a6.11,6.11,0,0,1,1.165-4,4.034,4.034,0,0,1,3.292-1.406,4.036,4.036,0,0,1,3.3,1.415,6.116,6.116,0,0,1,1.169,4ZM17.13-7.945a4.564,4.564,0,0,0-.36-2.061,1.2,1.2,0,0,0-1.143-.681,1.176,1.176,0,0,0-1.112.633,4.3,4.3,0,0,0-.374,1.916v3.27a4.6,4.6,0,0,0,.36,2.1,1.209,1.209,0,0,0,1.143.664,1.193,1.193,0,0,0,1.116-.646,4.39,4.39,0,0,0,.369-2.026Z" transform="translate(701 6251)" fill="#12263f"/>
    <path id="Trazado_104835" data-name="Trazado 104835" d="M7.348,0H4.377V-9.457L1.459-8.6v-2.25L7.075-12.8h.272ZM18.36-12.981v2.329h-.132a4.447,4.447,0,0,0-2.729.8,3.358,3.358,0,0,0-1.314,2.21,3.464,3.464,0,0,1,2.531-.984,3.231,3.231,0,0,1,2.646,1.213,4.892,4.892,0,0,1,.984,3.182A4.48,4.48,0,0,1,19.771-2,4.108,4.108,0,0,1,18.163-.4a4.622,4.622,0,0,1-2.29.576,4.777,4.777,0,0,1-2.435-.62,4.26,4.26,0,0,1-1.67-1.771,5.832,5.832,0,0,1-.615-2.654V-6.056A7.387,7.387,0,0,1,12-9.611a6.149,6.149,0,0,1,2.421-2.474,6.923,6.923,0,0,1,3.489-.9ZM15.688-6.346a1.7,1.7,0,0,0-.984.271,1.725,1.725,0,0,0-.589.665v.884q0,2.416,1.679,2.416a1.363,1.363,0,0,0,1.129-.6,2.454,2.454,0,0,0,.453-1.514,2.409,2.409,0,0,0-.461-1.527A1.478,1.478,0,0,0,15.688-6.346Z" transform="translate(899 6251)" fill="#12263f"/>
    <path id="Trazado_104832" data-name="Trazado 104832" d="M7.348,0H4.377V-9.457L1.459-8.6v-2.25L7.075-12.8h.272Zm6.565-7.638h1.4a1.453,1.453,0,0,0,1.661-1.626,1.406,1.406,0,0,0-.4-1.033,1.5,1.5,0,0,0-1.116-.4,1.606,1.606,0,0,0-1.024.343A1.046,1.046,0,0,0,14-9.5H11.039a3.032,3.032,0,0,1,.563-1.8,3.715,3.715,0,0,1,1.56-1.235,5.334,5.334,0,0,1,2.193-.444,5.241,5.241,0,0,1,3.357.976,3.243,3.243,0,0,1,1.222,2.681,2.7,2.7,0,0,1-.505,1.56,3.6,3.6,0,0,1-1.472,1.191,3.441,3.441,0,0,1,1.6,1.121,2.951,2.951,0,0,1,.58,1.859A3.3,3.3,0,0,1,18.817-.853,5.472,5.472,0,0,1,15.354.176,5.675,5.675,0,0,1,13.021-.3a3.656,3.656,0,0,1-1.63-1.327,3.45,3.45,0,0,1-.554-1.929h2.979a1.334,1.334,0,0,0,.475,1.02,1.676,1.676,0,0,0,1.169.431,1.755,1.755,0,0,0,1.248-.435,1.454,1.454,0,0,0,.466-1.112,1.7,1.7,0,0,0-.483-1.371,2.021,2.021,0,0,0-1.336-.4H13.913Z" transform="translate(800 6251)" fill="#12263f"/>
    <path id="Trazado_104838" data-name="Trazado 104838" d="M7.348,0H4.377V-9.457L1.459-8.6v-2.25L7.075-12.8h.272Zm9.694-4.948a3.128,3.128,0,0,1-2.145.861,3.463,3.463,0,0,1-2.76-1.178,4.64,4.64,0,0,1-1.02-3.146,4.722,4.722,0,0,1,.571-2.285,4.287,4.287,0,0,1,1.6-1.67,4.373,4.373,0,0,1,2.281-.615,4.245,4.245,0,0,1,2.29.637,4.29,4.29,0,0,1,1.6,1.8,6.189,6.189,0,0,1,.589,2.685v1.134a7.693,7.693,0,0,1-.831,3.674A5.734,5.734,0,0,1,16.849-.659a7.4,7.4,0,0,1-3.586.835h-.185V-2.2l.563-.009Q16.7-2.355,17.042-4.948ZM15.7-6.223a1.442,1.442,0,0,0,1.389-.835v-1.23a3.2,3.2,0,0,0-.413-1.819,1.3,1.3,0,0,0-1.116-.589,1.225,1.225,0,0,0-1.046.668,2.968,2.968,0,0,0-.422,1.617,2.661,2.661,0,0,0,.431,1.6A1.378,1.378,0,0,0,15.7-6.223Z" transform="translate(998 6251)" fill="#12263f"/>
    <path id="Trazado_104824" data-name="Trazado 104824" d="M.958-6.251,1.74-12.8H9.22v2.285H4.148l-.29,2.56a3.493,3.493,0,0,1,.831-.327A3.79,3.79,0,0,1,5.7-8.42,3.754,3.754,0,0,1,8.626-7.291,4.549,4.549,0,0,1,9.65-4.122,4.541,4.541,0,0,1,9.1-1.894,3.776,3.776,0,0,1,7.559-.36,4.87,4.87,0,0,1,5.212.176a5.24,5.24,0,0,1-2.259-.5A4.052,4.052,0,0,1,1.3-1.682,3.308,3.308,0,0,1,.712-3.636H3.683a1.68,1.68,0,0,0,.448,1.114,1.423,1.423,0,0,0,1.063.412q1.494,0,1.494-2.21,0-2.044-1.828-2.044A1.824,1.824,0,0,0,3.313-5.7Z" transform="translate(542 6251)" fill="#12263f"/>
    <path id="Trazado_104830" data-name="Trazado 104830" d="M7.348,0H4.377V-9.457L1.459-8.6v-2.25L7.075-12.8h.272ZM17.771,0H14.8V-9.457L11.883-8.6v-2.25L17.5-12.8h.272Z" transform="translate(735 6251)" fill="#12263f"/>
    <path id="Trazado_104836" data-name="Trazado 104836" d="M7.348,0H4.377V-9.457L1.459-8.6v-2.25L7.075-12.8h.272ZM20.1-11.215,15.319,0H12.19l4.79-10.512h-6.1V-12.8H20.1Z" transform="translate(933 6251)" fill="#12263f"/>
    <path id="Trazado_104833" data-name="Trazado 104833" d="M7.348,0H4.377V-9.457L1.459-8.6v-2.25L7.075-12.8h.272ZM19.028-5h1.3v2.285h-1.3V0H16.066V-2.716H11.118l-.176-1.811,5.124-8.244V-12.8h2.962ZM13.764-5h2.3V-8.938l-.185.3Z" transform="translate(834 6251)" fill="#12263f"/>
    <path id="Trazado_104839" data-name="Trazado 104839" d="M9.712,0H.782V-1.934L4.9-6.258A4.909,4.909,0,0,0,6.416-9.009a1.913,1.913,0,0,0-.36-1.257A1.287,1.287,0,0,0,5.01-10.7a1.3,1.3,0,0,0-1.1.576,2.366,2.366,0,0,0-.422,1.437H.519a4.2,4.2,0,0,1,.589-2.175,4.129,4.129,0,0,1,1.635-1.56,4.856,4.856,0,0,1,2.338-.562,4.777,4.777,0,0,1,3.195.958A3.42,3.42,0,0,1,9.4-9.272,4,4,0,0,1,9.114-7.8,6.456,6.456,0,0,1,8.24-6.3a22.029,22.029,0,0,1-1.912,2.1L4.676-2.285H9.712Zm10.38-5.229a6.11,6.11,0,0,1-1.165,4A4.024,4.024,0,0,1,15.645.176a4.046,4.046,0,0,1-3.3-1.415,6.1,6.1,0,0,1-1.169-3.99V-7.567a6.11,6.11,0,0,1,1.165-4,4.034,4.034,0,0,1,3.292-1.406,4.036,4.036,0,0,1,3.3,1.415,6.116,6.116,0,0,1,1.169,4ZM17.13-7.945a4.564,4.564,0,0,0-.36-2.061,1.2,1.2,0,0,0-1.143-.681,1.176,1.176,0,0,0-1.112.633,4.3,4.3,0,0,0-.374,1.916v3.27a4.6,4.6,0,0,0,.36,2.1,1.209,1.209,0,0,0,1.143.664,1.193,1.193,0,0,0,1.116-.646,4.39,4.39,0,0,0,.369-2.026Z" transform="translate(1032 6251)" fill="#12263f"/>
    <path id="Trazado_104825" data-name="Trazado 104825" d="M7.937-12.981v2.329H7.8a4.447,4.447,0,0,0-2.729.8,3.358,3.358,0,0,0-1.314,2.21,3.464,3.464,0,0,1,2.531-.984A3.231,3.231,0,0,1,8.938-7.418a4.892,4.892,0,0,1,.984,3.182A4.48,4.48,0,0,1,9.347-2,4.108,4.108,0,0,1,7.739-.4a4.622,4.622,0,0,1-2.29.576,4.777,4.777,0,0,1-2.435-.62,4.26,4.26,0,0,1-1.67-1.771A5.832,5.832,0,0,1,.729-4.869V-6.056a7.387,7.387,0,0,1,.848-3.555A6.149,6.149,0,0,1,4-12.085a6.923,6.923,0,0,1,3.489-.9ZM5.265-6.346a1.7,1.7,0,0,0-.984.271,1.725,1.725,0,0,0-.589.665v.884q0,2.416,1.679,2.416a1.363,1.363,0,0,0,1.129-.6,2.454,2.454,0,0,0,.453-1.514,2.409,2.409,0,0,0-.461-1.527A1.478,1.478,0,0,0,5.265-6.346Z" transform="translate(575 6251)" fill="#12263f"/>
    <path id="Trazado_104831" data-name="Trazado 104831" d="M7.348,0H4.377V-9.457L1.459-8.6v-2.25L7.075-12.8h.272ZM20.136,0h-8.93V-1.934l4.113-4.324A4.909,4.909,0,0,0,16.84-9.009a1.913,1.913,0,0,0-.36-1.257,1.287,1.287,0,0,0-1.046-.431,1.3,1.3,0,0,0-1.1.576,2.366,2.366,0,0,0-.422,1.437H10.942a4.2,4.2,0,0,1,.589-2.175,4.129,4.129,0,0,1,1.635-1.56,4.856,4.856,0,0,1,2.338-.562,4.777,4.777,0,0,1,3.195.958,3.42,3.42,0,0,1,1.121,2.751A4,4,0,0,1,19.538-7.8a6.456,6.456,0,0,1-.875,1.5,22.029,22.029,0,0,1-1.912,2.1L15.1-2.285h5.036Z" transform="translate(766 6251)" fill="#12263f"/>
    <path id="Trazado_104837" data-name="Trazado 104837" d="M7.348,0H4.377V-9.457L1.459-8.6v-2.25L7.075-12.8h.272ZM19.837-9.378a2.954,2.954,0,0,1-.461,1.644,3.361,3.361,0,0,1-1.27,1.143,3.7,3.7,0,0,1,1.45,1.226,3.164,3.164,0,0,1,.536,1.841A3.349,3.349,0,0,1,18.91-.817a4.909,4.909,0,0,1-3.256.993,5,5,0,0,1-3.287-1,3.325,3.325,0,0,1-1.2-2.7,3.2,3.2,0,0,1,.527-1.819,3.586,3.586,0,0,1,1.494-1.248A3.38,3.38,0,0,1,11.9-7.734a2.934,2.934,0,0,1-.466-1.644,3.284,3.284,0,0,1,1.134-2.637,4.558,4.558,0,0,1,3.059-.967,4.586,4.586,0,0,1,3.076.967A3.284,3.284,0,0,1,19.837-9.378ZM17.121-3.762a1.69,1.69,0,0,0-.409-1.217,1.423,1.423,0,0,0-1.077-.426,1.438,1.438,0,0,0-1.081.426,1.678,1.678,0,0,0-.413,1.217,1.693,1.693,0,0,0,.417,1.208,1.433,1.433,0,0,0,1.094.444,1.377,1.377,0,0,0,1.063-.439A1.723,1.723,0,0,0,17.121-3.762ZM15.627-10.7a1.1,1.1,0,0,0-.91.391,1.7,1.7,0,0,0-.312,1.085,1.8,1.8,0,0,0,.316,1.107,1.092,1.092,0,0,0,.932.422,1.047,1.047,0,0,0,.91-.422,1.856,1.856,0,0,0,.3-1.107,1.7,1.7,0,0,0-.312-1.081A1.109,1.109,0,0,0,15.627-10.7Z" transform="translate(964 6251)" fill="#12263f"/>
    <path id="Trazado_104834" data-name="Trazado 104834" d="M7.348,0H4.377V-9.457L1.459-8.6v-2.25L7.075-12.8h.272Zm4.034-6.251.782-6.546h7.479v2.285H14.572l-.29,2.56a3.493,3.493,0,0,1,.831-.327,3.79,3.79,0,0,1,1.006-.141A3.754,3.754,0,0,1,19.05-7.291a4.549,4.549,0,0,1,1.024,3.168,4.541,4.541,0,0,1-.549,2.228A3.776,3.776,0,0,1,17.982-.36a4.87,4.87,0,0,1-2.347.536,5.24,5.24,0,0,1-2.259-.5,4.052,4.052,0,0,1-1.652-1.361,3.308,3.308,0,0,1-.589-1.954h2.971a1.68,1.68,0,0,0,.448,1.114,1.423,1.423,0,0,0,1.063.412q1.494,0,1.494-2.21,0-2.044-1.828-2.044a1.824,1.824,0,0,0-1.547.667Z" transform="translate(865 6251)" fill="#12263f"/>
    <path id="Trazado_104840" data-name="Trazado 104840" d="M9.712,0H.782V-1.934L4.9-6.258A4.909,4.909,0,0,0,6.416-9.009a1.913,1.913,0,0,0-.36-1.257A1.287,1.287,0,0,0,5.01-10.7a1.3,1.3,0,0,0-1.1.576,2.366,2.366,0,0,0-.422,1.437H.519a4.2,4.2,0,0,1,.589-2.175,4.129,4.129,0,0,1,1.635-1.56,4.856,4.856,0,0,1,2.338-.562,4.777,4.777,0,0,1,3.195.958A3.42,3.42,0,0,1,9.4-9.272,4,4,0,0,1,9.114-7.8,6.456,6.456,0,0,1,8.24-6.3a22.029,22.029,0,0,1-1.912,2.1L4.676-2.285H9.712Zm8.06,0H14.8V-9.457L11.883-8.6v-2.25L17.5-12.8h.272Z" transform="translate(1063 6251)" fill="#12263f"/>
    <path id="Trazado_104845" data-name="Trazado 104845" d="M9.712,0H.782V-1.934L4.9-6.258A4.909,4.909,0,0,0,6.416-9.009a1.913,1.913,0,0,0-.36-1.257A1.287,1.287,0,0,0,5.01-10.7a1.3,1.3,0,0,0-1.1.576,2.366,2.366,0,0,0-.422,1.437H.519a4.2,4.2,0,0,1,.589-2.175,4.129,4.129,0,0,1,1.635-1.56,4.856,4.856,0,0,1,2.338-.562,4.777,4.777,0,0,1,3.195.958A3.42,3.42,0,0,1,9.4-9.272,4,4,0,0,1,9.114-7.8,6.456,6.456,0,0,1,8.24-6.3a22.029,22.029,0,0,1-1.912,2.1L4.676-2.285H9.712ZM18.36-12.981v2.329h-.132a4.447,4.447,0,0,0-2.729.8,3.358,3.358,0,0,0-1.314,2.21,3.464,3.464,0,0,1,2.531-.984,3.231,3.231,0,0,1,2.646,1.213,4.892,4.892,0,0,1,.984,3.182A4.48,4.48,0,0,1,19.771-2,4.108,4.108,0,0,1,18.163-.4a4.622,4.622,0,0,1-2.29.576,4.777,4.777,0,0,1-2.435-.62,4.26,4.26,0,0,1-1.67-1.771,5.832,5.832,0,0,1-.615-2.654V-6.056A7.387,7.387,0,0,1,12-9.611a6.149,6.149,0,0,1,2.421-2.474,6.923,6.923,0,0,1,3.489-.9ZM15.688-6.346a1.7,1.7,0,0,0-.984.271,1.725,1.725,0,0,0-.589.665v.884q0,2.416,1.679,2.416a1.363,1.363,0,0,0,1.129-.6,2.454,2.454,0,0,0,.453-1.514,2.409,2.409,0,0,0-.461-1.527A1.478,1.478,0,0,0,15.688-6.346Z" transform="translate(1229 6251)" fill="#12263f"/>
    <path id="Trazado_104841" data-name="Trazado 104841" d="M9.712,0H.782V-1.934L4.9-6.258A4.909,4.909,0,0,0,6.416-9.009a1.913,1.913,0,0,0-.36-1.257A1.287,1.287,0,0,0,5.01-10.7a1.3,1.3,0,0,0-1.1.576,2.366,2.366,0,0,0-.422,1.437H.519a4.2,4.2,0,0,1,.589-2.175,4.129,4.129,0,0,1,1.635-1.56,4.856,4.856,0,0,1,2.338-.562,4.777,4.777,0,0,1,3.195.958A3.42,3.42,0,0,1,9.4-9.272,4,4,0,0,1,9.114-7.8,6.456,6.456,0,0,1,8.24-6.3a22.029,22.029,0,0,1-1.912,2.1L4.676-2.285H9.712ZM20.136,0h-8.93V-1.934l4.113-4.324A4.909,4.909,0,0,0,16.84-9.009a1.913,1.913,0,0,0-.36-1.257,1.287,1.287,0,0,0-1.046-.431,1.3,1.3,0,0,0-1.1.576,2.366,2.366,0,0,0-.422,1.437H10.942a4.2,4.2,0,0,1,.589-2.175,4.129,4.129,0,0,1,1.635-1.56,4.856,4.856,0,0,1,2.338-.562,4.777,4.777,0,0,1,3.195.958,3.42,3.42,0,0,1,1.121,2.751A4,4,0,0,1,19.538-7.8a6.456,6.456,0,0,1-.875,1.5,22.029,22.029,0,0,1-1.912,2.1L15.1-2.285h5.036Z" transform="translate(1097 6251)" fill="#12263f"/>
    <path id="Trazado_104846" data-name="Trazado 104846" d="M9.712,0H.782V-1.934L4.9-6.258A4.909,4.909,0,0,0,6.416-9.009a1.913,1.913,0,0,0-.36-1.257A1.287,1.287,0,0,0,5.01-10.7a1.3,1.3,0,0,0-1.1.576,2.366,2.366,0,0,0-.422,1.437H.519a4.2,4.2,0,0,1,.589-2.175,4.129,4.129,0,0,1,1.635-1.56,4.856,4.856,0,0,1,2.338-.562,4.777,4.777,0,0,1,3.195.958A3.42,3.42,0,0,1,9.4-9.272,4,4,0,0,1,9.114-7.8,6.456,6.456,0,0,1,8.24-6.3a22.029,22.029,0,0,1-1.912,2.1L4.676-2.285H9.712ZM20.1-11.215,15.319,0H12.19l4.79-10.512h-6.1V-12.8H20.1Z" transform="translate(1263 6251)" fill="#12263f"/>
    <path id="Trazado_104842" data-name="Trazado 104842" d="M9.712,0H.782V-1.934L4.9-6.258A4.909,4.909,0,0,0,6.416-9.009a1.913,1.913,0,0,0-.36-1.257A1.287,1.287,0,0,0,5.01-10.7a1.3,1.3,0,0,0-1.1.576,2.366,2.366,0,0,0-.422,1.437H.519a4.2,4.2,0,0,1,.589-2.175,4.129,4.129,0,0,1,1.635-1.56,4.856,4.856,0,0,1,2.338-.562,4.777,4.777,0,0,1,3.195.958A3.42,3.42,0,0,1,9.4-9.272,4,4,0,0,1,9.114-7.8,6.456,6.456,0,0,1,8.24-6.3a22.029,22.029,0,0,1-1.912,2.1L4.676-2.285H9.712Zm4.2-7.638h1.4a1.453,1.453,0,0,0,1.661-1.626,1.406,1.406,0,0,0-.4-1.033,1.5,1.5,0,0,0-1.116-.4,1.606,1.606,0,0,0-1.024.343A1.046,1.046,0,0,0,14-9.5H11.039a3.032,3.032,0,0,1,.563-1.8,3.715,3.715,0,0,1,1.56-1.235,5.334,5.334,0,0,1,2.193-.444,5.241,5.241,0,0,1,3.357.976,3.243,3.243,0,0,1,1.222,2.681,2.7,2.7,0,0,1-.505,1.56,3.6,3.6,0,0,1-1.472,1.191,3.441,3.441,0,0,1,1.6,1.121,2.951,2.951,0,0,1,.58,1.859A3.3,3.3,0,0,1,18.817-.853,5.472,5.472,0,0,1,15.354.176,5.675,5.675,0,0,1,13.021-.3a3.656,3.656,0,0,1-1.63-1.327,3.45,3.45,0,0,1-.554-1.929h2.979a1.334,1.334,0,0,0,.475,1.02,1.676,1.676,0,0,0,1.169.431,1.755,1.755,0,0,0,1.248-.435,1.454,1.454,0,0,0,.466-1.112,1.7,1.7,0,0,0-.483-1.371,2.021,2.021,0,0,0-1.336-.4H13.913Z" transform="translate(1130 6251)" fill="#12263f"/>
    <path id="Trazado_104847" data-name="Trazado 104847" d="M9.712,0H.782V-1.934L4.9-6.258A4.909,4.909,0,0,0,6.416-9.009a1.913,1.913,0,0,0-.36-1.257A1.287,1.287,0,0,0,5.01-10.7a1.3,1.3,0,0,0-1.1.576,2.366,2.366,0,0,0-.422,1.437H.519a4.2,4.2,0,0,1,.589-2.175,4.129,4.129,0,0,1,1.635-1.56,4.856,4.856,0,0,1,2.338-.562,4.777,4.777,0,0,1,3.195.958A3.42,3.42,0,0,1,9.4-9.272,4,4,0,0,1,9.114-7.8,6.456,6.456,0,0,1,8.24-6.3a22.029,22.029,0,0,1-1.912,2.1L4.676-2.285H9.712ZM19.837-9.378a2.954,2.954,0,0,1-.461,1.644,3.361,3.361,0,0,1-1.27,1.143,3.7,3.7,0,0,1,1.45,1.226,3.164,3.164,0,0,1,.536,1.841A3.349,3.349,0,0,1,18.91-.817a4.909,4.909,0,0,1-3.256.993,5,5,0,0,1-3.287-1,3.325,3.325,0,0,1-1.2-2.7,3.2,3.2,0,0,1,.527-1.819,3.586,3.586,0,0,1,1.494-1.248A3.38,3.38,0,0,1,11.9-7.734a2.934,2.934,0,0,1-.466-1.644,3.284,3.284,0,0,1,1.134-2.637,4.558,4.558,0,0,1,3.059-.967,4.586,4.586,0,0,1,3.076.967A3.284,3.284,0,0,1,19.837-9.378ZM17.121-3.762a1.69,1.69,0,0,0-.409-1.217,1.423,1.423,0,0,0-1.077-.426,1.438,1.438,0,0,0-1.081.426,1.678,1.678,0,0,0-.413,1.217,1.693,1.693,0,0,0,.417,1.208,1.433,1.433,0,0,0,1.094.444,1.377,1.377,0,0,0,1.063-.439A1.723,1.723,0,0,0,17.121-3.762ZM15.627-10.7a1.1,1.1,0,0,0-.91.391,1.7,1.7,0,0,0-.312,1.085,1.8,1.8,0,0,0,.316,1.107,1.092,1.092,0,0,0,.932.422,1.047,1.047,0,0,0,.91-.422,1.856,1.856,0,0,0,.3-1.107,1.7,1.7,0,0,0-.312-1.081A1.109,1.109,0,0,0,15.627-10.7Z" transform="translate(1296 6251)" fill="#12263f"/>
    <path id="Trazado_104843" data-name="Trazado 104843" d="M9.712,0H.782V-1.934L4.9-6.258A4.909,4.909,0,0,0,6.416-9.009a1.913,1.913,0,0,0-.36-1.257A1.287,1.287,0,0,0,5.01-10.7a1.3,1.3,0,0,0-1.1.576,2.366,2.366,0,0,0-.422,1.437H.519a4.2,4.2,0,0,1,.589-2.175,4.129,4.129,0,0,1,1.635-1.56,4.856,4.856,0,0,1,2.338-.562,4.777,4.777,0,0,1,3.195.958A3.42,3.42,0,0,1,9.4-9.272,4,4,0,0,1,9.114-7.8,6.456,6.456,0,0,1,8.24-6.3a22.029,22.029,0,0,1-1.912,2.1L4.676-2.285H9.712Zm9.316-5h1.3v2.285h-1.3V0H16.066V-2.716H11.118l-.176-1.811,5.124-8.244V-12.8h2.962ZM13.764-5h2.3V-8.938l-.185.3Z" transform="translate(1163 6251)" fill="#12263f"/>
    <path id="Trazado_104848" data-name="Trazado 104848" d="M9.712,0H.782V-1.934L4.9-6.258A4.909,4.909,0,0,0,6.416-9.009a1.913,1.913,0,0,0-.36-1.257A1.287,1.287,0,0,0,5.01-10.7a1.3,1.3,0,0,0-1.1.576,2.366,2.366,0,0,0-.422,1.437H.519a4.2,4.2,0,0,1,.589-2.175,4.129,4.129,0,0,1,1.635-1.56,4.856,4.856,0,0,1,2.338-.562,4.777,4.777,0,0,1,3.195.958A3.42,3.42,0,0,1,9.4-9.272,4,4,0,0,1,9.114-7.8,6.456,6.456,0,0,1,8.24-6.3a22.029,22.029,0,0,1-1.912,2.1L4.676-2.285H9.712Zm7.33-4.948a3.128,3.128,0,0,1-2.145.861,3.463,3.463,0,0,1-2.76-1.178,4.64,4.64,0,0,1-1.02-3.146,4.722,4.722,0,0,1,.571-2.285,4.287,4.287,0,0,1,1.6-1.67,4.373,4.373,0,0,1,2.281-.615,4.245,4.245,0,0,1,2.29.637,4.29,4.29,0,0,1,1.6,1.8,6.189,6.189,0,0,1,.589,2.685v1.134a7.693,7.693,0,0,1-.831,3.674A5.734,5.734,0,0,1,16.849-.659a7.4,7.4,0,0,1-3.586.835h-.185V-2.2l.563-.009Q16.7-2.355,17.042-4.948ZM15.7-6.223a1.442,1.442,0,0,0,1.389-.835v-1.23a3.2,3.2,0,0,0-.413-1.819,1.3,1.3,0,0,0-1.116-.589,1.225,1.225,0,0,0-1.046.668,2.968,2.968,0,0,0-.422,1.617,2.661,2.661,0,0,0,.431,1.6A1.378,1.378,0,0,0,15.7-6.223Z" transform="translate(1329 6251)" fill="#12263f"/>
    <path id="Trazado_104844" data-name="Trazado 104844" d="M9.712,0H.782V-1.934L4.9-6.258A4.909,4.909,0,0,0,6.416-9.009a1.913,1.913,0,0,0-.36-1.257A1.287,1.287,0,0,0,5.01-10.7a1.3,1.3,0,0,0-1.1.576,2.366,2.366,0,0,0-.422,1.437H.519a4.2,4.2,0,0,1,.589-2.175,4.129,4.129,0,0,1,1.635-1.56,4.856,4.856,0,0,1,2.338-.562,4.777,4.777,0,0,1,3.195.958A3.42,3.42,0,0,1,9.4-9.272,4,4,0,0,1,9.114-7.8,6.456,6.456,0,0,1,8.24-6.3a22.029,22.029,0,0,1-1.912,2.1L4.676-2.285H9.712Zm1.67-6.251.782-6.546h7.479v2.285H14.572l-.29,2.56a3.493,3.493,0,0,1,.831-.327,3.79,3.79,0,0,1,1.006-.141A3.754,3.754,0,0,1,19.05-7.291a4.549,4.549,0,0,1,1.024,3.168,4.541,4.541,0,0,1-.549,2.228A3.776,3.776,0,0,1,17.982-.36a4.87,4.87,0,0,1-2.347.536,5.24,5.24,0,0,1-2.259-.5,4.052,4.052,0,0,1-1.652-1.361,3.308,3.308,0,0,1-.589-1.954h2.971a1.68,1.68,0,0,0,.448,1.114,1.423,1.423,0,0,0,1.063.412q1.494,0,1.494-2.21,0-2.044-1.828-2.044a1.824,1.824,0,0,0-1.547.667Z" transform="translate(1196 6251)" fill="#12263f"/>
    <path id="Trazado_104849" data-name="Trazado 104849" d="M3.489-7.638h1.4A1.453,1.453,0,0,0,6.548-9.264a1.406,1.406,0,0,0-.4-1.033,1.5,1.5,0,0,0-1.116-.4,1.606,1.606,0,0,0-1.024.343,1.046,1.046,0,0,0-.435.853H.615a3.032,3.032,0,0,1,.563-1.8,3.715,3.715,0,0,1,1.56-1.235,5.334,5.334,0,0,1,2.193-.444,5.241,5.241,0,0,1,3.357.976A3.243,3.243,0,0,1,9.51-9.325,2.7,2.7,0,0,1,9-7.765,3.6,3.6,0,0,1,7.532-6.574a3.441,3.441,0,0,1,1.6,1.121,2.951,2.951,0,0,1,.58,1.859A3.3,3.3,0,0,1,8.394-.853,5.472,5.472,0,0,1,4.931.176,5.675,5.675,0,0,1,2.6-.3,3.656,3.656,0,0,1,.967-1.63,3.45,3.45,0,0,1,.413-3.56H3.393a1.334,1.334,0,0,0,.475,1.02,1.676,1.676,0,0,0,1.169.431,1.755,1.755,0,0,0,1.248-.435A1.454,1.454,0,0,0,6.75-3.656a1.7,1.7,0,0,0-.483-1.371,2.021,2.021,0,0,0-1.336-.4H3.489Zm16.6,2.408a6.11,6.11,0,0,1-1.165,4A4.024,4.024,0,0,1,15.645.176a4.046,4.046,0,0,1-3.3-1.415,6.1,6.1,0,0,1-1.169-3.99V-7.567a6.11,6.11,0,0,1,1.165-4,4.034,4.034,0,0,1,3.292-1.406,4.036,4.036,0,0,1,3.3,1.415,6.116,6.116,0,0,1,1.169,4ZM17.13-7.945a4.564,4.564,0,0,0-.36-2.061,1.2,1.2,0,0,0-1.143-.681,1.176,1.176,0,0,0-1.112.633,4.3,4.3,0,0,0-.374,1.916v3.27a4.6,4.6,0,0,0,.36,2.1,1.209,1.209,0,0,0,1.143.664,1.193,1.193,0,0,0,1.116-.646,4.39,4.39,0,0,0,.369-2.026Z" transform="translate(1362 6251)" fill="#12263f"/>
    <path id="Trazado_104850" data-name="Trazado 104850" d="M3.489-7.638h1.4A1.453,1.453,0,0,0,6.548-9.264a1.406,1.406,0,0,0-.4-1.033,1.5,1.5,0,0,0-1.116-.4,1.606,1.606,0,0,0-1.024.343,1.046,1.046,0,0,0-.435.853H.615a3.032,3.032,0,0,1,.563-1.8,3.715,3.715,0,0,1,1.56-1.235,5.334,5.334,0,0,1,2.193-.444,5.241,5.241,0,0,1,3.357.976A3.243,3.243,0,0,1,9.51-9.325,2.7,2.7,0,0,1,9-7.765,3.6,3.6,0,0,1,7.532-6.574a3.441,3.441,0,0,1,1.6,1.121,2.951,2.951,0,0,1,.58,1.859A3.3,3.3,0,0,1,8.394-.853,5.472,5.472,0,0,1,4.931.176,5.675,5.675,0,0,1,2.6-.3,3.656,3.656,0,0,1,.967-1.63,3.45,3.45,0,0,1,.413-3.56H3.393a1.334,1.334,0,0,0,.475,1.02,1.676,1.676,0,0,0,1.169.431,1.755,1.755,0,0,0,1.248-.435A1.454,1.454,0,0,0,6.75-3.656a1.7,1.7,0,0,0-.483-1.371,2.021,2.021,0,0,0-1.336-.4H3.489ZM17.771,0H14.8V-9.457L11.883-8.6v-2.25L17.5-12.8h.272Z" transform="translate(1393 6251)" fill="#12263f"/>
    <path id="Trazado_104814" data-name="Trazado 104814" d="M-19.156-10.415H-23V0h-3.085V-10.415h-3.771V-12.8h10.7ZM-14.111,0a3.344,3.344,0,0,1-.281-.853A2.754,2.754,0,0,1-16.677.176a3.374,3.374,0,0,1-2.285-.813,2.588,2.588,0,0,1-.94-2.043A2.66,2.66,0,0,1-18.76-5.019a5.821,5.821,0,0,1,3.322-.791h.914v-.5q0-1.316-1.134-1.316a.927.927,0,0,0-1.055,1.042h-2.962A2.655,2.655,0,0,1-18.5-8.825a4.931,4.931,0,0,1,2.993-.86,4.323,4.323,0,0,1,2.874.888,3.086,3.086,0,0,1,1.081,2.435v4.21a4.311,4.311,0,0,0,.4,2V0Zm-1.854-1.934a1.652,1.652,0,0,0,.918-.237,1.487,1.487,0,0,0,.523-.536V-4.228h-.861q-1.547,0-1.547,1.389a.848.848,0,0,0,.272.655A.986.986,0,0,0-15.965-1.934Zm11.8-4.9-.976-.07a1.752,1.752,0,0,0-1.793.879V0H-9.892V-9.51h2.777l.1,1.222a2.294,2.294,0,0,1,2.083-1.4,2.888,2.888,0,0,1,.826.105Zm5.5,7A4.889,4.889,0,0,1-2.2-1.129a4.507,4.507,0,0,1-1.354-3.4v-.246a5.84,5.84,0,0,1,.541-2.575A3.955,3.955,0,0,1-1.437-9.075a4.763,4.763,0,0,1,2.461-.611A4.117,4.117,0,0,1,4.188-8.442a4.887,4.887,0,0,1,1.16,3.467v1.151H-.541A2.135,2.135,0,0,0,.154-2.566a2.066,2.066,0,0,0,1.389.457,2.662,2.662,0,0,0,2.2-.984l1.354,1.6A3.784,3.784,0,0,1,3.524-.277,5.3,5.3,0,0,1,1.34.176ZM1.006-7.4q-1.3,0-1.547,1.723H2.448v-.229a1.467,1.467,0,0,0-.36-1.1A1.434,1.434,0,0,0,1.006-7.4ZM11.9,0a3.344,3.344,0,0,1-.281-.853A2.754,2.754,0,0,1,9.33.176,3.374,3.374,0,0,1,7.044-.637,2.588,2.588,0,0,1,6.1-2.681,2.66,2.66,0,0,1,7.247-5.019a5.821,5.821,0,0,1,3.322-.791h.914v-.5q0-1.316-1.134-1.316A.927.927,0,0,0,9.294-6.587H6.333A2.655,2.655,0,0,1,7.506-8.825a4.931,4.931,0,0,1,2.993-.86,4.323,4.323,0,0,1,2.874.888,3.086,3.086,0,0,1,1.081,2.435v4.21a4.311,4.311,0,0,0,.4,2V0ZM10.042-1.934a1.652,1.652,0,0,0,.918-.237,1.487,1.487,0,0,0,.523-.536V-4.228h-.861q-1.547,0-1.547,1.389a.848.848,0,0,0,.272.655A.986.986,0,0,0,10.042-1.934ZM27.092,0H24.122V-9.457L21.2-8.6v-2.25L26.82-12.8h.272Z" transform="translate(284 6326)" fill="#12263f"/>
    <path id="Trazado_104815" data-name="Trazado 104815" d="M-19.156-10.415H-23V0h-3.085V-10.415h-3.771V-12.8h10.7ZM-14.111,0a3.344,3.344,0,0,1-.281-.853A2.754,2.754,0,0,1-16.677.176a3.374,3.374,0,0,1-2.285-.813,2.588,2.588,0,0,1-.94-2.043A2.66,2.66,0,0,1-18.76-5.019a5.821,5.821,0,0,1,3.322-.791h.914v-.5q0-1.316-1.134-1.316a.927.927,0,0,0-1.055,1.042h-2.962A2.655,2.655,0,0,1-18.5-8.825a4.931,4.931,0,0,1,2.993-.86,4.323,4.323,0,0,1,2.874.888,3.086,3.086,0,0,1,1.081,2.435v4.21a4.311,4.311,0,0,0,.4,2V0Zm-1.854-1.934a1.652,1.652,0,0,0,.918-.237,1.487,1.487,0,0,0,.523-.536V-4.228h-.861q-1.547,0-1.547,1.389a.848.848,0,0,0,.272.655A.986.986,0,0,0-15.965-1.934Zm11.8-4.9-.976-.07a1.752,1.752,0,0,0-1.793.879V0H-9.892V-9.51h2.777l.1,1.222a2.294,2.294,0,0,1,2.083-1.4,2.888,2.888,0,0,1,.826.105Zm5.5,7A4.889,4.889,0,0,1-2.2-1.129a4.507,4.507,0,0,1-1.354-3.4v-.246a5.84,5.84,0,0,1,.541-2.575A3.955,3.955,0,0,1-1.437-9.075a4.763,4.763,0,0,1,2.461-.611A4.117,4.117,0,0,1,4.188-8.442a4.887,4.887,0,0,1,1.16,3.467v1.151H-.541A2.135,2.135,0,0,0,.154-2.566a2.066,2.066,0,0,0,1.389.457,2.662,2.662,0,0,0,2.2-.984l1.354,1.6A3.784,3.784,0,0,1,3.524-.277,5.3,5.3,0,0,1,1.34.176ZM1.006-7.4q-1.3,0-1.547,1.723H2.448v-.229a1.467,1.467,0,0,0-.36-1.1A1.434,1.434,0,0,0,1.006-7.4ZM11.9,0a3.344,3.344,0,0,1-.281-.853A2.754,2.754,0,0,1,9.33.176,3.374,3.374,0,0,1,7.044-.637,2.588,2.588,0,0,1,6.1-2.681,2.66,2.66,0,0,1,7.247-5.019a5.821,5.821,0,0,1,3.322-.791h.914v-.5q0-1.316-1.134-1.316A.927.927,0,0,0,9.294-6.587H6.333A2.655,2.655,0,0,1,7.506-8.825a4.931,4.931,0,0,1,2.993-.86,4.323,4.323,0,0,1,2.874.888,3.086,3.086,0,0,1,1.081,2.435v4.21a4.311,4.311,0,0,0,.4,2V0ZM10.042-1.934a1.652,1.652,0,0,0,.918-.237,1.487,1.487,0,0,0,.523-.536V-4.228h-.861q-1.547,0-1.547,1.389a.848.848,0,0,0,.272.655A.986.986,0,0,0,10.042-1.934ZM29.457,0h-8.93V-1.934L24.64-6.258a4.909,4.909,0,0,0,1.521-2.751,1.913,1.913,0,0,0-.36-1.257,1.287,1.287,0,0,0-1.046-.431,1.3,1.3,0,0,0-1.1.576,2.366,2.366,0,0,0-.422,1.437H20.263a4.2,4.2,0,0,1,.589-2.175,4.129,4.129,0,0,1,1.635-1.56,4.856,4.856,0,0,1,2.338-.562,4.777,4.777,0,0,1,3.195.958A3.42,3.42,0,0,1,29.14-9.272,4,4,0,0,1,28.859-7.8a6.456,6.456,0,0,1-.875,1.5,22.029,22.029,0,0,1-1.912,2.1L24.42-2.285h5.036Z" transform="translate(284 6421)" fill="#12263f"/>
    <path id="Trazado_104816" data-name="Trazado 104816" d="M-19.156-10.415H-23V0h-3.085V-10.415h-3.771V-12.8h10.7ZM-14.111,0a3.344,3.344,0,0,1-.281-.853A2.754,2.754,0,0,1-16.677.176a3.374,3.374,0,0,1-2.285-.813,2.588,2.588,0,0,1-.94-2.043A2.66,2.66,0,0,1-18.76-5.019a5.821,5.821,0,0,1,3.322-.791h.914v-.5q0-1.316-1.134-1.316a.927.927,0,0,0-1.055,1.042h-2.962A2.655,2.655,0,0,1-18.5-8.825a4.931,4.931,0,0,1,2.993-.86,4.323,4.323,0,0,1,2.874.888,3.086,3.086,0,0,1,1.081,2.435v4.21a4.311,4.311,0,0,0,.4,2V0Zm-1.854-1.934a1.652,1.652,0,0,0,.918-.237,1.487,1.487,0,0,0,.523-.536V-4.228h-.861q-1.547,0-1.547,1.389a.848.848,0,0,0,.272.655A.986.986,0,0,0-15.965-1.934Zm11.8-4.9-.976-.07a1.752,1.752,0,0,0-1.793.879V0H-9.892V-9.51h2.777l.1,1.222a2.294,2.294,0,0,1,2.083-1.4,2.888,2.888,0,0,1,.826.105Zm5.5,7A4.889,4.889,0,0,1-2.2-1.129a4.507,4.507,0,0,1-1.354-3.4v-.246a5.84,5.84,0,0,1,.541-2.575A3.955,3.955,0,0,1-1.437-9.075a4.763,4.763,0,0,1,2.461-.611A4.117,4.117,0,0,1,4.188-8.442a4.887,4.887,0,0,1,1.16,3.467v1.151H-.541A2.135,2.135,0,0,0,.154-2.566a2.066,2.066,0,0,0,1.389.457,2.662,2.662,0,0,0,2.2-.984l1.354,1.6A3.784,3.784,0,0,1,3.524-.277,5.3,5.3,0,0,1,1.34.176ZM1.006-7.4q-1.3,0-1.547,1.723H2.448v-.229a1.467,1.467,0,0,0-.36-1.1A1.434,1.434,0,0,0,1.006-7.4ZM11.9,0a3.344,3.344,0,0,1-.281-.853A2.754,2.754,0,0,1,9.33.176,3.374,3.374,0,0,1,7.044-.637,2.588,2.588,0,0,1,6.1-2.681,2.66,2.66,0,0,1,7.247-5.019a5.821,5.821,0,0,1,3.322-.791h.914v-.5q0-1.316-1.134-1.316A.927.927,0,0,0,9.294-6.587H6.333A2.655,2.655,0,0,1,7.506-8.825a4.931,4.931,0,0,1,2.993-.86,4.323,4.323,0,0,1,2.874.888,3.086,3.086,0,0,1,1.081,2.435v4.21a4.311,4.311,0,0,0,.4,2V0ZM10.042-1.934a1.652,1.652,0,0,0,.918-.237,1.487,1.487,0,0,0,.523-.536V-4.228h-.861q-1.547,0-1.547,1.389a.848.848,0,0,0,.272.655A.986.986,0,0,0,10.042-1.934Zm13.192-5.7h1.4a1.453,1.453,0,0,0,1.661-1.626,1.406,1.406,0,0,0-.4-1.033,1.5,1.5,0,0,0-1.116-.4,1.606,1.606,0,0,0-1.024.343,1.046,1.046,0,0,0-.435.853H20.36a3.032,3.032,0,0,1,.563-1.8,3.715,3.715,0,0,1,1.56-1.235,5.334,5.334,0,0,1,2.193-.444,5.241,5.241,0,0,1,3.357.976,3.243,3.243,0,0,1,1.222,2.681,2.7,2.7,0,0,1-.505,1.56,3.6,3.6,0,0,1-1.472,1.191,3.441,3.441,0,0,1,1.6,1.121,2.951,2.951,0,0,1,.58,1.859A3.3,3.3,0,0,1,28.138-.853,5.472,5.472,0,0,1,24.675.176,5.675,5.675,0,0,1,22.342-.3a3.656,3.656,0,0,1-1.63-1.327,3.45,3.45,0,0,1-.554-1.929h2.979a1.334,1.334,0,0,0,.475,1.02,1.676,1.676,0,0,0,1.169.431,1.755,1.755,0,0,0,1.248-.435,1.454,1.454,0,0,0,.466-1.112,1.7,1.7,0,0,0-.483-1.371,2.021,2.021,0,0,0-1.336-.4H23.234Z" transform="translate(284 6516)" fill="#12263f"/>
    <path id="Trazado_104817" data-name="Trazado 104817" d="M-19.156-10.415H-23V0h-3.085V-10.415h-3.771V-12.8h10.7ZM-14.111,0a3.344,3.344,0,0,1-.281-.853A2.754,2.754,0,0,1-16.677.176a3.374,3.374,0,0,1-2.285-.813,2.588,2.588,0,0,1-.94-2.043A2.66,2.66,0,0,1-18.76-5.019a5.821,5.821,0,0,1,3.322-.791h.914v-.5q0-1.316-1.134-1.316a.927.927,0,0,0-1.055,1.042h-2.962A2.655,2.655,0,0,1-18.5-8.825a4.931,4.931,0,0,1,2.993-.86,4.323,4.323,0,0,1,2.874.888,3.086,3.086,0,0,1,1.081,2.435v4.21a4.311,4.311,0,0,0,.4,2V0Zm-1.854-1.934a1.652,1.652,0,0,0,.918-.237,1.487,1.487,0,0,0,.523-.536V-4.228h-.861q-1.547,0-1.547,1.389a.848.848,0,0,0,.272.655A.986.986,0,0,0-15.965-1.934Zm11.8-4.9-.976-.07a1.752,1.752,0,0,0-1.793.879V0H-9.892V-9.51h2.777l.1,1.222a2.294,2.294,0,0,1,2.083-1.4,2.888,2.888,0,0,1,.826.105Zm5.5,7A4.889,4.889,0,0,1-2.2-1.129a4.507,4.507,0,0,1-1.354-3.4v-.246a5.84,5.84,0,0,1,.541-2.575A3.955,3.955,0,0,1-1.437-9.075a4.763,4.763,0,0,1,2.461-.611A4.117,4.117,0,0,1,4.188-8.442a4.887,4.887,0,0,1,1.16,3.467v1.151H-.541A2.135,2.135,0,0,0,.154-2.566a2.066,2.066,0,0,0,1.389.457,2.662,2.662,0,0,0,2.2-.984l1.354,1.6A3.784,3.784,0,0,1,3.524-.277,5.3,5.3,0,0,1,1.34.176ZM1.006-7.4q-1.3,0-1.547,1.723H2.448v-.229a1.467,1.467,0,0,0-.36-1.1A1.434,1.434,0,0,0,1.006-7.4ZM11.9,0a3.344,3.344,0,0,1-.281-.853A2.754,2.754,0,0,1,9.33.176,3.374,3.374,0,0,1,7.044-.637,2.588,2.588,0,0,1,6.1-2.681,2.66,2.66,0,0,1,7.247-5.019a5.821,5.821,0,0,1,3.322-.791h.914v-.5q0-1.316-1.134-1.316A.927.927,0,0,0,9.294-6.587H6.333A2.655,2.655,0,0,1,7.506-8.825a4.931,4.931,0,0,1,2.993-.86,4.323,4.323,0,0,1,2.874.888,3.086,3.086,0,0,1,1.081,2.435v4.21a4.311,4.311,0,0,0,.4,2V0ZM10.042-1.934a1.652,1.652,0,0,0,.918-.237,1.487,1.487,0,0,0,.523-.536V-4.228h-.861q-1.547,0-1.547,1.389a.848.848,0,0,0,.272.655A.986.986,0,0,0,10.042-1.934ZM28.349-5h1.3v2.285h-1.3V0H25.387V-2.716H20.439l-.176-1.811,5.124-8.244V-12.8h2.962ZM23.084-5h2.3V-8.938l-.185.3Z" transform="translate(284 6611)" fill="#12263f"/>
    <path id="Trazado_104818" data-name="Trazado 104818" d="M-19.156-10.415H-23V0h-3.085V-10.415h-3.771V-12.8h10.7ZM-14.111,0a3.344,3.344,0,0,1-.281-.853A2.754,2.754,0,0,1-16.677.176a3.374,3.374,0,0,1-2.285-.813,2.588,2.588,0,0,1-.94-2.043A2.66,2.66,0,0,1-18.76-5.019a5.821,5.821,0,0,1,3.322-.791h.914v-.5q0-1.316-1.134-1.316a.927.927,0,0,0-1.055,1.042h-2.962A2.655,2.655,0,0,1-18.5-8.825a4.931,4.931,0,0,1,2.993-.86,4.323,4.323,0,0,1,2.874.888,3.086,3.086,0,0,1,1.081,2.435v4.21a4.311,4.311,0,0,0,.4,2V0Zm-1.854-1.934a1.652,1.652,0,0,0,.918-.237,1.487,1.487,0,0,0,.523-.536V-4.228h-.861q-1.547,0-1.547,1.389a.848.848,0,0,0,.272.655A.986.986,0,0,0-15.965-1.934Zm11.8-4.9-.976-.07a1.752,1.752,0,0,0-1.793.879V0H-9.892V-9.51h2.777l.1,1.222a2.294,2.294,0,0,1,2.083-1.4,2.888,2.888,0,0,1,.826.105Zm5.5,7A4.889,4.889,0,0,1-2.2-1.129a4.507,4.507,0,0,1-1.354-3.4v-.246a5.84,5.84,0,0,1,.541-2.575A3.955,3.955,0,0,1-1.437-9.075a4.763,4.763,0,0,1,2.461-.611A4.117,4.117,0,0,1,4.188-8.442a4.887,4.887,0,0,1,1.16,3.467v1.151H-.541A2.135,2.135,0,0,0,.154-2.566a2.066,2.066,0,0,0,1.389.457,2.662,2.662,0,0,0,2.2-.984l1.354,1.6A3.784,3.784,0,0,1,3.524-.277,5.3,5.3,0,0,1,1.34.176ZM1.006-7.4q-1.3,0-1.547,1.723H2.448v-.229a1.467,1.467,0,0,0-.36-1.1A1.434,1.434,0,0,0,1.006-7.4ZM11.9,0a3.344,3.344,0,0,1-.281-.853A2.754,2.754,0,0,1,9.33.176,3.374,3.374,0,0,1,7.044-.637,2.588,2.588,0,0,1,6.1-2.681,2.66,2.66,0,0,1,7.247-5.019a5.821,5.821,0,0,1,3.322-.791h.914v-.5q0-1.316-1.134-1.316A.927.927,0,0,0,9.294-6.587H6.333A2.655,2.655,0,0,1,7.506-8.825a4.931,4.931,0,0,1,2.993-.86,4.323,4.323,0,0,1,2.874.888,3.086,3.086,0,0,1,1.081,2.435v4.21a4.311,4.311,0,0,0,.4,2V0ZM10.042-1.934a1.652,1.652,0,0,0,.918-.237,1.487,1.487,0,0,0,.523-.536V-4.228h-.861q-1.547,0-1.547,1.389a.848.848,0,0,0,.272.655A.986.986,0,0,0,10.042-1.934ZM20.7-6.251l.782-6.546h7.479v2.285H23.893l-.29,2.56a3.493,3.493,0,0,1,.831-.327A3.79,3.79,0,0,1,25.44-8.42a3.754,3.754,0,0,1,2.931,1.129A4.549,4.549,0,0,1,29.4-4.122a4.541,4.541,0,0,1-.549,2.228A3.776,3.776,0,0,1,27.3-.36a4.87,4.87,0,0,1-2.347.536A5.24,5.24,0,0,1,22.7-.32a4.052,4.052,0,0,1-1.652-1.361,3.308,3.308,0,0,1-.589-1.954h2.971a1.68,1.68,0,0,0,.448,1.114,1.423,1.423,0,0,0,1.063.412q1.494,0,1.494-2.21,0-2.044-1.828-2.044a1.824,1.824,0,0,0-1.547.667Z" transform="translate(284 6706)" fill="#12263f"/>
    <path id="Trazado_104819" data-name="Trazado 104819" d="M-19.02-10.415H-22.86V0h-3.085V-10.415h-3.771V-12.8h10.7ZM-13.975,0a3.344,3.344,0,0,1-.281-.853A2.754,2.754,0,0,1-16.541.176a3.374,3.374,0,0,1-2.285-.813,2.588,2.588,0,0,1-.94-2.043,2.66,2.66,0,0,1,1.143-2.338A5.821,5.821,0,0,1-15.3-5.81h.914v-.5q0-1.316-1.134-1.316a.927.927,0,0,0-1.055,1.042h-2.962a2.655,2.655,0,0,1,1.173-2.239,4.931,4.931,0,0,1,2.993-.86A4.323,4.323,0,0,1-12.5-8.8a3.086,3.086,0,0,1,1.081,2.435v4.21a4.311,4.311,0,0,0,.4,2V0Zm-1.854-1.934a1.652,1.652,0,0,0,.918-.237,1.487,1.487,0,0,0,.523-.536V-4.228h-.861q-1.547,0-1.547,1.389a.848.848,0,0,0,.272.655A.986.986,0,0,0-15.829-1.934Zm11.8-4.9L-5-6.9a1.752,1.752,0,0,0-1.793.879V0H-9.756V-9.51h2.777l.1,1.222A2.294,2.294,0,0,1-4.8-9.686a2.888,2.888,0,0,1,.826.105Zm5.5,7A4.889,4.889,0,0,1-2.065-1.129a4.507,4.507,0,0,1-1.354-3.4v-.246a5.84,5.84,0,0,1,.541-2.575A3.955,3.955,0,0,1-1.3-9.075,4.763,4.763,0,0,1,1.16-9.686,4.117,4.117,0,0,1,4.324-8.442a4.887,4.887,0,0,1,1.16,3.467v1.151H-.4A2.135,2.135,0,0,0,.29-2.566a2.066,2.066,0,0,0,1.389.457,2.662,2.662,0,0,0,2.2-.984l1.354,1.6A3.784,3.784,0,0,1,3.661-.277,5.3,5.3,0,0,1,1.477.176ZM1.143-7.4Q-.158-7.4-.4-5.678H2.584v-.229a1.467,1.467,0,0,0-.36-1.1A1.434,1.434,0,0,0,1.143-7.4ZM12.032,0a3.344,3.344,0,0,1-.281-.853A2.754,2.754,0,0,1,9.466.176,3.374,3.374,0,0,1,7.181-.637a2.588,2.588,0,0,1-.94-2.043A2.66,2.66,0,0,1,7.383-5.019a5.821,5.821,0,0,1,3.322-.791h.914v-.5q0-1.316-1.134-1.316A.927.927,0,0,0,9.431-6.587H6.469A2.655,2.655,0,0,1,7.642-8.825a4.931,4.931,0,0,1,2.993-.86,4.323,4.323,0,0,1,2.874.888A3.086,3.086,0,0,1,14.59-6.363v4.21a4.311,4.311,0,0,0,.4,2V0ZM10.178-1.934a1.652,1.652,0,0,0,.918-.237,1.487,1.487,0,0,0,.523-.536V-4.228h-.861q-1.547,0-1.547,1.389a.848.848,0,0,0,.272.655A.986.986,0,0,0,10.178-1.934ZM23.432-9.51l.1,1.116a3.225,3.225,0,0,1,2.716-1.292,2.713,2.713,0,0,1,2.219.888,4.226,4.226,0,0,1,.76,2.672V0H26.253V-6a1.6,1.6,0,0,0-.29-1.059A1.342,1.342,0,0,0,24.908-7.4a1.413,1.413,0,0,0-1.292.686V0H20.654V-9.51Z" transform="translate(284 6801)" fill="#12263f"/>
  </g>
</svg>
