<svg xmlns="http://www.w3.org/2000/svg" width="95" height="95" viewBox="0 0 95 95">
  <g id="Grupo_55522" data-name="Grupo 55522" transform="translate(-1172 -9819)">
    <circle id="Elipse_4177" data-name="Elipse 4177" cx="47.5" cy="47.5" r="47.5" transform="translate(1172 9819)" fill="#f1d54e"/>
    <g id="fabricar" transform="translate(1188 9833.168)">
      <path id="Trazado_103200" data-name="Trazado 103200" d="M1.052,25.125H6.886a15.642,15.642,0,0,0,1.481,3.564l-4.13,4.128a1.052,1.052,0,0,0,0,1.488L8.7,38.768a1.053,1.053,0,0,0,1.487,0l4.13-4.13a15.631,15.631,0,0,0,3.562,1.481v5.835A1.052,1.052,0,0,0,18.931,43h6.31a1.052,1.052,0,0,0,1.052-1.052V36.118a15.631,15.631,0,0,0,3.562-1.481l4.13,4.13a1.083,1.083,0,0,0,1.487,0L39.935,34.3a1.052,1.052,0,0,0,0-1.488L35.8,28.689a15.641,15.641,0,0,0,1.481-3.564h5.835a1.052,1.052,0,0,0,1.052-1.052v-6.31a1.052,1.052,0,0,0-1.052-1.052H37.286A15.646,15.646,0,0,0,35.8,13.148l4.13-4.128a1.052,1.052,0,0,0,0-1.488L35.473,3.069a1.052,1.052,0,0,0-1.487,0L29.855,7.2a15.675,15.675,0,0,0-3.562-1.481V-.116a1.052,1.052,0,0,0-1.052-1.052h-6.31A1.052,1.052,0,0,0,17.879-.116V5.719A15.676,15.676,0,0,0,14.317,7.2l-4.13-4.13a1.083,1.083,0,0,0-1.487,0L4.237,7.532a1.052,1.052,0,0,0,0,1.488l4.13,4.128a15.646,15.646,0,0,0-1.481,3.563H1.052A1.052,1.052,0,0,0,0,17.763v6.31a1.052,1.052,0,0,0,1.052,1.052ZM2.1,18.815H7.709a1.052,1.052,0,0,0,1.027-.827,13.531,13.531,0,0,1,1.843-4.432,1.052,1.052,0,0,0-.142-1.311L6.468,8.276,9.443,5.3l3.968,3.969a1.052,1.052,0,0,0,1.313.143,13.552,13.552,0,0,1,4.432-1.843,1.053,1.053,0,0,0,.827-1.028V.935H24.19V6.541a1.053,1.053,0,0,0,.827,1.028,13.552,13.552,0,0,1,4.432,1.843,1.052,1.052,0,0,0,1.313-.143L34.729,5.3,37.7,8.276l-3.968,3.968a1.052,1.052,0,0,0-.142,1.313,13.528,13.528,0,0,1,1.841,4.433,1.053,1.053,0,0,0,1.027.827h5.607v4.207H36.462a1.052,1.052,0,0,0-1.027.827,13.515,13.515,0,0,1-1.841,4.431,1.052,1.052,0,0,0,.142,1.312L37.7,33.56l-2.975,2.976-3.968-3.969a1.053,1.053,0,0,0-1.313-.142,13.521,13.521,0,0,1-4.431,1.843A1.052,1.052,0,0,0,24.19,35.3V40.9H19.983V35.3a1.052,1.052,0,0,0-.828-1.027,13.521,13.521,0,0,1-4.431-1.843,1.053,1.053,0,0,0-1.313.142L9.443,36.537,6.469,33.561l3.968-3.968a1.052,1.052,0,0,0,.142-1.313,13.535,13.535,0,0,1-1.843-4.433,1.051,1.051,0,0,0-1.027-.826H2.1Zm0,0" fill="#12263f"/>
      <path id="Trazado_103201" data-name="Trazado 103201" d="M138.414,145.66A8.414,8.414,0,1,0,130,137.246,8.413,8.413,0,0,0,138.414,145.66Zm0-14.724a6.31,6.31,0,1,1-6.31,6.31A6.311,6.311,0,0,1,138.414,130.935Zm0,0" transform="translate(-116.328 -116.328)" fill="#12263f"/>
      <path id="Trazado_103202" data-name="Trazado 103202" d="M111.569,121.97A11.569,11.569,0,1,0,100,110.4,11.569,11.569,0,0,0,111.569,121.97Zm0-21.035A9.466,9.466,0,1,1,102.1,110.4,9.465,9.465,0,0,1,111.569,100.935Zm0,0" transform="translate(-89.483 -89.483)" fill="#12263f"/>
      <path id="Trazado_103203" data-name="Trazado 103203" d="M59.948,297.763v-8.414A1.052,1.052,0,0,0,58.9,288.3h-2.1v-8.414a1.052,1.052,0,0,0-1.052-1.052H46.276a1.052,1.052,0,0,0-1.052,1.052V288.3H39.966a1.052,1.052,0,0,0-1.052,1.052v8.414H5.259A5.265,5.265,0,0,0,0,303.022v2.1a5.265,5.265,0,0,0,5.259,5.259h54.69a5.265,5.265,0,0,0,5.259-5.259v-2.1A5.265,5.265,0,0,0,59.948,297.763Zm-2.1,0H50.483V290.4h7.362ZM47.328,280.935H54.69V288.3H47.328Zm-6.31,9.466h7.362v7.362H41.017ZM63.1,305.125a3.155,3.155,0,0,1-3.155,3.155H5.259A3.155,3.155,0,0,1,2.1,305.125v-2.1a3.155,3.155,0,0,1,3.155-3.155h54.69a3.155,3.155,0,0,1,3.155,3.155Zm0,0" transform="translate(0 -250.552)" fill="#12263f"/>
      <path id="Trazado_103204" data-name="Trazado 103204" d="M283.155,488.832a3.155,3.155,0,1,0,3.155,3.155A3.155,3.155,0,0,0,283.155,488.832Zm0,4.207a1.052,1.052,0,1,1,1.052-1.052A1.052,1.052,0,0,1,283.155,493.039Zm0,0" transform="translate(-250.552 -438.465)" fill="#12263f"/>
      <path id="Trazado_103205" data-name="Trazado 103205" d="M183.155,488.832a3.155,3.155,0,1,0,3.155,3.155A3.155,3.155,0,0,0,183.155,488.832Zm0,4.207a1.052,1.052,0,1,1,1.052-1.052A1.052,1.052,0,0,1,183.155,493.039Zm0,0" transform="translate(-161.069 -438.465)" fill="#12263f"/>
      <path id="Trazado_103206" data-name="Trazado 103206" d="M383.155,488.832a3.155,3.155,0,1,0,3.155,3.155A3.155,3.155,0,0,0,383.155,488.832Zm0,4.207a1.052,1.052,0,1,1,1.052-1.052A1.052,1.052,0,0,1,383.155,493.039Zm0,0" transform="translate(-340.034 -438.465)" fill="#12263f"/>
      <path id="Trazado_103207" data-name="Trazado 103207" d="M83.155,488.832a3.155,3.155,0,1,0,3.155,3.155A3.155,3.155,0,0,0,83.155,488.832Zm0,4.207a1.052,1.052,0,1,1,1.052-1.052A1.052,1.052,0,0,1,83.155,493.039Zm0,0" transform="translate(-71.586 -438.465)" fill="#12263f"/>
      <path id="Trazado_103208" data-name="Trazado 103208" d="M483.155,488.832a3.155,3.155,0,1,0,3.155,3.155A3.155,3.155,0,0,0,483.155,488.832Zm0,4.207a1.052,1.052,0,1,1,1.052-1.052A1.052,1.052,0,0,1,483.155,493.039Zm0,0" transform="translate(-429.517 -438.465)" fill="#12263f"/>
    </g>
  </g>
</svg>
