<svg xmlns="http://www.w3.org/2000/svg" xmlns:xlink="http://www.w3.org/1999/xlink" width="66" height="66" viewBox="0 0 66 66">
  <defs>
    <clipPath id="clip-path">
      <rect id="Rectángulo_5411" data-name="Rectángulo 5411" width="66" height="66" transform="translate(835 6315)" fill="#12263f" stroke="#707070" stroke-width="1"/>
    </clipPath>
  </defs>
  <g id="Enmascarar_grupo_46" data-name="Enmascarar grupo 46" transform="translate(-835 -6315)" clip-path="url(#clip-path)">
    <g id="XMLID_1487_" transform="translate(835 6315)">
      <g id="XMLID_1153_">
        <path id="XMLID_1329_" d="M54.985,36.6,45.13,21.152a4.381,4.381,0,0,0-.408-7.952L47.708,2.763A1.289,1.289,0,0,0,47.38,1.5a5.1,5.1,0,0,0-7.2,0,2.5,2.5,0,0,1-1.778.737,2.5,2.5,0,0,1-1.781-.74l-.006-.006a5.1,5.1,0,0,0-7.191-.012l-.037.037a2.52,2.52,0,0,1-3.55-.006L25.823,1.5a5.1,5.1,0,0,0-7.2,0,1.29,1.29,0,0,0-.328,1.267L21.284,13.2a4.381,4.381,0,0,0-.414,7.954L11.015,36.6A19.118,19.118,0,0,0,27.133,66H38.867A19.118,19.118,0,0,0,54.985,36.6ZM24,3.32l.009.009a5.1,5.1,0,0,0,7.191.012l.037-.037a2.521,2.521,0,0,1,3.553.009l.006.006a5.1,5.1,0,0,0,7.2,0,2.52,2.52,0,0,1,2.989-.427L42.13,12.887H23.877L21.012,2.893A2.519,2.519,0,0,1,24,3.32ZM53.37,54.833a16.324,16.324,0,0,1-14.5,8.589H27.133A16.539,16.539,0,0,1,13.189,37.987L23.608,21.654H27.2a1.289,1.289,0,0,0,0-2.578H22.9a1.8,1.8,0,0,1,0-3.61H43.1a1.8,1.8,0,0,1,0,3.61H38.8a1.289,1.289,0,0,0,0,2.578h3.59l10.42,16.334a16.324,16.324,0,0,1,.559,16.846Z" fill="#12263f"/>
        <path id="XMLID_1341_" d="M35.273,42.1c-.323-.114-.654-.233-.984-.357V35.9a5.3,5.3,0,0,1,1.483.692,1.289,1.289,0,0,0,1.551-2.06,7.874,7.874,0,0,0-3.034-1.284V31.967a1.289,1.289,0,0,0-2.578,0V33.24a6.664,6.664,0,0,0-.664.162,5.163,5.163,0,0,0-3.539,4.049A4.553,4.553,0,0,0,29,41.94a12.41,12.41,0,0,0,2.713,1.541v7.476a5.154,5.154,0,0,1-2.826-1.036,1.289,1.289,0,1,0-1.411,2.158,7.609,7.609,0,0,0,4.238,1.458v1.333a1.289,1.289,0,0,0,2.578,0V53.4a6.215,6.215,0,0,0,4.737-5.063,5.453,5.453,0,0,0-3.754-6.24Zm-4.683-2.19a2.009,2.009,0,0,1-.548-1.981,2.625,2.625,0,0,1,1.67-2.031V40.62A7.717,7.717,0,0,1,30.589,39.911Zm5.894,8a3.7,3.7,0,0,1-2.195,2.793V44.487l.124.045A2.917,2.917,0,0,1,36.484,47.913Z" fill="#12263f"/>
        <path id="XMLID_1343_" d="M33,21.654a1.29,1.29,0,1,0-.911-.378A1.3,1.3,0,0,0,33,21.654Z" fill="#12263f"/>
      </g>
    </g>
  </g>
</svg>
