<svg xmlns="http://www.w3.org/2000/svg" width="95" height="95" viewBox="0 0 95 95">
  <g id="Grupo_55521" data-name="Grupo 55521" transform="translate(-753 -9819)">
    <circle id="Elipse_4176" data-name="Elipse 4176" cx="47.5" cy="47.5" r="47.5" transform="translate(753 9819)" fill="#f1d54e"/>
    <g id="planificacion" transform="translate(769 9835)">
      <path id="Trazado_103189" data-name="Trazado 103189" d="M185.461,367.23a1.23,1.23,0,1,1-1.23-1.23A1.23,1.23,0,0,1,185.461,367.23Zm0,0" transform="translate(-160.482 -320.965)" fill="#12263f"/>
      <path id="Trazado_103190" data-name="Trazado 103190" d="M390.613,329.383h-6.152V323.23a1.23,1.23,0,0,0-2.461,0v7.383a1.23,1.23,0,0,0,1.23,1.23h7.383a1.23,1.23,0,1,0,0-2.461Zm0,0" transform="translate(-334.996 -282.379)" fill="#12263f"/>
      <path id="Trazado_103191" data-name="Trazado 103191" d="M61.23,188.461h7.752a1.23,1.23,0,1,0,0-2.461H61.23a1.23,1.23,0,0,0,0,2.461Zm0,0" transform="translate(-52.617 -163.113)" fill="#12263f"/>
      <path id="Trazado_103192" data-name="Trazado 103192" d="M191.982,186H184.23a1.23,1.23,0,0,0,0,2.461h7.752a1.23,1.23,0,0,0,0-2.461Zm0,0" transform="translate(-160.482 -163.113)" fill="#12263f"/>
      <path id="Trazado_103193" data-name="Trazado 103193" d="M61.23,248.461h7.752a1.23,1.23,0,1,0,0-2.461H61.23a1.23,1.23,0,1,0,0,2.461Zm0,0" transform="translate(-52.617 -215.73)" fill="#12263f"/>
      <path id="Trazado_103194" data-name="Trazado 103194" d="M71.443,366H61.23a1.23,1.23,0,0,0,0,2.461H71.443a1.23,1.23,0,1,0,0-2.461Zm0,0" transform="translate(-52.617 -320.965)" fill="#12263f"/>
      <path id="Trazado_103195" data-name="Trazado 103195" d="M191.982,246H184.23a1.23,1.23,0,1,0,0,2.461h7.752a1.23,1.23,0,1,0,0-2.461Zm0,0" transform="translate(-160.482 -215.73)" fill="#12263f"/>
      <path id="Trazado_103196" data-name="Trazado 103196" d="M61.23,308.461h7.752a1.23,1.23,0,0,0,0-2.461H61.23a1.23,1.23,0,0,0,0,2.461Zm0,0" transform="translate(-52.617 -268.348)" fill="#12263f"/>
      <path id="Trazado_103197" data-name="Trazado 103197" d="M191.982,306H184.23a1.23,1.23,0,0,0,0,2.461h7.752a1.23,1.23,0,0,0,0-2.461Zm0,0" transform="translate(-160.482 -268.348)" fill="#12263f"/>
      <path id="Trazado_103198" data-name="Trazado 103198" d="M307.23,188.461h7.383a1.23,1.23,0,0,0,0-2.461H307.23a1.23,1.23,0,1,0,0,2.461Zm0,0" transform="translate(-268.348 -163.113)" fill="#12263f"/>
      <path id="Trazado_103199" data-name="Trazado 103199" d="M54.879,35.048V8.613a3.7,3.7,0,0,0-3.691-3.691H47.5V3.691a3.691,3.691,0,0,0-7.383,0v1.23H29.9V3.691a3.691,3.691,0,0,0-7.383,0v1.23H12.3V3.691a3.691,3.691,0,0,0-7.383,0v1.23H3.691A3.7,3.7,0,0,0,0,8.613V48.727a3.7,3.7,0,0,0,3.691,3.691H34.074a14.765,14.765,0,1,0,20.8-17.37ZM42.574,3.691a1.23,1.23,0,0,1,2.461,0V8.613a1.23,1.23,0,0,1-2.461,0Zm-17.6,0a1.23,1.23,0,0,1,2.461,0V8.613a1.23,1.23,0,0,1-2.461,0Zm-17.6,0a1.23,1.23,0,0,1,2.461,0V8.613a1.23,1.23,0,0,1-2.461,0ZM3.691,7.383h1.23v1.23a3.691,3.691,0,0,0,7.383,0V7.383H22.518v1.23a3.691,3.691,0,0,0,7.383,0V7.383H40.113v1.23a3.691,3.691,0,0,0,7.383,0V7.383h3.691a1.232,1.232,0,0,1,1.23,1.23v6.521H2.461V8.613A1.232,1.232,0,0,1,3.691,7.383ZM2.461,48.727V17.6H52.418V34.071A14.775,14.775,0,0,0,33.469,48.234a14.939,14.939,0,0,0,.1,1.723H3.691a1.232,1.232,0,0,1-1.23-1.23ZM48.234,60.539a12.3,12.3,0,1,1,12.3-12.3A12.346,12.346,0,0,1,48.234,60.539Zm0,0" fill="#12263f"/>
    </g>
  </g>
</svg>
