<svg xmlns="http://www.w3.org/2000/svg" width="610" height="335.253" viewBox="0 0 610 335.253">
  <g id="Grupo_56517" data-name="Grupo 56517" transform="translate(-810 -13130.973)">
    <rect id="Rectángulo_5413" data-name="Rectángulo 5413" width="610" height="158" transform="translate(810 13308.226)" fill="#fb9e36" opacity="0.25"/>
    <g id="Grupo_55397" data-name="Grupo 55397" transform="translate(603.025 12949.904)">
      <path id="Trazado_102880" data-name="Trazado 102880" d="M707.534,563.808C686.8,546.118,661.794,439.431,576.145,495c-44.251,28.708-118.867-24.646-180.628-6.217-56.719,16.924-62.187,72.684-56.7,90.854,11.086,36.7-23.413,42.164-55.416,57.933-50.2,24.735-13,112.588,34.427,113s334.36,0,334.36,0,68.976-1.576,97.625-39.6C780.646,670.053,761.1,609.5,707.534,563.808Z" transform="translate(0 -234.883)" fill="#ebf2f9"/>
      <g id="Grupo_55385" data-name="Grupo 55385" transform="translate(346.105 306.738)">
        <path id="Trazado_102881" data-name="Trazado 102881" d="M1043.09,1701.987s.6,9.688,2.475,9.827c.249.019,9.506.019,9.506.019l11.817-.068s-.078-2.847-3.531-3.449-9.236-3.03-11.328-7.595C1049.827,1695.917,1043.09,1701.987,1043.09,1701.987Z" transform="translate(-963.654 -1502.883)" fill="#163560"/>
        <g id="Grupo_55382" data-name="Grupo 55382" transform="translate(30.684 35.586)">
          <path id="Trazado_102882" data-name="Trazado 102882" d="M1013.26,1180.086s5.148,1.322,8.421.336,8.905.633,9.812,1.827.574,1.667-1.045,2.079-7.353,2.858-11.122,1.442a30.031,30.031,0,0,0-8.684-1.467Z" transform="translate(-968.767 -1129.628)" fill="#e49963"/>
          <path id="Trazado_102883" data-name="Trazado 102883" d="M813.045,947.726s5.783,41.1,15.359,44.785c4.725,1.816,25.608,5.934,31.785,6.348,0,0,1.513-1.228,1.145-6.224,0,0-21.879-8.032-24.987-12.4-4.626-6.5,2.872-26.559-2.933-32.665S817.833,938.839,813.045,947.726Z" transform="translate(-813.045 -941.988)" fill="#4a75cb"/>
        </g>
        <path id="Trazado_102884" data-name="Trazado 102884" d="M739.621,1473.186v-8.962H725.512a.694.694,0,0,1-.692-.692V1462.1a.694.694,0,0,1,.692-.692h14.109v-51.015a2.61,2.61,0,0,1,2.6-2.6h2.792a2.611,2.611,0,0,1,2.6,2.6V1461.4h14.109a.694.694,0,0,1,.692.692v1.436a.694.694,0,0,1-.692.692H747.619v8.962c10.208.772,18.387,4.447,20.682,9.2H718.939C721.233,1477.633,729.412,1473.957,739.621,1473.186Z" transform="translate(-708.198 -1273.486)" fill="#a6c7f9"/>
        <path id="Trazado_102885" data-name="Trazado 102885" d="M794.784,1287.941a72.069,72.069,0,0,0,5.649,8.083c6.216,7.847,12.982,14.317,14.161,20.432a27.678,27.678,0,0,0,1.093,3.914c.492,1.4,1.1,2.874,1.8,4.4a135.42,135.42,0,0,0,10.52,17.985c6.808,10.088,13.21,18.506,13.21,18.506l11.741-.5c-.47-1.177-5.591-15.106-12.441-32.128-2.782-6.91-5.74-14.26-8.593-21.349q-.57-1.42-1.136-2.824c-.873-2.169-1.731-4.3-2.57-6.384-6.432-15.984-11.555-28.711-11.555-28.711s-25.707-9.739-28.377-3.428C786.087,1271.137,787.88,1276.234,794.784,1287.941Z" transform="translate(-762.151 -1160.019)" fill="#e58638"/>
        <path id="Trazado_102886" data-name="Trazado 102886" d="M887.187,1582.978s-8.166,5.248-7.374,6.952c.105.227,4.618,8.309,4.618,8.309l5.82,10.285s2.449-1.456,1.29-4.765-1.857-9.541,1.109-13.593C895.772,1585.9,887.187,1582.978,887.187,1582.978Z" transform="translate(-834.937 -1411.551)" fill="#163560"/>
        <path id="Trazado_102887" data-name="Trazado 102887" d="M825.267,1268.21s32.268,20.1,35.87,33.607-42.924,42.323-42.924,42.323-5.1-4.5-6-7.8c0,0,21.03-25.2,25.592-30.844,2.8-3.469-41.425-12.008-46.828-20.412S787.5,1269.6,787.5,1269.6Z" transform="translate(-761.968 -1163.49)" fill="#ee9849"/>
        <path id="Rectángulo_5661" data-name="Rectángulo 5661" d="M9,0H61.838a9,9,0,0,1,9,9v0a9.006,9.006,0,0,1-9.006,9.006H9.006A9.006,9.006,0,0,1,0,9V9A9,9,0,0,1,9,0Z" transform="translate(0 130.53)" fill="#1c468a"/>
        <path id="Trazado_102888" data-name="Trazado 102888" d="M838.415,874.232a18.212,18.212,0,0,1,4.916,4.455c-7.73,2-20.545-5.164-20.545-5.164a18.963,18.963,0,0,0,6.819-10.69c.093-.371.178-.751.253-1.14a23.189,23.189,0,0,0,.419-4.022l3.551,3.181,5.9,5.29a50.706,50.706,0,0,1-.873,5.971Q838.667,873.1,838.415,874.232Z" transform="translate(-790.037 -839.953)" fill="#e49963"/>
        <path id="Trazado_102889" data-name="Trazado 102889" d="M783.561,958.16c1.107,14.893-.755,37.534.5,41.457,1.084,3.385,13.842,1.381,18.772.251,1.825-.418,4.035-1.016,6.318-1.722,6.368-1.972,13.306-4.787,14.051-6.878a1.767,1.767,0,0,0,.069-.241,1.91,1.91,0,0,0-.013-.876c-.248-1.065-1.2-2.218-1.317-4.856-.126-2.945-.107-6.414-.218-10.143-.006-.42-.011-.878-.057-1.3l0-.153c0-.08,0-.158-.006-.239-.107-4.159-.325-8.532-.576-12.869-.16-2.724-.345-5.421-.559-8.006a107.052,107.052,0,0,0-2.294-16.355,26.263,26.263,0,0,0-8.437-13.024l-2.35-2.015a13.589,13.589,0,0,1-8.527-1.136c-3.035-1.441-4.083-2.474-4.612-2.084C787.295,923.384,782.254,939.954,783.561,958.16Z" transform="translate(-758.962 -887.413)" fill="#739af0"/>
        <path id="Trazado_102890" data-name="Trazado 102890" d="M861.82,1164.376c6.368-1.972,13.306-4.787,14.051-6.877a1.779,1.779,0,0,0,.069-.24c0-.292-.007-.584-.013-.876-.248-1.065-1.2-2.218-1.317-4.856-.126-2.945-.107-6.414-.218-10.144-.006-.42-.011-.878-.057-1.3l0-.153c0-.08,0-.158-.005-.239l-24.053-10.909S848.887,1148.172,861.82,1164.376Z" transform="translate(-811.666 -1053.613)" fill="#4a75cb"/>
        <path id="Trazado_102891" data-name="Trazado 102891" d="M863.766,877.972a50.724,50.724,0,0,1-.873,5.971c-5.766-1.863-8.382-7.071-9.255-9.28-.248-.624-.356-1.01-.356-1.01l.609-.13,3.97-.841Z" transform="translate(-814.071 -851.783)" fill="#d68d5d"/>
        <path id="Trazado_102892" data-name="Trazado 102892" d="M860.662,819.049s-12.668,1.429-13.436-6.474-2.921-13.04,5.135-14.287,9.923,1.616,10.821,4.191S863.937,818.474,860.662,819.049Z" transform="translate(-808.632 -792.918)" fill="#e49963"/>
        <path id="Trazado_102893" data-name="Trazado 102893" d="M834.919,794.269a13.016,13.016,0,0,1,12.334-11.577c7.9-.744,3.495-7.542,2.653-8.626,0,0-6.051.83-12.254,1.855C824.633,778.072,833.641,792.636,834.919,794.269Z" transform="translate(-796.271 -774.066)" fill="#2b478b"/>
        <g id="Grupo_55383" data-name="Grupo 55383" transform="translate(69.045 67.31)">
          <rect id="Rectángulo_5662" data-name="Rectángulo 5662" width="1.166" height="30.53" transform="translate(32.03 29.396) rotate(-161.999)" fill="#4a75cb"/>
          <rect id="Rectángulo_5663" data-name="Rectángulo 5663" width="32.037" height="1.917" transform="translate(32.03 29.396) rotate(-178.776)" fill="#4a75cb"/>
        </g>
        <g id="Grupo_55384" data-name="Grupo 55384" transform="translate(33.236 38.225)">
          <path id="Trazado_102894" data-name="Trazado 102894" d="M999.087,1209.9s4.971,1.882,8.333,1.263,8.781,1.611,9.551,2.9.387,1.72-1.267,1.951-7.623,2.03-11.213.208a30.029,30.029,0,0,0-8.469-2.416Z" transform="translate(-959.796 -1155.765)" fill="#e49963"/>
          <path id="Trazado_102895" data-name="Trazado 102895" d="M825.088,959.225s1.216,41.49,10.328,46.205c4.5,2.327,24.8,8.722,30.891,9.814,0,0,1.639-1.053,1.824-6.06,0,0-20.86-10.4-23.468-15.08-3.881-6.971,5.782-26.08.686-32.789S830.827,950.92,825.088,959.225Z" transform="translate(-825.088 -954.439)" fill="#739af0"/>
        </g>
      </g>
      <rect id="Rectángulo_5664" data-name="Rectángulo 5664" width="207.067" height="267.777" rx="10" transform="translate(681.631 448.845) rotate(180)" fill="#d2e4ff"/>
      <rect id="Rectángulo_5665" data-name="Rectángulo 5665" width="166.714" height="212.608" transform="translate(661.623 421.739) rotate(180)" fill="#f3f9ff"/>
      <g id="Grupo_55386" data-name="Grupo 55386" transform="translate(507.555 234.398)">
        <path id="Trazado_102896" data-name="Trazado 102896" d="M2012.825,755.02h0a8.8,8.8,0,0,1-8.8-8.8V624.609a8.8,8.8,0,0,1,8.8-8.8h0a8.8,8.8,0,0,1,8.8,8.8V746.224A8.8,8.8,0,0,1,2012.825,755.02Z" transform="translate(-1882.398 -577.01)" fill="#ee9849"/>
        <path id="Trazado_102897" data-name="Trazado 102897" d="M1876.827,610.725h0a8.8,8.8,0,0,1-8.8-8.8V441.511a8.8,8.8,0,0,1,8.8-8.8h0a8.8,8.8,0,0,1,8.8,8.8V601.928A8.8,8.8,0,0,1,1876.827,610.725Z" transform="translate(-1775.221 -432.715)" fill="#ee9849"/>
        <path id="Trazado_102898" data-name="Trazado 102898" d="M1728.433,880.207h0a8.8,8.8,0,0,1-8.8-8.8v-87.95a8.8,8.8,0,0,1,8.8-8.8h0a8.8,8.8,0,0,1,8.8,8.8v87.95A8.8,8.8,0,0,1,1728.433,880.207Z" transform="translate(-1658.276 -702.198)" fill="#ee9849"/>
        <path id="Trazado_102899" data-name="Trazado 102899" d="M1584.035,699.1h0a8.8,8.8,0,0,1-8.8-8.8V553.653a8.8,8.8,0,0,1,8.8-8.8h0a8.8,8.8,0,0,1,8.8,8.8V690.3A8.8,8.8,0,0,1,1584.035,699.1Z" transform="translate(-1544.479 -521.091)" fill="#ee9849"/>
        <path id="Trazado_102900" data-name="Trazado 102900" d="M1447.683,880.938v67.293a8.8,8.8,0,0,1-8.8,8.8h0a8.8,8.8,0,0,1-8.8-8.8V880.938a8.8,8.8,0,0,1,8.8-8.8h0A8.8,8.8,0,0,1,1447.683,880.938Z" transform="translate(-1430.091 -779.017)" fill="#ee9849"/>
      </g>
      <g id="Grupo_55387" data-name="Grupo 55387" transform="translate(507.361 223.614)">
        <path id="Trazado_102901" data-name="Trazado 102901" d="M1573.446,493.452h14.9a1.541,1.541,0,0,1,0,3.082h-14.9a1.541,1.541,0,1,1,0-3.082Z" transform="translate(-1541.656 -469.796)" fill="#a6c7f9"/>
        <path id="Trazado_102902" data-name="Trazado 102902" d="M1627.735,519.916h3.393a1.541,1.541,0,0,1,0,3.082h-3.393a1.541,1.541,0,1,1,0-3.082Z" transform="translate(-1584.441 -490.652)" fill="#a6c7f9"/>
        <path id="Trazado_102903" data-name="Trazado 102903" d="M1863.135,381.829h14.9a1.541,1.541,0,1,1,0,3.082h-14.9a1.541,1.541,0,0,1,0-3.082Z" transform="translate(-1769.954 -381.829)" fill="#a6c7f9"/>
        <path id="Trazado_102904" data-name="Trazado 102904" d="M1917.424,408.293h3.393a1.546,1.546,0,0,1,1.541,1.541h0a1.546,1.546,0,0,1-1.541,1.541h-3.393a1.546,1.546,0,0,1-1.541-1.541h0A1.546,1.546,0,0,1,1917.424,408.293Z" transform="translate(-1812.738 -402.685)" fill="#a6c7f9"/>
        <path id="Trazado_102905" data-name="Trazado 102905" d="M2003.737,564.8h14.9a1.541,1.541,0,0,1,0,3.082h-14.9a1.541,1.541,0,1,1,0-3.082Z" transform="translate(-1880.759 -526.027)" fill="#a6c7f9"/>
        <path id="Trazado_102906" data-name="Trazado 102906" d="M2058.026,591.268h3.393a1.546,1.546,0,0,1,1.541,1.541h0a1.545,1.545,0,0,1-1.541,1.541h-3.393a1.546,1.546,0,0,1-1.541-1.541h0A1.546,1.546,0,0,1,2058.026,591.268Z" transform="translate(-1923.543 -546.883)" fill="#a6c7f9"/>
        <path id="Trazado_102907" data-name="Trazado 102907" d="M1720.261,723.73h14.9a1.541,1.541,0,1,1,0,3.082h-14.9a1.541,1.541,0,0,1,0-3.082Z" transform="translate(-1657.359 -651.273)" fill="#a6c7f9"/>
        <path id="Trazado_102908" data-name="Trazado 102908" d="M1774.551,750.194h3.393a1.546,1.546,0,0,1,1.542,1.541h0a1.546,1.546,0,0,1-1.542,1.541h-3.393a1.546,1.546,0,0,1-1.541-1.541h0A1.546,1.546,0,0,1,1774.551,750.194Z" transform="translate(-1700.143 -672.129)" fill="#a6c7f9"/>
        <path id="Trazado_102909" data-name="Trazado 102909" d="M1430.715,820.911h14.9a1.541,1.541,0,0,1,0,3.083h-14.9a1.541,1.541,0,0,1,0-3.083Z" transform="translate(-1429.174 -727.859)" fill="#a6c7f9"/>
        <path id="Trazado_102910" data-name="Trazado 102910" d="M1485.005,847.375h3.393a1.541,1.541,0,1,1,0,3.082h-3.393a1.541,1.541,0,0,1,0-3.082Z" transform="translate(-1471.959 -748.715)" fill="#a6c7f9"/>
      </g>
      <g id="Grupo_55388" data-name="Grupo 55388" transform="translate(362.099 284.569)">
        <path id="Trazado_102911" data-name="Trazado 102911" d="M1451.239,759.505a5.475,5.475,0,1,1,5.475-5.475A5.481,5.481,0,0,1,1451.239,759.505Zm0-8.83a3.355,3.355,0,1,0,3.355,3.355A3.359,3.359,0,0,0,1451.239,750.675Z" transform="translate(-1296.986 -731.793)" fill="#2b478b"/>
        <path id="Trazado_102912" data-name="Trazado 102912" d="M895.648,688.34a1.057,1.057,0,0,1-.749-.311l-16.452-16.452H744.787a1.06,1.06,0,1,1,0-2.119H879.325L896.4,686.531a1.06,1.06,0,0,1-.749,1.809Z" transform="translate(-743.727 -669.458)" fill="#2b478b"/>
      </g>
      <g id="Grupo_55389" data-name="Grupo 55389" transform="translate(542.36 416.771)">
        <path id="Trazado_102913" data-name="Trazado 102913" d="M1599.8,1304.23a5.475,5.475,0,1,1,5.475-5.475A5.481,5.481,0,0,1,1599.8,1304.23Zm0-8.83a3.355,3.355,0,1,0,3.355,3.355A3.36,3.36,0,0,0,1599.8,1295.4Z" transform="translate(-1594.323 -1293.281)" fill="#2b478b"/>
        <path id="Trazado_102914" data-name="Trazado 102914" d="M1775.959,1353.83H1643.54l-17.073-17.073a1.06,1.06,0,0,1,1.5-1.5l16.452,16.452h131.542a1.06,1.06,0,0,1,0,2.119Z" transform="translate(-1619.411 -1326.118)" fill="#2b478b"/>
      </g>
      <g id="Grupo_55390" data-name="Grupo 55390" transform="translate(454.141 191.664)">
        <path id="Trazado_102915" data-name="Trazado 102915" d="M1885.557,321.114a5.475,5.475,0,1,1,5.475-5.475A5.481,5.481,0,0,1,1885.557,321.114Zm0-8.83a3.355,3.355,0,1,0,3.355,3.355A3.359,3.359,0,0,0,1885.557,312.284Z" transform="translate(-1731.304 -293.403)" fill="#2b478b"/>
        <path id="Trazado_102916" data-name="Trazado 102916" d="M1329.967,249.95a1.055,1.055,0,0,1-.749-.31l-16.452-16.452H1179.1a1.06,1.06,0,0,1,0-2.119h134.538l17.073,17.073a1.06,1.06,0,0,1-.749,1.809Z" transform="translate(-1178.045 -231.068)" fill="#2b478b"/>
      </g>
      <path id="Trazado_102917" data-name="Trazado 102917" d="M833.72,637.925H745.911a2.684,2.684,0,0,1-2.684-2.684h0a2.684,2.684,0,0,1,2.684-2.684H833.72a2.684,2.684,0,0,1,2.684,2.684h0A2.684,2.684,0,0,1,833.72,637.925Z" transform="translate(-381.234 -355.807)" fill="#739af0"/>
      <path id="Trazado_102918" data-name="Trazado 102918" d="M959.812,597.925h-53.9a2.684,2.684,0,0,1-2.684-2.684h0a2.684,2.684,0,0,1,2.684-2.684h53.9a2.684,2.684,0,0,1,2.684,2.684h0A2.684,2.684,0,0,1,959.812,597.925Z" transform="translate(-507.326 -324.284)" fill="#739af0"/>
      <path id="Trazado_102919" data-name="Trazado 102919" d="M959.812,557.925h-53.9a2.684,2.684,0,0,1-2.684-2.684h0a2.684,2.684,0,0,1,2.684-2.684h53.9a2.684,2.684,0,0,1,2.684,2.684h0A2.684,2.684,0,0,1,959.812,557.925Z" transform="translate(-507.326 -292.761)" fill="#739af0"/>
      <path id="Trazado_102920" data-name="Trazado 102920" d="M1265.145,196.947h-87.809a2.684,2.684,0,0,1-2.684-2.684h0a2.684,2.684,0,0,1,2.684-2.684h87.809a2.684,2.684,0,0,1,2.684,2.684h0A2.684,2.684,0,0,1,1265.145,196.947Z" transform="translate(-721.23 -8.283)" fill="#739af0"/>
      <g id="Grupo_55393" data-name="Grupo 55393" transform="translate(581.889 443.984)">
        <g id="Grupo_55392" data-name="Grupo 55392" transform="translate(0 0)">
          <circle id="Elipse_4164" data-name="Elipse 4164" cx="19.108" cy="19.108" r="19.108" transform="translate(0 27.023) rotate(-45)" fill="#82b378"/>
          <path id="Trazado_102921" data-name="Trazado 102921" d="M1848.3,1472.984a16.153,16.153,0,0,1,11.512,27.483l-11.512-11.33-15.094,5.761a16.164,16.164,0,0,1,15.094-21.914Z" transform="translate(-1821.276 -1462.114)" fill="#fff"/>
          <g id="Grupo_55391" data-name="Grupo 55391" transform="translate(28.893 18.823)">
            <path id="Trazado_102922" data-name="Trazado 102922" d="M1917.675,1510.512h6.876a.493.493,0,0,1,.491.491h0a.493.493,0,0,1-.491.491h-6.876a.493.493,0,0,1-.491-.491h0A.493.493,0,0,1,1917.675,1510.512Z" transform="translate(-1917.184 -1510.512)" fill="#82b378"/>
            <path id="Trazado_102923" data-name="Trazado 102923" d="M1917.675,1517.851h6.876a.491.491,0,1,1,0,.982h-6.876a.491.491,0,1,1,0-.982Z" transform="translate(-1917.184 -1516.296)" fill="#82b378"/>
            <path id="Trazado_102924" data-name="Trazado 102924" d="M1936.721,1525.19h2.839a.491.491,0,1,1,0,.982h-2.839a.491.491,0,0,1,0-.982Z" transform="translate(-1932.194 -1522.079)" fill="#82b378"/>
          </g>
        </g>
        <path id="Trazado_102925" data-name="Trazado 102925" d="M1829.4,1478.781l7.559-7.558H1829.4Z" transform="translate(-1819.113 -1460.726)" fill="#82b378"/>
      </g>
      <g id="Grupo_55396" data-name="Grupo 55396" transform="translate(653.405 450.971)">
        <g id="Grupo_55395" data-name="Grupo 55395" transform="translate(0 0)">
          <circle id="Elipse_4165" data-name="Elipse 4165" cx="19.108" cy="19.108" r="19.108" transform="translate(0 38.169) rotate(-87.145)" fill="#82b378"/>
          <path id="Trazado_102926" data-name="Trazado 102926" d="M2136.643,1489.137A16.152,16.152,0,1,1,2143,1501.98l9.8-12.843L2137.7,1494.9A16.124,16.124,0,0,1,2136.643,1489.137Z" transform="translate(-2132.759 -1469.101)" fill="#fff"/>
          <g id="Grupo_55394" data-name="Grupo 55394" transform="translate(22.038 11.836)">
            <path id="Trazado_102927" data-name="Trazado 102927" d="M2222.795,1510.512h6.875a.493.493,0,0,1,.491.491h0a.493.493,0,0,1-.491.491h-6.875a.493.493,0,0,1-.491-.491h0A.493.493,0,0,1,2222.795,1510.512Z" transform="translate(-2222.304 -1510.512)" fill="#82b378"/>
            <path id="Trazado_102928" data-name="Trazado 102928" d="M2222.795,1517.851h6.875a.491.491,0,1,1,0,.982h-6.875a.491.491,0,1,1,0-.982Z" transform="translate(-2222.304 -1516.296)" fill="#82b378"/>
            <path id="Trazado_102929" data-name="Trazado 102929" d="M2241.841,1525.19h2.839a.491.491,0,1,1,0,.982h-2.839a.491.491,0,1,1,0-.982Z" transform="translate(-2237.314 -1522.079)" fill="#82b378"/>
          </g>
        </g>
        <path id="Trazado_102930" data-name="Trazado 102930" d="M2134.4,1478.781l7.559-7.558H2134.4Z" transform="translate(-2130.993 -1467.713)" fill="#82b378"/>
      </g>
      <path id="Trazado_102931" data-name="Trazado 102931" d="M897.755,1758.312H455.976a.635.635,0,0,1-.634-.633h0a.636.636,0,0,1,.634-.634H897.755a.635.635,0,0,1,.633.634h0A.635.635,0,0,1,897.755,1758.312Z" transform="translate(-154.358 -1241.991)" fill="#202f4e"/>
    </g>
  </g>
</svg>
