<svg xmlns="http://www.w3.org/2000/svg" xmlns:xlink="http://www.w3.org/1999/xlink" width="154" height="154" viewBox="0 0 154 154">
  <defs>
    <clipPath id="clip-path">
      <rect id="Rectángulo_5718" data-name="Rectángulo 5718" width="154" height="154" transform="translate(285 17283)" fill="#fff" stroke="#707070" stroke-width="1"/>
    </clipPath>
  </defs>
  <g id="Enmascarar_grupo_63" data-name="Enmascarar grupo 63" transform="translate(-285 -17283)" clip-path="url(#clip-path)">
    <g id="Page-1" transform="translate(295.621 17283)">
      <g id="_061---tip-alert" data-name="061---tip-alert">
        <path id="Shape" d="M102.7,29.207h19.436a10.621,10.621,0,0,1,10.621,10.621v71.689a10.621,10.621,0,0,1-10.621,10.621H95.586a5.345,5.345,0,0,0-4.248,2.124l-20.87,27.826a5.329,5.329,0,0,1-8.178,0L41.42,124.261a5.345,5.345,0,0,0-4.248-2.124H10.621A10.621,10.621,0,0,1,0,111.517V39.827A10.621,10.621,0,0,1,10.621,29.207Z" fill="#fb9e36"/>
        <path id="Shape-2" data-name="Shape" d="M58.413,119.482a2.655,2.655,0,0,1-2.655-2.655v-5.31a2.655,2.655,0,0,1,5.31,0v5.31A2.655,2.655,0,0,1,58.413,119.482Z" fill="#464f5d"/>
        <path id="Shape-3" data-name="Shape" d="M74.344,119.482a2.655,2.655,0,0,1-2.655-2.655v-5.31a2.655,2.655,0,0,1,5.31,0v5.31A2.655,2.655,0,0,1,74.344,119.482Z" fill="#464f5d"/>
        <g id="Grupo_55527" data-name="Grupo 55527">
          <path id="Shape-4" data-name="Shape" d="M23.9,15.931a2.655,2.655,0,0,1-1.659-.581L8.961,4.729A2.656,2.656,0,0,1,12.28.581L25.556,11.2A2.655,2.655,0,0,1,23.9,15.931Z" fill="#f3d55b"/>
          <path id="Shape-5" data-name="Shape" d="M108.861,15.931A2.655,2.655,0,0,1,107.2,11.2L120.478.581A2.656,2.656,0,0,1,123.8,4.729L110.521,15.349a2.655,2.655,0,0,1-1.659.581Z" fill="#f3d55b"/>
          <path id="Shape-6" data-name="Shape" d="M10.621,92.931A2.655,2.655,0,0,1,8.961,88.2L22.237,77.581a2.656,2.656,0,0,1,3.319,4.147L12.28,92.349A2.655,2.655,0,0,1,10.621,92.931Z" fill="#f3d55b"/>
          <path id="Shape-7" data-name="Shape" d="M122.137,92.931a2.655,2.655,0,0,1-1.659-.581L107.2,81.728a2.656,2.656,0,0,1,3.319-4.147L123.8,88.2a2.655,2.655,0,0,1-1.659,4.729Z" fill="#f3d55b"/>
          <path id="Shape-8" data-name="Shape" d="M18.586,45.138H10.621a2.655,2.655,0,0,1,0-5.31h7.965a2.655,2.655,0,1,1,0,5.31Z" fill="#f3d55b"/>
          <path id="Shape-9" data-name="Shape" d="M122.137,45.138h-7.965a2.655,2.655,0,1,1,0-5.31h7.965a2.655,2.655,0,0,1,0,5.31Z" fill="#f3d55b"/>
        </g>
        <path id="Shape-10" data-name="Shape" d="M82.31,87.62v15.931a7.965,7.965,0,0,1-7.965,7.965H58.413a7.965,7.965,0,0,1-7.965-7.965V87.62Z" fill="#95a5a5"/>
        <path id="Shape-11" data-name="Shape" d="M103.551,37.172A36.992,36.992,0,0,1,91.762,64.281,30.93,30.93,0,0,0,82.31,87.01v5.921H50.448v-5.47a32.032,32.032,0,0,0-9.612-23.339,37.143,37.143,0,1,1,62.715-26.95Z" fill="#f0c419"/>
        <path id="Shape-12" data-name="Shape" d="M61.069,84.965a2.655,2.655,0,0,1-2.655-2.655V74.344a2.655,2.655,0,0,1,5.31,0V82.31A2.655,2.655,0,0,1,61.069,84.965Z" fill="#f29c1f"/>
        <path id="Shape-13" data-name="Shape" d="M61.069,63.724a2.655,2.655,0,0,1-2.655-2.655V58.413a2.655,2.655,0,0,1,5.31,0v2.655A2.655,2.655,0,0,1,61.069,63.724Z" fill="#f29c1f"/>
        <path id="Shape-14" data-name="Shape" d="M71.689,84.965a2.655,2.655,0,0,1-2.655-2.655V74.344a2.655,2.655,0,0,1,5.31,0V82.31A2.655,2.655,0,0,1,71.689,84.965Z" fill="#f29c1f"/>
        <path id="Shape-15" data-name="Shape" d="M71.689,63.724a2.655,2.655,0,0,1-2.655-2.655V58.413a2.655,2.655,0,0,1,5.31,0v2.655A2.655,2.655,0,0,1,71.689,63.724Z" fill="#f29c1f"/>
        <path id="Shape-16" data-name="Shape" d="M42.483,31.862a2.591,2.591,0,0,1-.51-.05,2.655,2.655,0,0,1-2.1-3.109C42.331,16.061,54.24,11.027,54.744,10.82a2.655,2.655,0,1,1,2.026,4.909c-.1.04-9.784,4.2-11.683,13.982a2.655,2.655,0,0,1-2.6,2.151Z" fill="#f9eab0"/>
      </g>
    </g>
  </g>
</svg>
