<svg xmlns="http://www.w3.org/2000/svg" width="101.735" height="118.48" viewBox="0 0 101.735 118.48">
  <g id="gallina_1_" data-name="gallina (1)" transform="translate(-13.13 -4.77)">
    <g id="Grupo_54655" data-name="Grupo 54655">
      <path id="Trazado_101805" data-name="Trazado 101805" d="M80.792,115.5H78.784l-2.356-14.888-5.925.938,2.214,14a6,6,0,0,0-5.259,5.95H86.792a6,6,0,0,0-6-6Z" fill="#d78759"/>
      <path id="Trazado_101806" data-name="Trazado 101806" d="M67.792,115.5H65.784l-2.356-14.888-5.925.938,2.214,14a6,6,0,0,0-5.259,5.95H73.792A6,6,0,0,0,67.792,115.5Z" fill="#f4a86c"/>
      <g id="Grupo_54654" data-name="Grupo 54654">
        <path id="Trazado_101807" data-name="Trazado 101807" d="M103.7,12.673a5.042,5.042,0,0,0-7.384,1l-.124.178.169-1.841a5.043,5.043,0,1,0-10.043,0l.169,1.841-.123-.178a5.043,5.043,0,1,0-7.7,6.45l9.78,9.709L91.336,27.4l2.894,2.425,9.781-9.709a5.043,5.043,0,0,0-.311-7.443Z" fill="#fc4b00"/>
        <path id="Trazado_101808" data-name="Trazado 101808" d="M101.062,30.247c9.038,2.267,11.313,6.878,12.063,10.508-8.75-2.3-13.875-.88-13.875-.88Z" fill="#fc4b00"/>
        <path id="Trazado_101809" data-name="Trazado 101809" d="M101.917,39.042c1.666,4.6,9.785,5.851,8.458,10.8-1.281,4.781-7.917,5.768-12.667,2.888Z" fill="#fc4b00"/>
      </g>
      <path id="Trazado_101810" data-name="Trazado 101810" d="M64.375,103.808c19.375,0,38.333-1.268,41.333-17.141,2.861-15.134-3.583-16.042-2.583-33.792S104.993,18.75,90.868,18.75c-7.056,0-11.743,4.583-12.91,29.75-.666,12.779-6.666,19.667-14.5,19,0,0-7.833-35.256-46.021-38.813.563,13.557,7.313,15.5,7.313,15.5H14.875S18.25,56.744,27.25,58.619H15.125a13.3,13.3,0,0,0,9.25,10.959s1,34.23,40,34.23Z" fill="#f4a86c"/>
      <circle id="Elipse_4102" data-name="Elipse 4102" cx="3" cy="3" r="3" transform="translate(91.336 30.247)" fill="#d78759"/>
      <path id="Trazado_101811" data-name="Trazado 101811" d="M90.611,74.892c0,13.652-30.242,11.18-35.832,9.567-8.009-2.293-9.872-10.373-9.872-10.373h12.7a24.026,24.026,0,0,1-15.6-10.732H54.86A15.348,15.348,0,0,1,45.093,53.5c28.791.833,45.518,6.5,45.518,21.392Z" fill="#d78759"/>
    </g>
    <g id="Grupo_54656" data-name="Grupo 54656">
      <path id="Trazado_101812" data-name="Trazado 101812" d="M114.835,40.409c-1.067-5.208-4.452-8.79-10.325-10.93a21.91,21.91,0,0,0-1.836-5.563l2.567-2.553A6.792,6.792,0,0,0,98,10.209a6.8,6.8,0,0,0-13.325,0,6.793,6.793,0,0,0-7.247,11.152l2.85,2.835a41.962,41.962,0,0,0-2.94,11.335,1.75,1.75,0,1,0,3.465.5C82.856,21.7,86.9,20.5,90.87,20.5c3.091,0,5.406.86,7.078,2.628,4.809,5.087,4.105,17.571,3.425,29.643-.028.494-.048.972-.065,1.442,0,.017-.007.032-.007.05v.043a49.842,49.842,0,0,0,1.956,16.269,30.411,30.411,0,0,1,.731,15.77c-2.743,14.513-20.3,15.715-39.61,15.715-12.885,0-22.826-3.827-29.546-11.374a1.749,1.749,0,1,0-2.613,2.327c5.9,6.632,13.978,10.651,24.056,12.015l1.464,9.219A7.763,7.763,0,0,0,52.71,121.5a1.75,1.75,0,0,0,1.75,1.75H86.79a1.75,1.75,0,0,0,1.75-1.75,7.759,7.759,0,0,0-7.75-7.75h-.515L78.9,105.083C93.149,103.9,104.99,99.9,107.43,87a33.738,33.738,0,0,0-.786-17.307A46.057,46.057,0,0,1,104.766,56c3.66-.408,6.446-2.522,7.3-5.711,1.061-3.983-2.1-6.221-4.647-8.019-.445-.315-.9-.635-1.328-.962a38.522,38.522,0,0,1,6.58,1.143,1.751,1.751,0,0,0,2.159-2.044ZM70.742,114.253c-.035.014-.068.033-.1.047a7.767,7.767,0,0,0-2.849-.55h-.515l-1.3-8.194q1.7-.007,3.382-.036Zm-3.282,5.5H56.589a4.261,4.261,0,0,1,3.348-2.464,1.75,1.75,0,0,0,1.511-2.011L59.879,105.4q1.257.088,2.55.126l1.623,10.25a1.75,1.75,0,0,0,1.728,1.477h2.01a4.18,4.18,0,0,1,2.016.509l.1.049a4.276,4.276,0,0,1,1.76,1.942Zm9.592-3.977a1.75,1.75,0,0,0,1.728,1.477h2.01a4.256,4.256,0,0,1,3.873,2.5H75.325A7.747,7.747,0,0,0,73.94,116.8a1.678,1.678,0,0,0,.508-1.52l-1.559-9.848c.841-.03,1.678-.064,2.509-.108ZM90.87,17a10.278,10.278,0,0,0-8.757,4.086l-2.221-2.209A3.294,3.294,0,1,1,84.9,14.641l.12.18a1.75,1.75,0,0,0,3.2-1.132l-.17-1.848a3.3,3.3,0,1,1,6.565,0l-.17,1.85a1.75,1.75,0,0,0,3.2,1.125l.1-.148a3.294,3.294,0,1,1,5.028,4.212l-2.091,2.079c-.067-.075-.124-.161-.193-.234C98.156,18.253,94.919,17,90.87,17Zm17.82,32.385a4.431,4.431,0,0,1-3.794,3.068c.142-2.518.276-5.005.366-7.427.047.034.094.07.141.1C107.989,46.958,109.082,47.914,108.69,49.385ZM105.333,37.75c-.037-1.455-.114-2.864-.241-4.219a11.115,11.115,0,0,1,5.378,4.835,38.2,38.2,0,0,0-5.137-.616Z" fill="#111b35"/>
      <path id="Trazado_101813" data-name="Trazado 101813" d="M28.048,78.85a35.813,35.813,0,0,1-1.929-9.322,1.75,1.75,0,0,0-1.213-1.614,11.4,11.4,0,0,1-7.615-7.544H27.25a1.75,1.75,0,0,0,.357-3.463c-5.683-1.187-8.918-7.543-10.273-10.977H24.75a1.75,1.75,0,0,0,.483-3.432c-.051-.015-4.913-1.7-5.9-11.84C37.7,32.992,48.448,43.041,54.568,52.215c-3.152-.231-6.318-.375-9.42-.465a1.7,1.7,0,0,0-1.467.721,1.752,1.752,0,0,0-.233,1.618A17.243,17.243,0,0,0,48.375,61.6H42.014a1.75,1.75,0,0,0-1.532,2.6,24.989,24.989,0,0,0,8.09,8.135H44.907a1.751,1.751,0,0,0-1.7,2.143c.085.371,2.2,9.115,11.092,11.662a58.827,58.827,0,0,0,13.6,1.368c7.317,0,15.586-1.069,20.33-4.638a9.606,9.606,0,0,0,4.13-7.978c0-9.165-5.7-14.7-14.025-18.05a35.6,35.6,0,0,0,1.372-8.261q.1-2.195.24-4.182a1.75,1.75,0,0,0-3.492-.242c-.094,1.351-.175,2.771-.244,4.252a32.617,32.617,0,0,1-1.153,7.26,82.319,82.319,0,0,0-16.1-3.069C52.517,41.868,40.189,29.045,17.6,26.947a1.75,1.75,0,0,0-1.911,1.815c.288,6.994,2.183,11.186,4.12,13.668H14.88a1.751,1.751,0,0,0-1.691,2.2c.111.41,2.111,7.644,7.153,12.236H15.12a1.751,1.751,0,0,0-1.744,1.9,14.982,14.982,0,0,0,9.332,12.072,41.28,41.28,0,0,0,2.027,9.141,1.751,1.751,0,0,0,3.313-1.132Zm60.813-3.958a6.194,6.194,0,0,1-2.733,5.181c-7.566,5.693-26.961,3.831-30.867,2.7A12.5,12.5,0,0,1,47.4,75.836H57.609a1.75,1.75,0,0,0,.343-3.466A22.516,22.516,0,0,1,45.484,65.1h9.375a1.75,1.75,0,0,0,.625-3.384,13.553,13.553,0,0,1-7.672-6.374c28.36,1.166,41.049,7.236,41.049,19.55Z" fill="#111b35"/>
      <path id="Trazado_101814" data-name="Trazado 101814" d="M30.259,84.023a1.75,1.75,0,0,0-3.1,1.622c.431.823.89,1.63,1.365,2.4A1.751,1.751,0,1,0,31.5,86.2C31.067,85.505,30.65,84.772,30.259,84.023Z" fill="#111b35"/>
      <path id="Trazado_101815" data-name="Trazado 101815" d="M86.717,94.375a54.783,54.783,0,0,1-6.582,1.047,1.75,1.75,0,0,0,.179,3.491,1.62,1.62,0,0,0,.184-.01,58.286,58.286,0,0,0,7-1.117,1.75,1.75,0,0,0-.785-3.411Z" fill="#111b35"/>
      <path id="Trazado_101816" data-name="Trazado 101816" d="M99.086,33.247A4.75,4.75,0,1,0,94.335,38,4.75,4.75,0,0,0,99.086,33.247Zm-6,0a1.25,1.25,0,1,1,1.25,1.25,1.25,1.25,0,0,1-1.25-1.25Z" fill="#111b35"/>
    </g>
  </g>
</svg>
