<svg xmlns="http://www.w3.org/2000/svg" xmlns:xlink="http://www.w3.org/1999/xlink" width="85" height="85" viewBox="0 0 85 85">
  <defs>
    <clipPath id="clip-path">
      <rect id="Rectángulo_5439" data-name="Rectángulo 5439" width="85" height="85" transform="translate(285 699)" fill="#fff" stroke="#707070" stroke-width="1"/>
    </clipPath>
  </defs>
  <g id="Enmascarar_grupo_50" data-name="Enmascarar grupo 50" transform="translate(-285 -699)" clip-path="url(#clip-path)">
    <g id="Filled_outline" data-name="Filled outline" transform="translate(282.167 696.167)">
      <path id="Trazado_102932" data-name="Trazado 102932" d="M58.083,46.13v7.7h-25.5v-7.7l4.25-.8V32.583h17v12.75Z" fill="#fec9a3"/>
      <path id="Trazado_102933" data-name="Trazado 102933" d="M76.5,56.637V80.75H14.167V56.638A8.5,8.5,0,0,1,21.1,48.283l15.733-2.95,8.5,2.833,8.5-2.833,15.734,2.95A8.492,8.492,0,0,1,76.5,56.637Z" fill="#4d5e78"/>
      <path id="Trazado_102934" data-name="Trazado 102934" d="M76.5,56.637V80.75H35.263c14.9-7.025,28.121-17.179,37.2-31.351A8.5,8.5,0,0,1,76.5,56.637Z" fill="#44546c"/>
      <path id="Trazado_102935" data-name="Trazado 102935" d="M36.833,45.333l8.5,32.583,8.5-32.584-8.5,2.834Z" fill="#b0b0ae"/>
      <path id="Trazado_102936" data-name="Trazado 102936" d="M53.833,45.333l-8.5,2.834L51.754,53.3Z" fill="#e0e0de"/>
      <path id="Trazado_102937" data-name="Trazado 102937" d="M45.333,48.167l-8.5-2.833,2.079,7.97Z" fill="#e0e0de"/>
      <path id="Trazado_102938" data-name="Trazado 102938" d="M48.167,67.055V50.433l-2.833-2.267L42.5,50.433V67.056l2.833,10.861Z" fill="#348fd9"/>
      <path id="Trazado_102939" data-name="Trazado 102939" d="M34,58.083,32.583,63.75l12.75,14.167-8.5-32.583L31.167,46.4l-4.25,10.271Z" fill="#556a8a"/>
      <path id="Trazado_102940" data-name="Trazado 102940" d="M56.667,58.083l1.417,5.667L45.333,77.917l8.5-32.583L59.5,46.4l4.25,10.271Z" fill="#556a8a"/>
      <path id="Trazado_102941" data-name="Trazado 102941" d="M68,65.167h8.5v12.75H69.417l-8.529,1.218L59.5,69.417Z" fill="#fec9a3"/>
      <path id="Trazado_102942" data-name="Trazado 102942" d="M52.916,69.827,54.543,80.41,26.917,86.417h-8.5a4.25,4.25,0,0,1-4.25-4.25V72.25Z" fill="#404f66"/>
      <path id="Trazado_102943" data-name="Trazado 102943" d="M60.888,79.134l-1.388.2L54.543,80.41,52.916,69.827l6.584-.411Z" fill="#e0e0de"/>
      <path id="Trazado_102944" data-name="Trazado 102944" d="M22.667,65.167h-8.5v12.75H21.25l8.529,1.218,1.388-9.718Z" fill="#fec9a3"/>
      <path id="Trazado_102945" data-name="Trazado 102945" d="M40.837,70.021l-.8,11.241-8.868-1.928-1.388-.2,1.388-9.718Z" fill="#e0e0de"/>
      <path id="Trazado_102946" data-name="Trazado 102946" d="M37.751,69.828l-.917,12.338,26.917,4.25h8.5a4.25,4.25,0,0,0,4.25-4.25V72.25Z" fill="#4d5e78"/>
      <g id="Grupo_55399" data-name="Grupo 55399">
        <path id="Trazado_102947" data-name="Trazado 102947" d="M53.833,40.652V32.583h-17v8.069A12.7,12.7,0,0,0,53.833,40.652Z" fill="#feb784"/>
        <path id="Trazado_102948" data-name="Trazado 102948" d="M58.083,18.417v8.5a4.25,4.25,0,1,0,0-8.5Z" fill="#feb784"/>
        <path id="Trazado_102949" data-name="Trazado 102949" d="M32.655,18.417h-.071a4.25,4.25,0,1,0,0,8.5v-8.5Z" fill="#feb784"/>
      </g>
      <path id="Trazado_102950" data-name="Trazado 102950" d="M58.083,17V28.333a12.751,12.751,0,0,1-12.671,12.75h-.079a12.751,12.751,0,0,1-12.75-12.749V17c0-7.041,5.709-11.333,12.75-11.333h.078a13.842,13.842,0,0,1,8.937,3.026A10.566,10.566,0,0,1,58.083,17Z" fill="#fec9a3"/>
      <path id="Trazado_102951" data-name="Trazado 102951" d="M58.083,17V28.333a12.751,12.751,0,0,1-12.671,12.75,14.747,14.747,0,0,0,6.1-11.957V17.622a14.744,14.744,0,0,0-6.1-11.955,13.842,13.842,0,0,1,8.937,3.026A10.566,10.566,0,0,1,58.083,17Z" fill="#fec093"/>
      <path id="Trazado_102952" data-name="Trazado 102952" d="M58.083,21.25V15.583c0-4.694-3.171-8.5-7.083-8.5l.249.9A35.594,35.594,0,0,0,58.083,21.25Z" fill="#6e3c24"/>
      <path id="Trazado_102953" data-name="Trazado 102953" d="M32.583,21.25V11.508A4.561,4.561,0,0,1,38.25,7.083v4.25S35.689,17.523,32.583,21.25Z" fill="#6e3c24"/>
      <path id="Trazado_102954" data-name="Trazado 102954" d="M38.25,11.333H58.083A7.083,7.083,0,0,0,51,4.25H45.09a9.673,9.673,0,0,0-6.84,2.833Z" fill="#7a432a"/>
      <path id="Trazado_102955" data-name="Trazado 102955" d="M46.322,4.25l-5.5,7.083h3.588l5.5-7.083Z" fill="#6e3c24"/>
      <path id="Trazado_102956" data-name="Trazado 102956" d="M56.282,6.655a7.066,7.066,0,0,0-2.289-1.721l-6.513,6.4h4.042Z" fill="#6e3c24"/>
      <path id="Trazado_102957" data-name="Trazado 102957" d="M20.832,46.888a9.919,9.919,0,0,0-8.082,9.751V82.167a5.672,5.672,0,0,0,5.667,5.667h8.5a1.468,1.468,0,0,0,.3-.032L42.45,84.485l21.078,3.331a1.3,1.3,0,0,0,.221.018h8.5a5.672,5.672,0,0,0,5.667-5.667V56.639a9.922,9.922,0,0,0-8.086-9.753L55.25,44.157V38.413A14.137,14.137,0,0,0,59.5,28.333h0A5.667,5.667,0,0,0,59.5,17V15.583a11.444,11.444,0,0,0-.471-3.21,1.4,1.4,0,0,0,.471-1.04,8.509,8.509,0,0,0-8.5-8.5H45.09a21.409,21.409,0,0,0-2.2.216l0,.008A11.188,11.188,0,0,0,37.78,5.6a5.92,5.92,0,0,0-6.613,5.907V17a5.667,5.667,0,1,0,0,11.333h0a14.135,14.135,0,0,0,4.25,10.079v5.745Zm24.5-4.388a14.108,14.108,0,0,0,7.083-1.914v3.727l-7.083,2.361L38.25,44.313V40.586A14.1,14.1,0,0,0,45.333,42.5Zm9.96,15.927,1.233,4.936-4.594,5.1-2.705.168,5.645-21.666,3.612.678,3.3,7.969-5.393,1.079a1.416,1.416,0,0,0-1.1,1.732Zm13.042,8.157h6.748v4.158L61.7,69.9Zm-35.95,4.329,3.851.24-.576,7.712-4.276-.93ZM35.2,57.325a1.417,1.417,0,0,0-.919-.631l-5.393-1.079,3.3-7.969,3.612-.678,5.645,21.665-2.708-.17-4.59-5.1,1.233-4.936a1.417,1.417,0,0,0-.178-1.1Zm5.317-3.488.57-.456v2.642Zm3.4,13.034V51.115l1.417-1.133,1.417,1.133V66.871l-.5,1.948H44.42Zm5.667-13.489.569.456-.569,2.186Zm1.352-2.548-2.683-2.147L51.8,47.5Zm-11.2,0L38.864,47.5l3.551,1.182ZM21.354,49.673l7.505-1.406-3.251,7.857a1.417,1.417,0,0,0,1.031,1.931l5.626,1.126-1.056,4.225A1.414,1.414,0,0,0,31.53,64.7l3.168,3.52-3.156-.2-3.209-1.6V62.333H25.5V65l-2.2-1.1a1.417,1.417,0,0,0-.634-.149H15.583V56.639a7.083,7.083,0,0,1,5.77-6.966Zm-5.77,16.91h6.748l7.288,3.644-1.045,7.3L21.45,76.514a1.389,1.389,0,0,0-.2-.014H15.583ZM26.765,85H18.417a2.837,2.837,0,0,1-2.833-2.833V79.333h5.566l14.3,2.383-.026.351a1.411,1.411,0,0,0,.3.981Zm48.319-2.833A2.837,2.837,0,0,1,72.25,85H63.861L38.337,80.97l.725-9.642,36.021,2.253Zm0-25.528V63.75H68a1.417,1.417,0,0,0-.634.15l-2.2,1.1V62.333H62.333v4.083l-3.209,1.6-3.155.2L59.136,64.7a1.414,1.414,0,0,0,.321-1.291L58.4,59.181l5.626-1.126a1.417,1.417,0,0,0,1.031-1.931l-3.252-7.857,7.5,1.4a7.086,7.086,0,0,1,5.772,6.967ZM56.191,12.75a8.54,8.54,0,0,1,.475,2.833v1.288A34.237,34.237,0,0,1,54.52,12.75Zm6.142,9.915A2.837,2.837,0,0,1,59.5,25.5V19.832A2.837,2.837,0,0,1,62.333,22.665ZM53,9.917,55.28,7.64c.009.011.018.023.027.034L53.681,9.345l1.635-1.658a5.634,5.634,0,0,1,1.17,2.229ZM52.912,6,49,9.917H45.448l3.4-4.25H51A5.633,5.633,0,0,1,52.912,6Zm-7.694-.335-3.4,4.25H39.667V7.7a8.317,8.317,0,0,1,5.422-2.032ZM34,11.508a3.15,3.15,0,0,1,2.833-3.131v2.667A55.528,55.528,0,0,1,34,16.669ZM28.333,22.665a2.847,2.847,0,0,1,2.833-2.826V25.5a2.837,2.837,0,0,1-2.833-2.833ZM34,28.333V21.745a46.261,46.261,0,0,0,5.179-8.995H51.425a36.054,36.054,0,0,0,5.242,8.976v6.608a11.333,11.333,0,1,1-22.667,0Z"/>
      <path id="Trazado_102958" data-name="Trazado 102958" d="M38.958,22.667a2.125,2.125,0,1,0-2.125-2.125,2.125,2.125,0,0,0,2.125,2.125Z"/>
      <path id="Trazado_102959" data-name="Trazado 102959" d="M51.708,22.667a2.125,2.125,0,1,0-2.125-2.125,2.125,2.125,0,0,0,2.125,2.125Z"/>
      <path id="Trazado_102960" data-name="Trazado 102960" d="M41.083,31.167H43.72a13.237,13.237,0,0,0,6.577-1.61L48.869,27.11a10.547,10.547,0,0,1-5.149,1.223H41.083Z"/>
      <path id="Trazado_102961" data-name="Trazado 102961" d="M42.5,76.5h2.833v2.833H42.5Z"/>
      <path id="Trazado_102962" data-name="Trazado 102962" d="M48.167,76.5H51v2.833H48.167Z"/>
    </g>
  </g>
</svg>
