<svg xmlns="http://www.w3.org/2000/svg" width="130" height="131" viewBox="0 0 130 131">
  <g id="Grupo_56521" data-name="Grupo 56521" transform="translate(-216 -17913)">
    <path id="Trazado_104830" data-name="Trazado 104830" d="M10,0H120a10,10,0,0,1,10,10V121a10,10,0,0,1-10,10H10A10,10,0,0,1,0,121V10A10,10,0,0,1,10,0Z" transform="translate(216 17913)" fill="#f3f9ff"/>
    <path id="Trazado_104829" data-name="Trazado 104829" d="M41.895-22.661q0,11.235-5.046,17.329T22.623.762Q13.368.762,8.3-5.37T3.237-22.661V-32.792q0-11.235,5.046-17.329t14.263-6.094q9.217,0,14.282,6.132t5.065,17.329ZM29.06-34.43q0-5.979-1.562-8.931a5.22,5.22,0,0,0-4.951-2.952,5.1,5.1,0,0,0-4.818,2.742q-1.5,2.742-1.619,8.3V-21.1q0,6.208,1.562,9.083a5.239,5.239,0,0,0,4.951,2.875,5.169,5.169,0,0,0,4.837-2.8q1.562-2.8,1.6-8.779ZM60.29-33.1h6.056q7.2,0,7.2-7.046a6.093,6.093,0,0,0-1.714-4.475,6.5,6.5,0,0,0-4.837-1.733,6.957,6.957,0,0,0-4.437,1.485,4.532,4.532,0,0,0-1.885,3.694H47.836a13.139,13.139,0,0,1,2.438-7.808,16.1,16.1,0,0,1,6.76-5.351,23.113,23.113,0,0,1,9.5-1.923q9.255,0,14.549,4.228a14.054,14.054,0,0,1,5.294,11.616,11.713,11.713,0,0,1-2.19,6.76,15.608,15.608,0,0,1-6.379,5.161,14.909,14.909,0,0,1,6.932,4.856,12.788,12.788,0,0,1,2.514,8.055A14.309,14.309,0,0,1,81.542-3.694Q75.829.762,66.536.762A24.592,24.592,0,0,1,56.424-1.314a15.843,15.843,0,0,1-7.065-5.751,14.952,14.952,0,0,1-2.4-8.36H59.871a5.779,5.779,0,0,0,2.057,4.418,7.261,7.261,0,0,0,5.065,1.866A7.605,7.605,0,0,0,72.4-11.026a6.3,6.3,0,0,0,2.019-4.818q0-4.189-2.095-5.941a8.757,8.757,0,0,0-5.789-1.752H60.29Z" transform="translate(236 18006)" fill="#17c878"/>
  </g>
</svg>
