<svg xmlns="http://www.w3.org/2000/svg" width="130" height="131" viewBox="0 0 130 131">
  <g id="Grupo_56520" data-name="Grupo 56520" transform="translate(-216 -17721)">
    <rect id="Rectángulo_5728" data-name="Rectángulo 5728" width="130" height="131" rx="10" transform="translate(216 17721)" fill="#f3f9ff"/>
    <path id="Trazado_104828" data-name="Trazado 104828" d="M41.895-22.661q0,11.235-5.046,17.329T22.623.762Q13.368.762,8.3-5.37T3.237-22.661V-32.792q0-11.235,5.046-17.329t14.263-6.094q9.217,0,14.282,6.132t5.065,17.329ZM29.06-34.43q0-5.979-1.562-8.931a5.22,5.22,0,0,0-4.951-2.952,5.1,5.1,0,0,0-4.818,2.742q-1.5,2.742-1.619,8.3V-21.1q0,6.208,1.562,9.083a5.239,5.239,0,0,0,4.951,2.875,5.169,5.169,0,0,0,4.837-2.8q1.562-2.8,1.6-8.779ZM87.255,0H48.56V-8.379L66.384-27.117q6.589-7.5,6.589-11.921a8.292,8.292,0,0,0-1.562-5.446,5.575,5.575,0,0,0-4.532-1.866,5.645,5.645,0,0,0-4.761,2.495,10.252,10.252,0,0,0-1.828,6.227H47.417a18.211,18.211,0,0,1,2.552-9.426,17.894,17.894,0,0,1,7.084-6.76,21.043,21.043,0,0,1,10.131-2.437q8.988,0,13.844,4.151t4.856,11.921A17.311,17.311,0,0,1,84.665-33.8a27.976,27.976,0,0,1-3.79,6.513,95.458,95.458,0,0,1-8.284,9.122L65.432-9.9H87.255Z" transform="translate(236 17818)" fill="#17c878"/>
  </g>
</svg>
