<svg xmlns="http://www.w3.org/2000/svg" width="88.801" height="118.48" viewBox="0 0 88.801 118.48">
  <g id="granjero_1_" data-name="granjero (1)" transform="translate(-64.128)">
    <path id="Trazado_101817" data-name="Trazado 101817" d="M166.573,339.189l-9.085-3.028h-37.1l-9.085,3.028a11.13,11.13,0,0,0-7.61,10.559v25.368h70.49V349.748A11.131,11.131,0,0,0,166.573,339.189Z" transform="translate(-30.41 -258.371)" fill="#ffdc64"/>
    <g id="Grupo_54657" data-name="Grupo 54657" transform="translate(86.268 77.79)">
      <path id="Trazado_101818" data-name="Trazado 101818" d="M167.225,336.161h-3.71L159.8,337.4v26.588h7.42Z" transform="translate(-159.805 -336.161)" fill="#a0d755"/>
      <path id="Trazado_101819" data-name="Trazado 101819" d="M320.129,336.161h3.71l3.71,1.237v26.588h-7.42Z" transform="translate(-283.029 -336.161)" fill="#a0d755"/>
    </g>
    <path id="Trazado_101820" data-name="Trazado 101820" d="M195.809,7.5H166.7a3.71,3.71,0,0,0-3.667,3.146l-3.226,20.969h44.52l-4.9-21.239A3.709,3.709,0,0,0,195.809,7.5Z" transform="translate(-73.537 -5.764)" fill="#ffdc64"/>
    <path id="Trazado_101821" data-name="Trazado 101821" d="M173.161,22.027,175.644,7.5H166.7a3.71,3.71,0,0,0-3.667,3.146l-3.226,20.969h44.52l-1.284-7.42H174.989A1.855,1.855,0,0,1,173.161,22.027Z" transform="translate(-73.537 -5.764)" fill="#ffc850"/>
    <path id="Trazado_101822" data-name="Trazado 101822" d="M177.34,127.742H125.4s-5.062,18.561-5.53,36.371a3.681,3.681,0,0,0,2.448,3.541,123.762,123.762,0,0,0,29.053,6.462,123.748,123.748,0,0,0,29.053-6.462,3.681,3.681,0,0,0,2.448-3.541C182.4,146.3,177.34,127.742,177.34,127.742Z" transform="translate(-42.842 -98.182)" fill="#9b735a"/>
    <g id="Grupo_54658" data-name="Grupo 54658" transform="translate(77.027 29.561)">
      <path id="Trazado_101823" data-name="Trazado 101823" d="M149.619,141.322h33.044a48.105,48.105,0,0,0,10.532-1.169c-.639-2.762-1.084-4.4-1.084-4.4h-51.94s-.446,1.635-1.084,4.4A48.1,48.1,0,0,0,149.619,141.322Z" transform="translate(-134.64 -133.902)" fill="#8c5f50"/>
      <path id="Trazado_101824" data-name="Trazado 101824" d="M179,168.155C176.2,140.168,155.082,129.6,155.082,129.6l-29.68-1.855s-5.062,18.561-5.53,36.371a3.681,3.681,0,0,0,2.448,3.541,123.762,123.762,0,0,0,29.053,6.462A124.921,124.921,0,0,0,179,168.155Z" transform="translate(-119.871 -127.743)" fill="#8c5f50"/>
    </g>
    <rect id="Rect치ngulo_5519" data-name="Rect치ngulo 5519" width="22.259" height="22.259" transform="translate(97.398 59.24)" fill="#f5af73"/>
    <path id="Trazado_101825" data-name="Trazado 101825" d="M219.032,277a23.839,23.839,0,0,0,11.13-2.767V264.016H207.9v10.218A23.839,23.839,0,0,0,219.032,277Z" transform="translate(-110.504 -202.921)" fill="#f5965f"/>
    <path id="Trazado_101826" data-name="Trazado 101826" d="M210.487,143.179h-1.855a3.71,3.71,0,0,1-3.71-3.71v-3.71h-37.1v16.695a20.392,20.392,0,0,0,40.744,1.3,3.644,3.644,0,0,0,2.666.473,3.894,3.894,0,0,0,2.965-3.872v-3.471A3.71,3.71,0,0,0,210.487,143.179Z" transform="translate(-79.698 -104.343)" fill="#f5c882"/>
    <path id="Trazado_101827" data-name="Trazado 101827" d="M188.227,135.161h16.695v-7.42h-37.1v18.55c.021-.012.045,1.317.066,1.3a20.346,20.346,0,0,0,24.068,18.75,20.4,20.4,0,0,1-16.714-20.055h0C175.242,139.12,181.055,135.161,188.227,135.161Z" transform="translate(-79.698 -98.181)" fill="#f5af73"/>
    <path id="Trazado_101828" data-name="Trazado 101828" d="M222.108,223.935a1.866,1.866,0,0,0-1.595,2.822,9.276,9.276,0,0,0,16.02,0,1.866,1.866,0,0,0-1.595-2.822H222.108Z" transform="translate(-119.995 -172.115)" fill="#fff"/>
    <g id="Grupo_54659" data-name="Grupo 54659" transform="translate(89.978 71.786)">
      <path id="Trazado_101829" data-name="Trazado 101829" d="M184.352,310.9l10.035,7.168-6.682,5.346a3.71,3.71,0,0,1-4.941-.274l-6.927-6.927,3.39-4.52A3.71,3.71,0,0,1,184.352,310.9Z" transform="translate(-175.837 -310.214)" fill="#fff082"/>
      <path id="Trazado_101830" data-name="Trazado 101830" d="M266.036,310.9,256,318.073l6.682,5.346a3.71,3.71,0,0,0,4.941-.273l6.927-6.927-3.39-4.52A3.71,3.71,0,0,0,266.036,310.9Z" transform="translate(-237.45 -310.214)" fill="#fff082"/>
    </g>
    <path id="Trazado_101831" data-name="Trazado 101831" d="M149.515,127.742H125.4s-5.062,18.559-5.53,36.369a3.676,3.676,0,0,0,2.441,3.539q.638.231,1.426.5C126.543,140.168,149.515,127.742,149.515,127.742Z" transform="translate(-42.842 -98.182)" fill="#9b735a"/>
    <path id="Trazado_101832" data-name="Trazado 101832" d="M139.089,140.155a48.1,48.1,0,0,0,10.532,1.169H156.7a46.127,46.127,0,0,1,7.592-5.565H140.173S139.727,137.394,139.089,140.155Z" transform="translate(-57.615 -104.343)" fill="#8c5f50"/>
    <path id="Trazado_101833" data-name="Trazado 101833" d="M142.247,111.113H109.2a44.52,44.52,0,0,1-18.081-3.837l-4.068-1.808a.928.928,0,0,1,.377-1.775H164.02a.928.928,0,0,1,.377,1.775l-4.068,1.808A44.519,44.519,0,0,1,142.247,111.113Z" transform="translate(-17.197 -79.698)" fill="#e1a546"/>
    <g id="Grupo_54660" data-name="Grupo 54660" transform="translate(73.284 79.027)">
      <path id="Trazado_101834" data-name="Trazado 101834" d="M116.678,341.506,111.3,343.3a11.13,11.13,0,0,0-7.61,10.559v25.368h12.985V341.506Z" transform="translate(-103.693 -341.506)" fill="#ffc850"/>
      <path id="Trazado_101835" data-name="Trazado 101835" d="M352.193,341.506l5.374,1.792a11.13,11.13,0,0,1,7.61,10.559v25.368H352.193V341.506Z" transform="translate(-294.688 -341.506)" fill="#ffc850"/>
    </g>
    <g id="Grupo_54661" data-name="Grupo 54661" transform="translate(80.703 96.34)">
      <path id="Trazado_101836" data-name="Trazado 101836" d="M141.322,436.728h-5.565V420.033a3.71,3.71,0,0,1,3.71-3.71h1.855Z" transform="translate(-135.757 -416.323)" fill="#e1a546"/>
      <path id="Trazado_101837" data-name="Trazado 101837" d="M357.759,436.728h-5.565v-20.4h1.855a3.71,3.71,0,0,1,3.71,3.71Z" transform="translate(-302.109 -416.323)" fill="#e1a546"/>
    </g>
    <rect id="Rect치ngulo_5520" data-name="Rect치ngulo 5520" width="44.52" height="14.84" transform="translate(86.269 101.905)" fill="#b4e66e"/>
    <path id="Trazado_101838" data-name="Trazado 101838" d="M210.155,173.664a1.735,1.735,0,0,0,1.736-1.736v-1.855a1.736,1.736,0,0,0-3.471,0v1.855A1.735,1.735,0,0,0,210.155,173.664Z" transform="translate(-110.901 -129.383)"/>
    <path id="Trazado_101839" data-name="Trazado 101839" d="M290.317,173.664a1.735,1.735,0,0,0,1.736-1.736v-1.855a1.736,1.736,0,1,0-3.471,0v1.855A1.735,1.735,0,0,0,290.317,173.664Z" transform="translate(-172.513 -129.383)"/>
    <path id="Trazado_101840" data-name="Trazado 101840" d="M213.221,218.237a3.585,3.585,0,0,0,.018,3.632,11.011,11.011,0,0,0,19.017,0,3.585,3.585,0,0,0,.018-3.632,3.548,3.548,0,0,0-3.111-1.8H216.332A3.549,3.549,0,0,0,213.221,218.237Zm3.011,1.727a.1.1,0,0,1,.1-.057h12.831a.1.1,0,0,1,.1.057.139.139,0,0,1,0,.152,7.54,7.54,0,0,1-13.024,0A.139.139,0,0,1,216.232,219.965Z" transform="translate(-114.219 -166.351)"/>
    <path id="Trazado_101841" data-name="Trazado 101841" d="M186.156,464.936h-.019a1.745,1.745,0,1,0,.019,0Z" transform="translate(-92.449 -357.347)"/>
    <path id="Trazado_101842" data-name="Trazado 101842" d="M314.285,464.936a1.736,1.736,0,1,0,0,3.471h.018a1.736,1.736,0,0,0-.018-3.471Z" transform="translate(-190.935 -357.347)"/>
    <path id="Trazado_101843" data-name="Trazado 101843" d="M152.891,23.635a1.735,1.735,0,0,0-1.7-1.375h-19.05L127.961,5.53A7.29,7.29,0,0,0,120.878,0H94.693a7.278,7.278,0,0,0-7.2,6.1L84.8,22.26H65.864a1.735,1.735,0,0,0-.7,3.321l8.062,3.583a46.33,46.33,0,0,0,7.438,2.575c-1.085,3.841-5.4,20.168-5.4,36.776a1.735,1.735,0,0,0,.959,1.552,64.911,64.911,0,0,0,14.019,4.486l-1.321,1.761-8.57,2.857a12.85,12.85,0,0,0-8.8,12.205v25.368a1.736,1.736,0,1,0,3.471,0V91.377a9.383,9.383,0,0,1,6.424-8.912l3.09-1.03v35.31a1.736,1.736,0,0,0,3.471,0v-13.1h24.234a1.736,1.736,0,1,0,0-3.471H95.424V85.69l.254.254a5.44,5.44,0,0,0,7.252.4l3.862-3.09V94.485a1.736,1.736,0,0,0,3.471,0V83.256l3.862,3.09a5.44,5.44,0,0,0,7.252-.4l.254-.254V100.17h-1.974a1.736,1.736,0,0,0,0,3.471h9.394v13.1a1.736,1.736,0,1,0,3.471,0V81.435l3.09,1.03a9.382,9.382,0,0,1,6.424,8.912v25.368a1.736,1.736,0,0,0,3.471,0V91.377a12.849,12.849,0,0,0-8.8-12.205l-8.57-2.857-1.321-1.761a64.881,64.881,0,0,0,14.019-4.486,1.736,1.736,0,0,0,.959-1.552c0-16.608-4.316-32.935-5.4-36.776a46.338,46.338,0,0,0,7.438-2.575l8.062-3.583A1.736,1.736,0,0,0,152.891,23.635ZM90.915,6.671a3.817,3.817,0,0,1,3.777-3.2h26.186a3.824,3.824,0,0,1,3.715,2.9l3.972,15.888H88.317ZM84.062,32.466a46.323,46.323,0,0,0,7.944.685h6.567A48.734,48.734,0,0,0,82.828,52.97,1.736,1.736,0,1,0,86,54.38q.41-.922.843-1.8a22.187,22.187,0,0,0,8.82,13.533V70.11a5.462,5.462,0,0,0-3.027,1.4,71.746,71.746,0,0,1-13.9-4.11C78.93,51.453,83.182,35.585,84.062,32.466Zm39.426.685v.12a7.309,7.309,0,0,0,7.3,7.3,1.977,1.977,0,0,1,1.974,1.974v3.446a2.2,2.2,0,0,1-1.576,2.2,1.872,1.872,0,0,1-.518.039v-.115a1.736,1.736,0,1,0-3.471,0,18.669,18.669,0,1,1-37.338,0c0-.224.008-.5.008-.784a41.742,41.742,0,0,1,15.339-14.175h18.283Zm-5.565,37.678c-.124.074-.248.15-.367.235l-9.027,6.447L99.5,71.065c-.12-.086-.243-.161-.368-.236V68.156a22.1,22.1,0,0,0,18.789,0v2.676Zm-25.97,29.34H88V80.278l1.506-.5,2.443,2.443v17.95h0Zm8.809-16.534a1.973,1.973,0,0,1-2.63-.146L92.27,77.627l2.487-3.316a1.986,1.986,0,0,1,2.727-.422l8.168,5.834Zm18.162-.146a1.972,1.972,0,0,1-2.63.146l-4.89-3.912,8.168-5.834a1.986,1.986,0,0,1,2.727.422l2.487,3.316Zm10.129,16.68H125.1V82.219l2.443-2.443,1.506.5v19.892h0Zm-4.632-28.661a5.463,5.463,0,0,0-3.027-1.4V66.119a22.169,22.169,0,0,0,8.986-14.433,5.352,5.352,0,0,0,1.533-.105,5.608,5.608,0,0,0,4.281-4.938A129.4,129.4,0,0,1,138.321,67.4,71.756,71.756,0,0,1,124.421,71.509Zm10.131-32.892a5.425,5.425,0,0,0-3.764-1.516,3.834,3.834,0,0,1-3.829-3.829v-.162a46.115,46.115,0,0,0,6.036-.643C133.266,33.428,133.858,35.6,134.553,38.616Zm7.874-12.624a42.521,42.521,0,0,1-17.376,3.687H92.007A42.517,42.517,0,0,1,74.63,25.992l-.588-.261h68.973Z"/>
  </g>
</svg>
