<svg xmlns="http://www.w3.org/2000/svg" xmlns:xlink="http://www.w3.org/1999/xlink" width="85" height="85" viewBox="0 0 85 85">
  <defs>
    <clipPath id="clip-path">
      <rect id="Rectángulo_5449" data-name="Rectángulo 5449" width="85" height="85" transform="translate(285 1098)" fill="#fff" stroke="#707070" stroke-width="1"/>
    </clipPath>
  </defs>
  <g id="Enmascarar_grupo_53" data-name="Enmascarar grupo 53" transform="translate(-285 -1098)" clip-path="url(#clip-path)">
    <g id="analista-de-la-red" transform="translate(282.167 1095.167)">
      <path id="Trazado_102991" data-name="Trazado 102991" d="M86.417,75.324v8l-4.122-4.122-9.9-9.9a21.337,21.337,0,0,0,4-4Z" fill="#ff9478"/>
      <path id="Trazado_102992" data-name="Trazado 102992" d="M86.417,7.083V12.75H4.25V7.083A2.842,2.842,0,0,1,7.083,4.25h76.5a2.842,2.842,0,0,1,2.833,2.833Z" fill="#ffeb99"/>
      <path id="Trazado_102993" data-name="Trazado 102993" d="M86.417,75.324V12.75H4.25V83.583a2.842,2.842,0,0,0,2.833,2.833h76.5a2.842,2.842,0,0,0,2.833-2.833v-.255l-4.122-4.122-9.9-9.9A21.324,21.324,0,0,1,68,71.9v7.438H31.167V39.667h8.5v5.114a21.209,21.209,0,0,1,5.667-8.188V25.5h8.5v6.432a21.37,21.37,0,0,1,5.667-.765V19.833H68V32.952a21.23,21.23,0,0,1,8.387,32.357ZM17,79.333v-25.5h8.5v25.5Z" fill="#57a4ff"/>
      <path id="Trazado_102994" data-name="Trazado 102994" d="M68,71.9A21.29,21.29,0,0,1,39.667,60.052v-.014a21.21,21.21,0,0,1,0-15.243v-.014A21.261,21.261,0,0,1,68,32.938v.014A21.26,21.26,0,0,1,68,71.9Zm7.083-19.479A15.583,15.583,0,1,0,59.5,68,15.583,15.583,0,0,0,75.083,52.417Z" fill="#ffeb99"/>
      <circle id="Elipse_4166" data-name="Elipse 4166" cx="15.583" cy="15.583" r="15.583" transform="translate(43.917 36.833)" fill="#ff9478"/>
      <path id="Trazado_102995" data-name="Trazado 102995" d="M68,71.9v7.438H59.5V73.667A21.279,21.279,0,0,0,68,71.9Z" fill="#009698"/>
      <path id="Trazado_102996" data-name="Trazado 102996" d="M68,19.833v13.1a21.277,21.277,0,0,0-8.5-1.771V19.833Z" fill="#009698"/>
      <path id="Trazado_102997" data-name="Trazado 102997" d="M59.5,73.667v5.667H53.833V72.9A21.37,21.37,0,0,0,59.5,73.667Z" fill="#57a4ff"/>
      <path id="Trazado_102998" data-name="Trazado 102998" d="M53.833,72.9v6.432h-8.5V68.241a21.079,21.079,0,0,0,8.5,4.661Z" fill="#00d7df"/>
      <path id="Trazado_102999" data-name="Trazado 102999" d="M53.833,25.5v6.432a21.079,21.079,0,0,0-8.5,4.661V25.5Z" fill="#00d7df"/>
      <path id="Trazado_103000" data-name="Trazado 103000" d="M45.333,68.241V79.333H39.667V60.052A21.209,21.209,0,0,0,45.333,68.241Z" fill="#57a4ff"/>
      <path id="Trazado_103001" data-name="Trazado 103001" d="M39.667,60.052V79.333h-8.5V39.667h8.5v5.128a21.21,21.21,0,0,0,0,15.243Z" fill="#009698"/>
      <path id="Trazado_103002" data-name="Trazado 103002" d="M17,53.833h8.5v25.5H17Z" fill="#00d7df"/>
      <path id="Trazado_103003" data-name="Trazado 103003" d="M83.583,2.833H7.083a4.25,4.25,0,0,0-4.25,4.25v76.5a4.25,4.25,0,0,0,4.25,4.25h76.5a4.25,4.25,0,0,0,4.25-4.25V7.083a4.25,4.25,0,0,0-4.25-4.25ZM74.477,69.385a23.185,23.185,0,0,0,1.992-1.992L85,75.912v4ZM55.25,77.917V74.67a22.463,22.463,0,0,0,2.833.341v2.906Zm-14.167,0V65.58a22.95,22.95,0,0,0,2.833,3.258v9.078ZM38.25,44.6a22.253,22.253,0,0,0,0,15.626V77.917H32.583V41.083H38.25ZM52.417,30.9a22.6,22.6,0,0,0-5.667,2.792V26.917h5.667ZM59.5,32.583A19.833,19.833,0,1,1,39.667,52.417,19.833,19.833,0,0,1,59.5,32.583ZM66.583,30.9a22.525,22.525,0,0,0-5.667-1.077V21.25h5.667ZM46.75,71.142a22.6,22.6,0,0,0,5.667,2.792v3.982H46.75Zm14.167,3.869a22.524,22.524,0,0,0,5.667-1.077v3.982H60.917Zm8.5-2.244a22.8,22.8,0,0,0,2.821-1.615L79,77.917H69.417ZM7.083,5.667h76.5A1.417,1.417,0,0,1,85,7.083v4.25H5.667V7.083A1.417,1.417,0,0,1,7.083,5.667ZM83.583,85H7.083a1.417,1.417,0,0,1-1.417-1.417V14.167H85v57.74l-6.763-6.755a22.611,22.611,0,0,0-8.82-33.086V19.833A1.417,1.417,0,0,0,68,18.417H59.5a1.417,1.417,0,0,0-1.417,1.417v9.989a22.463,22.463,0,0,0-2.833.341V25.5a1.417,1.417,0,0,0-1.417-1.417h-8.5A1.417,1.417,0,0,0,43.917,25.5V36a22.779,22.779,0,0,0-2.9,3.342,1.4,1.4,0,0,0-1.352-1.091h-8.5a1.417,1.417,0,0,0-1.417,1.417v38.25H26.917V53.833A1.417,1.417,0,0,0,25.5,52.417H17a1.417,1.417,0,0,0-1.417,1.417V77.917H12.75V17H9.917V79.333a1.417,1.417,0,0,0,1.417,1.417h70.5l3.117,3.117A1.4,1.4,0,0,1,83.583,85Zm-59.5-7.083H18.417V55.25h5.667Z"/>
      <path id="Trazado_103004" data-name="Trazado 103004" d="M8.5,7.083h2.833V9.917H8.5Z"/>
      <path id="Trazado_103005" data-name="Trazado 103005" d="M14.167,7.083H17V9.917H14.167Z"/>
      <path id="Trazado_103006" data-name="Trazado 103006" d="M19.833,7.083h2.833V9.917H19.833Z"/>
      <path id="Trazado_103007" data-name="Trazado 103007" d="M59.5,69.417a17,17,0,1,0-17-17A17,17,0,0,0,59.5,69.417Zm0-31.167A14.167,14.167,0,1,1,45.333,52.417,14.167,14.167,0,0,1,59.5,38.25Z"/>
    </g>
  </g>
</svg>
