<svg xmlns="http://www.w3.org/2000/svg" xmlns:xlink="http://www.w3.org/1999/xlink" width="85" height="85" viewBox="0 0 85 85">
  <defs>
    <clipPath id="clip-path">
      <rect id="Rectángulo_5442" data-name="Rectángulo 5442" width="85" height="85" transform="translate(285 832)" fill="#fff" stroke="#707070" stroke-width="1"/>
    </clipPath>
  </defs>
  <g id="Enmascarar_grupo_51" data-name="Enmascarar grupo 51" transform="translate(-285 -832)" clip-path="url(#clip-path)">
    <g id="atencion" transform="translate(285 834.905)">
      <path id="Trazado_102963" data-name="Trazado 102963" d="M82.522,63.182,51.228,6.4a9.962,9.962,0,0,0-17.456,0L2.478,63.182a9.962,9.962,0,0,0,8.728,14.762H73.794a9.962,9.962,0,0,0,8.728-14.762Zm0,0" fill="#41494e"/>
      <path id="Trazado_102964" data-name="Trazado 102964" d="M78.16,65.587,46.866,8.809A4.976,4.976,0,0,0,40.01,6.9a5,5,0,0,1,1.876,1.914L68.813,72.964h4.98a4.986,4.986,0,0,0,4.98-4.98,4.9,4.9,0,0,0-.614-2.4Zm0,0" fill="#ffa433"/>
      <path id="Trazado_102965" data-name="Trazado 102965" d="M73.794,67.983a4.9,4.9,0,0,0-.614-2.4L41.886,8.809A5,5,0,0,0,40.01,6.9a5,5,0,0,0-1.876,1.914L6.84,65.587a4.9,4.9,0,0,0-.614,2.4,4.986,4.986,0,0,0,4.98,4.98H68.813a4.986,4.986,0,0,0,4.98-4.98Zm0,0" fill="#ffc43b"/>
      <path id="Trazado_102966" data-name="Trazado 102966" d="M44.99,60.513a2.49,2.49,0,1,1-2.49-2.49A2.49,2.49,0,0,1,44.99,60.513Zm0,0" fill="#41494e"/>
      <path id="Trazado_102967" data-name="Trazado 102967" d="M42.5,28.14a2.49,2.49,0,0,0-2.49,2.49V50.552a2.49,2.49,0,0,0,4.98,0V30.63A2.49,2.49,0,0,0,42.5,28.14Zm0,0" fill="#41494e"/>
      <path id="Trazado_102968" data-name="Trazado 102968" d="M83.613,62.581,52.319,5.8a11.207,11.207,0,0,0-19.637,0L1.388,62.581a11.206,11.206,0,0,0,9.818,16.608H73.794a11.207,11.207,0,0,0,9.819-16.608ZM73.794,76.7H11.206A8.716,8.716,0,0,1,3.569,63.783L34.863,7.006a8.717,8.717,0,0,1,15.275,0L81.432,63.783A8.717,8.717,0,0,1,73.794,76.7Zm0,0"/>
      <path id="Trazado_102969" data-name="Trazado 102969" d="M47.957,8.208a6.227,6.227,0,0,0-10.914,0L22.6,34.416a1.245,1.245,0,0,0,2.181,1.2L39.224,9.41a3.737,3.737,0,0,1,6.552,0L77.069,66.188a3.669,3.669,0,0,1,.46,1.8,3.74,3.74,0,0,1-3.735,3.735H11.206a3.74,3.74,0,0,1-3.735-3.735,3.677,3.677,0,0,1,.459-1.8L22.375,39.98a1.245,1.245,0,0,0-2.181-1.2L5.749,64.986a6.141,6.141,0,0,0-.768,3,6.232,6.232,0,0,0,6.226,6.226H73.794a6.232,6.232,0,0,0,6.226-6.226,6.137,6.137,0,0,0-.769-3Zm0,0"/>
      <path id="Trazado_102970" data-name="Trazado 102970" d="M42.5,64.248a3.735,3.735,0,1,0-3.735-3.735A3.74,3.74,0,0,0,42.5,64.248Zm0-4.98a1.245,1.245,0,1,1-1.245,1.245A1.246,1.246,0,0,1,42.5,59.268Zm0,0"/>
      <path id="Trazado_102971" data-name="Trazado 102971" d="M42.5,54.287a3.74,3.74,0,0,0,3.735-3.735V30.63a3.735,3.735,0,1,0-7.471,0V50.552A3.74,3.74,0,0,0,42.5,54.287ZM41.255,30.63a1.245,1.245,0,1,1,2.49,0V50.552a1.245,1.245,0,0,1-2.49,0Zm0,0"/>
    </g>
  </g>
</svg>
