<svg xmlns="http://www.w3.org/2000/svg" width="360" height="222" viewBox="0 0 360 222">
  <g id="Grupo_56526" data-name="Grupo 56526" transform="translate(-535 -1257)">
    <rect id="Rectángulo_5506" data-name="Rectángulo 5506" width="360" height="222" rx="20" transform="translate(535 1257)" fill="#f1d54e"/>
    <g id="Grupo_55872" data-name="Grupo 55872" transform="translate(493.469 1224.868)">
      <g id="Background_Complete" data-name="Background Complete" transform="translate(95.784 64.868)">
        <g id="Grupo_55650" data-name="Grupo 55650" transform="translate(0 21.67)">
          <g id="Grupo_55636" data-name="Grupo 55636">
            <rect id="Rectángulo_5756" data-name="Rectángulo 5756" width="59.78" height="88.024" transform="matrix(0.831, -0.556, 0.556, 0.831, 0, 33.235)" fill="#f5f5f5"/>
          </g>
          <g id="Grupo_55639" data-name="Grupo 55639" transform="translate(47.692 57.247)">
            <g id="Grupo_55637" data-name="Grupo 55637" transform="translate(0 8.891)">
              <path id="Trazado_103368" data-name="Trazado 103368" d="M240.633,275.182l-.564,3.49-24.7-3.559.564-3.49Z" transform="translate(-215.368 -271.624)" fill="#e0e0e0"/>
            </g>
            <g id="Grupo_55638" data-name="Grupo 55638" transform="translate(8.895)">
              <path id="Trazado_103369" data-name="Trazado 103369" d="M239.385,251.546l3.545.511L239,276.377l-3.545-.511Z" transform="translate(-235.454 -251.546)" fill="#e0e0e0"/>
            </g>
          </g>
          <g id="Grupo_55641" data-name="Grupo 55641" transform="translate(15.394 26.335)">
            <g id="Grupo_55640" data-name="Grupo 55640">
              <path id="Trazado_103370" data-name="Trazado 103370" d="M164.807,181.744c.035.053-4.944,3.446-11.121,7.577s-11.215,7.439-11.25,7.386,4.943-3.445,11.122-7.578S164.771,181.692,164.807,181.744Z" transform="translate(-142.436 -181.744)" fill="#e0e0e0"/>
            </g>
          </g>
          <g id="Grupo_55643" data-name="Grupo 55643" transform="translate(18.922 21.748)">
            <g id="Grupo_55642" data-name="Grupo 55642">
              <path id="Trazado_103371" data-name="Trazado 103371" d="M187.519,171.387c.035.053-8.245,5.654-18.493,12.508s-18.588,12.371-18.623,12.317,8.244-5.652,18.5-12.509S187.484,171.333,187.519,171.387Z" transform="translate(-150.403 -171.386)" fill="#e0e0e0"/>
            </g>
          </g>
          <g id="Grupo_55645" data-name="Grupo 55645" transform="translate(22.585 27.225)">
            <g id="Grupo_55644" data-name="Grupo 55644">
              <path id="Trazado_103372" data-name="Trazado 103372" d="M195.791,183.753c.035.053-8.245,5.654-18.493,12.508s-18.588,12.37-18.623,12.317,8.244-5.652,18.495-12.509S195.755,183.7,195.791,183.753Z" transform="translate(-158.675 -183.752)" fill="#e0e0e0"/>
            </g>
          </g>
          <g id="Grupo_55647" data-name="Grupo 55647" transform="translate(26.248 32.701)">
            <g id="Grupo_55646" data-name="Grupo 55646">
              <path id="Trazado_103373" data-name="Trazado 103373" d="M204.062,196.12c.035.053-8.245,5.653-18.493,12.508S166.981,221,166.946,220.945s8.244-5.652,18.495-12.509S204.026,196.066,204.062,196.12Z" transform="translate(-166.946 -196.119)" fill="#e0e0e0"/>
            </g>
          </g>
          <g id="Grupo_55649" data-name="Grupo 55649" transform="translate(29.911 38.178)">
            <g id="Grupo_55648" data-name="Grupo 55648">
              <path id="Trazado_103374" data-name="Trazado 103374" d="M212.333,208.486c.035.053-8.245,5.654-18.493,12.508s-18.588,12.371-18.623,12.317,8.244-5.652,18.5-12.509S212.3,208.433,212.333,208.486Z" transform="translate(-175.217 -208.485)" fill="#e0e0e0"/>
            </g>
          </g>
        </g>
        <g id="Grupo_55665" data-name="Grupo 55665" transform="translate(174.113 70.706)">
          <g id="Grupo_55651" data-name="Grupo 55651">
            <rect id="Rectángulo_5757" data-name="Rectángulo 5757" width="50.205" height="73.925" transform="translate(0 27.912) rotate(-33.777)" fill="#f5f5f5"/>
          </g>
          <g id="Grupo_55654" data-name="Grupo 55654" transform="translate(40.053 48.078)">
            <g id="Grupo_55652" data-name="Grupo 55652" transform="translate(0 7.467)">
              <path id="Trazado_103375" data-name="Trazado 103375" d="M612.5,361.42l-.474,2.931-20.745-2.988.474-2.931Z" transform="translate(-591.285 -358.431)" fill="#e0e0e0"/>
            </g>
            <g id="Grupo_55653" data-name="Grupo 55653" transform="translate(7.471)">
              <path id="Trazado_103376" data-name="Trazado 103376" d="M611.455,341.569l2.977.429-3.3,20.425-2.977-.429Z" transform="translate(-608.155 -341.569)" fill="#e0e0e0"/>
            </g>
          </g>
          <g id="Grupo_55656" data-name="Grupo 55656" transform="translate(12.928 22.117)">
            <g id="Grupo_55655" data-name="Grupo 55655">
              <path id="Trazado_103377" data-name="Trazado 103377" d="M548.823,282.947c.035.053-4.142,2.909-9.329,6.379s-9.423,6.241-9.458,6.187,4.141-2.908,9.33-6.379S548.787,282.894,548.823,282.947Z" transform="translate(-530.034 -282.946)" fill="#e0e0e0"/>
            </g>
          </g>
          <g id="Grupo_55658" data-name="Grupo 55658" transform="translate(15.891 18.265)">
            <g id="Grupo_55657" data-name="Grupo 55657">
              <path id="Trazado_103378" data-name="Trazado 103378" d="M567.9,274.248c.035.053-6.914,4.764-15.521,10.52S536.761,295.15,536.726,295.1s6.913-4.762,15.522-10.521S567.862,274.2,567.9,274.248Z" transform="translate(-536.726 -274.248)" fill="#e0e0e0"/>
            </g>
          </g>
          <g id="Grupo_55660" data-name="Grupo 55660" transform="translate(18.968 22.864)">
            <g id="Grupo_55659" data-name="Grupo 55659">
              <path id="Trazado_103379" data-name="Trazado 103379" d="M574.844,284.634c.035.053-6.915,4.763-15.521,10.52s-15.615,10.382-15.65,10.329,6.913-4.762,15.522-10.521S574.809,284.581,574.844,284.634Z" transform="translate(-543.673 -284.634)" fill="#e0e0e0"/>
            </g>
          </g>
          <g id="Grupo_55662" data-name="Grupo 55662" transform="translate(22.044 27.463)">
            <g id="Grupo_55661" data-name="Grupo 55661">
              <path id="Trazado_103380" data-name="Trazado 103380" d="M581.79,295.019c.035.053-6.914,4.764-15.52,10.52s-15.615,10.382-15.651,10.329,6.913-4.762,15.522-10.521S581.755,294.967,581.79,295.019Z" transform="translate(-550.619 -295.019)" fill="#e0e0e0"/>
            </g>
          </g>
          <g id="Grupo_55664" data-name="Grupo 55664" transform="translate(25.12 32.063)">
            <g id="Grupo_55663" data-name="Grupo 55663">
              <path id="Trazado_103381" data-name="Trazado 103381" d="M588.737,305.405c.035.053-6.915,4.763-15.521,10.52s-15.615,10.382-15.65,10.329,6.913-4.762,15.522-10.521S588.7,305.353,588.737,305.405Z" transform="translate(-557.566 -305.405)" fill="#e0e0e0"/>
            </g>
          </g>
        </g>
        <g id="Grupo_55680" data-name="Grupo 55680" transform="translate(68.434)">
          <g id="Grupo_55666" data-name="Grupo 55666">
            <rect id="Rectángulo_5758" data-name="Rectángulo 5758" width="51.636" height="76.032" transform="matrix(0.882, 0.472, -0.472, 0.882, 35.857, 0)" fill="#f5f5f5"/>
          </g>
          <g id="Grupo_55669" data-name="Grupo 55669" transform="translate(22.036 50.153)">
            <g id="Grupo_55667" data-name="Grupo 55667" transform="translate(5.481)">
              <path id="Trazado_103382" data-name="Trazado 103382" d="M334.563,206.865l-2.889.989-7.333-20.271,2.889-.989Z" transform="translate(-324.341 -186.594)" fill="#e0e0e0"/>
            </g>
            <g id="Grupo_55668" data-name="Grupo 55668" transform="translate(0 5.728)">
              <path id="Trazado_103383" data-name="Trazado 103383" d="M332.1,199.529l1.052,2.909-20.131,6.895-1.052-2.909Z" transform="translate(-311.964 -199.529)" fill="#e0e0e0"/>
            </g>
          </g>
          <g id="Grupo_55671" data-name="Grupo 55671" transform="translate(35.972 15.009)">
            <g id="Grupo_55670" data-name="Grupo 55670">
              <path id="Trazado_103384" data-name="Trazado 103384" d="M363.933,118.2c-.035.067-4.654-2.333-10.313-5.361s-10.221-5.536-10.186-5.6,4.653,2.333,10.315,5.361S363.969,118.132,363.933,118.2Z" transform="translate(-343.434 -107.234)" fill="#e0e0e0"/>
            </g>
          </g>
          <g id="Grupo_55673" data-name="Grupo 55673" transform="translate(33.387 19.843)">
            <g id="Grupo_55672" data-name="Grupo 55672">
              <path id="Trazado_103385" data-name="Trazado 103385" d="M371.607,136.341c-.035.066-7.678-3.952-17.069-8.974s-16.977-9.149-16.942-9.216,7.677,3.951,17.07,8.974S371.643,136.275,371.607,136.341Z" transform="translate(-337.597 -118.151)" fill="#e0e0e0"/>
            </g>
          </g>
          <g id="Grupo_55675" data-name="Grupo 55675" transform="translate(30.703 24.861)">
            <g id="Grupo_55674" data-name="Grupo 55674">
              <path id="Trazado_103386" data-name="Trazado 103386" d="M365.547,147.673c-.036.066-7.679-3.952-17.07-8.974s-16.977-9.149-16.942-9.216,7.677,3.951,17.071,8.975S365.582,147.606,365.547,147.673Z" transform="translate(-331.536 -129.482)" fill="#e0e0e0"/>
            </g>
          </g>
          <g id="Grupo_55677" data-name="Grupo 55677" transform="translate(28.019 29.88)">
            <g id="Grupo_55676" data-name="Grupo 55676">
              <path id="Trazado_103387" data-name="Trazado 103387" d="M359.487,159c-.035.067-7.678-3.952-17.069-8.973s-16.977-9.149-16.942-9.216,7.677,3.951,17.071,8.975S359.522,158.938,359.487,159Z" transform="translate(-325.476 -140.814)" fill="#e0e0e0"/>
            </g>
          </g>
          <g id="Grupo_55679" data-name="Grupo 55679" transform="translate(25.335 34.898)">
            <g id="Grupo_55678" data-name="Grupo 55678">
              <path id="Trazado_103388" data-name="Trazado 103388" d="M353.426,170.336c-.036.067-7.679-3.952-17.069-8.973s-16.977-9.149-16.942-9.216,7.677,3.951,17.071,8.975S353.461,170.27,353.426,170.336Z" transform="translate(-319.415 -152.146)" fill="#e0e0e0"/>
            </g>
          </g>
        </g>
      </g>
      <g id="Floor" transform="translate(86.334 227.05)">
        <g id="Grupo_55682" data-name="Grupo 55682">
          <g id="Grupo_55681" data-name="Grupo 55681">
            <path id="Trazado_103389" data-name="Trazado 103389" d="M342,439.683c0,.064-57.238.116-127.829.116-70.615,0-127.841-.052-127.841-.116s57.226-.115,127.841-.115C284.766,439.568,342,439.62,342,439.683Z" transform="translate(-86.334 -439.568)" fill="#263238"/>
          </g>
        </g>
      </g>
      <g id="Plant" transform="translate(95.785 199.431)">
        <g id="Grupo_55692" data-name="Grupo 55692" transform="translate(0 0)">
          <g id="Grupo_55683" data-name="Grupo 55683" transform="translate(3.062)">
            <path id="Trazado_103390" data-name="Trazado 103390" d="M116.226,377.2a5.582,5.582,0,0,1,3.89,1.992,9.855,9.855,0,0,1,1.98,3.991,17.388,17.388,0,0,1-.51,8.892c-3.031-1.084-4.9-4.317-5.746-6.017-1.336-2.686-2.119-8.353.386-8.858" transform="translate(-114.589 -377.201)" fill="#17c878"/>
          </g>
          <g id="Grupo_55684" data-name="Grupo 55684" transform="translate(13.665 10.238)">
            <path id="Trazado_103391" data-name="Trazado 103391" d="M139.289,408.351a4.763,4.763,0,0,1-.223-4.777,6.327,6.327,0,0,1,3.809-3.061,2.664,2.664,0,0,1,2.242.107,2.038,2.038,0,0,1,.784,1.91,4.127,4.127,0,0,1-.872,1.96c-1.474,2-3.267,3.657-5.739,3.862" transform="translate(-138.532 -400.32)" fill="#17c878"/>
          </g>
          <g id="Grupo_55686" data-name="Grupo 55686" transform="translate(13.874 13.622)">
            <g id="Grupo_55685" data-name="Grupo 55685">
              <path id="Trazado_103392" data-name="Trazado 103392" d="M139.885,421.965a3.344,3.344,0,0,1-.136-.581l-.312-1.6a16.714,16.714,0,0,1-.332-5.36,10.231,10.231,0,0,1,1.988-4.968,6.97,6.97,0,0,1,1.15-1.162,4.279,4.279,0,0,1,.361-.259c.085-.056.131-.082.135-.076a10.923,10.923,0,0,0-1.528,1.588,10.564,10.564,0,0,0-1.9,4.906,18,18,0,0,0,.27,5.306c.109.678.2,1.227.246,1.608A3.154,3.154,0,0,1,139.885,421.965Z" transform="translate(-139.003 -407.961)" fill="#263238"/>
            </g>
          </g>
          <g id="Grupo_55688" data-name="Grupo 55688" transform="translate(5.676 4.262)">
            <g id="Grupo_55687" data-name="Grupo 55687">
              <path id="Trazado_103393" data-name="Trazado 103393" d="M120.493,386.826a1.223,1.223,0,0,1,.122.23l.313.675c.268.588.644,1.443,1.1,2.5.913,2.121,2.134,5.068,3.409,8.353s2.36,6.287,3.115,8.469c.378,1.091.676,1.976.875,2.591l.224.709a1.177,1.177,0,0,1,.065.252,1.243,1.243,0,0,1-.1-.238l-.262-.7-.937-2.568c-.791-2.169-1.9-5.159-3.171-8.443s-2.472-6.238-3.35-8.372l-1.039-2.529-.276-.69A1.2,1.2,0,0,1,120.493,386.826Z" transform="translate(-120.492 -386.826)" fill="#263238"/>
            </g>
          </g>
          <g id="Grupo_55689" data-name="Grupo 55689" transform="translate(0 16.05)">
            <path id="Trazado_103394" data-name="Trazado 103394" d="M118.832,418.829a11.139,11.139,0,0,0-8.645-5.371c-.9-.065-1.974.085-2.374.89a2.308,2.308,0,0,0,.745,2.422,9.518,9.518,0,0,0,10.307,2.3" transform="translate(-107.674 -413.445)" fill="#17c878"/>
          </g>
          <g id="Grupo_55691" data-name="Grupo 55691" transform="translate(3.877 18.456)">
            <g id="Grupo_55690" data-name="Grupo 55690">
              <path id="Trazado_103395" data-name="Trazado 103395" d="M116.429,418.883a2.909,2.909,0,0,1,.561.021,5.437,5.437,0,0,1,.655.076c.252.047.546.075.859.162a9.867,9.867,0,0,1,1.021.284,11.073,11.073,0,0,1,1.139.433,12.406,12.406,0,0,1,2.4,1.422,12.139,12.139,0,0,1,1.983,1.962,10.592,10.592,0,0,1,.7,1,8.9,8.9,0,0,1,.519.925,8.243,8.243,0,0,1,.357.8,5.023,5.023,0,0,1,.223.62,2.913,2.913,0,0,1,.146.542c-.045.016-.26-.759-.857-1.892a9.729,9.729,0,0,0-.535-.9,11.221,11.221,0,0,0-.7-.972,12.6,12.6,0,0,0-1.96-1.917,12.875,12.875,0,0,0-2.35-1.412,11.555,11.555,0,0,0-1.115-.444,10.441,10.441,0,0,0-1-.3C117.225,418.972,116.424,418.929,116.429,418.883Z" transform="translate(-116.429 -418.876)" fill="#263238"/>
            </g>
          </g>
        </g>
      </g>
      <g id="Character" transform="translate(265.225 62.539)">
        <g id="Grupo_55858" data-name="Grupo 55858" transform="translate(0)">
          <g id="Grupo_55696" data-name="Grupo 55696" transform="translate(28.824 15.639)">
            <g id="Grupo_55693" data-name="Grupo 55693">
              <path id="Trazado_103396" data-name="Trazado 103396" d="M562.013,104.318c-1.3.3-1.936,1.8-2.06,3.129s.046,2.735-.512,3.949c-.629,1.366-2.131,2.373-2.181,3.876-.031.917.514,1.778.488,2.695-.043,1.506-1.578,2.643-1.658,4.147-.058,1.083.663,2.122.49,3.192a15.045,15.045,0,0,1-1.058,2.287c-.547,1.591.546,3.343,1.97,4.238a6.458,6.458,0,0,0,9.409-3.006,13.189,13.189,0,0,0,.445-6.127q-.8-9.636-1.19-19.3" transform="translate(-555.378 -103.399)" fill="#263238"/>
            </g>
            <g id="Grupo_55695" data-name="Grupo 55695" transform="translate(2.853 1.428)">
              <g id="Grupo_55694" data-name="Grupo 55694">
                <path id="Trazado_103397" data-name="Trazado 103397" d="M561.822,128.784a1.561,1.561,0,0,0,.6-.708,2.511,2.511,0,0,0,.151-1.081,5.985,5.985,0,0,0-.323-1.434,4.092,4.092,0,0,1-.231-1.816,4.141,4.141,0,0,1,1.055-1.813,4.041,4.041,0,0,0,.6-.909,1.468,1.468,0,0,0,.07-1.062c-.229-.724-.937-1.256-1.263-2.091a2.257,2.257,0,0,1-.071-1.292,5.25,5.25,0,0,1,.427-1.159,9.917,9.917,0,0,0,.88-2.084c.311-1.4.166-2.746.377-3.847a4.272,4.272,0,0,1,1.12-2.36,2.522,2.522,0,0,1,.585-.417,1.009,1.009,0,0,1,.234-.088,3.575,3.575,0,0,0-.756.568,4.309,4.309,0,0,0-1.023,2.324,14.5,14.5,0,0,0-.123,1.79,10.951,10.951,0,0,1-.208,2.079,9.884,9.884,0,0,1-.883,2.132,2.913,2.913,0,0,0-.344,2.274c.281.754.995,1.289,1.262,2.1a1.69,1.69,0,0,1-.082,1.217,4.231,4.231,0,0,1-.635.955,2.9,2.9,0,0,0-.833,3.449,5.907,5.907,0,0,1,.295,1.473,2.527,2.527,0,0,1-.2,1.123,1.346,1.346,0,0,1-.454.559A.732.732,0,0,1,561.822,128.784Z" transform="translate(-561.821 -106.624)" fill="#455a64"/>
              </g>
            </g>
          </g>
          <path id="Trazado_103398" data-name="Trazado 103398" d="M524.451,180.366l-4,11.524-16.67.894L501,198.969l17.4,1.761a6.576,6.576,0,0,0,8.7-3.859l4.645-12.964Z" transform="translate(-496.26 -130.642)" fill="#b78876"/>
          <g id="Grupo_55701" data-name="Grupo 55701" transform="translate(31.694 82.019)">
            <g id="Grupo_55699" data-name="Grupo 55699">
              <g id="Grupo_55697" data-name="Grupo 55697">
                <path id="Trazado_103399" data-name="Trazado 103399" d="M592.839,329.642s-12.217-38.8-12.476-40.061c-.234-1.139,4.434-29.061,5.021-36.288l-16.507.616v.12l-7.016.389,6.284,79.355h7.6l-.753-26.328a256.417,256.417,0,0,0,11.4,25.391Z" transform="translate(-561.86 -253.293)" fill="#b78876"/>
              </g>
              <g id="Grupo_55698" data-name="Grupo 55698" transform="translate(10.5 46.831)">
                <path id="Trazado_103400" data-name="Trazado 103400" d="M588.508,375.8c.007-.241-.092-8.821-.092-8.821-.095.513-2.912-7.45-2.844-7.934C585.606,358.794,588.508,375.8,588.508,375.8Z" transform="translate(-585.57 -359.042)" fill="#a36957"/>
              </g>
            </g>
            <g id="Grupo_55700" data-name="Grupo 55700" transform="translate(10.119 43.063)">
              <path id="Trazado_103401" data-name="Trazado 103401" d="M584.77,350.535a1.774,1.774,0,0,0-.049.481,12.666,12.666,0,0,0,.01,1.315c.011.279.039.582.076.907s.086.673.161,1.034a17.626,17.626,0,0,0,.621,2.312c.551,1.605,1.16,3.009,1.592,4.028l.529,1.2a1.777,1.777,0,0,0,.225.427,1.81,1.81,0,0,0-.134-.464c-.1-.293-.257-.713-.454-1.23-.39-1.036-.972-2.451-1.519-4.041a20.05,20.05,0,0,1-.632-2.278c-.08-.354-.132-.7-.182-1.015s-.083-.619-.105-.893c-.052-.548-.076-.995-.089-1.3A1.8,1.8,0,0,0,584.77,350.535Z" transform="translate(-584.709 -350.535)" fill="#a36957"/>
            </g>
          </g>
          <g id="Grupo_55733" data-name="Grupo 55733" transform="translate(32.607 161.839)">
            <g id="Grupo_55732" data-name="Grupo 55732">
              <g id="Grupo_55703" data-name="Grupo 55703" transform="translate(0.001)">
                <g id="Grupo_55702" data-name="Grupo 55702">
                  <path id="Trazado_103402" data-name="Trazado 103402" d="M569.151,434.586l0-.713,7.781-.339.021,2.943-.48.032c-2.135.125-10.868.485-12.3.057C562.578,436.087,569.151,434.586,569.151,434.586Z" transform="translate(-563.923 -433.534)" fill="#455a64"/>
                </g>
              </g>
              <g id="Grupo_55705" data-name="Grupo 55705" transform="translate(0 2.76)">
                <g id="Grupo_55704" data-name="Grupo 55704">
                  <path id="Trazado_103403" data-name="Trazado 103403" d="M577.057,439.771a.674.674,0,0,1-.133.015l-.382.024-1.407.066c-1.188.047-2.831.09-4.645.1s-3.458-.021-4.646-.058l-1.407-.053-.382-.021a.681.681,0,0,1-.133-.014.729.729,0,0,1,.134,0l.383,0,1.407.023c1.189.02,2.831.038,4.645.03s3.455-.041,4.644-.071l1.407-.036.383-.007A.739.739,0,0,1,577.057,439.771Z" transform="translate(-563.921 -439.767)" fill="#263238"/>
                </g>
              </g>
              <g id="Grupo_55707" data-name="Grupo 55707" transform="translate(1.961 1.805)">
                <g id="Grupo_55706" data-name="Grupo 55706">
                  <path id="Trazado_103404" data-name="Trazado 103404" d="M569.1,438.821a2.045,2.045,0,0,0-.747-1.208,1.25,1.25,0,0,1,.747,1.208Z" transform="translate(-568.349 -437.611)" fill="#263238"/>
                </g>
              </g>
              <g id="Grupo_55709" data-name="Grupo 55709" transform="translate(4.573 1.204)">
                <g id="Grupo_55708" data-name="Grupo 55708">
                  <path id="Trazado_103405" data-name="Trazado 103405" d="M574.663,436.9c-.022.014-.132-.119-.245-.3s-.188-.333-.166-.346.132.118.245.3S574.684,436.884,574.663,436.9Z" transform="translate(-574.247 -436.254)" fill="#263238"/>
                </g>
              </g>
              <g id="Grupo_55711" data-name="Grupo 55711" transform="translate(5.127 1.079)">
                <g id="Grupo_55710" data-name="Grupo 55710">
                  <path id="Trazado_103406" data-name="Trazado 103406" d="M575.985,436.406c-.017.02-.14-.062-.273-.181s-.229-.232-.211-.251.14.062.274.181S576,436.387,575.985,436.406Z" transform="translate(-575.498 -435.971)" fill="#263238"/>
                </g>
              </g>
              <g id="Grupo_55713" data-name="Grupo 55713" transform="translate(5.199 0.741)">
                <g id="Grupo_55712" data-name="Grupo 55712">
                  <path id="Trazado_103407" data-name="Trazado 103407" d="M576.469,435.248a.9.9,0,0,1-.4.053.92.92,0,0,1-.4-.041.909.909,0,0,1,.4-.053A.922.922,0,0,1,576.469,435.248Z" transform="translate(-575.66 -435.207)" fill="#263238"/>
                </g>
              </g>
              <g id="Grupo_55715" data-name="Grupo 55715" transform="translate(5.226 0.259)">
                <g id="Grupo_55714" data-name="Grupo 55714">
                  <path id="Trazado_103408" data-name="Trazado 103408" d="M576.637,434.126a1.14,1.14,0,0,1-.916.072,2.535,2.535,0,0,1,.458-.033A2.5,2.5,0,0,1,576.637,434.126Z" transform="translate(-575.721 -434.119)" fill="#263238"/>
                </g>
              </g>
              <g id="Grupo_55717" data-name="Grupo 55717" transform="translate(3.263 0.481)">
                <g id="Grupo_55716" data-name="Grupo 55716">
                  <path id="Trazado_103409" data-name="Trazado 103409" d="M572.749,435.313a1.427,1.427,0,0,1-.5,0,2.919,2.919,0,0,1-.53-.115,1.454,1.454,0,0,1-.3-.124.267.267,0,0,1-.124-.154.2.2,0,0,1,.075-.2.912.912,0,0,1,1.129.263.885.885,0,0,1,.163.331.282.282,0,0,1,.014.135,1.413,1.413,0,0,0-.229-.424.9.9,0,0,0-.426-.275.774.774,0,0,0-.593.043c-.079.059-.047.152.04.2a1.51,1.51,0,0,0,.28.119,3.44,3.44,0,0,0,.513.131C572.559,435.3,572.749,435.3,572.749,435.313Z" transform="translate(-571.288 -434.621)" fill="#263238"/>
                </g>
              </g>
              <g id="Grupo_55719" data-name="Grupo 55719" transform="translate(4.532 0.234)">
                <g id="Grupo_55718" data-name="Grupo 55718">
                  <path id="Trazado_103410" data-name="Trazado 103410" d="M574.216,435.028a.492.492,0,0,1-.058-.345.81.81,0,0,1,.135-.364.5.5,0,0,1,.413-.255.2.2,0,0,1,.154.229.551.551,0,0,1-.084.223,1.5,1.5,0,0,1-.234.3.714.714,0,0,1-.284.2c-.009-.012.1-.089.235-.248a1.741,1.741,0,0,0,.207-.3c.068-.105.114-.294-.011-.317s-.251.113-.327.212a.828.828,0,0,0-.14.324A1.867,1.867,0,0,0,574.216,435.028Z" transform="translate(-574.154 -434.063)" fill="#263238"/>
                </g>
              </g>
              <g id="Grupo_55721" data-name="Grupo 55721" transform="translate(10.227 0.596)">
                <g id="Grupo_55720" data-name="Grupo 55720">
                  <path id="Trazado_103411" data-name="Trazado 103411" d="M589.758,434.931c0,.017-.222-.02-.571.022a2.424,2.424,0,0,0-2.022,1.623c-.117.332-.128.555-.145.553a.441.441,0,0,1,0-.156,2.023,2.023,0,0,1,.083-.418,2.351,2.351,0,0,1,2.078-1.669,2.033,2.033,0,0,1,.426.009A.438.438,0,0,1,589.758,434.931Z" transform="translate(-587.014 -434.881)" fill="#263238"/>
                </g>
              </g>
              <g id="Grupo_55723" data-name="Grupo 55723" transform="translate(6.982 2.138)">
                <g id="Grupo_55722" data-name="Grupo 55722">
                  <path id="Trazado_103412" data-name="Trazado 103412" d="M581.95,438.372a6.36,6.36,0,0,1-2.263.012c0-.027.508.006,1.131,0S581.946,438.345,581.95,438.372Z" transform="translate(-579.687 -438.362)" fill="#263238"/>
                </g>
              </g>
              <g id="Grupo_55725" data-name="Grupo 55725" transform="translate(10.541 2.128)">
                <g id="Grupo_55724" data-name="Grupo 55724">
                  <path id="Trazado_103413" data-name="Trazado 103413" d="M587.944,438.343c.019.019-.041.107-.093.223s-.079.219-.105.218-.04-.122.02-.256S587.927,438.325,587.944,438.343Z" transform="translate(-587.724 -438.34)" fill="#263238"/>
                </g>
              </g>
              <g id="Grupo_55727" data-name="Grupo 55727" transform="translate(11.037 1.414)">
                <g id="Grupo_55726" data-name="Grupo 55726">
                  <path id="Trazado_103414" data-name="Trazado 103414" d="M589.137,436.73c.019.018-.031.1-.111.18s-.159.133-.178.115.031-.1.111-.18S589.119,436.712,589.137,436.73Z" transform="translate(-588.845 -436.727)" fill="#263238"/>
                </g>
              </g>
              <g id="Grupo_55729" data-name="Grupo 55729" transform="translate(11.706 1.046)">
                <g id="Grupo_55728" data-name="Grupo 55728">
                  <path id="Trazado_103415" data-name="Trazado 103415" d="M590.8,435.939c-.005.027-.108.026-.222.066s-.2.1-.216.084.044-.124.185-.173S590.8,435.915,590.8,435.939Z" transform="translate(-590.354 -435.895)" fill="#263238"/>
                </g>
              </g>
              <g id="Grupo_55731" data-name="Grupo 55731" transform="translate(12.495 0.917)">
                <g id="Grupo_55730" data-name="Grupo 55730">
                  <path id="Trazado_103416" data-name="Trazado 103416" d="M592.371,435.621c.009.024-.035.064-.1.089s-.124.026-.133,0,.035-.064.1-.089S592.361,435.6,592.371,435.621Z" transform="translate(-592.137 -435.604)" fill="#263238"/>
                </g>
              </g>
            </g>
          </g>
          <g id="Grupo_55765" data-name="Grupo 55765" transform="translate(52.02 158.058)">
            <g id="Grupo_55764" data-name="Grupo 55764">
              <g id="Grupo_55735" data-name="Grupo 55735">
                <g id="Grupo_55734" data-name="Grupo 55734">
                  <path id="Trazado_103417" data-name="Trazado 103417" d="M611.8,429.144l-.3-.649,6.959-3.5,1.225,2.676-.425.226c-1.9.989-9.716,4.894-11.2,5.089C606.422,433.206,611.8,429.144,611.8,429.144Z" transform="translate(-607.758 -424.998)" fill="#455a64"/>
                </g>
              </g>
              <g id="Grupo_55737" data-name="Grupo 55737" transform="translate(0 2.469)">
                <g id="Grupo_55736" data-name="Grupo 55736">
                  <path id="Trazado_103418" data-name="Trazado 103418" d="M619.719,430.573a.779.779,0,0,1-.116.068l-.338.179-1.256.636c-1.065.53-2.546,1.242-4.2,1.993s-3.163,1.4-4.262,1.85l-1.306.528-.357.137a.7.7,0,0,1-.127.042.676.676,0,0,1,.12-.059l.351-.154,1.294-.555c1.092-.469,2.6-1.125,4.249-1.875s3.135-1.452,4.207-1.966l1.269-.609.346-.163A.742.742,0,0,1,619.719,430.573Z" transform="translate(-607.759 -430.572)" fill="#263238"/>
                </g>
              </g>
              <g id="Grupo_55739" data-name="Grupo 55739" transform="translate(1.374 6.163)">
                <g id="Grupo_55738" data-name="Grupo 55738">
                  <path id="Trazado_103419" data-name="Trazado 103419" d="M612.036,439.721a2.048,2.048,0,0,0-1.176-.8,1.251,1.251,0,0,1,1.176.8Z" transform="translate(-610.86 -438.914)" fill="#263238"/>
                </g>
              </g>
              <g id="Grupo_55741" data-name="Grupo 55741" transform="translate(3.512 4.549)">
                <g id="Grupo_55740" data-name="Grupo 55740">
                  <path id="Trazado_103420" data-name="Trazado 103420" d="M616.328,435.691c-.014.022-.169-.054-.345-.17s-.308-.227-.294-.248.169.054.345.17S616.342,435.67,616.328,435.691Z" transform="translate(-615.689 -435.27)" fill="#263238"/>
                </g>
              </g>
              <g id="Grupo_55743" data-name="Grupo 55743" transform="translate(3.966 4.204)">
                <g id="Grupo_55742" data-name="Grupo 55742">
                  <path id="Trazado_103421" data-name="Trazado 103421" d="M617.334,434.7c-.008.025-.153,0-.324-.053s-.3-.118-.3-.143.153,0,.324.053S617.341,434.673,617.334,434.7Z" transform="translate(-616.714 -434.492)" fill="#263238"/>
                </g>
              </g>
              <g id="Grupo_55745" data-name="Grupo 55745" transform="translate(3.912 3.576)">
                <g id="Grupo_55744" data-name="Grupo 55744">
                  <path id="Trazado_103422" data-name="Trazado 103422" d="M617.324,433.077c.011.023-.144.119-.347.213a.912.912,0,0,1-.386.129c-.011-.023.144-.119.346-.214A.913.913,0,0,1,617.324,433.077Z" transform="translate(-616.591 -433.072)" fill="#263238"/>
                </g>
              </g>
              <g id="Grupo_55747" data-name="Grupo 55747" transform="translate(3.75 3.053)">
                <g id="Grupo_55746" data-name="Grupo 55746">
                  <path id="Trazado_103423" data-name="Trazado 103423" d="M617.032,431.894c.017.018-.125.18-.356.306a.789.789,0,0,1-.45.136,2.441,2.441,0,0,1,.4-.218A2.526,2.526,0,0,1,617.032,431.894Z" transform="translate(-616.226 -431.892)" fill="#263238"/>
                </g>
              </g>
              <g id="Grupo_55749" data-name="Grupo 55749" transform="translate(2.107 4.157)">
                <g id="Grupo_55748" data-name="Grupo 55748">
                  <path id="Trazado_103424" data-name="Trazado 103424" d="M614.042,434.692a1.434,1.434,0,0,1-.454.2,2.9,2.9,0,0,1-.531.112,1.433,1.433,0,0,1-.328.012.27.27,0,0,1-.176-.09.2.2,0,0,1-.013-.212.911.911,0,0,1,1.137-.223.888.888,0,0,1,.285.235c.053.069.072.114.067.117a1.4,1.4,0,0,0-.381-.293.894.894,0,0,0-.5-.076.771.771,0,0,0-.523.282c-.048.086.019.158.12.169a1.49,1.49,0,0,0,.3-.007,3.383,3.383,0,0,0,.522-.09C613.863,434.756,614.036,434.678,614.042,434.692Z" transform="translate(-612.515 -434.386)" fill="#263238"/>
                </g>
              </g>
              <g id="Grupo_55751" data-name="Grupo 55751" transform="translate(3.293 3.456)">
                <g id="Grupo_55750" data-name="Grupo 55750">
                  <path id="Trazado_103425" data-name="Trazado 103425" d="M615.428,433.886a.49.49,0,0,1-.195-.291.821.821,0,0,1-.027-.387.5.5,0,0,1,.273-.4c.111-.034.371.19.388.273s-.131.04-.139.11a1.527,1.527,0,0,1-.09.371.711.711,0,0,1-.176.3c-.013-.008.054-.122.113-.322a1.734,1.734,0,0,0,.066-.358c.019-.124-.016-.315-.139-.284s-.183.206-.211.328a.822.822,0,0,0,.005.353A1.83,1.83,0,0,0,615.428,433.886Z" transform="translate(-615.195 -432.802)" fill="#263238"/>
                </g>
              </g>
              <g id="Grupo_55753" data-name="Grupo 55753" transform="translate(9.165 0.603)">
                <g id="Grupo_55752" data-name="Grupo 55752">
                  <path id="Trazado_103426" data-name="Trazado 103426" d="M630.23,426.362c.005.017-.211.073-.512.255a2.424,2.424,0,0,0-1.179,2.309c.029.351.111.559.094.564a.452.452,0,0,1-.065-.142,2.036,2.036,0,0,1-.1-.415,2.353,2.353,0,0,1,1.212-2.374,2.046,2.046,0,0,1,.392-.166A.46.46,0,0,1,630.23,426.362Z" transform="translate(-628.453 -426.361)" fill="#263238"/>
                </g>
              </g>
              <g id="Grupo_55755" data-name="Grupo 55755" transform="translate(6.098 3.499)">
                <g id="Grupo_55754" data-name="Grupo 55754">
                  <path id="Trazado_103427" data-name="Trazado 103427" d="M623.588,432.9a6.352,6.352,0,0,1-2.059.938c-.009-.026.466-.2,1.033-.462S623.574,432.877,623.588,432.9Z" transform="translate(-621.529 -432.899)" fill="#263238"/>
                </g>
              </g>
              <g id="Grupo_55757" data-name="Grupo 55757" transform="translate(9.448 2.864)">
                <g id="Grupo_55756" data-name="Grupo 55756">
                  <path id="Trazado_103428" data-name="Trazado 103428" d="M629.178,431.465c.025.009.007.115.008.241s.018.232-.008.242-.087-.095-.086-.241S629.155,431.455,629.178,431.465Z" transform="translate(-629.092 -431.464)" fill="#263238"/>
                </g>
              </g>
              <g id="Grupo_55759" data-name="Grupo 55759" transform="translate(9.606 1.979)">
                <g id="Grupo_55758" data-name="Grupo 55758">
                  <path id="Trazado_103429" data-name="Trazado 103429" d="M629.6,429.468c.024.009.012.1-.027.21s-.091.186-.116.178-.012-.1.027-.21S629.58,429.459,629.6,429.468Z" transform="translate(-629.449 -429.467)" fill="#263238"/>
                </g>
              </g>
              <g id="Grupo_55761" data-name="Grupo 55761" transform="translate(10.024 1.334)">
                <g id="Grupo_55760" data-name="Grupo 55760">
                  <path id="Trazado_103430" data-name="Trazado 103430" d="M630.741,428.022c.006.026-.088.068-.175.151s-.136.172-.162.165-.011-.132.1-.233S630.739,428,630.741,428.022Z" transform="translate(-630.393 -428.009)" fill="#263238"/>
                </g>
              </g>
              <g id="Grupo_55763" data-name="Grupo 55763" transform="translate(10.658 0.96)">
                <g id="Grupo_55762" data-name="Grupo 55762">
                  <path id="Trazado_103431" data-name="Trazado 103431" d="M632.007,427.172c.019.018-.006.073-.054.122s-.1.074-.12.057.005-.073.054-.122S631.988,427.153,632.007,427.172Z" transform="translate(-631.826 -427.166)" fill="#263238"/>
                </g>
              </g>
            </g>
          </g>
          <g id="Grupo_55788" data-name="Grupo 55788" transform="translate(24.108 37.866)">
            <g id="Grupo_55778" data-name="Grupo 55778" transform="translate(0.086)">
              <g id="Grupo_55777" data-name="Grupo 55777">
                <g id="Grupo_55770" data-name="Grupo 55770">
                  <g id="Grupo_55769" data-name="Grupo 55769">
                    <g id="Grupo_55768" data-name="Grupo 55768">
                      <g id="Grupo_55767" data-name="Grupo 55767">
                        <g id="Grupo_55766" data-name="Grupo 55766">
                          <path id="Trazado_103432" data-name="Trazado 103432" d="M574.878,184.609l-1.3-15.808,6.656.119a26.475,26.475,0,0,0-.672-7.444,8.628,8.628,0,0,0-5.031-6.2v-.042l-.2-.053a19.019,19.019,0,0,0-6.1-1.591l-8.169.094s-6.241-.779-9.695,3.67c-1.331,1.713-5.448,13.443-5.448,13.443l9.805,4.723-.933-6.5s.185,4.715.787,6.21c.335.833,1.306,3.417,1.306,3.417l-.127,7.8Z" transform="translate(-544.924 -153.589)" fill="#17c878"/>
                        </g>
                      </g>
                    </g>
                  </g>
                </g>
                <g id="Grupo_55771" data-name="Grupo 55771" transform="translate(24.235 9.422)">
                  <path id="Trazado_103433" data-name="Trazado 103433" d="M600.861,178.359l-1.212,5.166h11.439l-.752-8.661Z" transform="translate(-599.649 -174.864)" fill="#0eaa63"/>
                </g>
                <g id="Grupo_55773" data-name="Grupo 55773" transform="translate(25.313 17.837)">
                  <g id="Grupo_55772" data-name="Grupo 55772">
                    <path id="Trazado_103434" data-name="Trazado 103434" d="M612.444,194.113a8.518,8.518,0,0,0-1.514-.15c-.937-.055-2.235-.1-3.669-.095s-2.731.069-3.668.143a8.171,8.171,0,0,0-1.511.186,10.217,10.217,0,0,0,1.52-.008c.937-.029,2.23-.062,3.66-.07s2.723.012,3.661.021A9.711,9.711,0,0,0,612.444,194.113Z" transform="translate(-602.083 -193.868)" fill="#263238"/>
                  </g>
                </g>
                <g id="Grupo_55775" data-name="Grupo 55775" transform="translate(24.913 9.379)">
                  <g id="Grupo_55774" data-name="Grupo 55774">
                    <path id="Trazado_103435" data-name="Trazado 103435" d="M601.222,174.768a6.859,6.859,0,0,0-.038,1.314c.009.81.038,1.93.086,3.165s.105,2.354.16,3.163a6.8,6.8,0,0,0,.14,1.307,6.754,6.754,0,0,0,.038-1.314c-.008-.81-.038-1.93-.086-3.165s-.105-2.354-.159-3.162A6.789,6.789,0,0,0,601.222,174.768Z" transform="translate(-601.181 -174.768)" fill="#263238"/>
                  </g>
                </g>
                <g id="Grupo_55776" data-name="Grupo 55776" transform="translate(14.545 13.854)" opacity="0.3">
                  <path id="Trazado_103436" data-name="Trazado 103436" d="M577.768,184.872s2.543,18.851,9.69,18.352c0,0,3.218-.038,4.253-2.177v-.842Z" transform="translate(-577.768 -184.872)"/>
                </g>
              </g>
            </g>
            <g id="Grupo_55779" data-name="Grupo 55779" transform="translate(23.672 10.49)" opacity="0.3">
              <path id="Trazado_103437" data-name="Trazado 103437" d="M599.552,177.277l-1.368,9.241.886,1.622,1.458-3.171-.617-.015Z" transform="translate(-598.184 -177.277)"/>
            </g>
            <g id="Grupo_55781" data-name="Grupo 55781" transform="translate(8.763 13.108)">
              <g id="Grupo_55780" data-name="Grupo 55780">
                <path id="Trazado_103438" data-name="Trazado 103438" d="M566.807,195.133a1.934,1.934,0,0,1-.193-.442c-.111-.289-.259-.712-.43-1.237a37.6,37.6,0,0,1-1.094-4.183,30.244,30.244,0,0,1-.542-4.292c-.027-.553-.034-1-.027-1.31a1.937,1.937,0,0,1,.033-.481c.037,0,.062.682.156,1.78a39.922,39.922,0,0,0,.605,4.258c.329,1.648.723,3.119,1.024,4.18l.359,1.257A1.949,1.949,0,0,1,566.807,195.133Z" transform="translate(-564.518 -183.188)" fill="#263238"/>
              </g>
            </g>
            <g id="Grupo_55783" data-name="Grupo 55783" transform="translate(13.351 28.586)">
              <g id="Grupo_55782" data-name="Grupo 55782">
                <path id="Trazado_103439" data-name="Trazado 103439" d="M575.469,220.023c-.061.019-.238-.388-.395-.908a2.191,2.191,0,0,1-.174-.975c.061-.019.238.388.4.908A2.2,2.2,0,0,1,575.469,220.023Z" transform="translate(-574.879 -218.139)" fill="#263238"/>
              </g>
            </g>
            <g id="Grupo_55785" data-name="Grupo 55785" transform="translate(14.668 27.634)">
              <g id="Grupo_55784" data-name="Grupo 55784">
                <path id="Trazado_103440" data-name="Trazado 103440" d="M578.113,218.753a4.083,4.083,0,0,1-.041-2.763,89.86,89.86,0,0,0,.041,2.763Z" transform="translate(-577.851 -215.99)" fill="#263238"/>
              </g>
            </g>
            <g id="Grupo_55787" data-name="Grupo 55787" transform="translate(0 17.101)">
              <g id="Grupo_55786" data-name="Grupo 55786">
                <path id="Trazado_103441" data-name="Trazado 103441" d="M554.821,197.25c-.029.057-2.311-1.026-5.1-2.418s-5.022-2.568-4.994-2.624,2.31,1.025,5.1,2.418S554.849,197.193,554.821,197.25Z" transform="translate(-544.73 -192.206)" fill="#263238"/>
              </g>
            </g>
          </g>
          <g id="Grupo_55837" data-name="Grupo 55837" transform="translate(34.806 14.903)">
            <g id="Grupo_55819" data-name="Grupo 55819" transform="translate(0 2.94)">
              <g id="Grupo_55818" data-name="Grupo 55818">
                <g id="Grupo_55817" data-name="Grupo 55817">
                  <g id="Grupo_55816" data-name="Grupo 55816">
                    <g id="Grupo_55815" data-name="Grupo 55815">
                      <g id="Grupo_55791" data-name="Grupo 55791">
                        <g id="Grupo_55790" data-name="Grupo 55790">
                          <g id="Grupo_55789" data-name="Grupo 55789">
                            <path id="Trazado_103442" data-name="Trazado 103442" d="M572.3,130.02c.051-2.24.063-4.6.063-4.6s-2.874-.554-3.374-4.335c-.478-3.606.858-12.066.858-12.066h0a10.1,10.1,0,0,1,11.436,3.253h0l-.714,18.19a3.905,3.905,0,0,1-4.225,3.616h0A4.125,4.125,0,0,1,572.3,130.02Z" transform="translate(-568.887 -108.375)" fill="#b78876"/>
                          </g>
                        </g>
                      </g>
                      <g id="Grupo_55799" data-name="Grupo 55799" transform="translate(0.556 6.288)">
                        <g id="Grupo_55794" data-name="Grupo 55794" transform="translate(0.186 0.694)">
                          <g id="Grupo_55793" data-name="Grupo 55793">
                            <g id="Grupo_55792" data-name="Grupo 55792">
                              <path id="Trazado_103443" data-name="Trazado 103443" d="M570.564,124.566a.483.483,0,0,0,.453.5.462.462,0,0,0,.509-.422.484.484,0,0,0-.453-.5A.462.462,0,0,0,570.564,124.566Z" transform="translate(-570.563 -124.141)" fill="#263238"/>
                            </g>
                          </g>
                        </g>
                        <g id="Grupo_55798" data-name="Grupo 55798">
                          <g id="Grupo_55797" data-name="Grupo 55797">
                            <g id="Grupo_55796" data-name="Grupo 55796">
                              <g id="Grupo_55795" data-name="Grupo 55795">
                                <path id="Trazado_103444" data-name="Trazado 103444" d="M570.15,123.058c.058.065.431-.2.951-.182s.894.285.952.222c.028-.027-.03-.143-.193-.268a1.327,1.327,0,0,0-.76-.256,1.275,1.275,0,0,0-.759.224C570.178,122.917,570.121,123.029,570.15,123.058Z" transform="translate(-570.143 -122.574)" fill="#263238"/>
                              </g>
                            </g>
                          </g>
                        </g>
                      </g>
                      <g id="Grupo_55807" data-name="Grupo 55807" transform="translate(5.973 6.617)">
                        <g id="Grupo_55802" data-name="Grupo 55802" transform="translate(0.042 0.693)">
                          <g id="Grupo_55801" data-name="Grupo 55801">
                            <g id="Grupo_55800" data-name="Grupo 55800">
                              <path id="Trazado_103445" data-name="Trazado 103445" d="M582.47,125.307a.483.483,0,0,0,.453.5.461.461,0,0,0,.509-.422.484.484,0,0,0-.453-.5A.462.462,0,0,0,582.47,125.307Z" transform="translate(-582.469 -124.882)" fill="#263238"/>
                            </g>
                          </g>
                        </g>
                        <g id="Grupo_55806" data-name="Grupo 55806">
                          <g id="Grupo_55805" data-name="Grupo 55805">
                            <g id="Grupo_55804" data-name="Grupo 55804">
                              <g id="Grupo_55803" data-name="Grupo 55803">
                                <path id="Trazado_103446" data-name="Trazado 103446" d="M582.382,123.8c.058.065.432-.2.951-.182s.894.284.952.222c.028-.027-.029-.143-.193-.268a1.322,1.322,0,0,0-.759-.256,1.27,1.27,0,0,0-.759.224C582.411,123.66,582.354,123.772,582.382,123.8Z" transform="translate(-582.375 -123.317)" fill="#263238"/>
                              </g>
                            </g>
                          </g>
                        </g>
                      </g>
                      <g id="Grupo_55811" data-name="Grupo 55811" transform="translate(2.681 6.582)">
                        <g id="Grupo_55810" data-name="Grupo 55810">
                          <g id="Grupo_55809" data-name="Grupo 55809">
                            <g id="Grupo_55808" data-name="Grupo 55808">
                              <path id="Trazado_103447" data-name="Trazado 103447" d="M576.255,127.562a3.415,3.415,0,0,0-.84-.174c-.132-.017-.257-.047-.277-.138a.677.677,0,0,1,.1-.391l.419-1a17.342,17.342,0,0,0,.95-2.62,17.373,17.373,0,0,0-1.158,2.538q-.211.527-.4,1.007a.768.768,0,0,0-.082.519.333.333,0,0,0,.213.2.9.9,0,0,0,.225.037A3.4,3.4,0,0,0,576.255,127.562Z" transform="translate(-574.94 -123.238)" fill="#263238"/>
                            </g>
                          </g>
                        </g>
                      </g>
                      <g id="Grupo_55814" data-name="Grupo 55814" transform="translate(3.477 15.831)">
                        <g id="Grupo_55813" data-name="Grupo 55813">
                          <g id="Grupo_55812" data-name="Grupo 55812">
                            <path id="Trazado_103448" data-name="Trazado 103448" d="M576.739,145.338a9.582,9.582,0,0,0,5.078-1.215s-1.29,2.555-5.05,2.105Z" transform="translate(-576.739 -144.123)" fill="#a36957"/>
                          </g>
                        </g>
                      </g>
                    </g>
                  </g>
                </g>
              </g>
            </g>
            <g id="Grupo_55821" data-name="Grupo 55821" transform="translate(5.821 7.845)">
              <g id="Grupo_55820" data-name="Grupo 55820">
                <path id="Trazado_103449" data-name="Trazado 103449" d="M583.854,120.147c-.106.163-.5.09-.945.011s-.835-.167-.875-.358.414-.435,1-.322S583.963,119.993,583.854,120.147Z" transform="translate(-582.032 -119.45)" fill="#263238"/>
              </g>
            </g>
            <g id="Grupo_55823" data-name="Grupo 55823" transform="translate(0.546 7.369)">
              <g id="Grupo_55822" data-name="Grupo 55822">
                <path id="Trazado_103450" data-name="Trazado 103450" d="M572.051,118.786c-.04.189-.463.258-.951.283s-.916-.01-.974-.2.355-.47.942-.5S572.093,118.6,572.051,118.786Z" transform="translate(-570.121 -118.376)" fill="#263238"/>
              </g>
            </g>
            <g id="Grupo_55824" data-name="Grupo 55824" transform="translate(3.681 15.07)">
              <path id="Trazado_103451" data-name="Trazado 103451" d="M577.522,135.785a.262.262,0,0,0-.287.132.3.3,0,1,0,.177-.141" transform="translate(-577.2 -135.765)" fill="#a36957"/>
            </g>
            <g id="Grupo_55826" data-name="Grupo 55826" transform="translate(3.515 15.031)">
              <g id="Grupo_55825" data-name="Grupo 55825">
                <path id="Trazado_103452" data-name="Trazado 103452" d="M577.435,135.787c.023-.021-.083-.148-.31-.1a.394.394,0,0,0-.284.278.445.445,0,0,0,.156.471.438.438,0,0,0,.5,0,.374.374,0,0,0,.16-.369c-.046-.233-.218-.271-.223-.238s.06.11.045.248a.2.2,0,0,1-.105.163.225.225,0,0,1-.224-.01.234.234,0,0,1-.08-.214.224.224,0,0,1,.12-.164C577.309,135.787,577.418,135.819,577.435,135.787Z" transform="translate(-576.825 -135.677)" fill="#263238"/>
              </g>
            </g>
            <g id="Grupo_55836" data-name="Grupo 55836" transform="translate(0.742)">
              <g id="Grupo_55827" data-name="Grupo 55827">
                <path id="Trazado_103453" data-name="Trazado 103453" d="M580.477,113.016c-.448,1.038-1.541,1.838-1.39,2.959.1.723.562,1.4.472,2.122-.113.91-1.058,1.54-1.192,2.447-.164,1.112.918,1.977,1.35,3.015.629,1.511-.176,3.212-.195,4.849a5.2,5.2,0,0,0,4.6,5.056,2.808,2.808,0,0,0,2.674-1.09,11.124,11.124,0,0,0,.605-2.423c.387-1.185,1.516-2.053,1.754-3.276.434-2.231-2.262-4.076-2.084-6.342a15.715,15.715,0,0,1,.927-2.749,4.028,4.028,0,0,0-.791-3.584c-.665-.791-1.63-1.312-2.2-2.176a9.536,9.536,0,0,1-.907-3.371,8.491,8.491,0,0,0-13.486-4.974,2.757,2.757,0,0,0,2.352,3.407c3,.488,4.385-.075,4.723,1.126a3.175,3.175,0,0,0,.9,2.743C579.831,112.095,581,111.814,580.477,113.016Z" transform="translate(-570.563 -101.736)" fill="#263238"/>
              </g>
              <g id="Grupo_55829" data-name="Grupo 55829" transform="translate(9.708 8.163)">
                <g id="Grupo_55828" data-name="Grupo 55828">
                  <path id="Trazado_103454" data-name="Trazado 103454" d="M597.472,143.53a1.232,1.232,0,0,1-.274-.028,4.049,4.049,0,0,1-.762-.206,5.375,5.375,0,0,1-2.318-1.716,6.073,6.073,0,0,1-.986-1.754,7.043,7.043,0,0,1-.4-2.274,9.26,9.26,0,0,1,.319-2.529,11.04,11.04,0,0,1,.424-1.281,12.743,12.743,0,0,0,.486-1.272,2.392,2.392,0,0,0,0-1.3,7.07,7.07,0,0,0-.5-1.213,8.08,8.08,0,0,1-.516-1.2,2.592,2.592,0,0,1-.093-1.273,9.009,9.009,0,0,1,.982-2.085,3.967,3.967,0,0,0,.4-1.887,4.458,4.458,0,0,0-.988-2.612,7.9,7.9,0,0,0-.752-.732,3.06,3.06,0,0,1,.821.674,4.441,4.441,0,0,1,1.082,2.664,4.1,4.1,0,0,1-.392,1.977,9.172,9.172,0,0,0-.945,2.042,3.732,3.732,0,0,0,.6,2.332,7.194,7.194,0,0,1,.523,1.252,2.626,2.626,0,0,1,.006,1.419,12.717,12.717,0,0,1-.5,1.3,10.906,10.906,0,0,0-.419,1.254,9.161,9.161,0,0,0-.325,2.468,6.39,6.39,0,0,0,1.3,3.93,5.464,5.464,0,0,0,2.223,1.734C597.1,143.465,597.477,143.5,597.472,143.53Z" transform="translate(-592.485 -120.169)" fill="#455a64"/>
                </g>
              </g>
              <g id="Grupo_55831" data-name="Grupo 55831" transform="translate(1.071 1.336)">
                <g id="Grupo_55830" data-name="Grupo 55830">
                  <path id="Trazado_103455" data-name="Trazado 103455" d="M586.164,112.593a3.141,3.141,0,0,1-.66.1,6.878,6.878,0,0,1-1.824-.048,3.468,3.468,0,0,1-2.3-1.4,7.5,7.5,0,0,1-.6-1.487,2.456,2.456,0,0,0-1.009-1.245,7.184,7.184,0,0,0-3.106-.811,5.394,5.394,0,0,1-2.581-.8,2.559,2.559,0,0,1-1.057-1.479,1.592,1.592,0,0,1-.034-.5.507.507,0,0,1,.036-.171,3.253,3.253,0,0,0,.085.648,2.549,2.549,0,0,0,1.063,1.367,5.378,5.378,0,0,0,2.513.726,7.193,7.193,0,0,1,3.206.829,2.665,2.665,0,0,1,1.094,1.357,7.659,7.659,0,0,0,.573,1.453,3.345,3.345,0,0,0,2.154,1.351,7.75,7.75,0,0,0,1.788.119A4.492,4.492,0,0,1,586.164,112.593Z" transform="translate(-572.981 -104.752)" fill="#455a64"/>
                </g>
              </g>
              <g id="Grupo_55833" data-name="Grupo 55833" transform="translate(1.883 0.761)">
                <g id="Grupo_55832" data-name="Grupo 55832">
                  <path id="Trazado_103456" data-name="Trazado 103456" d="M586.087,108.264a1.346,1.346,0,0,1-.519.077,3.175,3.175,0,0,1-2.221-.887,4.21,4.21,0,0,1-.687-.917,3.81,3.81,0,0,0-1.612-1.848,5.3,5.3,0,0,0-2.481-.218,7.583,7.583,0,0,1-2.118-.018,2.638,2.638,0,0,1-1.307-.586,1.5,1.5,0,0,1-.26-.292c-.05-.074-.072-.115-.066-.12s.124.143.383.343a2.72,2.72,0,0,0,1.277.495,7.98,7.98,0,0,0,2.072-.033,5.334,5.334,0,0,1,2.593.219,2.56,2.56,0,0,1,1.057.878,11.714,11.714,0,0,1,.645,1.073,4.152,4.152,0,0,0,.638.888,3.048,3.048,0,0,0,.762.562,3.285,3.285,0,0,0,1.327.371C585.9,108.27,586.085,108.244,586.087,108.264Z" transform="translate(-574.816 -103.454)" fill="#455a64"/>
                </g>
              </g>
              <g id="Grupo_55835" data-name="Grupo 55835" transform="translate(12.89 9.403)">
                <g id="Grupo_55834" data-name="Grupo 55834">
                  <path id="Trazado_103457" data-name="Trazado 103457" d="M602.8,144.134c-.023-.01.119-.3.282-.84a7.625,7.625,0,0,0,.295-2.374,7.293,7.293,0,0,0-.944-3.382c-.324-.58-.816-1.1-1.217-1.734a3.135,3.135,0,0,1-.446-1.069,2.416,2.416,0,0,1,.1-1.2,13.979,13.979,0,0,0,.789-2.112,2.91,2.91,0,0,0-.574-1.92,8.83,8.83,0,0,1-.474-.88,3.166,3.166,0,0,1-.251-.925,8.2,8.2,0,0,1,.05-1.689,4.466,4.466,0,0,0-.21-2.353,2.135,2.135,0,0,0-.523-.693s.02,0,.054.025a.894.894,0,0,1,.141.1,1.638,1.638,0,0,1,.409.527,4.387,4.387,0,0,1,.291,2.406,8.314,8.314,0,0,0-.023,1.651,4.194,4.194,0,0,0,.718,1.72,5.848,5.848,0,0,1,.482.941,2.233,2.233,0,0,1,.133,1.118,13.246,13.246,0,0,1-.793,2.15,2.2,2.2,0,0,0-.092,1.084,2.926,2.926,0,0,0,.412.992c.38.612.875,1.139,1.209,1.747a7.312,7.312,0,0,1,.923,3.484,7.163,7.163,0,0,1-.372,2.4,5.233,5.233,0,0,1-.255.612A.872.872,0,0,1,602.8,144.134Z" transform="translate(-599.67 -122.968)" fill="#455a64"/>
                </g>
              </g>
            </g>
          </g>
          <g id="Grupo_55847" data-name="Grupo 55847" transform="translate(30.296 67.59)">
            <g id="Grupo_55838" data-name="Grupo 55838" transform="translate(0.072 0.113)">
              <path id="Trazado_103458" data-name="Trazado 103458" d="M562.023,281.248s-2.983-28.272-3.154-38.719,4.7-20.754,4.7-20.754l19.079-.807s3.771,10.6,3.839,15.052c.132,8.652-2.3,17.2-2.019,24.061l.638,21.168" transform="translate(-558.865 -220.967)" fill="#263238"/>
            </g>
            <g id="Grupo_55840" data-name="Grupo 55840" transform="translate(2.603 25.637)">
              <g id="Grupo_55839" data-name="Grupo 55839">
                <path id="Trazado_103459" data-name="Trazado 103459" d="M588.926,278.6a2.551,2.551,0,0,1-.311.236l-.174.123c-.06.05-.118.115-.185.178a2.839,2.839,0,0,0-.425.476,10.561,10.561,0,0,0-1.493,3.784,12.719,12.719,0,0,1-.966,2.69,4.845,4.845,0,0,1-.424.67c-.082.106-.158.22-.249.322l-.294.294a4.744,4.744,0,0,1-1.435.921c-1.068.468-2.274.69-3.375,1.243a5.331,5.331,0,0,0-2.448,2.791c-.537,1.2-.863,2.46-1.311,3.636a6.589,6.589,0,0,1-1.992,3.021,5.468,5.468,0,0,1-3.122.979c-1.027.06-1.979.03-2.832.159a4.474,4.474,0,0,0-2.136.806,2.974,2.974,0,0,0-.992,1.4,2.1,2.1,0,0,0-.074,1.086c.049.249.119.368.1.374a1.137,1.137,0,0,1-.149-.364,2.062,2.062,0,0,1,.033-1.123,3.035,3.035,0,0,1,1-1.472,4.563,4.563,0,0,1,2.192-.866c.869-.142,1.831-.121,2.843-.189a5.3,5.3,0,0,0,3.006-.957,6.411,6.411,0,0,0,1.91-2.932c.44-1.162.764-2.424,1.312-3.65a5.546,5.546,0,0,1,2.557-2.9c1.146-.569,2.352-.784,3.393-1.236a4.567,4.567,0,0,0,1.382-.874l.282-.278c.088-.1.161-.206.241-.307A4.676,4.676,0,0,0,585.2,286a12.777,12.777,0,0,0,.977-2.642,10.284,10.284,0,0,1,1.579-3.8,2.818,2.818,0,0,1,.45-.471c.07-.062.132-.124.2-.173l.183-.116A2.473,2.473,0,0,1,588.926,278.6Z" transform="translate(-564.582 -278.602)" fill="#fafafa"/>
              </g>
            </g>
            <g id="Grupo_55842" data-name="Grupo 55842" transform="translate(0.781 12.554)">
              <g id="Grupo_55841" data-name="Grupo 55841">
                <path id="Trazado_103460" data-name="Trazado 103460" d="M586.752,249.059a2.3,2.3,0,0,1,.025.379,4.7,4.7,0,0,1-.132,1.082,7,7,0,0,1-2.155,3.332,12.808,12.808,0,0,1-2.235,1.632c-.855.508-1.8.991-2.764,1.536a14.454,14.454,0,0,0-2.828,1.988,10.921,10.921,0,0,0-2.142,3.01,27.794,27.794,0,0,1-1.857,3.272,7.823,7.823,0,0,1-1.211,1.339,7.639,7.639,0,0,1-1.44.959,17.837,17.837,0,0,1-2.964,1.136c-.947.293-1.83.552-2.6.876a10.149,10.149,0,0,0-1.984,1.063,6.173,6.173,0,0,0-1.246,1.149,5.945,5.945,0,0,0-.747,1.242,2.33,2.33,0,0,1,.123-.359,4.385,4.385,0,0,1,.554-.938,6.055,6.055,0,0,1,1.241-1.2,10.046,10.046,0,0,1,2-1.109c.779-.337,1.666-.607,2.607-.907a17.922,17.922,0,0,0,2.923-1.142,7.469,7.469,0,0,0,1.4-.938,7.625,7.625,0,0,0,1.171-1.3,28.052,28.052,0,0,0,1.837-3.249,11.09,11.09,0,0,1,2.19-3.066,14.515,14.515,0,0,1,2.879-2.009c.975-.544,1.919-1.019,2.772-1.516a12.856,12.856,0,0,0,2.221-1.588,7.055,7.055,0,0,0,2.178-3.235A6.843,6.843,0,0,0,586.752,249.059Z" transform="translate(-560.467 -249.059)" fill="#fafafa"/>
              </g>
            </g>
            <g id="Grupo_55844" data-name="Grupo 55844">
              <g id="Grupo_55843" data-name="Grupo 55843">
                <path id="Trazado_103461" data-name="Trazado 103461" d="M558.875,243.883a.284.284,0,0,1-.039-.086,1.9,1.9,0,0,1-.042-1.325,4.341,4.341,0,0,1,2.8-2.586c.785-.27,1.677-.433,2.6-.676a4.879,4.879,0,0,0,3.609-2.685,13.626,13.626,0,0,0,.662-1.591,17.321,17.321,0,0,1,1.4-3.4,5.422,5.422,0,0,1,2.889-2.246,26.433,26.433,0,0,1,3.315-.84,10.978,10.978,0,0,0,2.882-.981,6.035,6.035,0,0,0,1.951-1.757,6.588,6.588,0,0,0,1.24-3.587,10.254,10.254,0,0,0-.094-1.415,4.674,4.674,0,0,1,.184,1.417,6.542,6.542,0,0,1-1.2,3.68,6.157,6.157,0,0,1-1.99,1.829,11.057,11.057,0,0,1-2.928,1.022,26.9,26.9,0,0,0-3.284.844,5.206,5.206,0,0,0-2.772,2.157,17.364,17.364,0,0,0-1.387,3.349,13.7,13.7,0,0,1-.678,1.617,5.065,5.065,0,0,1-3.757,2.769c-.941.238-1.828.39-2.6.646a4.291,4.291,0,0,0-2.77,2.457,2.165,2.165,0,0,0-.085,1.026C558.846,243.758,558.886,243.879,558.875,243.883Z" transform="translate(-558.703 -220.711)" fill="#fafafa"/>
              </g>
            </g>
            <g id="Grupo_55846" data-name="Grupo 55846" transform="translate(3.212 47.078)">
              <g id="Grupo_55845" data-name="Grupo 55845">
                <path id="Trazado_103462" data-name="Trazado 103462" d="M588.17,327.019a1.264,1.264,0,0,1,.031.278,2.954,2.954,0,0,1-.082.8,4.546,4.546,0,0,1-1.674,2.392,7.462,7.462,0,0,1-1.756,1.043,23.224,23.224,0,0,1-2.2.762,18.22,18.22,0,0,0-2.395.875,6.917,6.917,0,0,0-2.18,1.59c-.646.677-1.2,1.416-1.822,2.069a8.34,8.34,0,0,1-2.041,1.6,8.968,8.968,0,0,1-4.212,1.1,8.35,8.35,0,0,1-2.9-.482,5.3,5.3,0,0,1-.736-.315,1.268,1.268,0,0,1-.244-.135,1.283,1.283,0,0,1,.263.093,7.116,7.116,0,0,0,.745.272,8.74,8.74,0,0,0,2.867.4,8.944,8.944,0,0,0,4.111-1.117,8.207,8.207,0,0,0,1.98-1.567c.606-.643,1.161-1.382,1.82-2.073a7.1,7.1,0,0,1,2.25-1.635,17.921,17.921,0,0,1,2.429-.873c.783-.238,1.527-.459,2.193-.736a7.428,7.428,0,0,0,1.729-.995,4.569,4.569,0,0,0,1.688-2.287A5.237,5.237,0,0,0,588.17,327.019Z" transform="translate(-565.957 -327.019)" fill="#fafafa"/>
              </g>
            </g>
          </g>
          <g id="Grupo_55850" data-name="Grupo 55850" transform="translate(34.546 33.72)">
            <path id="Trazado_103463" data-name="Trazado 103463" d="M587.3,166.522l-3.689.087a6.035,6.035,0,0,1-.834,2.093,63.688,63.688,0,0,1-6.071-15.412c.086-.288.189-.607.317-.963a4.088,4.088,0,0,0-.049-1.622c-.1-.642-.283-1.506-.337-1.906-.164-1.218-.361-1.41-.786-1.272-.578.187.237,3.422-.237,3.492-.255.038-.566-1.07-.656-1.98s-.5-3.706-.8-3.892c-.441-.273-.825.159-.713,1.064s.255,3.649-.226,3.686-.871-4.6-.871-4.6.075-1.009-.481-.985c-1,.044-.219,4.932-.133,5.395.06.322-.461.381-.507.032s-.29-4.637-1.311-4.6c-.784.027.607,4.028.167,4.956s-.746-3.15-1.495-3.094c-.279.021-.485.075.027,2.383a52.054,52.054,0,0,0,1.79,5.409c1.186,6.4,6.393,26.87,14.557,23.123,4.568-2.1,6.421-11.39,6.421-11.39Z" transform="translate(-568.301 -144.275)" fill="#b78876"/>
            <g id="Grupo_55849" data-name="Grupo 55849" transform="translate(3.073)">
              <g id="Grupo_55848" data-name="Grupo 55848">
                <path id="Trazado_103464" data-name="Trazado 103464" d="M575.425,149.974a.251.251,0,0,0,.106-.015.237.237,0,0,0,.167-.256c-.011-.275-.054-.675-.117-1.193a17.221,17.221,0,0,1-.2-1.887c-.006-.371,0-.769.025-1.192a4.155,4.155,0,0,1,.065-.638c.035-.2.169-.43.324-.4l.017,0h.008c.158-.007.281.116.331.3a1.743,1.743,0,0,1,.058.593v.014a35.888,35.888,0,0,0,.473,3.7c.036.165.073.332.124.5a2.4,2.4,0,0,0,.092.254.793.793,0,0,0,.075.132.241.241,0,0,0,.185.116.331.331,0,0,0,.279-.233,1.339,1.339,0,0,0,.083-.272,4.084,4.084,0,0,0,.071-.54,16.157,16.157,0,0,0-.03-2.215,5.118,5.118,0,0,1-.046-1.109.615.615,0,0,1,.218-.413.239.239,0,0,1,.19-.024.453.453,0,0,1,.105.046.144.144,0,0,1,.049.066,5.536,5.536,0,0,1,.307,1.113c.078.392.147.791.209,1.2s.12.813.168,1.224a8.5,8.5,0,0,0,.2,1.259,4.187,4.187,0,0,0,.2.626,1.12,1.12,0,0,0,.182.313.263.263,0,0,0,.265.1.283.283,0,0,0,.181-.2,2.176,2.176,0,0,0,.046-.689c-.009-.22-.027-.437-.046-.654-.031-.373-.067-.742-.08-1.105a3.713,3.713,0,0,1,.013-.533.849.849,0,0,1,.054-.231.208.208,0,0,1,.042-.066c.007-.007.012,0,.017-.011l.058-.016c.294-.121.391.287.469.617s.111.7.18,1.048c.117.7.266,1.391.344,2.057a2.378,2.378,0,0,1-.039.953l-.311.95-.009.028.007.03a51.225,51.225,0,0,0,1.981,6.4c.7,1.89,1.4,3.523,2.021,4.858s1.17,2.367,1.553,3.069l.461.792a1.891,1.891,0,0,0,.171.266,1.847,1.847,0,0,0-.136-.286l-.427-.809c-.36-.713-.891-1.751-1.488-3.093s-1.281-2.977-1.966-4.866a52.642,52.642,0,0,1-1.937-6.382l0,.058.31-.937a2.576,2.576,0,0,0,.055-1.06c-.079-.693-.224-1.365-.34-2.066-.068-.346-.11-.7-.182-1.065a2.106,2.106,0,0,0-.181-.548.535.535,0,0,0-.245-.246.546.546,0,0,0-.349-.014l-.074.021a.378.378,0,0,0-.1.057.429.429,0,0,0-.112.157,1.09,1.09,0,0,0-.074.3,3.942,3.942,0,0,0-.015.571c.013.376.049.747.081,1.119.018.216.036.431.046.643a2.083,2.083,0,0,1-.033.6c-.011.046-.033.038-.008.06v0c0-.015,0,.023,0,.016v0a.028.028,0,0,1,0-.015s.012-.02.006-.021a.066.066,0,0,1-.027-.024.95.95,0,0,1-.135-.24,4.078,4.078,0,0,1-.188-.588,8.352,8.352,0,0,1-.2-1.228c-.05-.417-.108-.827-.171-1.234s-.133-.808-.214-1.205a5.5,5.5,0,0,0-.337-1.183.4.4,0,0,0-.139-.155.687.687,0,0,0-.165-.07.483.483,0,0,0-.374.052.829.829,0,0,0-.327.577,2.1,2.1,0,0,0-.008.607c.022.189.04.375.055.562a16.062,16.062,0,0,1,.04,2.181,3.95,3.95,0,0,1-.064.512,1.139,1.139,0,0,1-.067.229.284.284,0,0,1-.048.083c-.016.037-.03-.008-.029.051.023-.045,0-.02-.016-.058a.63.63,0,0,1-.053-.092,2.216,2.216,0,0,1-.084-.227c-.049-.157-.087-.32-.123-.481a36.814,36.814,0,0,1-.5-3.669v.014a1.9,1.9,0,0,0-.072-.659.671.671,0,0,0-.173-.295.46.46,0,0,0-.328-.12l.024,0a.382.382,0,0,0-.382.183.949.949,0,0,0-.136.344,4.109,4.109,0,0,0-.059.665c-.016.426-.019.827-.007,1.2a15.814,15.814,0,0,0,.244,1.9c.077.515.135.914.159,1.183a.209.209,0,0,1-.129.232C575.46,149.965,575.424,149.969,575.425,149.974Z" transform="translate(-575.241 -144.228)" fill="#a36957"/>
              </g>
            </g>
          </g>
          <path id="Trazado_103465" data-name="Trazado 103465" d="M499.255,208.227a9.512,9.512,0,0,0-2.565.294c-2.287.6-6.235,2.994-6.4,5.95h2.867s-1.606,3.418-1.134,3.1a36.9,36.9,0,0,0,3.661-3.3Z" transform="translate(-490.291 -146.163)" fill="#b78876"/>
          <g id="Grupo_55857" data-name="Grupo 55857" transform="translate(47.132)">
            <g id="Grupo_55852" data-name="Grupo 55852">
              <g id="Grupo_55851" data-name="Grupo 55851">
                <path id="Trazado_103466" data-name="Trazado 103466" d="M597.667,78.695c-.063.005-.324-2.365-.581-5.3s-.415-5.31-.351-5.315.323,2.365.581,5.3S597.73,78.689,597.667,78.695Z" transform="translate(-596.72 -68.084)" fill="#263238"/>
              </g>
            </g>
            <g id="Grupo_55854" data-name="Grupo 55854" transform="translate(4.684 0.144)">
              <g id="Grupo_55853" data-name="Grupo 55853">
                <path id="Trazado_103467" data-name="Trazado 103467" d="M616.14,68.411c.052.037-1.885,2.849-4.327,6.28s-4.463,6.183-4.515,6.146,1.885-2.848,4.328-6.28S616.088,68.374,616.14,68.411Z" transform="translate(-607.297 -68.41)" fill="#263238"/>
              </g>
            </g>
            <g id="Grupo_55856" data-name="Grupo 55856" transform="translate(8.608 12.883)">
              <g id="Grupo_55855" data-name="Grupo 55855">
                <path id="Trazado_103468" data-name="Trazado 103468" d="M626.3,97.181c.013.062-2.248.58-5.049,1.155s-5.083.992-5.1.93,2.248-.58,5.05-1.155S626.291,97.119,626.3,97.181Z" transform="translate(-616.158 -97.175)" fill="#263238"/>
              </g>
            </g>
          </g>
        </g>
      </g>
      <g id="Folder" transform="translate(124.526 115.748)">
        <g id="Grupo_55862" data-name="Grupo 55862">
          <g id="Grupo_55859" data-name="Grupo 55859" transform="translate(38.259 15.072)">
            <path id="Trazado_103469" data-name="Trazado 103469" d="M276.677,227.706l-15.66,80.509-2.05,10.539,104.54-.516c4.692-.023,8.849-4.189,10.359-10.378L392.4,231.851c1.146-4.7-1.368-9.585-4.93-9.581l-105.806.111C279.331,222.384,277.289,224.564,276.677,227.706Z" transform="translate(-258.968 -222.27)" fill="#17c878"/>
          </g>
          <g id="Grupo_55860" data-name="Grupo 55860" transform="translate(38.259 15.072)" opacity="0.5">
            <path id="Trazado_103470" data-name="Trazado 103470" d="M276.677,227.706l-15.66,80.509-2.05,10.539,104.54-.516c4.692-.023,8.849-4.189,10.359-10.378L392.4,231.851c1.146-4.7-1.368-9.585-4.93-9.581l-105.806.111C279.331,222.384,277.289,224.564,276.677,227.706Z" transform="translate(-258.968 -222.27)"/>
          </g>
          <g id="Grupo_55861" data-name="Grupo 55861">
            <path id="Trazado_103471" data-name="Trazado 103471" d="M305.346,283.8,294.277,194.6a7.02,7.02,0,0,0-6.8-6.369l-24.271.079a6.614,6.614,0,0,0-4.794,2.126l-11.525,12.251-67.5.353c-4.125.021-7.294,3.925-6.747,8.31l10.276,82.437a7.021,7.021,0,0,0,6.793,6.365l117.641-.232c13.1.271,14.353-3.6,14.353-3.6C306.685,299.654,305.347,283.808,305.346,283.8Z" transform="translate(-172.575 -188.235)" fill="#17c878"/>
          </g>
        </g>
        <path id="Trazado_104842" data-name="Trazado 104842" d="M8.417,0H6.2L2.926-5.751V0H.7V-9.242H2.926L6.2-3.491V-9.242H8.417ZM9.458-3.5a4.054,4.054,0,0,1,.4-1.831,2.86,2.86,0,0,1,1.149-1.235A3.46,3.46,0,0,1,12.765-7,3.158,3.158,0,0,1,15.2-6.04a3.666,3.666,0,0,1,.889,2.6v.076a3.557,3.557,0,0,1-.892,2.549,3.166,3.166,0,0,1-2.415.943,3.2,3.2,0,0,1-2.355-.879,3.439,3.439,0,0,1-.958-2.384Zm2.139.133a2.556,2.556,0,0,0,.3,1.4.994.994,0,0,0,.882.444q1.143,0,1.168-1.758V-3.5q0-1.847-1.181-1.847-1.073,0-1.162,1.593ZM23.169-1.523a.951.951,0,0,0,.7-.244.9.9,0,0,0,.241-.682h2.006A2.375,2.375,0,0,1,25.3-.6,3.01,3.01,0,0,1,23.22.127a3.048,3.048,0,0,1-2.361-.939A3.7,3.7,0,0,1,20-3.415V-3.5a4.183,4.183,0,0,1,.384-1.838,2.8,2.8,0,0,1,1.108-1.225A3.3,3.3,0,0,1,23.2-7a2.972,2.972,0,0,1,2.126.743,2.634,2.634,0,0,1,.787,2.012H24.108a1.174,1.174,0,0,0-.26-.819.9.9,0,0,0-.7-.286q-.832,0-.971,1.06a7.48,7.48,0,0,0-.044.927,2.938,2.938,0,0,0,.248,1.435A.857.857,0,0,0,23.169-1.523ZM26.749-3.5a4.054,4.054,0,0,1,.4-1.831A2.86,2.86,0,0,1,28.3-6.563,3.46,3.46,0,0,1,30.056-7a3.158,3.158,0,0,1,2.431.955,3.666,3.666,0,0,1,.889,2.6v.076a3.557,3.557,0,0,1-.892,2.549,3.166,3.166,0,0,1-2.415.943,3.2,3.2,0,0,1-2.355-.879,3.439,3.439,0,0,1-.958-2.384Zm2.139.133a2.556,2.556,0,0,0,.3,1.4.994.994,0,0,0,.882.444q1.143,0,1.168-1.758V-3.5q0-1.847-1.181-1.847-1.073,0-1.162,1.593Zm7.4-3.5.07.806A2.329,2.329,0,0,1,38.314-7a1.96,1.96,0,0,1,1.6.641,3.052,3.052,0,0,1,.549,1.93V0H38.321V-4.335a1.159,1.159,0,0,0-.209-.765.969.969,0,0,0-.762-.244,1.02,1.02,0,0,0-.933.5V0H34.277V-6.868ZM42.123,0V-5.383h-1V-6.868h1v-.546a2.373,2.373,0,0,1,.692-1.822,2.734,2.734,0,0,1,1.942-.647,4.254,4.254,0,0,1,1,.133l.006,1.574a1.954,1.954,0,0,0-.527-.057q-.971,0-.971.838v.527h1.339v1.485H44.269V0ZM46.09-3.5a4.054,4.054,0,0,1,.4-1.831,2.86,2.86,0,0,1,1.149-1.235A3.46,3.46,0,0,1,49.4-7a3.158,3.158,0,0,1,2.431.955,3.666,3.666,0,0,1,.889,2.6v.076a3.557,3.557,0,0,1-.892,2.549A3.166,3.166,0,0,1,49.41.127a3.2,3.2,0,0,1-2.355-.879A3.439,3.439,0,0,1,46.1-3.136Zm2.139.133a2.556,2.556,0,0,0,.3,1.4.994.994,0,0,0,.882.444q1.143,0,1.168-1.758V-3.5q0-1.847-1.181-1.847-1.073,0-1.162,1.593Zm9.585-1.568-.7-.051a1.266,1.266,0,0,0-1.295.635V0H53.676V-6.868h2.006l.07.882A1.656,1.656,0,0,1,57.256-7a2.086,2.086,0,0,1,.6.076Zm2.793-1.936.07.806A2.362,2.362,0,0,1,62.639-7,1.739,1.739,0,0,1,64.4-5.96,2.286,2.286,0,0,1,66.416-7Q68.5-7,68.561-4.469V0H66.416V-4.335a1.309,1.309,0,0,0-.178-.768.757.757,0,0,0-.647-.241,1.014,1.014,0,0,0-.946.565l.006.089V0H62.505V-4.323a1.376,1.376,0,0,0-.171-.781.754.754,0,0,0-.654-.241,1.026,1.026,0,0,0-.939.565V0H58.6V-6.868ZM72.04,0H69.894V-6.868H72.04ZM69.767-8.646A.963.963,0,0,1,70.1-9.4a1.241,1.241,0,0,1,.857-.294,1.241,1.241,0,0,1,.857.294.963.963,0,0,1,.33.754.963.963,0,0,1-.33.754,1.241,1.241,0,0,1-.857.294,1.241,1.241,0,0,1-.857-.294A.963.963,0,0,1,69.767-8.646Zm3.32,5.161a4.2,4.2,0,0,1,.7-2.571A2.319,2.319,0,0,1,75.759-7a1.972,1.972,0,0,1,1.549.724V-9.75h2.146V0H77.53l-.108-.736a2.026,2.026,0,0,1-1.676.863A2.315,2.315,0,0,1,73.8-.812,4.329,4.329,0,0,1,73.087-3.485Zm2.139.133q0,1.828,1.066,1.828a1.053,1.053,0,0,0,1.016-.6V-4.735a1.025,1.025,0,0,0-1-.609q-.99,0-1.073,1.6ZM84.538,0a2.415,2.415,0,0,1-.2-.616,1.989,1.989,0,0,1-1.65.743,2.437,2.437,0,0,1-1.65-.587,1.869,1.869,0,0,1-.679-1.476,1.921,1.921,0,0,1,.825-1.688,4.2,4.2,0,0,1,2.4-.571h.66v-.364q0-.95-.819-.95a.669.669,0,0,0-.762.753H80.52a1.918,1.918,0,0,1,.847-1.617A3.561,3.561,0,0,1,83.529-7a3.122,3.122,0,0,1,2.076.641A2.229,2.229,0,0,1,86.385-4.6v3.041a3.114,3.114,0,0,0,.292,1.447V0ZM83.2-1.4a1.193,1.193,0,0,0,.663-.171,1.074,1.074,0,0,0,.378-.387v-1.1h-.622q-1.117,0-1.117,1a.612.612,0,0,0,.2.473A.712.712,0,0,0,83.2-1.4Zm4.1-2.088A4.2,4.2,0,0,1,88-6.056,2.319,2.319,0,0,1,89.972-7a1.972,1.972,0,0,1,1.549.724V-9.75h2.146V0H91.743l-.108-.736a2.026,2.026,0,0,1-1.676.863,2.315,2.315,0,0,1-1.942-.939A4.329,4.329,0,0,1,87.3-3.485Zm2.139.133q0,1.828,1.066,1.828a1.053,1.053,0,0,0,1.016-.6V-4.735a1.025,1.025,0,0,0-1-.609q-.99,0-1.073,1.6Z" transform="translate(16.005 71.385)" fill="#fff"/>
      </g>
      <g id="Speech_Bubble" data-name="Speech Bubble" transform="translate(259.846 58.132)">
        <g id="Grupo_55871" data-name="Grupo 55871">
          <g id="Grupo_55867" data-name="Grupo 55867" transform="translate(10.61 8.136)">
            <g id="Grupo_55864" data-name="Grupo 55864">
              <g id="Grupo_55863" data-name="Grupo 55863">
                <path id="Trazado_103472" data-name="Trazado 103472" d="M505.742,88.585a.826.826,0,0,1-.5-.724l-.177-4.111a.826.826,0,0,1,1.015-.84,2.568,2.568,0,0,0,2-.4A2.313,2.313,0,0,0,509.113,81a2.367,2.367,0,0,0-.5-1.778,2.637,2.637,0,0,0-1.745-1.05,3.1,3.1,0,0,0-3.143,2.231.826.826,0,1,1-1.595-.433,4.761,4.761,0,0,1,4.928-3.44,4.263,4.263,0,0,1,2.874,1.7,4.022,4.022,0,0,1,.81,3.041A3.968,3.968,0,0,1,509,83.889a4.328,4.328,0,0,1-2.241.732l.137,3.169a.827.827,0,0,1-1.151.8Z" transform="translate(-502.103 -76.504)" fill="#17c878"/>
              </g>
            </g>
            <g id="Grupo_55866" data-name="Grupo 55866" transform="translate(3.5 13.131)">
              <g id="Grupo_55865" data-name="Grupo 55865">
                <path id="Trazado_103473" data-name="Trazado 103473" d="M511.356,106.785a.676.676,0,1,1-.72-.628A.676.676,0,0,1,511.356,106.785Z" transform="translate(-510.006 -106.155)" fill="#17c878"/>
              </g>
            </g>
          </g>
          <g id="Grupo_55870" data-name="Grupo 55870">
            <g id="Grupo_55869" data-name="Grupo 55869">
              <g id="Grupo_55868" data-name="Grupo 55868">
                <path id="Trazado_103474" data-name="Trazado 103474" d="M478.163,72.552a1.7,1.7,0,0,0,.04-.27c.021-.193.05-.455.087-.792a9.321,9.321,0,0,1,.214-1.273c.058-.248.089-.524.179-.8s.178-.579.275-.894a15.228,15.228,0,0,1,2.2-4.219,14.85,14.85,0,0,1,13.728-5.78c.34.032.674.123,1.015.182a6.961,6.961,0,0,1,1.019.246,14.067,14.067,0,0,1,3.96,1.8,14.814,14.814,0,0,1,5.854,7.351,14.461,14.461,0,0,1,.868,5.052,14.2,14.2,0,0,1-.926,5.2l-.2.506-.027.067.027.062,3.256,7.5.186-.212-6.632-2.548-.082-.031-.064.062a14.828,14.828,0,0,1-6.263,3.616,14.729,14.729,0,0,1-11.957-1.856,15.172,15.172,0,0,1-3.734-3.477,14.686,14.686,0,0,1-2.833-6.791q-.079-.648-.139-1.152-.013-.5-.022-.846c-.007-.217-.013-.389-.017-.519a.9.9,0,0,0-.015-.176.988.988,0,0,0-.011.176c0,.13,0,.3-.007.52q0,.351,0,.851l.117,1.162a16.137,16.137,0,0,0,.757,3.127,16.3,16.3,0,0,0,2.03,3.764,15.286,15.286,0,0,0,3.761,3.551,14.914,14.914,0,0,0,12.138,1.938,15.071,15.071,0,0,0,6.389-3.667L503.19,84l6.629,2.559.334.129L510,86.351l-3.251-7.5v.129l.2-.517a14.5,14.5,0,0,0,.946-5.316,14.769,14.769,0,0,0-.892-5.163,15.08,15.08,0,0,0-5.983-7.488,14.313,14.313,0,0,0-4.037-1.816,7.2,7.2,0,0,0-1.037-.246c-.348-.059-.688-.15-1.033-.182a14.588,14.588,0,0,0-9.21,1.8,14.9,14.9,0,0,0-4.684,4.14,15.156,15.156,0,0,0-2.181,4.287l-.263.906c-.087.282-.114.561-.167.812a8.767,8.767,0,0,0-.187,1.285c-.024.339-.043.6-.058.8A1.893,1.893,0,0,0,478.163,72.552Z" transform="translate(-478.144 -58.132)" fill="#263238"/>
              </g>
            </g>
          </g>
        </g>
      </g>
    </g>
  </g>
</svg>
