<svg xmlns="http://www.w3.org/2000/svg" width="117.694" height="118.48" viewBox="0 0 117.694 118.48">
  <g id="bolsa-de-dinero_1_" data-name="bolsa-de-dinero (1)" transform="translate(-1 -0.586)">
    <g id="Grupo_54683" data-name="Grupo 54683" transform="translate(2.898 3.27)">
      <g id="Grupo_54662" data-name="Grupo 54662" transform="translate(17.085 28.474)">
        <path id="Trazado_101844" data-name="Trazado 101844" d="M26.186,22.695v7.84a6.942,6.942,0,0,0-1.9-.247,7.615,7.615,0,0,0-5.163,2.031l-2.734-.683A7.095,7.095,0,0,1,11,24.726a7.112,7.112,0,0,1,5.714-6.967L20.491,17Z" transform="translate(-11 -17)" fill="#d3a06c"/>
      </g>
      <g id="Grupo_54663" data-name="Grupo 54663" transform="translate(87.322 98.712)">
        <path id="Trazado_101845" data-name="Trazado 101845" d="M74.576,54v7.593c0,4.2-5.942,7.593-13.288,7.593S48,65.788,48,61.593V54c0,4.2,5.942,7.593,13.288,7.593S74.576,58.2,74.576,54Z" transform="translate(-48 -54)" fill="#fcd770"/>
      </g>
      <g id="Grupo_54664" data-name="Grupo 54664" transform="translate(87.322 91.118)">
        <path id="Trazado_101846" data-name="Trazado 101846" d="M64.61,50.247c5.733.835,9.966,3.8,9.966,7.346,0,4.2-5.942,7.593-13.288,7.593S48,61.788,48,57.593a4.412,4.412,0,0,1,.437-1.9c1.063-2.373,4.081-4.29,8.011-5.163A21.863,21.863,0,0,1,61.288,50,20.876,20.876,0,0,1,64.61,50.247Z" transform="translate(-48 -50)" fill="#ffc729"/>
      </g>
      <g id="Grupo_54665" data-name="Grupo 54665" transform="translate(70.237 70.237)">
        <path id="Trazado_101847" data-name="Trazado 101847" d="M73.169,56.085a17.85,17.85,0,0,1-.475,4.043,20.876,20.876,0,0,0-3.322-.247,21.863,21.863,0,0,0-4.841.532v-.019a9.382,9.382,0,0,0,1.044-4.309,9.491,9.491,0,1,0-9.491,9.491h.437a4.411,4.411,0,0,0-.437,1.9v5.695c-.266,0-.551,0-.816-.019A17.085,17.085,0,0,1,56.085,39c.342,0,.683.019,1.025.038A17.077,17.077,0,0,1,73.169,56.085Z" transform="translate(-39 -39)" fill="#ffc729"/>
      </g>
      <g id="Grupo_54666" data-name="Grupo 54666" transform="translate(77.83 77.83)">
        <path id="Trazado_101848" data-name="Trazado 101848" d="M61.983,52.491A9.382,9.382,0,0,1,60.939,56.8v.019c-3.929.873-6.948,2.79-8.011,5.163h-.437a9.491,9.491,0,1,1,9.491-9.491Z" transform="translate(-43 -43)" fill="#fcd770"/>
      </g>
      <g id="Grupo_54667" data-name="Grupo 54667" transform="translate(54.994 24.678)">
        <path id="Trazado_101849" data-name="Trazado 101849" d="M63.3,15A47.909,47.909,0,0,1,55.7,32.085a3.782,3.782,0,0,0-.8.076c-.171.038-11.5,2.449-23.938,4.1A38.86,38.86,0,0,0,34.5,24.491h.323c6.682,0,11.39-3.265,16.458-5.961l.626-.342A24.032,24.032,0,0,1,63.3,15Z" transform="translate(-30.97 -15)" fill="#d3a06c"/>
      </g>
      <g id="Grupo_54668" data-name="Grupo 54668" transform="translate(35.46 41.763)">
        <path id="Trazado_101850" data-name="Trazado 101850" d="M68.669,27a3.814,3.814,0,0,1-2.923,4.518c-.095.019-.342.076-.759.152A326.71,326.71,0,0,1,32.26,36.719c-3.835.361-7.574.569-10.972.569a3.142,3.142,0,0,1-.607-.057,7.568,7.568,0,0,0,2.506-5.638,7.917,7.917,0,0,0-.247-1.917,163.146,163.146,0,0,0,17.275-1.5c12.434-1.652,23.767-4.062,23.938-4.1A3.852,3.852,0,0,1,68.669,27Z" transform="translate(-20.68 -24)" fill="#ff826e"/>
      </g>
      <g id="Grupo_54669" data-name="Grupo 54669" transform="translate(49.356 0)">
        <path id="Trazado_101851" data-name="Trazado 101851" d="M54.576,11.491V29.867l-.626.342A13.294,13.294,0,0,0,28,34.271V11.491A9.495,9.495,0,0,0,37.491,2h7.593A9.495,9.495,0,0,0,54.576,11.491Z" transform="translate(-28 -2)" fill="#b4dd7f"/>
      </g>
      <g id="Grupo_54670" data-name="Grupo 54670" transform="translate(66.44 0)">
        <path id="Trazado_101852" data-name="Trazado 101852" d="M46.491,2v9.491A9.495,9.495,0,0,1,37,2Z" transform="translate(-37 -2)" fill="#a0d468"/>
      </g>
      <g id="Grupo_54671" data-name="Grupo 54671" transform="translate(49.356 18.983)">
        <path id="Trazado_101853" data-name="Trazado 101853" d="M53.95,21.226c-5.068,2.7-9.776,5.961-16.458,5.961h-.323a35.509,35.509,0,0,0,.323-3.8l-4.556,1.955A46.434,46.434,0,0,1,28,27.129V25.288a13.294,13.294,0,0,1,25.95-4.062Z" transform="translate(-28 -12)" fill="#fcd770"/>
      </g>
      <g id="Grupo_54672" data-name="Grupo 54672" transform="translate(49.356 0)">
        <path id="Trazado_101854" data-name="Trazado 101854" d="M28,2h9.491A9.495,9.495,0,0,1,28,11.491Z" transform="translate(-28 -2)" fill="#a0d468"/>
      </g>
      <g id="Grupo_54673" data-name="Grupo 54673" transform="translate(32.271 30.373)">
        <path id="Trazado_101855" data-name="Trazado 101855" d="M26.593,23.524a44.79,44.79,0,0,0,9.491-1.784,46.435,46.435,0,0,0,4.936-1.784L45.576,18a35.509,35.509,0,0,1-.323,3.8,38.86,38.86,0,0,1-3.531,11.769,163.148,163.148,0,0,1-17.275,1.5A7.586,7.586,0,0,0,19,29.637V19.9a3.824,3.824,0,0,0,3.8,3.8c1.272,0,2.544-.057,3.8-.171Z" transform="translate(-19 -18)" fill="#d3a06c"/>
      </g>
      <g id="Grupo_54674" data-name="Grupo 54674" transform="translate(34.264 18.983)">
        <path id="Trazado_101856" data-name="Trazado 101856" d="M35.141,25.288v1.841a44.79,44.79,0,0,1-9.491,1.784V21.491h-3.8a3.85,3.85,0,0,0-1.8.456,11.4,11.4,0,0,1,15.091-9.3Z" transform="translate(-20.05 -12)" fill="#fcd770"/>
      </g>
      <g id="Grupo_54675" data-name="Grupo 54675" transform="translate(13.288 49.432)">
        <path id="Trazado_101857" data-name="Trazado 101857" d="M83.034,48.845c.342,0,.683.019,1.025.038L75.478,28.04a326.711,326.711,0,0,1-32.727,5.049c-3.835.361-7.574.569-10.972.569a3.142,3.142,0,0,1-.607-.057,7.65,7.65,0,0,1-3.189,1.708V58.944a3.184,3.184,0,0,1-3.189,3.189,6,6,0,0,1-4.271-1.765,6.894,6.894,0,0,1-2.031-4.9,6.5,6.5,0,0,1,.247-1.822L23.769,35.2a7.662,7.662,0,0,1-2.506-1.367L11.734,52.87a24.6,24.6,0,0,0-2.373,7.365A23.984,23.984,0,0,0,9,64.449a27.874,27.874,0,0,0,6.682,18.129A27.478,27.478,0,0,0,32.52,91.937a44.89,44.89,0,0,0,6.853.569H52.661c3.948,0,7.8-.171,11.447-.418A26.431,26.431,0,0,0,82.217,83a17.085,17.085,0,0,1,.816-34.15Z" transform="translate(-9 -28.04)" fill="#cf9e76"/>
      </g>
      <g id="Grupo_54676" data-name="Grupo 54676" transform="translate(32.271 28.474)">
        <path id="Trazado_101858" data-name="Trazado 101858" d="M26.593,17v7.422c-1.253.114-2.525.171-3.8.171A3.824,3.824,0,0,1,19,20.8,3.8,3.8,0,0,1,22.8,17Z" transform="translate(-19 -17)" fill="#b27946"/>
      </g>
      <g id="Grupo_54677" data-name="Grupo 54677" transform="translate(25.551 0)">
        <path id="Trazado_101859" data-name="Trazado 101859" d="M22.18,2,28.9,8.72a9.521,9.521,0,0,1-13.44,0Z" transform="translate(-15.46 -2)" fill="#a0d468"/>
      </g>
      <g id="Grupo_54678" data-name="Grupo 54678" transform="translate(21.906 6.72)">
        <path id="Trazado_101860" data-name="Trazado 101860" d="M30.625,5.54a9.521,9.521,0,0,1-13.44,0L13.54,9.185a9.521,9.521,0,0,1,0,13.44l4.67,4.67L23.9,32.989v-1.9A3.82,3.82,0,0,1,25.9,27.75a11.4,11.4,0,0,1,15.091-9.3V15.9Z" transform="translate(-13.54 -5.54)" fill="#b4dd7f"/>
      </g>
      <g id="Grupo_54679" data-name="Grupo 54679" transform="translate(15.186 10.365)">
        <path id="Trazado_101861" data-name="Trazado 101861" d="M10,14.18l6.72-6.72a9.521,9.521,0,0,1,0,13.44Z" transform="translate(-10 -7.46)" fill="#a0d468"/>
      </g>
      <g id="Grupo_54680" data-name="Grupo 54680" transform="translate(22.78 41.763)">
        <path id="Trazado_101862" data-name="Trazado 101862" d="M28.94,29.676a7.917,7.917,0,0,1,.247,1.917,7.568,7.568,0,0,1-2.506,5.638,7.65,7.65,0,0,1-3.189,1.708,6.942,6.942,0,0,1-1.9.247,7.874,7.874,0,0,1-2.316-.361A7.6,7.6,0,0,1,14,31.593a7.536,7.536,0,0,1,2.43-5.562A7.615,7.615,0,0,1,21.593,24a6.942,6.942,0,0,1,1.9.247,7.586,7.586,0,0,1,5.448,5.429Z" transform="translate(-14 -24)" fill="#fc6e51"/>
      </g>
      <g id="Grupo_54681" data-name="Grupo 54681" transform="translate(22.78 56.588)">
        <path id="Trazado_101863" data-name="Trazado 101863" d="M23.491,31.924V55.558A3.184,3.184,0,0,1,20.3,58.747a6,6,0,0,1-4.271-1.765A6.894,6.894,0,0,1,14,52.084a6.5,6.5,0,0,1,.247-1.822l5.03-18.451a7.874,7.874,0,0,0,2.316.361,6.942,6.942,0,0,0,1.9-.247Z" transform="translate(-14 -31.81)" fill="#ff826e"/>
      </g>
      <g id="Grupo_54682" data-name="Grupo 54682" transform="translate(0 49.356)">
        <path id="Trazado_101864" data-name="Trazado 101864" d="M27.551,33.866l-9.529,19.04a24.6,24.6,0,0,0-2.373,7.365h-2.7A11.553,11.553,0,0,1,2.588,53.855,5.717,5.717,0,0,1,2,51.349a5.62,5.62,0,0,1,1.822-4.138L24.78,28A7.619,7.619,0,0,0,27.551,33.866Z" transform="translate(-2 -28)" fill="#ff826e"/>
      </g>
    </g>
    <g id="Grupo_54684" data-name="Grupo 54684" transform="translate(1 0.586)">
      <path id="Trazado_101865" data-name="Trazado 101865" d="M40.983,38.1V33h-3.8v3.948a13.336,13.336,0,0,0-1.9-.152h-1.9V33h-3.8v3.8H22v9.491a13.294,13.294,0,0,0,7.593,11.988V72.817a9.453,9.453,0,0,1-3.8-7.544V59.578H22v5.695a13.294,13.294,0,0,0,7.593,11.988v5.1h3.8V78.407a13.337,13.337,0,0,0,1.9.152h1.9v3.8h3.8v-3.8h7.593V69.068A13.294,13.294,0,0,0,40.983,57.08V42.539a9.453,9.453,0,0,1,3.8,7.544v5.695h3.8V50.083A13.293,13.293,0,0,0,40.983,38.1ZM25.8,46.288V40.593h3.8V53.832A9.447,9.447,0,0,1,25.8,46.288Zm9.491,28.474a9.482,9.482,0,0,1-1.9-.192V59.424a13.336,13.336,0,0,0,1.9.152,9.483,9.483,0,0,1,1.9.192V74.763Zm9.492-5.695v5.695h-3.8V61.524A9.447,9.447,0,0,1,44.78,69.068ZM37.186,55.931a13.336,13.336,0,0,0-1.9-.152,9.482,9.482,0,0,1-1.9-.192V40.593h1.9a9.482,9.482,0,0,1,1.9.192Z" transform="translate(17.864 28.531)"/>
      <path id="Trazado_101866" data-name="Trazado 101866" d="M109.021,93.122A18.868,18.868,0,0,0,92.563,71.768L85.2,53.886a5.623,5.623,0,0,0,.416-9.848A50.818,50.818,0,0,0,92.08,28.32l.456-2.27H90.22a23.32,23.32,0,0,0-9.491,2.1V1.372H50.356v14.4L35.169.586,15.4,20.355,25.625,30.579l-.294.059a9.014,9.014,0,0,0-.416,17.584,9.374,9.374,0,0,0-1.042,3.483L3.436,70.438a7.52,7.52,0,0,0-1.642,8.9A13.416,13.416,0,0,0,13.857,86.8h.566c-.065.771-.135,1.541-.135,2.316a29.823,29.823,0,0,0,25.133,29.374,48.828,48.828,0,0,0,7.138.581H59.847c3.7,0,7.6-.144,11.583-.429a28.081,28.081,0,0,0,17.128-7.411c1.217,4.507,7.339,7.84,14.949,7.84,8.516,0,15.186-4.169,15.186-9.491v-7.593c0-4.1-3.964-7.506-9.674-8.859Zm5.877,8.859c0,2.694-4.677,5.695-11.39,5.695s-11.39-3-11.39-5.695,4.677-5.695,11.39-5.695S114.9,99.288,114.9,101.982ZM97.257,93.308A13.581,13.581,0,0,0,89.6,98.121a7.575,7.575,0,1,1,8.218-7.529A7.473,7.473,0,0,1,97.257,93.308Zm8.149-2.716a15.433,15.433,0,0,1-.135,1.965c-.579-.042-1.166-.066-1.764-.066-.714,0-1.409.04-2.094.1a11.534,11.534,0,0,0,.2-2,11.39,11.39,0,1,0-13.275,11.221c0,.057-.013.112-.013.169v3.666a15.181,15.181,0,1,1,17.085-15.055ZM33.271,62.117V83.6a1.3,1.3,0,0,1-1.3,1.3,4.114,4.114,0,0,1-2.927-1.213,5.059,5.059,0,0,1-1.471-3.556,4.951,4.951,0,0,1,.178-1.323l4.577-16.783C32.645,62.053,32.95,62.117,33.271,62.117Zm0-3.8a5.695,5.695,0,1,1,5.695-5.695A5.7,5.7,0,0,1,33.271,58.321Zm30.2-53.152h4.14a11.4,11.4,0,0,0,9.321,9.321V25.547a15.108,15.108,0,0,0-22.781-.017V14.489A11.405,11.405,0,0,0,63.473,5.168ZM56.434,33.854c-.74.317-1.49.6-2.24.871a11.372,11.372,0,0,1,21.608-4.1c-.247.137-.5.271-.74.408-3.677,2.043-7.176,3.981-11.515,4.414.085-1.044.1-1.7.1-1.79l.025-2.9Zm-6.078,2.094a43.724,43.724,0,0,1-5.695,1.129V29.846H39.8a9.32,9.32,0,0,1,10.558-5.484Zm-11.39-2.3h1.9V37.4c-.63.027-1.264.04-1.9.04a1.9,1.9,0,1,1,0-3.8Zm9.491-13.288A13.3,13.3,0,0,0,35.422,31.118a5.7,5.7,0,0,0-1.7,2.194l-6.365-6.365a11.339,11.339,0,0,0,.006-13.191l1.209-1.209a11.342,11.342,0,0,0,13.186,0l7.91,7.91c-.4-.036-.8-.1-1.215-.1ZM37.068,40.887a5.631,5.631,0,0,0,1.9.349,47.849,47.849,0,0,0,18.962-3.893l1.672-.716a37.959,37.959,0,0,1-3,10.849c-4.974.638-10.074,1.137-14.672,1.3a9.519,9.519,0,0,0-4.86-4.833Zm5.685,11.654c16.42-.685,38.5-5.359,39.475-5.568a1.927,1.927,0,0,1,2.255,1.458,1.886,1.886,0,0,1-.262,1.429,1.861,1.861,0,0,1-1.192.826c-1.038.22-24.226,5.116-41.041,5.682a9.43,9.43,0,0,0,.775-3.742c0-.03-.008-.057-.009-.085Zm38.805-9.294c-.042.008-.084,0-.125.013-.611.131-9.748,2.063-20.458,3.616a41.8,41.8,0,0,0,2.073-7.6c5.526-.328,9.765-2.646,13.856-4.918,3.481-1.934,6.8-3.78,10.83-4.336A45.405,45.405,0,0,1,81.558,43.246ZM76.932,10.594a7.583,7.583,0,0,1-5.425-5.425h5.425ZM59.578,5.168a7.583,7.583,0,0,1-5.425,5.425V5.168ZM38.991,9.776a7.88,7.88,0,0,1-7.641,0l3.819-3.821Zm-14.38,6.737a7.4,7.4,0,0,1,0,7.681l-3.838-3.838Zm-2.73,22.964a5.232,5.232,0,0,1,4.2-5.116l2.773-.554,4.421,4.419v4.909A9.4,9.4,0,0,0,27.675,45l-1.841-.461a5.209,5.209,0,0,1-3.952-5.061ZM14.987,83H13.857A9.638,9.638,0,0,1,5.19,77.644,3.721,3.721,0,0,1,6,73.238l18.51-16.967a9.49,9.49,0,0,0,1.634,2.561L17.221,76.683A27.876,27.876,0,0,0,14.987,83Zm56.173,31.853c-3.892.277-7.7.418-11.312.418H46.559a44.594,44.594,0,0,1-6.572-.541,26,26,0,0,1-21.9-25.618,24.122,24.122,0,0,1,2.532-10.729l7.3-14.594L24.091,77.807a8.823,8.823,0,0,0,2.272,8.561,7.885,7.885,0,0,0,5.611,2.325A5.1,5.1,0,0,0,37.068,83.6V61.313a9.45,9.45,0,0,0,1.845-1.1c.017,0,.034,0,.053,0,14.545,0,35.549-3.947,42.533-5.344L88.428,71.7a18.966,18.966,0,0,0-3.018,37.233,24.314,24.314,0,0,1-14.251,5.919Zm32.349.418c-6.712,0-11.39-3-11.39-5.695v-1.266a20.02,20.02,0,0,0,11.39,3.164,20.02,20.02,0,0,0,11.39-3.164v1.266C114.9,112.269,110.22,115.27,103.508,115.27Z" transform="translate(-1 -0.586)"/>
    </g>
  </g>
</svg>
