<svg xmlns="http://www.w3.org/2000/svg" xmlns:xlink="http://www.w3.org/1999/xlink" width="65" height="65" viewBox="0 0 65 65">
  <defs>
    <clipPath id="clip-path">
      <rect id="Rectángulo_5672" data-name="Rectángulo 5672" width="65" height="65" transform="translate(535 4075)" fill="#e2f6c6" stroke="#707070" stroke-width="1"/>
    </clipPath>
  </defs>
  <g id="Enmascarar_grupo_61" data-name="Enmascarar grupo 61" transform="translate(-535 -4075)" clip-path="url(#clip-path)">
    <g id="Shopping_Bag-Hands-Bag-Purchase-Buy" data-name="Shopping Bag-Hands-Bag-Purchase-Buy" transform="translate(533.384 4073.522)">
      <path id="Trazado_103136" data-name="Trazado 103136" d="M45.7,12.753H41.447V9.565a7.439,7.439,0,1,0-14.879,0v3.188H22.318a1.063,1.063,0,0,0-1.063,1.063V37.2a3.2,3.2,0,0,0,3.188,3.188H38.259V38.259H24.443A1.063,1.063,0,0,1,23.381,37.2V36.134H38.259V34.008H23.381V14.879h3.188v3.188h2.126V14.879H39.322v3.188h2.125V14.879h3.188v3.188h2.125V13.816A1.063,1.063,0,0,0,45.7,12.753Zm-6.377,0H28.694V9.565a5.314,5.314,0,0,1,10.628,0Z" fill="#e2f6c6"/>
      <path id="Trazado_103137" data-name="Trazado 103137" d="M60.577,20.192H41.447a1.063,1.063,0,0,0-1.063,1.063V37.2a3.2,3.2,0,0,0,3.188,3.188H58.451A3.2,3.2,0,0,0,61.64,37.2V21.255A1.063,1.063,0,0,0,60.577,20.192Zm-1.063,17a1.063,1.063,0,0,1-1.063,1.063H43.573A1.063,1.063,0,0,1,42.51,37.2V36.134h17Zm0-3.188h-17V22.318h17Z" fill="#e2f6c6"/>
      <path id="Trazado_103138" data-name="Trazado 103138" d="M51.012,31.883a5.32,5.32,0,0,0,5.314-5.314V24.443H54.2v2.126a3.188,3.188,0,1,1-6.377,0V24.443H45.7v2.126a5.32,5.32,0,0,0,5.314,5.314Z" fill="#e2f6c6"/>
      <path id="Trazado_103139" data-name="Trazado 103139" d="M66.243,47.346a4.367,4.367,0,0,0-5.5-2.191l-9.49,3.454a4.251,4.251,0,0,0-3.373-3.145L35.059,43.2a15.96,15.96,0,0,0-8.22.719l-1.652.607a17.979,17.979,0,0,0-4.357,2.316L20.6,46.2a1.063,1.063,0,0,0-1.361-.638L7.249,49.92a1.063,1.063,0,0,0-.638,1.361L1.616,53.1l.727,2,4.995-1.817,4.335,11.911,2-.727L8.977,51.554l9.99-3.635L24.42,62.9l-2.551.93.727,2,3.547-1.3a1.063,1.063,0,0,0,.638-1.362l-.363-1,2.444-.891a11.63,11.63,0,0,1,4.807-.678l5.042.35a13.648,13.648,0,0,0,5.68-.8l19.427-7.07a4.251,4.251,0,0,0,2.424-5.739ZM64.29,49.984a2.109,2.109,0,0,1-1.2,1.1L43.665,58.156a11.576,11.576,0,0,1-4.807.677l-5.042-.35a13.772,13.772,0,0,0-5.679.8l-2.451.892-4.1-11.257a15.858,15.858,0,0,1,4.325-2.4l1.649-.6A13.832,13.832,0,0,1,34.69,45.3L47.5,47.557a2.125,2.125,0,1,1-.738,4.186l-11.513-2.03-.37,2.094L46.4,53.837a4.232,4.232,0,0,0,4.789-2.944l10.279-3.742A2.264,2.264,0,0,1,64.3,48.214a2.136,2.136,0,0,1-.01,1.771Z" fill="#e2f6c6"/>
    </g>
  </g>
</svg>
