<svg xmlns="http://www.w3.org/2000/svg" xmlns:xlink="http://www.w3.org/1999/xlink" width="138" height="138" viewBox="0 0 138 138">
  <defs>
    <clipPath id="clip-path">
      <rect id="Rectángulo_5787" data-name="Rectángulo 5787" width="138" height="138" transform="translate(195 5230)" fill="#fff" stroke="#707070" stroke-width="1"/>
    </clipPath>
  </defs>
  <g id="Enmascarar_grupo_74" data-name="Enmascarar grupo 74" transform="translate(-195 -5230)" clip-path="url(#clip-path)">
    <g id="negocio" transform="translate(195 5245.644)">
      <path id="Trazado_104669" data-name="Trazado 104669" d="M111.256,77a2.021,2.021,0,1,0,2.363,3.281A13.427,13.427,0,0,0,101.97,56.5a2.021,2.021,0,1,0,1.147,3.877A9.382,9.382,0,0,1,111.256,77Z" transform="translate(-13.822 -23.338)" fill="#fff"/>
      <path id="Trazado_104670" data-name="Trazado 104670" d="M72.205,78.637a10.163,10.163,0,0,0-5.261,19.634,10.215,10.215,0,0,0,2.647.351,10.166,10.166,0,0,0,2.614-19.985Zm3.282,11.4a6.118,6.118,0,1,1-5.922-7.707,6.157,6.157,0,0,1,1.594.211,6.121,6.121,0,0,1,4.328,7.5Z" transform="translate(-8.169 -26.408)" fill="#fff"/>
      <path id="Trazado_104671" data-name="Trazado 104671" d="M96.382,68.15c0-.012,0-.02,0-.029s0-.012,0-.016a2.04,2.04,0,0,0-.963-1.668c-.532-.327-13.059-7.93-25.434-7.93l-.359,0a2,2,0,0,0-.258.02,22.278,22.278,0,0,0-10.785,2.785,76.811,76.811,0,0,0-9.492,6.721,32.685,32.685,0,0,0-30.079,6.4A2.022,2.022,0,0,0,18.558,77l7.814,13.532c-1.133,1.362-2.2,2.7-3.177,3.983a2.021,2.021,0,0,0-.142,2.235l10.9,18.875a2.021,2.021,0,0,0,1.75,1.011,2.054,2.054,0,0,0,.256-.016c1.629-.208,3.314-.463,5.038-.758l7.813,13.533a2.02,2.02,0,0,0,2.445.888,33.428,33.428,0,0,0,5.184-2.412,32.835,32.835,0,0,0,15.4-20.449A77.021,77.021,0,0,0,82.4,102.568C96.768,94.272,96.419,69.695,96.382,68.15ZM88.5,89.143,73.26,62.742a44.251,44.251,0,0,1,9.64,2.332l.078.028q.263.093.522.189l.2.073.392.147.23.087.4.155.468.186.18.072.38.155.111.046a64.549,64.549,0,0,1,6.482,3.117c-.011.732-.045,1.792-.132,3.085,0,.033,0,.065-.007.1-.007.1-.014.2-.022.3,0,.063-.009.127-.015.191-.007.088-.013.175-.021.265-.012.154-.025.311-.04.47l-.008.083q-.021.232-.044.471l-.01.1c-.018.179-.036.36-.056.544h0A49.656,49.656,0,0,1,88.5,89.143Zm-34.086,35.22a28.86,28.86,0,0,1-2.982,1.492l-6.227-10.787A178.331,178.331,0,0,0,67.1,109.134,28.782,28.782,0,0,1,54.417,124.363ZM69.491,104c-.062.02-.123.043-.182.069A169.383,169.383,0,0,1,41.8,111.61a2,2,0,0,0-.237.043c-1.63.294-3.231.555-4.786.774L27.232,95.9A148.921,148.921,0,0,1,37.089,84.64a2.021,2.021,0,1,0-2.913-2.8c-1.748,1.817-3.429,3.641-5.014,5.438L22.933,76.486a28.344,28.344,0,0,1,2.781-1.834,28.753,28.753,0,0,1,19.521-3.374c-1.717,1.5-3.477,3.1-5.26,4.8A2.021,2.021,0,1,0,42.76,79c2.757-2.62,5.446-5.007,7.993-7.109.048-.036.093-.074.138-.114A75.438,75.438,0,0,1,60.6,64.815a17.776,17.776,0,0,1,7.9-2.226L86.259,93.343a17.8,17.8,0,0,1-5.881,5.724A76.107,76.107,0,0,1,69.491,104Z" transform="translate(-2.515 -23.689)" fill="#fff"/>
      <path id="Trazado_104672" data-name="Trazado 104672" d="M21.462,115.079a14.836,14.836,0,0,0-7.744-1.573A2.021,2.021,0,1,0,14,117.539a10.775,10.775,0,0,1,4.368.6A10.732,10.732,0,0,1,4.2,126.32a10.772,10.772,0,0,1,3.578-6.23,2.022,2.022,0,1,0-2.625-3.075A14.844,14.844,0,0,0,0,127.469a2.022,2.022,0,0,0,1.1,1.911,14.777,14.777,0,0,0,21.46-12.389A2.023,2.023,0,0,0,21.462,115.079Z" transform="translate(0 -31.246)" fill="#fff"/>
      <path id="Trazado_104673" data-name="Trazado 104673" d="M145.1,62.156h-5.782a38.344,38.344,0,0,0-36.215-36.215V20.159a2.021,2.021,0,1,0-4.043,0v5.787a38.272,38.272,0,0,0-32.5,21.648,2.022,2.022,0,0,0,3.643,1.753A34.232,34.232,0,0,1,99.064,30V35.66a2.021,2.021,0,1,0,4.043,0V29.992a34.294,34.294,0,0,1,32.164,32.164H129.6a2.021,2.021,0,0,0,0,4.043h5.667a34.3,34.3,0,0,1-32.164,32.164V92.7a2.021,2.021,0,1,0-4.043,0v5.667a34.373,34.373,0,0,1-4.68-.594,2.022,2.022,0,0,0-.786,3.966,38.457,38.457,0,0,0,5.466.678V108.2a2.021,2.021,0,0,0,4.043,0v-5.782A38.344,38.344,0,0,0,139.322,66.2H145.1a2.022,2.022,0,0,0,0-4.044Z" transform="translate(-9.125 -18.138)" fill="#fff"/>
    </g>
  </g>
</svg>
