<svg xmlns="http://www.w3.org/2000/svg" xmlns:xlink="http://www.w3.org/1999/xlink" width="86" height="86" viewBox="0 0 86 86">
  <defs>
    <clipPath id="clip-path">
      <rect id="Rectángulo_5783" data-name="Rectángulo 5783" width="86" height="86" transform="translate(409 5592)" fill="#fff"/>
    </clipPath>
  </defs>
  <g id="Enmascarar_grupo_76" data-name="Enmascarar grupo 76" transform="translate(-409 -5592)" clip-path="url(#clip-path)">
    <g id="mejoramiento" transform="translate(409 5592)">
      <path id="Trazado_104685" data-name="Trazado 104685" d="M18.244,9.327,24.8,13.269,34.845,9.106,36.7,1.68H49.3l1.85,7.426L61.2,13.269l6.556-3.941,8.917,8.917L72.731,24.8l4.163,10.045,7.426,1.85V49.3l-7.425,1.85L72.731,61.2l3.941,6.556-8.917,8.917L61.2,72.731,51.154,76.894,49.3,84.32H36.7l-1.85-7.426L24.8,72.731l-6.556,3.941L9.327,67.756,13.268,61.2,9.105,51.154,1.68,49.3V36.7l7.426-1.85L13.268,24.8,9.327,18.245Z" fill="#78d2fa"/>
      <circle id="Elipse_4179" data-name="Elipse 4179" cx="25.531" cy="25.531" r="25.531" transform="translate(17.468 17.469)" fill="#fff"/>
      <path id="Trazado_104686" data-name="Trazado 104686" d="M35.127,40.39,29.381,56.62l16.23-5.746,37.6-37.6a3.8,3.8,0,0,0,0-5.377L78.1,2.794a3.8,3.8,0,0,0-5.377,0Z" fill="#f5b955"/>
      <path id="Trazado_104687" data-name="Trazado 104687" d="M35.127,40.39,29.381,56.62l16.23-5.746Z" fill="#fff"/>
      <path id="Trazado_104688" data-name="Trazado 104688" d="M29.381,56.62l9.457-3.348-6.109-6.109Z" fill="#878791"/>
      <path id="Trazado_104689" data-name="Trazado 104689" d="M77.842,18.642l5.365-5.365a3.8,3.8,0,0,0,0-5.377L78.1,2.793a3.8,3.8,0,0,0-5.377,0L67.358,8.158Z" fill="#ff5a5a"/>
      <path id="Trazado_104690" data-name="Trazado 104690" d="M84.725,35.066l-6.6-1.645-3.716-8.966,9.989-9.989a5.481,5.481,0,0,0,0-7.752L79.287,1.606a5.488,5.488,0,0,0-7.752,0l-9.988,9.988L52.579,7.878l-1.645-6.6A1.679,1.679,0,0,0,49.3,0H36.7a1.679,1.679,0,0,0-1.63,1.274l-1.645,6.6L24.94,11.392l-5.83-3.5a1.68,1.68,0,0,0-2.053.252L8.139,17.057a1.68,1.68,0,0,0-.252,2.053l3.5,5.83-3.514,8.48-6.6,1.645A1.679,1.679,0,0,0,0,36.7V49.3a1.679,1.679,0,0,0,1.274,1.63l6.6,1.645,3.515,8.48-3.5,5.83a1.68,1.68,0,0,0,.252,2.053l8.917,8.917a1.68,1.68,0,0,0,2.053.252l5.83-3.5,8.48,3.514,1.645,6.6A1.679,1.679,0,0,0,36.7,86H49.3a1.679,1.679,0,0,0,1.63-1.274l1.645-6.6,8.48-3.514,5.83,3.5a1.68,1.68,0,0,0,2.053-.252l8.917-8.917a1.68,1.68,0,0,0,.252-2.053l-3.5-5.83,3.515-8.48,6.6-1.645A1.679,1.679,0,0,0,86,49.3V36.7A1.68,1.68,0,0,0,84.725,35.066Zm-20.4-5.286-.011.011L45.611,48.5l-2.852-2.852L56.3,32.11a1.68,1.68,0,0,0-2.376-2.376L40.384,43.271,37.5,40.389,56.21,21.682l.01-.01L67.2,10.7l2.882,2.882-7.132,7.132a1.68,1.68,0,1,0,2.375,2.376l7.132-7.132L75.3,18.8ZM33.4,50.306l2.3,2.3-3.556,1.259ZM39.2,51.361,34.64,46.8l1.181-3.337,3.371,3.371,0,0,0,0,3.341,3.341ZM73.91,3.981a2.124,2.124,0,0,1,3,0l5.108,5.108a2.122,2.122,0,0,1,0,3L77.68,16.429,69.571,8.32Zm8.73,44.01-6.152,1.533a1.68,1.68,0,0,0-1.146.987L71.179,60.556a1.679,1.679,0,0,0,.112,1.508L74.556,67.5,67.5,74.557l-5.431-3.265a1.68,1.68,0,0,0-1.508-.112L50.511,75.343a1.68,1.68,0,0,0-.987,1.146L47.991,82.64H38.008l-1.533-6.152a1.68,1.68,0,0,0-.987-1.146L25.443,71.18a1.679,1.679,0,0,0-1.508.112L18.5,74.557,11.443,67.5l3.265-5.431a1.679,1.679,0,0,0,.112-1.508L10.657,50.511a1.68,1.68,0,0,0-1.146-.987L3.359,47.992V38.008l6.152-1.533a1.68,1.68,0,0,0,1.146-.987L14.82,25.444a1.679,1.679,0,0,0-.112-1.508L11.443,18.5,18.5,11.443l5.431,3.265a1.679,1.679,0,0,0,1.508.112l10.045-4.163a1.68,1.68,0,0,0,.987-1.146L38.008,3.36h9.983l1.533,6.152a1.68,1.68,0,0,0,.987,1.146l8.465,3.508-4.27,4.27a27.229,27.229,0,0,0-25.623,1.178A1.68,1.68,0,1,0,30.8,22.5a23.88,23.88,0,0,1,21.361-1.521L33.939,39.2a1.678,1.678,0,0,0-.4.627L27.8,56.059A1.68,1.68,0,0,0,29.941,58.2l16.23-5.746a1.679,1.679,0,0,0,.627-.4L65.023,33.837a23.851,23.851,0,1,1-42.6-2.907,1.68,1.68,0,0,0-2.9-1.7A27.212,27.212,0,1,0,67.565,31.3l4.27-4.27,3.507,8.463a1.68,1.68,0,0,0,1.146.987l6.152,1.533v9.983Z" fill="#12263f"/>
      <path id="Trazado_104691" data-name="Trazado 104691" d="M24.9,26.669a1.675,1.675,0,0,0,1.188-.492l.049-.049a1.68,1.68,0,0,0-2.389-2.361l-.035.035A1.68,1.68,0,0,0,24.9,26.669Z" fill="#12263f"/>
      <path id="Trazado_104692" data-name="Trazado 104692" d="M58.484,25.172l-.018.018a1.68,1.68,0,1,0,2.375,2.376l.018-.018a1.68,1.68,0,0,0-2.375-2.376Z" fill="#12263f"/>
      <path id="Trazado_104693" data-name="Trazado 104693" d="M43,63.324A20.347,20.347,0,0,0,63.324,43a1.68,1.68,0,0,0-3.359,0A16.984,16.984,0,0,1,43,59.965a1.68,1.68,0,0,0,0,3.359Z" fill="#12263f"/>
    </g>
  </g>
</svg>
