<svg xmlns="http://www.w3.org/2000/svg" width="166" height="166" viewBox="0 0 166 166">
  <g id="Grupo_55877" data-name="Grupo 55877" transform="translate(-1137 -1919)">
    <circle id="Elipse_4178" data-name="Elipse 4178" cx="83" cy="83" r="83" transform="translate(1137 1919)" fill="#f1d54e"/>
    <g id="archivos" transform="translate(1164.333 1926.288)">
      <path id="Trazado_103508" data-name="Trazado 103508" d="M26.694,136.546l-.076-.133q-.224-.383-.425-.776c-.014-.028-.029-.054-.043-.082a15.507,15.507,0,0,1-.788-1.862l-.014-.039A15.475,15.475,0,0,1,24.5,128.6V30.671a6.724,6.724,0,0,1,6.724-6.724h70.417v-4A9.947,9.947,0,0,0,91.689,10H19.95A9.946,9.946,0,0,0,10,19.947V128.253A9.946,9.946,0,0,0,19.95,138.2h7.882l-.044-.06a15.458,15.458,0,0,1-1.1-1.593Zm0,0" transform="translate(-7.046 -7.043)" fill="#fab05f"/>
      <g id="Grupo_55876" data-name="Grupo 55876" transform="translate(17.449 16.905)">
        <path id="Trazado_103509" data-name="Trazado 103509" d="M127.642,496.171c-.271-.126-.54-.263-.805-.406C127.1,495.908,127.37,496.046,127.642,496.171Zm0,0" transform="translate(-106.774 -366.049)" fill="#ffd866"/>
        <path id="Trazado_103510" data-name="Trazado 103510" d="M118.923,490.524q-.295-.218-.579-.453Q118.628,490.3,118.923,490.524Zm0,0" transform="translate(-100.793 -362.038)" fill="#ffd866"/>
        <path id="Trazado_103511" data-name="Trazado 103511" d="M73.5,447.135c-.23-.22-.449-.449-.663-.682C73.054,446.685,73.273,446.915,73.5,447.135Zm0,0" transform="translate(-68.747 -331.32)" fill="#ffd866"/>
        <path id="Trazado_103512" data-name="Trazado 103512" d="M121.623,492.543q-.39-.248-.764-.52Q121.233,492.3,121.623,492.543Zm0,0" transform="translate(-102.564 -363.413)" fill="#ffd866"/>
        <path id="Trazado_103513" data-name="Trazado 103513" d="M71.11,444.452c-.163-.183-.32-.369-.474-.558C70.79,444.084,70.948,444.27,71.11,444.452Zm0,0" transform="translate(-67.195 -329.518)" fill="#ffd866"/>
        <path id="Trazado_103514" data-name="Trazado 103514" d="M75.082,448.758l11.907,11.435c.223.215.455.419.69.619-.235-.2-.466-.4-.69-.619Zm0,0" transform="translate(-70.326 -332.943)" fill="#ffd866"/>
        <path id="Trazado_103515" data-name="Trazado 103515" d="M124.557,494.451q-.345-.192-.682-.4Q124.212,494.258,124.557,494.451Zm0,0" transform="translate(-104.689 -364.84)" fill="#ffd866"/>
        <path id="Trazado_103516" data-name="Trazado 103516" d="M133.888,498.885c-.26-.082-.516-.172-.771-.268Q133.5,498.762,133.888,498.885Zm0,0" transform="translate(-111.197 -368.056)" fill="#ffd866"/>
        <path id="Trazado_103517" data-name="Trazado 103517" d="M130.5,497.536c-.3-.116-.589-.239-.878-.372C129.906,497.3,130.2,497.421,130.5,497.536Zm0,0" transform="translate(-108.732 -367.033)" fill="#ffd866"/>
        <path id="Trazado_103518" data-name="Trazado 103518" d="M61.93,428.234a15.511,15.511,0,0,0,.788,1.862A15.511,15.511,0,0,1,61.93,428.234Zm0,0" transform="translate(-61.063 -318.489)" fill="#ffd866"/>
        <path id="Trazado_103519" data-name="Trazado 103519" d="M124.115,160.883c-16.207,0-32.414-6.719-45.1-20.157a6.6,6.6,0,0,1,0-8.82c19.77-20.936,48.078-25.56,71.622-13.878V63.884a6.724,6.724,0,0,0-6.724-6.724H65.724A6.723,6.723,0,0,0,59,63.884v97.931a15.439,15.439,0,0,0,.853,5.051q-.166-.478-.3-.967H78.011a4.756,4.756,0,0,1,4.756,4.756v17.638c-.314-.076-.624-.163-.932-.258a15.445,15.445,0,0,0,4.545.686h57.529A6.723,6.723,0,0,0,150.632,182V154.6a59.542,59.542,0,0,1-26.517,6.279Zm0,0" transform="translate(-59 -57.16)" fill="#ffd866"/>
        <path id="Trazado_103520" data-name="Trazado 103520" d="M66.434,437.883a15.626,15.626,0,0,0,1.094,1.593A15.626,15.626,0,0,1,66.434,437.883Zm0,0" transform="translate(-64.235 -325.284)" fill="#ffd866"/>
        <path id="Trazado_103521" data-name="Trazado 103521" d="M64.738,434.809c.134.262.275.521.425.776Q64.94,435.2,64.738,434.809Zm0,0" transform="translate(-63.041 -323.12)" fill="#ffd866"/>
      </g>
      <path id="Trazado_103522" data-name="Trazado 103522" d="M84.085,429.588a4.756,4.756,0,0,0-4.756-4.756H60.871c.089.326.189.648.3.967l.014.039a15.51,15.51,0,0,0,.788,1.862c.014.028.029.054.043.082q.2.393.425.776l.076.133a15.5,15.5,0,0,0,1.094,1.593c.016.02.029.04.045.06.034.043.07.083.1.125.154.189.311.375.474.558.059.067.117.133.178.2.214.233.433.462.663.683l11.907,11.434c.223.215.455.419.69.619l.2.164q.284.234.579.454c.055.04.11.083.165.124.25.181.5.355.764.52.043.028.087.053.129.08.223.14.451.273.68.4.065.036.129.072.2.106.265.142.533.28.805.406l.017.008c.288.134.581.256.878.372l.157.059q.381.144.769.267l.146.047c.307.095.618.181.932.256V429.588Zm0,0" transform="translate(-42.868 -299.188)" fill="#fab05f"/>
      <path id="Trazado_103523" data-name="Trazado 103523" d="M212.842,261.892a65.843,65.843,0,0,0-18.586-13.878c-23.543-11.682-51.851-7.058-71.621,13.878a6.6,6.6,0,0,0,0,8.821c12.69,13.438,28.9,20.157,45.1,20.157A24.567,24.567,0,1,1,192.306,266.3a24.568,24.568,0,0,1-24.567,24.567,59.546,59.546,0,0,0,26.517-6.279,65.844,65.844,0,0,0,18.586-13.878,6.6,6.6,0,0,0,0-8.821Zm0,0" transform="translate(-85.175 -170.242)" fill="#d6effb"/>
      <path id="Trazado_103524" data-name="Trazado 103524" d="M245.235,266.3a24.567,24.567,0,1,0-24.567,24.567A24.568,24.568,0,0,0,245.235,266.3Zm-24.567,12.026A12.027,12.027,0,1,1,232.694,266.3,12.027,12.027,0,0,1,220.668,278.329Zm0,0" transform="translate(-138.104 -170.242)" fill="#00b7ec"/>
      <path id="Trazado_103525" data-name="Trazado 103525" d="M262.557,296.167a12.026,12.026,0,1,1-12.026-12.026A12.027,12.027,0,0,1,262.557,296.167Zm0,0" transform="translate(-167.966 -200.107)" fill="#d6effb"/>
      <path id="Trazado_103526" data-name="Trazado 103526" d="M129.818,89.619a69.279,69.279,0,0,0-17.78-13.655V23.628a9.692,9.692,0,0,0-9.68-9.681H97.548V12.9A12.919,12.919,0,0,0,84.643,0H12.9A12.919,12.919,0,0,0,0,12.9V121.211a12.918,12.918,0,0,0,12.9,12.9h6.53c.256.277.488.513.717.734l0,0a0,0,0,0,0,0,0l0,0,11.9,11.43c.166.161.342.321.538.494.089.077.181.158.277.239,0,0,0,0,0,0a0,0,0,0,1,0,0c.049.04.1.077.149.116.029.025.055.054.087.08.223.184.453.364.684.537h0c.035.027.072.05.107.074s.058.051.09.074c.3.217.6.426.908.62.03.018.062.032.094.051s.039.03.06.043c.26.162.533.323.811.478.04.022.083.038.124.059s.072.049.111.068c.343.185.657.343.958.483l.01,0,.01.007c.332.152.674.3,1.048.442.036.014.072.024.109.037l.075.033h0q.269.1.537.193c.127.043.253.085.379.125.028.009.055.015.084.023s.055.022.085.031l.015,0c.38.117.739.216,1.1.3l.092.021a18.419,18.419,0,0,0,4.211.49h57.529a9.691,9.691,0,0,0,9.68-9.681V116.157a69.285,69.285,0,0,0,17.78-13.655,9.506,9.506,0,0,0,0-12.884Zm-91.559,54.02-.057-.034c-.024-.015-.049-.027-.073-.04l-.03-.022c-.206-.131-.414-.273-.618-.422-.018-.014-.038-.024-.057-.037s-.049-.043-.074-.061c-.159-.12-.317-.243-.471-.37-.029-.024-.061-.045-.091-.068s-.043-.043-.067-.062c-.084-.072-.162-.139-.233-.2-.12-.106-.229-.206-.327-.3h0L24.255,130.587s0,0,0,0c-.163-.156-.337-.336-.535-.551-.021-.022-.044-.042-.065-.062s-.052-.068-.081-.1q-.2-.222-.382-.451c-.017-.021-.036-.039-.053-.06l-.065-.084s0,0,0,0h0l-.009-.012c-.168-.215-.325-.437-.477-.661H36.46a1.8,1.8,0,0,1,1.8,1.8Zm67.864-1.9a3.769,3.769,0,0,1-3.765,3.765H44.829q-.328,0-.655-.017V130.4a7.722,7.722,0,0,0-7.714-7.714h-16c0-.014,0-.028,0-.042-.01-.121-.017-.241-.024-.362,0-.061-.009-.121-.012-.181-.008-.18-.013-.362-.013-.542V104.695a2.957,2.957,0,0,0-5.915,0v16.865c0,.237.006.473.015.709,0,.075.008.151.012.226.008.162.018.325.03.486.007.087.015.172.023.258.014.155.03.308.049.462.009.085.02.17.031.255.021.162.046.323.072.485.012.073.022.147.035.22q.057.329.125.657c0,.014.006.027.008.04q.075.35.163.7c.016.066.036.132.053.2.031.12.062.241.1.362.01.039.024.079.036.118.032.111.067.221.1.332.028.087.051.171.08.259,0,0,0,0,0,0s0,0,0,0c.021.064.043.127.064.191.007.017.013.036.018.054h0v0c0,.009.013.038.016.045.039.114.082.228.125.341.029.079.055.158.087.236H12.9a7,7,0,0,1-6.989-6.989V12.9A7,7,0,0,1,12.9,5.914H84.643A7,7,0,0,1,91.632,12.9v1.043H24.173a9.692,9.692,0,0,0-9.681,9.68V81.035a2.957,2.957,0,1,0,5.915,0V23.628a3.77,3.77,0,0,1,3.766-3.766h78.185a3.77,3.77,0,0,1,3.765,3.766V73.186q-2.5-1.019-5.06-1.82l-.3-.094c-.274-.083-.546-.166-.821-.246-.24-.07-.483-.139-.724-.207s-.49-.136-.736-.2q-.567-.151-1.134-.29c-.118-.03-.236-.058-.354-.087a61.422,61.422,0,0,0-19.271-1.516l-.308.027q-.523.045-1.048.1c-.2.02-.393.038-.588.06-.214.024-.426.051-.639.076q-.764.094-1.523.2l-.159.023a62.551,62.551,0,0,0-15.536,4.429l-.225.1q-.5.217-.994.441l-.3.141q-1.435.66-2.842,1.4c-.191.1-.381.2-.571.3-.228.121-.454.246-.68.37s-.445.246-.665.371c-.2.116-.409.231-.612.349-.284.165-.566.333-.848.5-.142.085-.284.168-.425.253q-.62.378-1.233.772c-.141.09-.281.183-.421.274q-.44.284-.875.578c-.149.1-.3.2-.444.3q-.452.31-.9.627l-.36.254q-.626.451-1.245.915c-.027.02-.052.04-.079.061q-.579.435-1.148.886l-.35.28q-.445.357-.888.721l-.363.3c-.327.273-.652.551-.974.832-.073.064-.147.125-.221.189q-.591.518-1.174,1.052c-.089.081-.176.163-.265.245q-.447.414-.89.836-.185.177-.369.356-.407.4-.809.8c-.113.113-.226.225-.338.34q-.558.565-1.106,1.143a9.5,9.5,0,0,0,0,12.881c.365.387.734.766,1.106,1.143.112.114.225.228.338.34.268.269.537.534.809.8q.184.178.369.356.442.423.891.838c.088.081.174.164.262.244q.584.535,1.176,1.054c.072.064.144.125.217.187q.485.423.977.834c.119.1.239.2.36.3q.444.367.892.726c.116.091.23.185.347.276q.575.454,1.158.894l.068.052q.62.468,1.25.917c.117.084.235.166.351.25q.454.321.91.634l.434.295q.442.3.887.586c.136.089.273.179.409.267q.617.393,1.24.774c.135.083.271.162.407.243q.431.26.866.513c.2.116.4.229.6.342.226.127.453.254.68.379s.444.244.668.363c.2.106.4.209.595.312q1.39.726,2.807,1.381l.326.15q.489.222.98.436l.243.1a62.457,62.457,0,0,0,15.527,4.424l.159.024q.752.109,1.509.2c.217.027.436.054.654.079l.582.06q.529.054,1.057.1l.3.025a61.418,61.418,0,0,0,19.292-1.52l.318-.076q.6-.149,1.2-.31c.206-.054.409-.112.613-.169q.407-.113.812-.231t.782-.235c.121-.037.243-.076.364-.114q2.54-.8,5.017-1.806v22.81Zm-59.268-36.69c-.254-.2-.506-.4-.758-.6l-.34-.276c-.222-.183-.444-.365-.664-.551-.154-.129-.307-.262-.461-.394-.193-.165-.387-.329-.579-.5q-.48-.423-.953-.855c-.135-.125-.27-.252-.405-.378-.221-.206-.441-.411-.66-.62-.133-.127-.265-.255-.4-.382q-.348-.338-.692-.683c-.111-.111-.223-.222-.333-.334-.337-.342-.674-.687-1.005-1.039a2.779,2.779,0,0,1-.206-.245,3.561,3.561,0,0,1-.676-2.134,3.477,3.477,0,0,1,.881-2.38q.5-.53,1.013-1.047c.1-.1.2-.206.306-.307q.36-.36.722-.713c.125-.12.25-.241.374-.36.229-.22.46-.436.69-.649.127-.118.252-.237.379-.352q.487-.445.98-.878c.176-.155.354-.306.531-.459s.33-.284.5-.424c.214-.18.43-.357.645-.535l.363-.295c.246-.2.492-.4.739-.59l.116-.089a60.493,60.493,0,0,1,14.278-8.309,27.468,27.468,0,0,0,0,34.773,60.524,60.524,0,0,1-14.3-8.326c-.028-.023-.057-.045-.085-.067ZM82.564,117.67A21.609,21.609,0,1,1,104.173,96.06,21.634,21.634,0,0,1,82.564,117.67Zm42.953-19.231a62.958,62.958,0,0,1-17.9,13.334q-1.852.913-3.735,1.681a27.467,27.467,0,0,0,0-34.789c.929.381,1.854.784,2.774,1.216l.039.018c.3.142.6.289.9.437a62.978,62.978,0,0,1,17.923,13.345,3.648,3.648,0,0,1,0,4.757Zm0,0" transform="translate(0 0)"/>
      <path id="Trazado_103527" data-name="Trazado 103527" d="M243.488,274.141a14.984,14.984,0,1,0,14.984,14.984A15,15,0,0,0,243.488,274.141Zm0,24.053a9.069,9.069,0,1,1,9.069-9.069A9.079,9.079,0,0,1,243.488,298.194Zm0,0" transform="translate(-160.924 -193.064)"/>
      <path id="Trazado_103528" data-name="Trazado 103528" d="M111.067,109.915h52.052a2.957,2.957,0,1,0,0-5.915H111.067a2.957,2.957,0,1,0,0,5.915Zm0,0" transform="translate(-76.136 -73.242)"/>
      <path id="Trazado_103529" data-name="Trazado 103529" d="M111.067,164.915H148.7a2.958,2.958,0,0,0,0-5.915H111.067a2.958,2.958,0,0,0,0,5.915Zm0,0" transform="translate(-76.136 -111.976)"/>
      <path id="Trazado_103530" data-name="Trazado 103530" d="M111.066,219.915h16.1a2.957,2.957,0,0,0,0-5.915h-16.1a2.957,2.957,0,0,0,0,5.915Zm0,0" transform="translate(-76.136 -150.71)"/>
      <path id="Trazado_103531" data-name="Trazado 103531" d="M54.686,305.83a2.99,2.99,0,0,0-.271-.509,2.889,2.889,0,0,0-.37-.449,3.034,3.034,0,0,0-.451-.37,3.141,3.141,0,0,0-.508-.269,2.806,2.806,0,0,0-.553-.169,2.982,2.982,0,0,0-2.67.808,2.811,2.811,0,0,0-.367.449,2.991,2.991,0,0,0-.271.509,3.071,3.071,0,0,0-.169.552,2.994,2.994,0,0,0-.059.58,2.94,2.94,0,0,0,.059.576,3.022,3.022,0,0,0,.44,1.065,2.862,2.862,0,0,0,.367.449,3.038,3.038,0,0,0,.449.37,3.175,3.175,0,0,0,.512.269,3.077,3.077,0,0,0,.552.169,2.868,2.868,0,0,0,1.156,0,3.033,3.033,0,0,0,.553-.169,3.286,3.286,0,0,0,.508-.269,3.108,3.108,0,0,0,.451-.37,2.9,2.9,0,0,0,.641-.961,2.972,2.972,0,0,0,.169-.553,2.94,2.94,0,0,0,.059-.576,2.994,2.994,0,0,0-.059-.58,3.072,3.072,0,0,0-.169-.552Zm0,0" transform="translate(-34.505 -214.097)"/>
    </g>
  </g>
</svg>
