<svg xmlns="http://www.w3.org/2000/svg" width="204" height="204" viewBox="0 0 204 204">
  <g id="Grupo_55878" data-name="Grupo 55878" transform="translate(-278 -1900)">
    <circle id="Elipse_4090" data-name="Elipse 4090" cx="102" cy="102" r="102" transform="translate(278 1900)" fill="#f1d54e"/>
    <g id="investigacion" transform="translate(312.358 1909.662)">
      <path id="Trazado_103475" data-name="Trazado 103475" d="M420.2,292.733a4.972,4.972,0,0,1-7.029,0l-32.566-32.566,7.029-7.029L420.2,285.7a4.972,4.972,0,0,1,0,7.029Zm0,0" transform="translate(-254.498 -169.264)" fill="#484b63"/>
      <path id="Trazado_103476" data-name="Trazado 103476" d="M7.5,62.5H111.87V208.949H7.5Zm0,0" transform="translate(-5.015 -41.791)" fill="#d8d5ed"/>
      <path id="Trazado_103477" data-name="Trazado 103477" d="M40,307.727H59.88V361.4H40Zm0,0" transform="translate(-26.746 -205.767)" fill="#ff2c5c"/>
      <path id="Trazado_103478" data-name="Trazado 103478" d="M134,247.727h19.88v73.556H134Zm0,0" transform="translate(-89.601 -165.647)" fill="#ffd659"/>
      <path id="Trazado_103479" data-name="Trazado 103479" d="M230,269.727h19.88v66.267H230Zm0,0" transform="translate(-153.793 -180.357)" fill="#4fc6f5"/>
      <path id="Trazado_103480" data-name="Trazado 103480" d="M70,307.727h9.94V361.4H70Zm0,0" transform="translate(-46.806 -205.767)" fill="#e62753"/>
      <path id="Trazado_103481" data-name="Trazado 103481" d="M164,247.727h9.94v73.556H164Zm0,0" transform="translate(-109.661 -165.647)" fill="#ffbd54"/>
      <path id="Trazado_103482" data-name="Trazado 103482" d="M260,269.727h9.94v66.267H260Zm0,0" transform="translate(-173.853 -180.357)" fill="#3bb3e3"/>
      <path id="Trazado_103483" data-name="Trazado 103483" d="M226.846,22.934a52.681,52.681,0,1,0,0,74.5,52.681,52.681,0,0,0,0-74.5Zm0,0" transform="translate(-91.549 -5.017)" fill="#50536e"/>
      <path id="Trazado_103484" data-name="Trazado 103484" d="M239.917,110.507a42.742,42.742,0,1,1,0-60.446A42.791,42.791,0,0,1,239.917,110.507Zm0,0" transform="translate(-111.649 -25.115)" fill="#b5fcff"/>
      <path id="Trazado_103485" data-name="Trazado 103485" d="M316.107,50.063a42.679,42.679,0,0,0-35.193-12.21,42.72,42.72,0,0,1,0,84.867,42.726,42.726,0,0,0,35.193-72.657Zm0,0" transform="translate(-187.838 -25.118)" fill="#71f6fc"/>
      <path id="Trazado_103486" data-name="Trazado 103486" d="M167.464,114.029l-25.495-25.5a55.185,55.185,0,0,0,2.211-63.66,2.485,2.485,0,1,0-4.152,2.732,50.244,50.244,0,1,1-6.491-7.96l.136.137a2.485,2.485,0,0,0,3.527-3.5l-.142-.144a55.228,55.228,0,0,0-78.02,0q-1.013,1.013-1.962,2.066H2.484A2.486,2.486,0,0,0,0,20.686V31.676a2.485,2.485,0,1,0,4.97,0v-8.5H53.089a54.74,54.74,0,0,0-4.9,8.361H17.228a2.485,2.485,0,0,0,0,4.97h28.9a55.054,55.054,0,0,0-1.784,6.075H17.228a2.485,2.485,0,0,0,0,4.97h26.2a55.53,55.53,0,0,0-.5,6.074h-25.7a2.486,2.486,0,0,0,0,4.971H43.015a55.223,55.223,0,0,0,5.563,20.989H44.4a2.485,2.485,0,0,0-2.485,2.486v73.566a2.485,2.485,0,0,0,2.485,2.486h19.88a2.485,2.485,0,0,0,2.485-2.486V100.6a54.755,54.755,0,0,0,6.958,4.074v50.959a2.486,2.486,0,0,0,2.485,2.486h19.88a2.485,2.485,0,0,0,2.485-2.486V110.294a56.067,56.067,0,0,0,5.8-.357v38.387a2.485,2.485,0,1,0,4.97,0V109.137a54.794,54.794,0,0,0,22.085-10.058l25.489,25.493a7.456,7.456,0,0,0,10.547-10.543ZM61.794,153.15H46.884v-68.6h4.477a55.2,55.2,0,0,0,7.676,9.611q1.343,1.343,2.757,2.572Zm16.9,0V106.814a55.317,55.317,0,0,0,14.91,3.3V153.15Zm85.256-32.093a2.486,2.486,0,0,1-3.517,0L135.259,95.881c.61-.558,1.21-1.127,1.8-1.716s1.16-1.187,1.717-1.8l25.172,25.177a2.488,2.488,0,0,1,0,3.514Zm0,0" transform="translate(0.001 0)"/>
      <path id="Trazado_103487" data-name="Trazado 103487" d="M106.858,237.2a2.485,2.485,0,0,0-2.485,2.485v5.634H4.97V123.094a2.485,2.485,0,1,0-4.97,0V247.8a2.485,2.485,0,0,0,2.485,2.485H106.858a2.484,2.484,0,0,0,2.485-2.485v-8.119A2.484,2.484,0,0,0,106.858,237.2Zm0,0" transform="translate(0 -80.647)"/>
      <path id="Trazado_103488" data-name="Trazado 103488" d="M32.5,302.68v53.685a2.486,2.486,0,0,0,2.485,2.485H54.866a2.486,2.486,0,0,0,2.485-2.485V302.68a2.486,2.486,0,0,0-2.485-2.485H34.985A2.486,2.486,0,0,0,32.5,302.68Zm4.97,2.486H52.381v48.713H37.47Zm0,0" transform="translate(-21.731 -200.73)"/>
      <path id="Trazado_103489" data-name="Trazado 103489" d="M65.567,200.151a2.486,2.486,0,0,0,0-4.971H46.985a2.486,2.486,0,0,0,0,4.971Zm0,0" transform="translate(-29.755 -130.51)"/>
      <path id="Trazado_103490" data-name="Trazado 103490" d="M204.686,29.988a45.161,45.161,0,1,0,31.981,13.229,44.92,44.92,0,0,0-31.981-13.229Zm28.466,73.684A40.316,40.316,0,1,1,244.923,75.2,39.98,39.98,0,0,1,233.152,103.672Zm0,0" transform="translate(-106.637 -20.052)"/>
    </g>
  </g>
</svg>
